<?xml version="1.0" encoding="UTF-8"?>
<svg xmlns="http://www.w3.org/2000/svg" id="a" width="865.76" height="682.89" viewBox="0 0 865.76 682.89">
  <g>
    <rect x="186.18" y="16.96" width="486.9" height="610.64" fill="#fff"></rect>
    <path d="M673.58,628.1H185.68V16.46h487.9V628.1Zm-486.9-1h485.9V17.46H186.68V627.1Z" fill="#002346"></path>
  </g>
  <g>
    <rect x="225.19" y="35.78" width="411.58" height="585.09" fill="#e6e7e8"></rect>
    <path d="M637.27,621.37H224.69V35.28h412.58V621.37Zm-411.58-1h410.58V36.28H225.69V620.37Z" fill="#002346"></path>
  </g>
  <g>
    <rect x="245.36" y="55.96" width="173.51" height="523.22" fill="#fff"></rect>
    <path d="M419.37,579.68H244.86V55.46h174.51V579.68Zm-173.51-1h172.51V56.46H245.86V578.68Z" fill="#002346"></path>
  </g>
  <g>
    <rect x="457.2" y="56.63" width="153.33" height="523.22" fill="#fff"></rect>
    <path d="M611.03,580.35h-154.33V56.13h154.33V580.35Zm-153.33-1h152.33V57.13h-152.33V579.35Z" fill="#002346"></path>
  </g>
  <path d="M249.4,164.07c-.05,0-.11,0-.16-.03-.26-.09-.4-.37-.32-.63l13.44-40.43c.09-.26,.37-.41,.63-.32,.26,.09,.4,.37,.32,.63l-13.44,40.43c-.07,.21-.26,.34-.47,.34Z" fill="#e6e6e6"></path>
  <path d="M250.74,212.49c-.06,0-.11,0-.17-.03-.26-.09-.4-.38-.3-.64l29.56-83.19c.09-.26,.38-.4,.64-.3,.26,.09,.4,.38,.3,.64l-29.56,83.19c-.07,.21-.26,.33-.47,.33Z" fill="#e6e6e6"></path>
  <path d="M248.05,283.78c-.05,0-.1,0-.15-.02-.26-.09-.41-.37-.32-.63l21.01-64.56c.09-.26,.37-.41,.63-.32,.26,.09,.41,.37,.32,.63l-21.01,64.56c-.07,.21-.26,.35-.48,.35Z" fill="#e6e6e6"></path>
  <path d="M278.3,191.44c-.05,0-.11,0-.16-.03-.26-.09-.4-.37-.32-.63l19.62-58.98c.09-.26,.36-.41,.63-.32,.26,.09,.4,.37,.32,.63l-19.62,58.98c-.07,.21-.26,.34-.47,.34Z" fill="#e6e6e6"></path>
  <path d="M245.36,347.89c-.05,0-.11,0-.16-.03-.26-.09-.4-.37-.32-.63l22.44-67.21c.09-.26,.37-.4,.63-.32,.26,.09,.4,.37,.32,.63l-22.44,67.21c-.07,.21-.27,.34-.47,.34Z" fill="#e6e6e6"></path>
  <path d="M276.45,254.77c-.05,0-.11,0-.16-.03-.26-.09-.4-.37-.32-.63l14.12-42.28c.09-.26,.37-.4,.63-.32,.26,.09,.4,.37,.32,.63l-14.12,42.28c-.07,.21-.27,.34-.47,.34Z" fill="#e6e6e6"></path>
  <path d="M297.92,190.45c-.05,0-.11,0-.16-.03-.26-.09-.4-.37-.32-.63l19.04-57.01c.09-.26,.37-.4,.63-.32,.26,.09,.4,.37,.32,.63l-19.04,57.01c-.07,.21-.27,.34-.47,.34Z" fill="#e6e6e6"></path>
  <path d="M245.36,412.22c-.05,0-.11,0-.16-.03-.26-.09-.4-.37-.31-.63l9.92-29.55c.09-.26,.37-.4,.63-.31,.26,.09,.4,.37,.31,.63l-9.92,29.55c-.07,.21-.26,.34-.47,.34Z" fill="#e6e6e6"></path>
  <path d="M261.53,364.05c-.05,0-.11,0-.16-.03-.26-.09-.4-.37-.31-.63l20.15-59.99c.09-.26,.37-.4,.63-.31,.26,.09,.4,.37,.31,.63l-20.15,59.99c-.07,.21-.26,.34-.47,.34Z" fill="#e6e6e6"></path>
  <path d="M288.49,283.78c-.05,0-.11,0-.16-.03-.26-.09-.4-.37-.31-.63l14.38-42.85c.09-.26,.37-.41,.63-.31,.26,.09,.4,.37,.31,.63l-14.38,42.85c-.07,.21-.26,.34-.47,.34Z" fill="#e6e6e6"></path>
  <path d="M308.55,223.99c-.05,0-.11,0-.16-.03-.26-.09-.4-.37-.31-.63l14.3-42.59c.09-.26,.37-.4,.63-.31,.26,.09,.4,.37,.31,.63l-14.3,42.59c-.07,.21-.26,.34-.47,.34Z" fill="#e6e6e6"></path>
  <path d="M328.67,164.07c-.05,0-.11,0-.16-.03-.26-.09-.4-.37-.31-.63l10.84-32.28c.09-.26,.37-.4,.63-.31,.26,.09,.4,.37,.31,.63l-10.84,32.28c-.07,.21-.26,.34-.47,.34Z" fill="#e6e6e6"></path>
  <path d="M245.36,568.62c-.05,0-.11,0-.16-.03-.26-.09-.4-.37-.31-.63l13.19-39.28c.09-.26,.37-.41,.63-.31,.26,.09,.4,.37,.31,.63l-13.19,39.28c-.07,.21-.26,.34-.47,.34Z" fill="#e6e6e6"></path>
  <path d="M266.02,507.09c-.05,0-.11,0-.16-.03-.26-.09-.4-.37-.31-.63l18.98-56.53c.09-.26,.37-.41,.63-.31,.26,.09,.4,.37,.31,.63l-18.98,56.53c-.07,.21-.26,.34-.47,.34Z" fill="#e6e6e6"></path>
  <path d="M292.61,427.91c-.05,0-.11,0-.16-.03-.26-.09-.4-.37-.31-.63l22.12-65.9c.09-.26,.37-.41,.63-.31,.26,.09,.4,.37,.31,.63l-22.12,65.9c-.07,.21-.26,.34-.47,.34Z" fill="#e6e6e6"></path>
  <path d="M320.23,345.65c-.05,0-.11,0-.16-.03-.26-.09-.4-.37-.31-.63l21.82-64.97c.09-.26,.37-.41,.63-.31,.26,.09,.4,.37,.31,.63l-21.82,64.97c-.07,.21-.26,.34-.47,.34Z" fill="#e6e6e6"></path>
  <path d="M348.32,262.01c-.05,0-.11,0-.16-.03-.26-.09-.4-.37-.31-.63l19.34-57.57c.09-.26,.37-.4,.63-.31,.26,.09,.4,.37,.31,.63l-19.34,57.57c-.07,.21-.26,.34-.47,.34Z" fill="#e6e6e6"></path>
  <path d="M372.02,191.44c-.05,0-.11,0-.16-.03-.26-.09-.4-.37-.31-.63l9.28-27.66c.09-.26,.37-.41,.63-.31,.26,.09,.4,.37,.31,.63l-9.28,27.66c-.07,.21-.26,.34-.47,.34Z" fill="#e6e6e6"></path>
  <path d="M384.22,214.42c-.05,0-.11,0-.16-.03-.26-.09-.4-.37-.31-.63l15.21-45.29c.09-.26,.37-.41,.63-.31,.26,.09,.4,.37,.31,.63l-15.21,45.29c-.07,.21-.26,.34-.47,.34Z" fill="#e6e6e6"></path>
  <path d="M362.56,278.92c-.05,0-.11,0-.16-.03-.26-.09-.4-.37-.31-.63l18.47-55.02c.09-.26,.37-.4,.63-.31,.26,.09,.4,.37,.31,.63l-18.47,55.02c-.07,.21-.26,.34-.47,.34Z" fill="#e6e6e6"></path>
  <path d="M347.21,324.61c-.05,0-.11,0-.16-.03-.26-.09-.4-.37-.31-.63l10.77-32.09c.09-.26,.37-.41,.63-.31,.26,.09,.4,.37,.31,.63l-10.77,32.09c-.07,.21-.26,.34-.47,.34Z" fill="#e6e6e6"></path>
  <path d="M327.7,382.67c-.05,0-.11,0-.16-.03-.26-.09-.4-.37-.31-.63l14.88-44.29c.09-.26,.37-.41,.63-.31,.26,.09,.4,.37,.31,.63l-14.88,44.29c-.07,.21-.26,.34-.47,.34Z" fill="#e6e6e6"></path>
  <path d="M300.65,463.23c-.05,0-.11,0-.16-.03-.26-.09-.4-.37-.31-.63l19.58-58.32c.09-.26,.37-.41,.63-.31,.26,.09,.4,.37,.31,.63l-19.58,58.32c-.07,.21-.26,.34-.47,.34Z" fill="#e6e6e6"></path>
  <path d="M273.23,544.83c-.05,0-.11,0-.16-.03-.26-.09-.4-.37-.31-.63l20.81-61.94c.09-.26,.37-.4,.63-.31,.26,.09,.4,.37,.31,.63l-20.81,61.94c-.07,.21-.26,.34-.47,.34Z" fill="#e6e6e6"></path>
  <path d="M261.53,579.68c-.05,0-.11,0-.16-.03-.26-.09-.4-.37-.31-.63l7.9-23.52c.09-.26,.37-.4,.63-.31,.26,.09,.4,.37,.31,.63l-7.9,23.52c-.07,.21-.26,.34-.47,.34Z" fill="#e6e6e6"></path>
  <path d="M281.68,579.68c-.05,0-.1,0-.16-.03-.26-.09-.4-.37-.32-.63l14.8-44.81c.09-.26,.36-.41,.63-.32,.26,.09,.4,.37,.32,.63l-14.8,44.81c-.07,.21-.26,.34-.47,.34Z" fill="#e6e6e6"></path>
  <path d="M306.77,503.69c-.05,0-.1,0-.16-.03-.26-.09-.41-.37-.32-.63l15.86-48.06c.09-.26,.37-.41,.63-.32,.26,.09,.41,.37,.32,.63l-15.86,48.06c-.07,.21-.26,.34-.47,.34Z" fill="#e6e6e6"></path>
  <path d="M329.89,433.65c-.05,0-.1,0-.16-.03-.26-.09-.4-.37-.32-.63l15.96-48.33c.09-.26,.37-.41,.63-.32,.26,.09,.4,.37,.32,.63l-15.96,48.33c-.07,.21-.26,.34-.47,.34Z" fill="#e6e6e6"></path>
  <path d="M351.51,368.15c-.05,0-.1,0-.16-.03-.26-.09-.4-.37-.32-.63l25.02-75.8c.09-.26,.37-.41,.63-.32,.26,.09,.4,.37,.32,.63l-25.02,75.8c-.07,.21-.26,.34-.47,.34Z" fill="#e6e6e6"></path>
  <path d="M381.9,276.13c-.05,0-.1,0-.16-.03-.26-.09-.41-.37-.32-.63l18.78-56.91c.09-.26,.37-.41,.63-.32,.26,.09,.41,.37,.32,.63l-18.78,56.91c-.07,.21-.26,.34-.47,.34Z" fill="#e6e6e6"></path>
  <path d="M406.14,202.7c-.05,0-.1,0-.16-.03-.26-.09-.41-.37-.32-.63l10.3-31.2c.09-.26,.37-.41,.63-.32,.26,.09,.41,.37,.32,.63l-10.3,31.2c-.07,.21-.26,.34-.47,.34Z" fill="#e6e6e6"></path>
  <path d="M411.29,242.04c-.05,0-.11,0-.16-.03-.26-.09-.4-.37-.32-.63l7.58-22.82c.09-.26,.37-.41,.63-.32,.26,.09,.4,.37,.32,.63l-7.58,22.82c-.07,.21-.26,.34-.47,.34Z" fill="#e6e6e6"></path>
  <path d="M387.67,313.17c-.05,0-.11,0-.16-.03-.26-.09-.4-.37-.32-.63l17.36-52.26c.09-.26,.37-.41,.63-.32,.26,.09,.4,.37,.32,.63l-17.36,52.26c-.07,.21-.26,.34-.47,.34Z" fill="#e6e6e6"></path>
  <path d="M370.56,364.69c-.05,0-.11,0-.16-.03-.26-.09-.4-.37-.32-.63l8.73-26.31c.09-.26,.37-.41,.63-.32,.26,.09,.4,.37,.32,.63l-8.73,26.31c-.07,.21-.26,.34-.47,.34Z" fill="#e6e6e6"></path>
  <path d="M344.55,443.02c-.05,0-.11,0-.16-.03-.26-.09-.4-.37-.32-.63l13.43-40.47c.09-.26,.37-.41,.63-.32,.26,.09,.4,.37,.32,.63l-13.43,40.47c-.07,.21-.26,.34-.47,.34Z" fill="#e6e6e6"></path>
  <path d="M324.4,503.69c-.05,0-.11,0-.16-.03-.26-.09-.4-.37-.32-.63l11.8-35.52c.09-.26,.37-.41,.63-.32,.26,.09,.4,.37,.32,.63l-11.8,35.52c-.07,.21-.26,.34-.47,.34Z" fill="#e6e6e6"></path>
  <path d="M299.16,579.68c-.05,0-.11,0-.16-.03-.26-.09-.4-.37-.32-.63l15.55-46.83c.09-.26,.37-.41,.63-.32,.26,.09,.4,.37,.32,.63l-15.55,46.83c-.07,.21-.26,.34-.47,.34Z" fill="#e6e6e6"></path>
  <path d="M464.6,193.66c-.05,0-.11,0-.16-.03-.26-.09-.4-.37-.32-.63l8.2-24.52c.09-.26,.38-.4,.63-.32,.26,.09,.4,.37,.32,.63l-8.2,24.52c-.07,.21-.27,.34-.47,.34Z" fill="#e6e6e6"></path>
  <path d="M459.22,267.63c-.05,0-.11,0-.16-.03-.26-.09-.4-.37-.31-.63l9.77-29.05c.09-.26,.37-.4,.63-.31,.26,.09,.4,.37,.31,.63l-9.77,29.05c-.07,.21-.26,.34-.47,.34Z" fill="#e6e6e6"></path>
  <path d="M479.4,207.68c-.05,0-.11,0-.16-.03-.26-.09-.4-.37-.31-.63l15.2-45.18c.09-.26,.37-.4,.63-.31,.26,.09,.4,.37,.31,.63l-15.2,45.18c-.07,.21-.26,.34-.47,.34Z" fill="#e6e6e6"></path>
  <path d="M479.4,262.26c-.05,0-.1,0-.16-.02-.26-.09-.41-.37-.32-.63l31.28-95.65c.09-.26,.37-.4,.63-.32,.26,.09,.41,.37,.32,.63l-31.28,95.65c-.07,.21-.26,.34-.48,.34Z" fill="#e6e6e6"></path>
  <path d="M468.63,345.65c-.05,0-.11,0-.16-.03-.26-.09-.4-.37-.31-.63l10.74-31.38c.09-.26,.37-.4,.63-.31,.26,.09,.4,.37,.31,.63l-10.74,31.38c-.07,.21-.26,.34-.47,.34Z" fill="#e6e6e6"></path>
  <path d="M490.86,280.69c-.05,0-.11,0-.16-.03-.26-.09-.4-.37-.31-.63l16.24-47.47c.09-.26,.37-.4,.63-.31,.26,.09,.4,.37,.31,.63l-16.24,47.47c-.07,.21-.26,.34-.47,.34Z" fill="#e6e6e6"></path>
  <path d="M512.14,218.48c-.05,0-.11,0-.16-.03-.26-.09-.4-.37-.31-.63l12.29-35.96c.09-.26,.37-.4,.63-.31,.26,.09,.4,.37,.31,.63l-12.29,35.96c-.07,.21-.26,.34-.47,.34Z" fill="#e6e6e6"></path>
  <path d="M487.47,450.56c-.05,0-.11,0-.16-.03-.26-.09-.4-.37-.31-.63l38.56-112.18c.09-.26,.37-.4,.63-.31,.26,.09,.4,.37,.31,.63l-38.56,112.18c-.07,.21-.26,.34-.47,.34Z" fill="#e6e6e6"></path>
  <path d="M532.95,318.24c-.05,0-.11,0-.16-.03-.26-.09-.4-.37-.31-.63l17.39-50.6c.09-.26,.37-.4,.63-.31,.26,.09,.4,.37,.31,.63l-17.39,50.6c-.07,.21-.26,.34-.47,.34Z" fill="#e6e6e6"></path>
  <path d="M559.51,240.94c-.05,0-.11,0-.16-.03-.26-.09-.4-.37-.31-.64l12.55-36.5c.09-.26,.37-.4,.64-.31,.26,.09,.4,.37,.31,.64l-12.55,36.5c-.07,.21-.26,.34-.47,.34Z" fill="#e6e6e6"></path>
  <path d="M504.95,469.39c-.05,0-.1,0-.16-.03-.26-.09-.41-.37-.32-.63l43.83-133.56c.09-.26,.37-.41,.63-.32,.26,.09,.41,.37,.32,.63l-43.83,133.56c-.07,.21-.26,.34-.47,.34Z" fill="#e6e6e6"></path>
  <path d="M554.39,318.75c-.05,0-.1,0-.16-.03-.26-.09-.41-.37-.32-.63l6.35-19.32c.08-.26,.37-.41,.63-.32,.26,.09,.41,.37,.32,.63l-6.35,19.32c-.07,.21-.26,.34-.47,.34Z" fill="#e6e6e6"></path>
  <path d="M566.75,281.08c-.05,0-.1,0-.16-.03-.26-.09-.41-.37-.32-.63l12.12-36.93c.08-.26,.37-.41,.63-.32,.26,.09,.41,.37,.32,.63l-12.12,36.93c-.07,.21-.26,.34-.47,.34Z" fill="#e6e6e6"></path>
  <path d="M583.32,230.63c-.05,0-.1,0-.16-.03-.26-.09-.41-.37-.32-.63l7.63-23.25c.08-.26,.37-.41,.63-.32,.26,.09,.41,.37,.32,.63l-7.63,23.25c-.07,.21-.26,.34-.47,.34Z" fill="#e6e6e6"></path>
  <path d="M511.68,480.15c-.05,0-.11,0-.16-.03-.26-.09-.4-.37-.31-.63l48.14-141.77c.09-.26,.38-.4,.63-.31,.26,.09,.4,.37,.31,.63l-48.14,141.77c-.07,.21-.27,.34-.47,.34Z" fill="#e6e6e6"></path>
  <path d="M565.79,320.83c-.05,0-.11,0-.16-.03-.26-.09-.4-.37-.31-.63l13.63-40.14c.09-.26,.37-.4,.63-.31,.26,.09,.4,.37,.31,.63l-13.63,40.14c-.07,.21-.27,.34-.47,.34Z" fill="#e6e6e6"></path>
  <path d="M583.32,269.22c-.05,0-.11,0-.16-.03-.26-.09-.4-.37-.31-.63l10.4-30.63c.09-.26,.37-.4,.63-.31,.26,.09,.4,.37,.31,.63l-10.4,30.63c-.07,.21-.27,.34-.47,.34Z" fill="#e6e6e6"></path>
  <path d="M596.99,228.96c-.05,0-.11,0-.16-.03-.26-.09-.4-.37-.31-.63l6.96-20.51c.09-.26,.37-.4,.63-.31,.26,.09,.4,.37,.31,.63l-6.96,20.51c-.07,.21-.27,.34-.47,.34Z" fill="#e6e6e6"></path>
  <g>
    <path d="M447.12,499.82c10.08,31.62,16.92,64.3,16.92,64.3l-30.35-44.13c3.81-6.11,6.33-12.92,7.42-20.04l6.01-.14Z" fill="#f3f0ea"></path>
    <path d="M465.03,566.46l-31.94-46.45,.17-.28c3.79-6.08,6.26-12.76,7.35-19.85l.06-.42,6.81-.15,.11,.36c9.97,31.28,16.86,64.03,16.93,64.35l.51,2.44Zm-30.75-46.48l28.73,41.77c-1.79-8.17-7.94-35.27-16.26-61.42l-5.22,.12c-1.12,6.96-3.56,13.53-7.25,19.53Z" fill="#002346"></path>
  </g>
  <g>
    <path d="M537.23,514.62s-24.78-27.42-39.29-60.8c0,0-24.89-55.98-60.72-54.05,0,0-28.98-2.15-37.83,47.62l-7.47,18.84s33.63,37.66,55.16,33.62c0,0,19.5,100.2,49.09,113.66h74s4.65-1.91,4.68-4.65l-13.42-75.38-24.19-18.85Z" fill="#f3f0ea"></path>
    <path d="M570.26,614l-74.31-.04c-28.75-13.07-47.61-105.13-49.28-113.54-.98,.16-1.99,.23-3.01,.23-21.42,0-50.81-32.63-52.12-34.09l-.21-.23,7.57-19.08c8.83-49.58,38.06-48,38.35-47.98,35.67-1.93,60.89,53.78,61.14,54.34,14.09,32.42,38.2,59.55,39.18,60.64l24.3,18.94,.03,.19,13.42,75.38c-.02,3.13-4.78,5.12-4.98,5.2l-.09,.04Zm-73.99-1h73.79c1.27-.54,4.26-2.23,4.28-4.15l-13.38-75.1-24.1-18.79c-.25-.27-25-27.86-39.38-60.94-.24-.54-24.33-53.79-58.47-53.79-.59,0-1.17,.02-1.77,.05-.37-.02-28.71-1.5-37.37,47.21l-.03,.1-7.36,18.54c2.86,3.13,34.34,37.02,54.48,33.23l.49-.09,.1,.49c.19,1,19.74,99.89,48.71,113.26Z" fill="#002346"></path>
  </g>
  <g>
    <path d="M414.77,593.51c-1.82,12.77-15.34,11.23-15.34,11.23-40.97,2.7-84.14,0-84.14,0-.03-2.7,.99-5.31,2.84-7.28,2.03-2.08,4.69-3.43,7.57-3.82,28.2-4.47,45.32-18.48,45.32-18.48,10-8.11,10.28-2.55,10.28-2.55l30.85,3.89c2.62,7.46,3.19,12.97,2.62,17.02Z" fill="#293838"></path>
    <path d="M359.48,606.43c-24.73,0-43.93-1.18-44.22-1.19l-.46-.03v-.46c-.03-2.84,1.02-5.55,2.97-7.63,2.1-2.16,4.89-3.57,7.86-3.98,27.72-4.4,44.9-18.24,45.07-18.38,4.54-3.69,7.8-5.13,9.68-4.29,.89,.4,1.22,1.18,1.35,1.67l30.79,3.88,.1,.29c2.4,6.83,3.29,12.64,2.64,17.26h0c-1.87,13.1-15.75,11.67-15.89,11.66-13.56,.9-27.43,1.2-39.89,1.2Zm-43.68-2.16c4.83,.28,45.42,2.49,83.6-.03,.62,.06,13.14,1.33,14.87-10.8,.62-4.39-.22-9.94-2.5-16.5l-30.96-3.91-.02-.42s-.07-.9-.84-1.24c-.85-.37-3.11-.33-8.63,4.16-.17,.14-17.55,14.15-45.56,18.59-2.76,.38-5.35,1.69-7.29,3.68-1.65,1.77-2.6,4.05-2.69,6.46Z" fill="#002346"></path>
  </g>
  <g>
    <path d="M410.8,611.47h-89.64c-8.94,0-5.86-6.76-5.86-6.76,0,0,43.17,2.7,84.14,0,0,0,13.51,1.54,15.34-11.23h.2c5.51,18.36-4.18,17.98-4.18,17.98Z" fill="#002346"></path>
    <path d="M410.85,611.97s-.04,0-.06,0h-89.63c-3.11,0-5.2-.8-6.21-2.38-1.4-2.18-.16-4.97-.11-5.09l.14-.31,.34,.02c.43,.03,43.61,2.67,84.07,0,.62,.06,13.14,1.33,14.87-10.8l.06-.43h1.01l.11,.36c2.33,7.74,2.3,13.23-.07,16.29-1.73,2.23-4.09,2.34-4.53,2.34Zm-95.21-6.74c-.25,.71-.71,2.47,.16,3.82,.82,1.27,2.62,1.91,5.37,1.91h89.66c.1,0,2.24,.05,3.79-1.97,1.39-1.81,2.52-5.66,.35-13.78-2.76,11.31-15.43,10.01-15.57,9.99-38.46,2.54-79.45,.28-83.75,.02Z" fill="#002346"></path>
  </g>
  <g>
    <path d="M532.53,613.48l-92.19-.88h0l-67.15,.85c-17.48-8.74,0-23.54,0-23.54,1.85,.09,153.91,4.51,153.91,4.51,8.62,4.54,5.43,19.05,5.43,19.05Z" fill="#e6e7e8"></path>
    <path d="M532.93,613.99l-92.6-.88-67.26,.85-.11-.05c-4.85-2.42-7.53-5.55-7.98-9.3-.9-7.54,7.52-14.76,7.88-15.07l.15-.13h.2c1.82,.1,152.38,4.48,153.9,4.52h.12s.1,.06,.1,.06c8.86,4.66,5.82,18.99,5.69,19.6l-.09,.4Zm-92.6-1.88l91.79,.88c.42-2.32,2.14-14.1-5.15-18.05-7.6-.22-147.26-4.28-153.6-4.5-1.1,.99-8.17,7.57-7.39,14.06,.4,3.37,2.87,6.21,7.33,8.47l67.03-.85Z" fill="#002346"></path>
  </g>
  <path d="M317.96,579.68c-.05,0-.11,0-.16-.03-.26-.09-.4-.37-.32-.63l8.01-24.09c.09-.26,.37-.41,.63-.32,.26,.09,.4,.37,.32,.63l-8.01,24.09c-.07,.21-.26,.34-.47,.34Z" fill="#e6e6e6"></path>
  <path d="M333.52,532.83c-.05,0-.11,0-.16-.03-.26-.09-.4-.37-.32-.63l17.93-53.94c.09-.26,.36-.41,.63-.32,.26,.09,.4,.37,.32,.63l-17.93,53.94c-.07,.21-.26,.34-.47,.34Z" fill="#e6e6e6"></path>
  <path d="M357.98,459.27c-.05,0-.11,0-.16-.03-.26-.09-.4-.37-.32-.63l19.54-58.75c.09-.26,.37-.41,.63-.32,.26,.09,.4,.37,.32,.63l-19.54,58.75c-.07,.21-.26,.34-.47,.34Z" fill="#e6e6e6"></path>
  <path d="M383.45,382.67c-.05,0-.11,0-.16-.03-.26-.09-.4-.37-.32-.63l12.93-38.9c.09-.26,.37-.41,.63-.32,.26,.09,.4,.37,.32,.63l-12.93,38.9c-.07,.21-.26,.34-.47,.34Z" fill="#e6e6e6"></path>
  <path d="M405.03,317.76c-.05,0-.11,0-.16-.03-.26-.09-.4-.37-.31-.63l12.5-36.68c.09-.26,.37-.4,.63-.31,.26,.09,.4,.37,.31,.63l-12.5,36.68c-.07,.21-.27,.34-.47,.34Z" fill="#e6e6e6"></path>
  <path d="M335.28,579.68c-.05,0-.11,0-.16-.03-.26-.09-.4-.37-.31-.63l28.89-85.76c.09-.26,.37-.4,.63-.31,.26,.09,.4,.37,.31,.63l-28.89,85.76c-.07,.21-.26,.34-.47,.34Z" fill="#e6e6e6"></path>
  <path d="M373.32,466.76c-.05,0-.11,0-.16-.03-.26-.09-.4-.37-.31-.63l10.13-30.06c.09-.26,.37-.4,.63-.31,.26,.09,.4,.37,.31,.63l-10.13,30.06c-.07,.21-.26,.34-.47,.34Z" fill="#e6e6e6"></path>
  <path d="M389.92,417.49c-.05,0-.11,0-.16-.03-.26-.09-.4-.37-.31-.63l12.88-38.22c.09-.26,.38-.4,.63-.31,.26,.09,.4,.37,.31,.63l-12.88,38.22c-.07,.21-.26,.34-.47,.34Z" fill="#e6e6e6"></path>
  <path d="M408.2,363.22c-.05,0-.11,0-.16-.03-.26-.09-.4-.37-.31-.63l10.66-31.66c.09-.26,.37-.4,.63-.31,.26,.09,.4,.37,.31,.63l-10.66,31.66c-.07,.21-.26,.34-.47,.34Z" fill="#e6e6e6"></path>
  <path d="M356.06,579.68c-.05,0-.11,0-.16-.03-.26-.09-.4-.37-.32-.63l21.01-63.02c.09-.26,.37-.4,.63-.32,.26,.09,.4,.37,.32,.63l-21.01,63.02c-.07,.21-.27,.34-.47,.34Z" fill="#e6e6e6"></path>
  <path d="M533.2,469.39c-.05,0-.11,0-.16-.03-.26-.09-.4-.37-.32-.63l35.85-107.99c.09-.26,.37-.41,.63-.32,.26,.09,.4,.37,.32,.63l-35.85,107.99c-.07,.21-.26,.34-.47,.34Z" fill="#e6e6e6"></path>
  <path d="M578.95,331.56c-.05,0-.11,0-.16-.03-.26-.09-.4-.37-.32-.63l30.92-93.1c.09-.26,.37-.41,.63-.32,.26,.09,.4,.37,.32,.63l-30.92,93.1c-.07,.21-.26,.34-.47,.34Z" fill="#e6e6e6"></path>
  <g>
    <rect x="594.59" y="338.1" width="39.18" height="66.21" rx="19.59" ry="19.59" fill="#f2b3c1"></rect>
    <path d="M614.18,404.81c-11.08,0-20.09-9.01-20.09-20.09v-27.02c0-11.08,9.01-20.09,20.09-20.09s20.09,9.01,20.09,20.09v27.02c0,11.08-9.01,20.09-20.09,20.09Zm0-66.21c-10.53,0-19.09,8.56-19.09,19.09v27.02c0,10.53,8.56,19.09,19.09,19.09s19.09-8.57,19.09-19.09v-27.02c0-10.53-8.57-19.09-19.09-19.09Z" fill="#002346"></path>
  </g>
  <g>
    <path d="M665.51,357.23h0c-.15,.86-.31,1.76-.5,2.7l-.27,18.84s-20.17,6.76-37.51,14.8c0,0-6.84-9.16-8.73-17.35l-9.99-8.17c-4.16-5.59-6.82-12.16-7.72-19.08h-.02s0,0,0,0c-1.4,.86-2.57,2.05-3.42,3.46l-2.77,4.61c-1.81-4.45,1.29-9.3,3.94-13.3,0,0-5.4,.58-2.45-5.09l8.31-8.35s-4.05-4.05,10.81-9.46c0,0,22.86-9.46,39.01,4.05,.04,.09,15.04,8.84,11.3,32.36Z" fill="#002346"></path>
    <path d="M627.07,394.19l-.24-.33c-.28-.38-6.83-9.22-8.78-17.37l-9.94-8.16c-4.05-5.44-6.71-11.83-7.71-18.54-1.05,.77-1.95,1.75-2.62,2.87l-3.28,5.47-.38-.93c-1.82-4.49,1.05-9.3,3.48-13-.79-.07-1.88-.34-2.48-1.23-.71-1.04-.53-2.58,.51-4.59l.09-.12,8.01-8.05c-.23-.4-.48-1.09-.28-2,.59-2.65,4.48-5.29,11.57-7.87,.21-.09,23.3-9.41,39.5,4.14,2.6,1.75,14.91,11.24,11.47,32.83h0c-.15,.88-.31,1.77-.5,2.72l-.27,19.1-.34,.11c-.2,.07-20.35,6.84-37.46,14.78l-.37,.17Zm-18.19-26.5l10.07,8.24,.04,.17c1.65,7.13,7.19,15.14,8.4,16.84,15.86-7.32,34.16-13.62,36.85-14.53l.27-18.48c.2-1.03,.36-1.92,.51-2.78,3.34-21.01-8.56-30.17-10.97-31.79-.06-.04-.11-.07-.15-.11h0c-15.72-13.16-38.27-4.07-38.5-3.97-8.82,3.21-10.65,5.84-10.95,7.13-.22,.95,.28,1.5,.31,1.52l.33,.35-.34,.35-8.26,8.3c-.82,1.6-1.01,2.81-.54,3.5,.55,.81,2.01,.85,2.53,.8l1.05-.11-.58,.88c-2.2,3.32-5.14,7.76-4.22,11.82l2.2-3.66c.88-1.47,2.12-2.73,3.58-3.63l.22-.14,.5,.22,.05,.29c.88,6.8,3.51,13.3,7.59,18.8Z" fill="#002346"></path>
  </g>
  <g>
    <path d="M441.08,499.96s-1.99,11.97-7.39,20.04l-21.51,56.49-30.85-3.89,9.13-32.02c.31-1.07-.03-2.23-.86-2.98h0c-.97-.87-2.39-1.01-3.49-.32-5.56,3.45-23.43,14.3-50.85,28.56,0,0-19.98,10.65-25.36,17.38-8.58-6.08-16.27-13.33-22.86-21.52l65.17-56.11,39.74-39.37s24.27,28.51,49.13,33.75Z" fill="#f2b3c1"></path>
    <path d="M310,583.9l-.38-.27c-8.62-6.11-16.34-13.38-22.96-21.62l-.3-.38,65.53-56.43,40.1-39.73,.35,.41c.24,.28,24.45,28.44,48.85,33.59l.47,.1-.08,.47c-.02,.12-2.06,12.12-7.44,20.19l-21.63,56.81-31.82-4.01,9.29-32.58c.25-.88-.03-1.85-.71-2.47-.81-.73-1.97-.84-2.9-.26-4.92,3.05-23.12,14.14-50.88,28.58-.19,.1-19.95,10.67-25.2,17.25l-.29,.37Zm-22.26-22.14c6.39,7.89,13.82,14.88,22.08,20.79,5.76-6.73,24.41-16.71,25.21-17.14,27.74-14.43,45.91-25.5,50.82-28.55,1.3-.81,2.95-.66,4.09,.37,.96,.87,1.36,2.24,1,3.49l-8.97,31.46,29.88,3.77,21.42-56.23c4.68-6.99,6.79-17.09,7.23-19.37-22.95-5.11-45.5-29.92-48.58-33.41l-39.36,39-64.83,55.82Z" fill="#002346"></path>
  </g>
  <g>
    <path d="M204.18,593.23s-3.88,4.76,7.22,6.76l30.78,11.46s9.24,4.42,13.98,.23c1.28-1.21,2.94-1.95,4.7-2.09,2.61-.12,6.15,.35,8.39,3.24,.8,1.06,1.76,1.97,2.86,2.7,3.96,2.51,12.86,6.76,18.98-1.43l1.35-5.4-13.44-5.4-32.09-3.38-36.48-10.07-6.26,3.39Z" fill="#002346"></path>
    <path d="M282.1,619.36c-4.18,0-8.12-2.07-10.25-3.42-1.16-.77-2.17-1.72-3-2.82-2.11-2.72-5.5-3.15-7.97-3.04-1.62,.13-3.19,.83-4.38,1.96-4.95,4.37-14.16,.04-14.54-.14l-30.74-11.44c-4.54-.81-7.26-2.24-8-4.24-.65-1.77,.52-3.24,.57-3.3l.15-.12,6.43-3.49,.19,.05,36.48,10.07,32.14,3.4,13.85,5.57-1.54,6.01c-2.8,3.74-6.17,4.97-9.4,4.97Zm-20.52-10.3c2.62,0,5.9,.66,8.07,3.45,.77,1.02,1.69,1.89,2.75,2.59,4.37,2.77,12.54,6.29,18.25-1.24l1.22-4.88-12.98-5.22-32.02-3.37-36.37-10.03-5.98,3.24c-.18,.26-.75,1.2-.35,2.26,.42,1.12,2.03,2.66,7.32,3.61l30.87,11.48c.13,.06,9.04,4.25,13.48,.32,1.35-1.27,3.12-2.07,4.99-2.22,.25-.01,.5-.02,.76-.02Z" fill="#002346"></path>
  </g>
  <g>
    <path d="M417.47,390.35s-18.8,5.9-20.13,23.39c0,0-10.76,39.67-.08,27.42,.03-.03,.08-.03,.08,.01,.02,.7,.24,4.67,2.71,4.12,.96-.21,1.7-.99,2.02-1.92,.47-1.36,.91-3.97,.34-8.73,0,0,1.35,13.44,4.51,6.57,.77-1.71,1.23-3.54,1.35-5.4l.95-12.08s1.73-10.01,7.7-12.04c-.01,.03-2.16-13.81,.54-21.35Z" fill="#f2b3c1"></path>
    <path d="M399.61,445.85c-.48,0-.92-.15-1.29-.44-.9-.7-1.25-2.11-1.39-3.15-1.52,1.56-2.68,2.06-3.58,1.57-3.9-2.08,2.24-25.54,3.51-30.23,1.33-17.53,20.27-23.67,20.47-23.73l.96-.3-.34,.95c-2.39,6.66-.88,18.58-.57,20.74l1.69,.25-1.97,.67c-5.62,1.91-7.35,11.55-7.37,11.65l-.94,12.03c-.13,1.93-.6,3.81-1.39,5.57-.48,1.05-1.24,2.43-2.36,2.24-.84-.14-1.47-1.29-1.94-2.75-.12,1.17-.32,2.02-.53,2.63-.4,1.15-1.31,2-2.39,2.24-.19,.04-.37,.06-.55,.06Zm-2.51-5.27l.7,.2,.04,.37c.03,1.24,.34,2.88,1.09,3.47,.28,.21,.61,.28,1.01,.19,.74-.16,1.38-.77,1.66-1.59,.42-1.23,.82-3.55,.41-7.69-.04-.32-.07-.6-.09-.82l.99-.11c.03,.26,.06,.52,.09,.77,.43,3.55,1.36,7.17,2.19,7.31,.14,.02,.65-.28,1.28-1.67,.74-1.65,1.18-3.41,1.31-5.23l.95-12.08c.08-.46,1.78-9.97,7.66-12.33-.75-3.05-1.41-14.08,.3-20.2-3.77,1.47-17.73,7.9-18.85,22.61-2.88,10.64-6.49,27.86-4.02,29.18,.2,.11,.99,.26,3.07-2.12l.22-.25Z" fill="#002346"></path>
  </g>
  <g>
    <rect x="116.25" y="618.21" width="638.89" height="36.32" fill="#fff"></rect>
    <path d="M755.65,655.03H115.75v-37.32H755.65v37.32Zm-638.9-1H754.65v-35.32H116.75v35.32Z" fill="#002346"></path>
  </g>
  <g>
    <ellipse cx="615.07" cy="369.25" rx="6.55" ry="9.52" fill="#f2b3c1"></ellipse>
    <path d="M615.07,379.27c-3.89,0-7.05-4.5-7.05-10.02s3.16-10.02,7.05-10.02,7.05,4.5,7.05,10.02-3.16,10.02-7.05,10.02Zm0-19.05c-3.33,0-6.05,4.05-6.05,9.02s2.71,9.02,6.05,9.02,6.05-4.05,6.05-9.02-2.71-9.02-6.05-9.02Z" fill="#002346"></path>
  </g>
  <g>
    <path d="M527.97,503.33s.23-14.16,16.85-20.94c0,0,22.97-9.19,19.82,8.11-6.84,10.31-16.31,18.61-27.42,24.06l-9.26-11.23Z" fill="#293838"></path>
    <path d="M537.09,515.19l-9.62-11.68v-.18c0-.15,.43-14.57,17.16-21.4,.53-.21,12.85-5.06,18.3-.6,2.24,1.83,2.98,4.95,2.2,9.26l-.08,.19c-6.89,10.37-16.44,18.75-27.61,24.24l-.36,.17Zm-8.61-12.02l8.88,10.77c10.83-5.39,20.1-13.56,26.81-23.63,.69-3.87,.06-6.63-1.87-8.21-5-4.09-17.17,.71-17.3,.75-15.1,6.16-16.42,18.67-16.53,20.31Z" fill="#002346"></path>
  </g>
  <g>
    <path d="M623.69,396.21c-4.58-1.99-20.75-7.57-54.18-5.4,0,0-24.93,3-59.53-.51,0,0-31.65-4.09-49.34-5.64-3.62-.32-6.99-1.65-10.24-3.26-1.38-.68-4.63-.49-11.92,2.68-3.35,.8-6.84,.8-10.19,0,0,0-4.86-9.46-11.85,8.74,0,0-1.59,18.92,2.43,23.93l82.06,19.79s2.59,4.42,47.02,7.58l36.36,3.18s-8.11,45.74-47.08,67.25c0,0-1.35,68.6,43.05,98.19,0,0,2.7,2.7,6.76-2.7,0,0,4.05-4.05,14.8-5.4,0,0,6.76-1.35,8.11-10.09,0,0,41.7-39.67,52.45-77.34,0,0,10.94-18.82,21.62-67.25,0,0,12.24,4.93,10.92-41.89-.09-3.5-.11-7,.08-10.5,.53-9.55-.34-32.36-21.86-21.62l-8.35,2.7c-5.59,1.63-11.59,3.62-17.88,6.05-7.22,2.8-13.77,5.78-19.63,8.74l-1.26,1.95c-.45,.84-1.46,1.2-2.34,.82Z" fill="#293838"></path>
    <path d="M582.14,613.92c-1.37,0-2.18-.79-2.21-.82-44.04-29.34-43.21-97.87-43.2-98.55v-.29s.26-.14,.26-.14c36.04-19.89,45.64-61.17,46.72-66.36l-35.81-3.13c-39.78-2.83-46.23-6.64-47.24-7.63l-82.07-19.8-.11-.13c-4.11-5.11-2.61-23.5-2.54-24.28l.03-.14c2.87-7.48,5.8-11.36,8.71-11.52,2.15-.12,3.54,1.85,3.94,2.51,3.2,.73,6.56,.71,9.75-.05,6.19-2.69,10.34-3.59,12.26-2.64,2.67,1.32,6.23,2.88,10.06,3.21,17.5,1.53,49.04,5.6,49.36,5.64,34.14,3.47,59.16,.54,59.41,.51,33.81-2.19,50.22,3.61,54.44,5.44,.64,.27,1.37,.01,1.7-.6l1.35-2.1,.12-.06c6.44-3.25,13.06-6.2,19.68-8.76,5.82-2.25,11.84-4.29,17.92-6.07l8.34-2.7c6.63-3.32,11.98-3.73,15.82-1.21,6.7,4.4,7.07,16.51,6.69,23.33-.17,3.05-.19,6.38-.08,10.46,.83,29.43-3.66,38.86-7.57,41.58-1.47,1.02-2.77,1.03-3.47,.93-10.25,46.3-20.87,65.66-21.53,66.84-10.41,36.34-49.93,74.96-52.45,77.39-1.45,8.83-8.41,10.33-8.48,10.34-10.44,1.32-14.5,5.23-14.54,5.27-1.64,2.2-3.34,3.4-4.99,3.51-.09,0-.17,0-.26,0Zm-44.41-99.07c-.02,4.86,.62,69.35,42.83,97.48,.1,.08,.72,.67,1.79,.58,1.33-.11,2.81-1.2,4.28-3.17,.22-.22,4.35-4.24,15.13-5.6,.23-.05,6.4-1.4,7.68-9.67l.03-.17,.12-.12c.42-.4,41.72-40.01,52.32-77.12l.05-.11c.11-.19,11.03-19.34,21.56-67.1l.13-.58,.55,.22c.05,.02,1.41,.52,3.13-.71,3.02-2.14,7.96-10.28,7.1-40.7-.11-4.11-.08-7.46,.08-10.54,.29-5.32,.27-18.15-6.24-22.44-3.52-2.32-8.54-1.88-14.9,1.29l-8.42,2.73c-6.06,1.77-12.06,3.8-17.85,6.04-6.55,2.54-13.1,5.45-19.47,8.66l-1.18,1.83c-.55,1.04-1.83,1.49-2.95,1.01h0c-4.17-1.81-20.38-7.54-53.95-5.37-.22,.03-25.35,2.96-59.62-.52-.33-.04-31.86-4.11-49.33-5.64-4-.35-7.67-1.95-10.42-3.31-.92-.46-3.65-.72-11.5,2.69-3.49,.84-7.09,.84-10.5,.03l-.22-.05-.11-.2s-1.25-2.29-3.12-2.18c-1.7,.1-4.43,2.05-7.8,10.81-.1,1.25-1.38,18.53,2.23,23.37l82.09,19.8,.11,.18c.12,.14,3.98,4.3,46.62,7.33l36.91,3.22-.1,.54c-.08,.46-8.56,46.02-47.07,67.46Z" fill="#002346"></path>
  </g>
  <g>
    <path d="M535.89,498.48s-3.57,4.82,1.58,11.16c0,0-2.5,13.41,5.57,18.64,2.12,1.38,4.97,0,5.17-2.52,.02-.28,.03-.57,.03-.89,0-.99,1.2-1.49,1.88-.76l6.67,7.17c1.14,1.22,3.02,1.39,4.36,.39h0c1.45-1.07,1.75-3.11,.68-4.55-.1-.13-.21-.26-.33-.38l-7.99-8c-.58-.56-.58-1.49-.02-2.06,.12-.12,.25-.21,.4-.29h0c.53-.26,1.16-.18,1.61,.2l15.92,13.58c1.15,.99,2.86,.95,3.96-.09h0c1.19-1.12,1.26-2.99,.14-4.18-.01-.02-.03-.03-.04-.05l-3.42-3.51s12.16,2.03,2.8-9.61l-10.24-12.97s2.22-.19,5.57,2.59c0,0,3.77,3.77,6.76-1.74,.27-.51,.24-1.12-.08-1.59-1.69-2.41-7.67-9.8-16.71-8.67,0,0-2.7-6.53-12.16-2.59-.04,.05-9.4,4-12.09,10.73Z" fill="#f2b3c1"></path>
    <path d="M559.2,532.84c-1.02,0-2.03-.41-2.77-1.21l-6.67-7.17c-.25-.27-.54-.18-.63-.15-.18,.07-.38,.26-.38,.57,0,.33-.01,.64-.04,.93-.1,1.35-.89,2.51-2.11,3.12-1.24,.61-2.67,.53-3.82-.22-7.77-5.04-6.14-17.05-5.83-18.92-4.82-6.09-1.89-10.94-1.49-11.53,2.33-5.76,9.28-9.52,12.17-10.87l.18-.09c3.53-1.47,6.57-1.69,9.03-.68,2.16,.89,3.23,2.49,3.62,3.2,9.14-.91,15.18,6.58,16.83,8.92,.43,.64,.47,1.45,.11,2.12-1.04,1.93-2.32,3.01-3.78,3.23-2.07,.29-3.7-1.3-3.77-1.37-1.75-1.45-3.15-2.04-4.06-2.29l9.48,12c3.26,4.05,4.33,6.91,3.25,8.74-.98,1.68-3.54,1.87-5.14,1.8l2.47,2.54c.68,.73,1.01,1.61,.98,2.53-.03,.92-.42,1.78-1.09,2.41-1.29,1.22-3.28,1.26-4.63,.11l-15.92-13.58c-.3-.26-.71-.31-1.06-.14-.1,.05-.19,.11-.26,.19-.37,.38-.36,.99,.01,1.36l7.99,8c.13,.13,.26,.28,.38,.43,.6,.81,.84,1.8,.7,2.79-.15,.99-.67,1.87-1.48,2.47-.68,.5-1.47,.75-2.26,.75Zm-9.85-9.57c.42,0,.83,.18,1.14,.51l6.67,7.17c.97,1.04,2.56,1.18,3.7,.33,.59-.44,.98-1.08,1.09-1.81,.11-.73-.07-1.46-.51-2.05-.08-.11-.18-.22-.28-.32l-7.99-8c-.37-.36-.58-.85-.58-1.38,0-.52,.19-1.02,.56-1.39,.16-.16,.34-.29,.53-.39,.71-.35,1.56-.25,2.16,.27l15.91,13.58c.96,.83,2.37,.79,3.29-.08,.48-.45,.76-1.06,.78-1.72,.02-.66-.21-1.28-.66-1.76l-4.52-4.64,1.5,.25c1.22,.2,4.58,.38,5.5-1.19,.57-.97,.47-3.08-3.17-7.61l-10.82-13.7,.92-.08c.1,0,2.46-.17,5.93,2.71,.05,.04,1.39,1.35,2.96,1.11,1.13-.17,2.15-1.08,3.03-2.71,.18-.34,.16-.75-.06-1.08-1.58-2.25-7.45-9.54-16.24-8.46l-.38,.05-.15-.35c-.11-.25-2.65-6-11.49-2.33-.04,.02-.09,.05-.16,.08-2.79,1.31-9.5,4.93-11.68,10.38l-.06,.11c-.14,.19-3.26,4.61,1.56,10.55l.15,.18-.04,.23c-.02,.13-2.34,13.14,5.35,18.13,.86,.56,1.92,.62,2.83,.16,.9-.45,1.48-1.3,1.56-2.3,.02-.26,.03-.55,.03-.85,0-.67,.4-1.25,1.02-1.49,.19-.08,.39-.11,.58-.11Z" fill="#002346"></path>
  </g>
  <path d="M572.06,522.9c-.12,0-.24-.04-.34-.13l-10.78-9.8c-.21-.19-.22-.5-.03-.71,.19-.21,.5-.22,.71-.03l10.78,9.8c.21,.19,.22,.5,.03,.71-.1,.11-.23,.16-.37,.16Z" fill="#002346"></path>
  <g>
    <path d="M207.28,588.28l-3.11,4.89c-.06,.09-.04,.22,.06,.28,.02,.02,.05,.03,.08,.03,3.15,.5,29.83,4.88,43.74,11.2,0,0,5.82,2.39,20.4,1.19,0,0,19.94,1.5,22.65,8.23,1.81-1.94,3.19-4.24,4.05-6.76l1.35-9.46-22.88-2.7-32.28-4.05-22.86-5.4c-3.9-.19-7.77,.69-11.2,2.55Z" fill="#fff"></path>
    <path d="M290.93,615.02l-.29-.73c-2.56-6.37-22.02-7.9-22.22-7.92-14.46,1.2-20.31-1.13-20.56-1.23-13.93-6.33-40.63-10.69-43.63-11.17l-.11-.02-.17-.09c-.32-.21-.41-.65-.2-.97l3.17-5,.11-.06c3.51-1.91,7.47-2.81,11.46-2.61l22.95,5.42,32.23,4.04,23.38,2.76-1.42,9.96c-.91,2.69-2.31,5.02-4.18,7.03l-.54,.58Zm-22.52-9.64c.87,.06,19.05,1.5,22.81,7.84,1.53-1.78,2.7-3.8,3.46-6.04l1.26-8.86-22.37-2.64-32.28-4.05-22.91-5.42c-3.67-.17-7.41,.67-10.73,2.45l-2.8,4.4c4.57,.74,29.92,5.03,43.42,11.17,.04,.02,5.91,2.32,20.16,1.15Zm-63.81-11.94h0s0,0,0,0Z" fill="#002346"></path>
  </g>
  <g>
    <path d="M256.11,577.84s-21.35,4.05-39.59,5.4c0,0-8.82,0-9.24,5.12,0,0,11.17-1.08,36.73,8.34,0,0,10.81,4.05,21.52,2.7,0,0,26.9,0,29.59,8.11,0,0,6.76-4.05,9.46-16.15v-5.13l-37.66-4.27-10.81-4.12Z" fill="#293838"></path>
    <path d="M294.85,608.26l-.2-.59c-2.54-7.67-28.85-7.76-29.12-7.76-10.65,1.35-21.59-2.69-21.7-2.73-25.1-9.25-36.39-8.32-36.5-8.31l-.59,.06,.05-.59c.45-5.52,9.36-5.58,9.74-5.58,17.97-1.33,39.28-5.36,39.5-5.4l.14-.03,10.88,4.15,38.04,4.31v5.69c-2.73,12.16-9.42,16.3-9.7,16.47l-.54,.32Zm-29.32-9.35c1.74,0,26.06,.19,29.82,7.83,1.56-1.19,6.53-5.62,8.73-15.43v-4.63l-37.33-4.25-10.68-4.07c-1.88,.35-22.21,4.1-39.51,5.39-.12,0-7.7,.06-8.69,4.09,2.72-.08,14,.18,36.31,8.4,.11,.04,10.82,4,21.29,2.67h.06Z" fill="#002346"></path>
  </g>
  <g>
    <path d="M287.06,561.69s-20.17,14.8-30.94,16.15l7.61,10.5s3.31,7.82,16.01,0c0,0,14.05-7.81,24.81,2.95l5.4-8.11s-13.47-9.38-22.89-21.48Z" fill="#fff"></path>
    <path d="M269.96,592.32c-.94,0-1.83-.13-2.65-.4-2.76-.88-3.84-2.95-4.02-3.33l-8.07-11.14,.84-.11c10.52-1.32,30.51-15.91,30.71-16.05l.39-.29,.3,.38c9.26,11.9,22.65,21.29,22.78,21.38l.4,.28-6.01,9.02-.43-.43c-10.37-10.37-24.07-2.94-24.21-2.86-3.83,2.36-7.19,3.54-10.02,3.54Zm-12.96-14.11l7.18,9.93c.04,.08,.91,2.04,3.45,2.84,2.97,.94,7.06-.12,11.84-3.07,.16-.09,14.15-7.67,24.99,2.59l4.8-7.2c-2.29-1.65-13.87-10.23-22.3-20.92-2.87,2.07-19.77,14.03-29.96,15.83Z" fill="#002346"></path>
  </g>
  <g>
    <path d="M527.04,592.97c.18,4.66-1.6,9.17-4.9,12.46-3.4,3.42-8.3,8.55-12.85,14.04-4.07,4.88-7.38,10.35-9.81,16.21-1.22,2.91-2.22,5.91-3,8.97-2.51,9.82-8.11,24.19-18.74,20.75,0,0-10.12-3.26-10.04-18.35,.16-8.8,3.62-17.23,9.67-23.62,.05-.06,.1-.12,.16-.18,7.55-8.17,17.26-14.03,28.01-16.9,0,0,8.12-2.34,11.15-6.09,.1-.13-.03-.31-.18-.25-2.91,1.21-17.4,6.58-41.25,4.01h-12.43l-44.01-1.08,9.58-49.17s63.06-36,84.57,1.66c.04,0,13.21,19.25,14.07,37.54Z" fill="#293838"></path>
    <path d="M480.86,666.43c-1.07,0-2.16-.18-3.28-.54-.1-.03-10.47-3.55-10.39-18.83,.17-8.96,3.65-17.46,9.81-23.96,.03-.04,.11-.13,.2-.21,7.58-8.21,17.35-14.11,28.21-17.01,.06-.02,6.41-1.87,9.82-4.83-4.87,1.76-18.82,5.76-40.02,3.47h-12.38s-44.61-1.09-44.61-1.09l.11-.58,9.62-49.39,.2-.11c.16-.09,16.04-9.08,34.35-13.34,24.39-5.67,41.98-.42,50.9,15.19l-.06,.03c1.32,1.47,5.05,8.25,6.8,11.91,3.12,6.51,6.94,16.28,7.39,25.82h0c.18,4.79-1.66,9.46-5.05,12.84-2.68,2.69-7.9,8.08-12.82,14-4.04,4.84-7.31,10.26-9.73,16.09-1.2,2.88-2.21,5.88-2.98,8.9-1.91,7.48-5.47,17.11-11.52,20.45-1.45,.8-2.98,1.2-4.57,1.2Zm35.71-66.92c.2,0,.4,.09,.53,.26,.18,.24,.18,.58-.01,.81-3.1,3.83-11.07,6.16-11.4,6.26-10.68,2.85-20.28,8.65-27.78,16.76-.07,.07-.1,.1-.12,.13-6.03,6.37-9.42,14.64-9.58,23.34-.08,14.51,9.29,17.73,9.69,17.86,2.52,.81,4.89,.62,7.06-.58,5.74-3.17,9.17-12.53,11.04-19.82,.78-3.08,1.8-6.12,3.02-9.04,2.46-5.92,5.78-11.42,9.89-16.34,4.94-5.95,10.19-11.37,12.88-14.07,3.2-3.18,4.93-7.58,4.76-12.08-.79-16.96-12.47-35.03-13.83-37.06h-.03l-.14-.25c-20.42-35.75-79.78-3.75-83.69-1.59l-9.42,48.36,43.42,1.07h12.42c23.88,2.58,38.39-2.85,41.06-3.97,.08-.03,.17-.05,.25-.05Z" fill="#002346"></path>
  </g>
  <g>
    <path d="M437.3,604.98c-6.2,.42-19.46,.93-18.43-2.5,0,0,11.16-2.18,17.69-8.03,1.55,1.91,2.78,4.07,3.63,6.38,.52,1.7-.44,3.5-2.14,4.01-.24,.07-.5,.12-.75,.13Z" fill="#fff"></path>
    <path d="M429.22,605.79c-4.99,0-9.37-.46-10.55-1.94-.35-.44-.45-.96-.28-1.51l.09-.29,.3-.06c.11-.02,11.1-2.22,17.45-7.91l.39-.35,.33,.41c1.59,1.96,2.84,4.15,3.71,6.52,.3,.98,.2,1.98-.27,2.86-.47,.88-1.25,1.52-2.2,1.81-.28,.09-.57,.14-.87,.16-2.61,.18-5.44,.31-8.1,.31Zm-9.91-2.89c.01,.12,.06,.22,.14,.33,1.17,1.46,7.83,1.93,17.81,1.26h0c.22-.01,.43-.05,.63-.11,.7-.21,1.27-.68,1.61-1.32,.34-.64,.41-1.38,.2-2.07-.77-2.08-1.85-4.03-3.22-5.8-6,5.11-15.24,7.31-17.17,7.72Z" fill="#002346"></path>
  </g>
  <g>
    <path d="M460.98,580.46c2.38,4.05,5.2,11.12-.34,15.35,5.45-3.46,10.57-7.41,15.31-11.8,.77-.73,1.36-1.62,1.73-2.61,.69-1.89,.72-4.51-4.73-4.13h-10.15c-1.17,0-2.12,.96-2.11,2.13,0,.37,.1,.74,.29,1.06Z" fill="#fff"></path>
    <path d="M460.91,596.23l-.57-.82c5.31-4.05,2.41-10.95,.21-14.7h0c-.23-.4-.35-.85-.36-1.31,0-.7,.27-1.36,.76-1.86,.49-.5,1.15-.77,1.85-.78h10.15c2.51-.17,4.21,.28,5.02,1.35,.63,.84,.7,2.03,.18,3.45-.4,1.06-1.04,2.03-1.86,2.8-4.75,4.4-9.92,8.39-15.38,11.86Zm.5-16.02c1.92,3.28,4.32,8.81,1.98,13.19,4.31-2.95,8.41-6.22,12.22-9.75,.7-.67,1.26-1.5,1.6-2.42,.27-.75,.49-1.8-.04-2.5-.58-.78-2.03-1.11-4.19-.96h-10.18c-.43,0-.84,.17-1.14,.48s-.47,.72-.47,1.15c0,.28,.08,.56,.22,.81h0Z" fill="#002346"></path>
  </g>
  <g>
    <path d="M499.48,635.25c-1.22,2.91-2.22,5.91-3,8.97-2.51,9.82-8.11,24.19-18.74,20.75,0,0-10.12-3.24-10.04-18.34,.16-8.8,3.61-17.23,9.67-23.62,8.43,1.77,16.13,6.03,22.11,12.23Z" fill="#fff"></path>
    <path d="M480.87,665.99c-1.07,0-2.16-.18-3.28-.54-.1-.03-10.47-3.53-10.39-18.81,.17-8.96,3.65-17.47,9.81-23.96l.19-.2,.27,.06c8.56,1.79,16.3,6.07,22.36,12.37l.23,.24-.13,.3c-1.2,2.88-2.2,5.87-2.98,8.9-1.91,7.48-5.47,17.11-11.52,20.45-1.45,.8-2.98,1.2-4.57,1.2Zm-3.32-42.42c-5.87,6.29-9.19,14.47-9.35,23.08-.08,14.55,9.59,17.82,9.69,17.85,2.51,.81,4.89,.62,7.07-.58,5.74-3.17,9.17-12.53,11.04-19.82,.76-2.97,1.73-5.91,2.9-8.74-5.83-5.96-13.2-10.03-21.35-11.79Z" fill="#002346"></path>
  </g>
  <g>
    <path d="M378.52,573.8s-13.51,9.46-5.4,16.21c0,0,24.21,22.86,55.14,9.46,0,0,23.74-9.81,13.89-24.42l-14.2-22.38c-.35-.56-1.09-.74-1.66-.38-.16,.1-.29,.23-.38,.38l-7.08,11.44s-8.11-2.95-20.88,0c0,0-11.21-10.55-19.88-12.78-1.26-.33-2.55,.43-2.88,1.69-.05,.2-.08,.4-.08,.6,.03,4.92,.39,15.15,3.41,20.16Z" fill="#293838"></path>
    <path d="M408.59,604.15c-20.92,0-35.63-13.6-35.82-13.77-1.9-1.58-2.83-3.47-2.74-5.6,.21-5.1,6.24-9.93,7.83-11.12-2.61-4.77-3.21-13.47-3.25-20.02,0-.24,.03-.49,.09-.73,.19-.74,.66-1.36,1.32-1.75,.66-.39,1.43-.49,2.17-.3,8.16,2.1,18.32,11.26,19.9,12.72,11.22-2.53,18.74-.6,20.51-.05l6.87-11.11c.14-.22,.33-.41,.54-.54,.8-.5,1.85-.25,2.35,.54l14.2,22.37c2.37,3.51,3.04,7.08,1.99,10.58-2.69,8.93-15.56,14.34-16.11,14.57-7.01,3.04-13.71,4.22-19.86,4.22Zm-31.11-52.38c-.33,0-.65,.09-.94,.26-.43,.25-.73,.66-.86,1.14-.04,.16-.06,.32-.06,.47,.04,6.61,.64,15.43,3.33,19.9l.24,.4-.38,.27c-.08,.05-7.56,5.36-7.78,10.61-.08,1.8,.73,3.42,2.41,4.81,.2,.19,14.64,13.52,35.15,13.52,6.04,0,12.59-1.15,19.47-4.13,.14-.06,12.99-5.46,15.54-13.94,.96-3.2,.34-6.48-1.87-9.74l-14.21-22.39c-.21-.33-.64-.43-.97-.23-.09,.06-.17,.13-.23,.23l-7.29,11.79-.38-.14c-.08-.03-8.14-2.86-20.59,.02l-.26,.06-.19-.18c-.11-.1-11.22-10.49-19.66-12.66-.16-.04-.31-.06-.47-.06Z" fill="#002346"></path>
  </g>
  <g>
    <path d="M245.36,55.92v57.8s36.32,28.28,102.22,16.21c0,0,8.11,37.74,71.29,41.06V55.92H245.36Z" fill="#90daf4"></path>
    <path d="M419.37,171.52l-.53-.03c-32.79-1.73-50.55-12.87-59.66-21.92-8.78-8.72-11.42-17.01-11.97-19.06-11.32,2.04-21.79,2.89-31.35,2.89-45.4,0-70.5-19.05-70.8-19.29l-.19-.15V55.42h174.51v116.11Zm-71.4-42.17l.1,.47c.02,.09,2.13,9.45,11.87,19.09,8.95,8.86,26.34,19.76,58.43,21.55V56.42H245.86v57.05c2.95,2.16,39.16,27.41,101.63,15.97l.48-.09Z" fill="#002346"></path>
  </g>
  <g>
    <path d="M456.54,55.92v115.04s29.59-3.39,49.76-14.16c0,0,13.44,49.76,103.57,51.12V55.92h-153.33Z" fill="#90daf4"></path>
    <path d="M610.37,208.42h-.51c-46.71-.71-72.49-14.63-85.9-26.19-12.78-11.02-17.07-22.07-17.96-24.71-20.01,10.47-49.12,13.9-49.41,13.93l-.56,.06V55.42h154.33V208.42Zm-103.75-52.36l.16,.61c.03,.12,3.52,12.49,17.89,24.85,13.23,11.39,38.66,25.1,84.69,25.88V56.42h-152.33v113.97c4.16-.54,30.68-4.24,49.03-14.04l.55-.29Z" fill="#002346"></path>
  </g>
  <g>
    <circle cx="455.19" cy="602.05" r="6.73" fill="#fff"></circle>
    <path d="M455.18,609.28c-3.99,0-7.23-3.24-7.23-7.23s3.24-7.23,7.23-7.23,7.23,3.24,7.23,7.23-3.24,7.23-7.23,7.23Zm0-13.46c-3.43,0-6.23,2.79-6.23,6.23s2.79,6.23,6.23,6.23,6.23-2.79,6.23-6.23-2.79-6.23-6.23-6.23Z" fill="#002346"></path>
  </g>
  <path d="M648.48,423.65c-.22,0-.43-.15-.48-.38-5.42-21.15-24.25-26.52-24.44-26.58-.27-.07-.42-.35-.35-.61,.07-.26,.35-.42,.61-.35,.2,.05,19.57,5.56,25.14,27.29,.07,.27-.09,.54-.36,.61-.04,.01-.08,.02-.12,.02Z" fill="#002346"></path>
  <path d="M631.76,400.52c-.2,0-.39-.12-.47-.32-.1-.26,.03-.55,.29-.64l42.55-15.98c.25-.1,.55,.03,.64,.29,.1,.26-.03,.55-.29,.64l-42.55,15.98c-.06,.02-.12,.03-.18,.03Z" fill="#002346"></path>
  <path d="M684.01,450.45c-.28,0-.5-.22-.5-.5v-36.93c0-.28,.22-.5,.5-.5s.5,.22,.5,.5v36.93c0,.28-.22,.5-.5,.5Z" fill="#002346"></path>
  <path d="M618.06,451.62c-19.79,0-33.71-3.79-33.89-3.83-.27-.07-.42-.35-.35-.62,.07-.27,.35-.43,.62-.35,.23,.06,23.28,6.33,52.27,2.63,.27-.04,.52,.16,.56,.43,.04,.27-.16,.52-.43,.56-6.63,.84-12.96,1.17-18.78,1.17Z" fill="#002346"></path>
  <path d="M610.44,595.5c-.08,0-.17-.02-.25-.07-29.91-17.29-43.07-53.62-43.2-53.99-.09-.26,.04-.55,.3-.64,.26-.09,.55,.04,.64,.3,.13,.36,13.17,36.36,42.76,53.46,.24,.14,.32,.44,.18,.68-.09,.16-.26,.25-.43,.25Z" fill="#002346"></path>
  <path d="M575.41,558.41c-.11,0-.21-.03-.3-.1-.22-.17-.26-.48-.1-.7l13.68-18.07c1.17-1.55,1.22-3.68,.11-5.29-9.22-13.42-4.51-30.03-2.06-36.54,.73-1.93,.04-4.1-1.67-5.29l-14.81-10.23c-.23-.16-.28-.47-.13-.7,.16-.23,.47-.29,.7-.13l14.81,10.23c2.09,1.44,2.93,4.1,2.04,6.46-2.4,6.37-7,22.6,1.95,35.63,1.35,1.97,1.3,4.57-.14,6.46l-13.68,18.07c-.1,.13-.25,.2-.4,.2Z" fill="#002346"></path>
  <path d="M508.14,539.02c-.14,0-.28-.06-.38-.17-20.56-24.02-43.54-99.06-45.57-105.78-6.33,1.66-11.74-3.78-13.71-6.09-.36,2.5-1.33,4.38-2.88,5.6-1.9,1.48-4.14,1.54-5.23,1.47,3.09,32.67-6.93,59-7.04,59.27-.1,.26-.39,.38-.65,.29-.26-.1-.39-.39-.29-.65,.1-.26,10.17-26.71,6.91-59.42-.02-.16,.04-.31,.16-.42s.28-.15,.43-.12c.03,0,2.89,.51,5.09-1.21,1.56-1.22,2.44-3.28,2.61-6.1,.01-.21,.16-.39,.36-.45,.2-.05,.42,.02,.54,.19,.06,.09,6.54,8.88,13.86,6.56,.13-.04,.27-.03,.39,.04,.12,.06,.21,.17,.25,.3,.24,.81,24.24,81.02,45.52,105.89,.18,.21,.16,.53-.05,.71-.09,.08-.21,.12-.33,.12Z" fill="#002346"></path>
  <path d="M544.09,576.22c-.22,0-.42-.14-.48-.36-7.17-24.31-15.59-31.5-21.39-33.26-6.14-1.86-10.72,1.88-10.76,1.92-.21,.18-.53,.15-.7-.06-.18-.21-.15-.53,.06-.7,.2-.17,5.02-4.12,11.68-2.12,8.78,2.65,16.21,14.06,22.08,33.94,.08,.26-.07,.54-.34,.62-.05,.01-.09,.02-.14,.02Z" fill="#002346"></path>
  <path d="M446.5,500.24s-.02,0-.03,0c-.28-.01-.49-.25-.47-.53l3.38-63.84c.01-.28,.27-.5,.53-.47,.28,.01,.49,.25,.47,.53l-3.38,63.84c-.01,.27-.23,.47-.5,.47Z" fill="#002346"></path>
  <path d="M448.13,469.39c-.15,0-.3-.07-.4-.2-.17-.22-.12-.53,.1-.7,12.59-9.44,10.88-25.75,10.86-25.92-.03-.27,.17-.52,.44-.55,.26-.03,.52,.17,.55,.44,.02,.17,1.8,17.04-11.25,26.83-.09,.07-.2,.1-.3,.1Z" fill="#002346"></path>
  <path d="M397.34,441.68s-.04,0-.06,0c-.27-.03-.47-.28-.44-.55l2.24-18.89c.03-.28,.3-.47,.55-.44,.27,.03,.47,.28,.44,.55l-2.24,18.89c-.03,.25-.25,.44-.5,.44Z" fill="#002346"></path>
  <path d="M402.42,435.15s-.04,0-.06,0c-.27-.03-.47-.28-.44-.56l1.49-12.37c.03-.27,.29-.47,.56-.44,.27,.03,.47,.28,.44,.56l-1.49,12.37c-.03,.25-.25,.44-.5,.44Z" fill="#002346"></path>
  <path d="M389.61,538.1c-.07,0-.14-.01-.21-.05-.25-.12-.36-.41-.24-.66l20.5-44.18c.12-.25,.41-.36,.66-.24,.25,.12,.36,.41,.24,.66l-20.5,44.18c-.08,.18-.26,.29-.45,.29Z" fill="#002346"></path>
  <path d="M462.75,593.99c-.07,0-.15-.02-.22-.05-.25-.12-.35-.42-.23-.67,4.42-9.01-9.36-22.03-9.5-22.16-.2-.19-.21-.5-.02-.71s.51-.21,.71-.02c.59,.55,14.46,13.66,9.72,23.33-.09,.18-.26,.28-.45,.28Z" fill="#002346"></path>
  <path d="M470.98,588.84c-.13,0-.26-.05-.36-.15-.19-.2-.19-.51,.01-.71,.5-.48,12.29-11.85,19.06-14.56,.26-.1,.55,.02,.65,.28,.1,.26-.02,.55-.28,.65-6.59,2.64-18.62,14.23-18.74,14.35-.1,.09-.22,.14-.35,.14Z" fill="#002346"></path>
  <g>
    <g>
      <path d="M180.6,545.73s15.97-13.43,34.09-.36c0,0,11.38,8.85,3.79,16.44,0,0-8.01,5.48-19.81-3.79,0,0-12.54-10.24-18.07-12.29Z" fill="#7cd295"></path>
      <path d="M212.07,563.81c-3.51,0-8.21-1.17-13.67-5.46-.13-.11-12.56-10.22-17.96-12.22l-.69-.25,.56-.47c.16-.14,16.43-13.49,34.61-.38,.27,.21,6.21,4.89,6.56,10.51,.15,2.41-.76,4.62-2.72,6.58-.08,.06-2.56,1.7-6.71,1.7Zm-30.63-18.19c5.79,2.54,17,11.67,17.49,12.07,11.42,8.97,19.22,3.83,19.3,3.77,1.71-1.72,2.54-3.71,2.41-5.87-.32-5.23-6.16-9.84-6.22-9.88-15.73-11.34-29.98-2.27-32.98-.09Z" fill="#002346"></path>
    </g>
    <g>
      <path d="M162.95,539.17s17.6-24.57,7.06-48.59c0,0-11.8-23.6,2.11-30.77,0,0,17.28-7.17,26.55,18.12,0,0,12.43,36.91-35.72,61.24Z" fill="#7cd295"></path>
      <path d="M161.59,540.33l1.01-1.41c.17-.24,17.33-24.65,7.02-48.18-.11-.22-11.82-24.04,2.3-31.32,.28-.12,6.12-2.47,12.92,.51,6.08,2.66,10.86,8.67,14.23,17.85,.03,.1,3.12,9.5,.21,21.74-2.68,11.28-11.12,27.38-36.14,40.02l-1.54,.78Zm16.12-81.03c-3.2,0-5.4,.89-5.43,.9-13.34,6.88-2.01,29.95-1.89,30.19,9.11,20.77-2.74,42.15-6.2,47.67,23.6-12.36,31.66-27.8,34.26-38.68,2.87-12.02-.14-21.22-.18-21.31-3.28-8.94-7.91-14.78-13.77-17.35-2.47-1.08-4.82-1.42-6.79-1.42Z" fill="#002346"></path>
    </g>
    <g>
      <path d="M118.21,468.36c-4.37,2.15-7.24,6.59-7.17,11.46,.09,6.09,3.82,14.47,21.46,19.18,0,0,20.68,5.12,22.99,20.48,0,0,5.71-19.02-4.02-37.19-3.73-6.96-9.93-12.34-17.49-14.63-4.74-1.44-10.41-1.93-15.76,.71Z" fill="#7cd295"></path>
      <path d="M155.34,521.42l-.28-1.88c-2.24-14.89-22.46-20.08-22.67-20.13-17.83-4.77-21.69-13.29-21.78-19.59-.07-4.94,2.84-9.59,7.41-11.84h0c4.67-2.3,10.08-2.55,16.07-.73,7.54,2.29,13.84,7.56,17.74,14.84,9.7,18.11,4.11,37.32,4.06,37.51l-.55,1.82Zm-28.81-54.52c-2.92,0-5.64,.62-8.13,1.85h0c-4.28,2.11-7,6.45-6.93,11.07,.09,6.01,3.83,14.15,21.14,18.78,.19,.05,19.28,4.93,22.91,18.94,1.11-5.17,3.37-20.47-4.43-35.04-3.79-7.08-9.91-12.21-17.23-14.43-2.56-.78-5-1.16-7.32-1.16Z" fill="#002346"></path>
    </g>
    <g>
      <path d="M117.23,531.56c1.06,2.02,3.03,4.27,6.42,6.64,0,0,13.31,7.72,16.77,18.61,0,0-.33-17.77-10.45-31.26,0,0-.88-1.66-2.68-2.96-5.96-4.29-13.47,2.46-10.06,8.96Z" fill="#7cd295"></path>
      <path d="M140.89,559.73l-.89-2.79c-3.37-10.61-16.45-18.3-16.58-18.37-3.16-2.21-5.36-4.5-6.58-6.82h0c-1.91-3.63-.53-7.19,1.69-9.12,2.62-2.28,6.15-2.43,8.99-.39,1.86,1.34,2.77,3.03,2.81,3.11,10.05,13.39,10.5,31.27,10.5,31.45l.05,2.92Zm-17.59-38.06c-1.68,0-3.18,.71-4.2,1.61-1.82,1.58-3.3,4.64-1.49,8.08h0c1.15,2.2,3.27,4.38,6.28,6.49,.48,.27,11.44,6.72,15.91,16.23-.54-5.49-2.59-18.16-10.17-28.27-.04-.07-.9-1.65-2.59-2.87-1.26-.91-2.54-1.27-3.73-1.27Z" fill="#002346"></path>
    </g>
    <g>
      <polygon points="133.34 573.62 135.58 617.67 172.96 617.67 175.49 574.04 133.34 573.62" fill="#fff"></polygon>
      <path d="M172.96,618.09h-37.38c-.23,0-.41-.18-.42-.4l-2.24-44.05c0-.12,.04-.23,.12-.32,.08-.08,.18-.13,.31-.13l42.15,.42c.12,0,.23,.05,.31,.14,.08,.08,.12,.2,.11,.31l-2.53,43.63c-.01,.22-.2,.4-.42,.4Zm-36.98-.85h36.58l2.48-42.78-41.25-.41,2.2,43.19Z" fill="#002346"></path>
    </g>
    <path d="M162.42,573.83s-.02,0-.03,0c-.23-.02-.41-.22-.39-.46,.01-.17,1.46-17.56,13.42-25.66,7.08-4.8,16.37-5.44,27.6-1.9,.22,.07,.35,.31,.28,.53s-.31,.35-.53,.28c-10.97-3.45-20.01-2.85-26.86,1.79-11.62,7.86-13.04,24.85-13.05,25.02-.02,.22-.2,.39-.42,.39Z" fill="#002346"></path>
    <path d="M155.93,573.54c-.19,0-.36-.12-.41-.31-6.62-23.68,9.41-37.4,12.7-39.92,.98-.75,2.13-1.64,3.23-2.59,29.12-25.06,12.28-53.13,12.1-53.41-.12-.2-.06-.46,.14-.59,.2-.12,.46-.06,.59,.14,.18,.29,17.41,28.95-12.27,54.5-1.12,.97-2.28,1.87-3.27,2.62-3.21,2.45-18.87,15.86-12.39,39.01,.06,.23-.07,.46-.3,.52-.04,.01-.08,.02-.12,.02Z" fill="#002346"></path>
    <path d="M152.9,573.85c-.14,0-.28-.07-.36-.2-10.3-16.6-2.62-37.75-.02-43.83,.65-1.53,1.12-2.81,1.45-4.03,7.24-26.06-14.76-41.87-14.98-42.03-.19-.13-.24-.4-.1-.59,.13-.19,.4-.24,.59-.1,.23,.16,22.71,16.3,15.31,42.95-.35,1.25-.82,2.57-1.49,4.14-2.56,5.99-10.12,26.8-.04,43.05,.12,.2,.06,.46-.14,.59-.07,.04-.15,.06-.22,.06Z" fill="#002346"></path>
    <path d="M142.06,573.59s-.01,0-.02,0c-.23,0-.42-.21-.41-.44,1.12-27.68-15.12-38.69-15.28-38.8-.2-.13-.25-.39-.12-.59,.13-.2,.39-.25,.59-.12,.17,.11,16.8,11.36,15.66,39.54,0,.23-.2,.41-.42,.41Z" fill="#002346"></path>
  </g>
</svg>
