<?xml version="1.0" encoding="UTF-8"?>
<svg xmlns="http://www.w3.org/2000/svg" id="a" width="865.76" height="682.89" viewBox="0 0 865.76 682.89">
  <path d="M816.66,491.38H81.24c-.28,0-.5-.22-.5-.5s.22-.5,.5-.5H816.66c.28,0,.5,.22,.5,.5s-.22,.5-.5,.5Z" fill="#002346"></path>
  <g>
    <g>
      <path d="M276.94,247.44c-1.21,4.7-4.12,8.78-8.17,11.45-4.25,2.77-10.62,4.62-19.87,2.43h0c.33,.33,38.59,39.33-26.6,67.1-3,1.3-26.43,2.78-35.88-8.53,2.43-9.84,5.51-19.51,9.21-28.95,3.48-9,6.3-14.8,6.3-14.8l-4.7-4.22c-3.89,7.45-7.67,10.44-10,11.64-.72,.41-1.51,.69-2.33,.8-9.39-2.35,12.33-43.3,12.33-43.3l-4.39-2.25-8.23-4.21-14.24,27.91c-6.6,13.21-8.95,12.62-8.95,12.62-2.64-4.11,6.58-52.11,6.58-52.11h-6.86l-4.69,23.2c-1.62,14.09-4.23,15.19-4.23,15.19-5.54,1.84,0-27.08,0-27.08h-8.69l-2.1,18.93c-3,19.23-7.88,18.94-7.88,18.94-2,2-6.15-1.05-10.32-5.22-4.15-4.31-8.01-8.9-11.55-13.72l-5,6.57,15.82,25c6.64,11.25,7.93,29.56,8,41.62,0,0-12.75,9.4-28.63-12.59,0,0-4.52-7.88,0-15.74,0,0-16.77,5.65-18.68-8.59,0,0-38,1-33.76-40.22,0,0,2.35-21.29,16.15-28.33,0,0-21.29-11.6-14.24-43.6,0,0,4.6-21.07,26.33-21.71h1.7s9.69,1.76,6.17-7.78c0,0-8.07-17.39,4.26-22.5,0,0,10.12-6.71,26.56,5.47,0,0,2.06-17.32,22-18.49,0,0,16.59-4.69,26.2,15.78,0,0,12-23.89,37.79-19.78,22.82,3.69,38.33,25.19,34.64,48.01-.08,.5-.17,.99-.27,1.48-1.06,5.09-2.79,10.01-5.14,14.65,.22-.11,21.11-10.73,36.89,.59,5.8,4.17,7.12,12.26,2.94,18.06-1.24,1.72-2.88,3.11-4.78,4.05l-.41,.2s21.56,10.96,10.72,52.03Z" fill="#7cd295"></path>
      <path d="M213.78,329.84c-8.67,0-21.32-1.93-27.75-9.62-.1-.12-.14-.29-.1-.44,2.43-9.83,5.53-19.59,9.23-29.01,2.98-7.7,5.5-13.12,6.15-14.5l-3.95-3.54c-3.79,7.04-7.47,10.03-9.91,11.28-.76,.44-1.6,.73-2.49,.85-.06,0-.13,0-.19,0-1.01-.25-1.76-.9-2.21-1.92-3.47-7.8,11.79-37.46,13.98-41.66l-11.72-6-14.01,27.46c-6.29,12.59-8.88,13.04-9.52,12.88-.12-.03-.23-.11-.3-.21-2.58-4.02,5.04-44.79,6.4-51.88h-5.85l-4.61,22.8c-1.6,13.93-4.23,15.43-4.53,15.55-.86,.29-1.43,0-1.76-.29-3.27-2.86,.17-22.47,.97-26.75h-7.64l-2.05,18.48c-2.73,17.47-7.02,19.23-8.17,19.37-1.1,.96-2.72,.84-4.8-.35-1.67-.95-3.71-2.64-6.08-5-4-4.16-7.77-8.61-11.2-13.24l-4.39,5.76,15.63,24.71c6.54,11.08,8,28.89,8.08,41.88,0,.16-.07,.31-.2,.41-.16,.12-3.94,2.84-9.97,1.9-6.6-1.03-13.11-5.94-19.36-14.6-.07-.12-4.25-7.57-.58-15.23-2.56,.66-8.8,1.83-13.35-1-2.59-1.61-4.2-4.27-4.78-7.9-2.67-.04-16.76-.72-25.93-10.62-6.56-7.08-9.22-17.23-7.89-30.15,.1-.87,2.45-20.87,15.65-28.31-3.76-2.5-20.01-15.16-13.73-43.67,.05-.21,4.94-21.46,26.8-22.1h1.71c.13,.01,4.05,.69,5.69-1.27,1-1.19,1-3.15,0-5.83-.17-.36-4.48-9.81-1.7-16.95,1.11-2.85,3.21-4.93,6.24-6.18,.34-.23,10.25-6.55,26.4,5.06,.73-3.5,4.7-17.06,22.27-18.11,1.09-.27,16.86-3.84,26.31,15.19,2.5-4.27,14.8-22.86,37.84-19.19,11.17,1.81,20.97,7.86,27.59,17.03,6.62,9.18,9.27,20.38,7.46,31.55-.08,.5-.17,1-.27,1.5-.97,4.67-2.5,9.21-4.56,13.51,4.9-2.13,22.42-8.59,36.11,1.23,2.91,2.1,4.84,5.2,5.41,8.75,.58,3.54-.26,7.1-2.36,10.01-1.19,1.66-2.77,3.04-4.57,4,3.84,2.56,19.78,15.71,10.18,52.11h0c-1.25,4.83-4.22,9-8.38,11.74-5.1,3.32-11.39,4.28-18.73,2.83,3.29,3.81,12.88,16.47,10,31.35-2.7,13.94-15.43,25.85-37.82,35.39-1.11,.48-4.42,.95-8.71,.95Zm-26.82-10.07c9.22,10.7,32.01,9.55,35.13,8.2,22.08-9.4,34.6-21.07,37.24-34.66,3.34-17.25-10.65-31.48-10.79-31.63-.16-.16-.19-.4-.08-.6,.11-.2,.33-.3,.55-.24,7.72,1.83,14.27,1.03,19.48-2.36,3.95-2.61,6.78-6.57,7.96-11.16,0,0,0,0,0,0,10.61-40.21-10.25-51.35-10.46-51.46-.17-.09-.27-.26-.27-.45s.11-.36,.28-.45l.41-.2c1.82-.9,3.41-2.24,4.6-3.89,1.94-2.7,2.72-5.99,2.18-9.27-.53-3.28-2.31-6.16-5.01-8.1-15.24-10.94-35.51-.98-36.37-.55-.19,.1-.43,.06-.58-.09-.15-.15-.19-.38-.1-.58,2.33-4.59,4.05-9.48,5.1-14.52,.1-.48,.18-.97,.26-1.46,1.76-10.91-.82-21.85-7.29-30.8s-16.03-14.87-26.94-16.63c-25.14-4-37.15,19.28-37.26,19.51-.09,.17-.25,.27-.45,.28-.19,0-.36-.11-.45-.29-9.32-19.86-25.45-15.56-25.61-15.51-.04,0-.07,.02-.11,.02-19.3,1.13-21.51,17.88-21.53,18.05-.02,.18-.13,.33-.3,.4-.16,.07-.35,.05-.5-.06-15.93-11.8-25.89-5.52-25.99-5.46-2.85,1.19-4.76,3.08-5.77,5.67-2.63,6.74,1.64,16.11,1.69,16.21,1.14,3.08,1.08,5.38-.17,6.86-2.02,2.41-6.36,1.65-6.55,1.62h-1.61c-21.06,.63-25.8,21.12-25.84,21.32-6.88,31.24,13.78,42.94,13.99,43.05,.16,.09,.26,.26,.26,.45,0,.19-.11,.35-.27,.44-13.4,6.83-15.86,27.73-15.88,27.94-1.3,12.62,1.27,22.49,7.62,29.36,9.8,10.59,25.48,10.31,25.63,10.31,.25,0,.48,.18,.51,.43,.48,3.54,1.95,6.1,4.38,7.61,5.32,3.31,13.57,.59,13.65,.57,.2-.07,.41,0,.55,.16,.13,.16,.15,.39,.05,.57-4.32,7.51-.04,15.17,0,15.24,6.05,8.37,12.33,13.15,18.64,14.15,4.86,.77,8.21-1.05,9.05-1.58-.09-12.84-1.55-30.3-7.93-41.1l-15.81-24.99c-.11-.18-.1-.4,.02-.57l5-6.57c.1-.12,.27-.17,.4-.2,.16,0,.31,.08,.4,.2,3.51,4.79,7.39,9.39,11.51,13.67,2.3,2.3,4.27,3.93,5.86,4.84,1.74,.99,3,1.12,3.74,.38,.1-.1,.23-.16,.38-.15,.03,0,4.51-.28,7.36-18.52l2.1-18.91c.03-.25,.24-.45,.5-.45h8.69c.15,0,.29,.07,.39,.18,.1,.11,.13,.27,.11,.41-1.82,9.51-3.7,24.39-1.4,26.4,.14,.12,.35,.24,.75,.11h0s2.38-1.59,3.89-14.77l4.7-23.24c.05-.23,.25-.4,.49-.4h6.86c.15,0,.29,.07,.39,.18,.1,.12,.13,.27,.11,.41-3.59,18.71-8.25,47.29-6.78,51.46,.64-.32,3.14-2.12,8.22-12.29l14.24-27.91c.06-.12,.17-.21,.29-.25,.13-.04,.26-.03,.38,.03l12.62,6.46c.12,.06,.21,.17,.25,.29,.04,.13,.03,.27-.04,.38-.18,.33-17.65,33.45-14.19,41.23,.31,.7,.79,1.14,1.45,1.33,.72-.11,1.41-.36,2.05-.72,2.4-1.24,6.04-4.22,9.81-11.44,.07-.14,.2-.23,.35-.26,.15-.03,.31,.02,.42,.12l4.7,4.22c.17,.15,.21,.39,.12,.59-.03,.06-2.85,5.89-6.28,14.76-3.65,9.31-6.72,18.94-9.13,28.64Z" fill="#002346"></path>
    </g>
    <g>
      <path d="M184.81,490.51l-1.82-138.77c-.74-9.96,.88-21.17,3.43-31.84,3.78-15.04,8.98-29.69,15.53-43.75l-4.7-4.22c-3.89,7.45-7.67,10.44-10,11.64-.72,.41-1.51,.69-2.33,.8-9.39-2.35,12.33-43.3,12.33-43.3l-4.39-2.25-8.23-4.21-14.24,27.89c-6.6,13.21-8.95,12.62-8.95,12.62-2.64-4.11,6.58-52.11,6.58-52.11h-6.88l-4.64,23.21c-1.62,14.09-4.23,15.19-4.23,15.19-5.54,1.84,0-27.08,0-27.08h-8.69l-2.1,18.93c-2.98,19.23-7.88,18.94-7.88,18.94-1.97,1.97-6.15-1.05-10.32-5.22-4.15-4.31-8.01-8.9-11.55-13.72l-5,6.57,15.82,25c6.67,11.25,8,29.56,8,41.62,.03,7.14-.38,12.09-.38,12.09-1.37,12.91-18.16-1.89-18.16-1.89-11.91,9.1-10,28.77-10,28.77,6.62,1.02,12.62,5.28,12.62,5.28,16.3,9.25,14.51,31.81,14.51,31.81l1.19,46,.55,42.26,53.93-.26Z" fill="#fff"></path>
      <path d="M130.39,491.28l-.56-42.76-1.19-45.99c.02-.27,1.57-22.4-14.26-31.39-.1-.07-6.03-4.23-12.45-5.22l-.38-.06-.04-.39c-.02-.2-1.8-20.05,10.19-29.21l.33-.25,.31,.27c.1,.09,9.92,8.67,14.75,6.79,1.45-.56,2.32-2.1,2.58-4.58,0-.04,.41-5,.38-12.04,0-10.46-1.03-29.73-7.93-41.37l-16-25.28,5.62-7.38,.4,.54c3.51,4.79,7.38,9.39,11.51,13.67,4.78,4.78,8.19,6.63,9.61,5.21l.16-.16h.22s4.53-.26,7.36-18.5l2.15-19.35h9.74l-.11,.59c-1.82,9.51-3.7,24.39-1.4,26.4,.14,.12,.35,.24,.75,.11h0s2.38-1.59,3.89-14.77l4.73-23.65h7.9l-.11,.59c-3.59,18.71-8.25,47.29-6.78,51.46,.64-.32,3.14-2.12,8.22-12.29l14.47-28.34,13.52,6.92-.24,.45c-.18,.33-17.65,33.45-14.19,41.23,.31,.7,.79,1.14,1.45,1.33,.73-.11,1.41-.36,2.05-.72,2.4-1.24,6.04-4.22,9.81-11.44l.3-.57,5.46,4.9-.16,.34c-6.52,14-11.73,28.69-15.5,43.66-2.92,12.22-4.07,22.88-3.42,31.68l1.83,139.3h-.5s-54.42,.27-54.42,.27Zm-27.91-126.28c6.5,1.12,12.2,5.13,12.44,5.3,16.34,9.27,14.74,32.03,14.72,32.26l1.19,45.95,.55,41.77,52.93-.26-1.81-138.27c-.66-8.87,.5-19.64,3.44-31.96,3.75-14.92,8.93-29.56,15.41-43.51l-3.95-3.55c-3.79,7.04-7.47,10.03-9.91,11.29-.76,.44-1.6,.73-2.49,.85h-.1s-.09,0-.09,0c-1.01-.25-1.76-.9-2.21-1.92-3.47-7.8,11.79-37.46,13.98-41.65l-11.72-6-14.01,27.44c-6.29,12.59-8.88,13.04-9.52,12.88l-.19-.05-.11-.17c-2.58-4.02,5.04-44.79,6.4-51.88h-5.86l-4.56,22.81c-1.6,13.94-4.23,15.43-4.53,15.55-.86,.29-1.43,0-1.76-.29-3.27-2.86,.17-22.47,.97-26.75h-7.64l-2.05,18.48c-2.71,17.48-7.02,19.23-8.17,19.37-1.98,1.74-5.55-.02-10.88-5.36-4-4.16-7.77-8.61-11.2-13.24l-4.39,5.76,15.63,24.71c7.03,11.86,8.08,31.33,8.08,41.89,.03,7.08-.38,12.08-.38,12.13-.31,2.88-1.39,4.7-3.21,5.41-4.92,1.92-13.66-5.17-15.46-6.7-10.31,8.23-9.69,24.95-9.52,27.69Z" fill="#002346"></path>
    </g>
    <path d="M173.89,336.39h0c-.28,0-.5-.23-.5-.5,.13-13.53,2.31-26.91,6.48-39.78,.08-.26,.37-.41,.63-.32,.26,.08,.41,.37,.32,.63-4.14,12.77-6.31,26.05-6.44,39.48,0,.27-.23,.5-.5,.5Z" fill="#002346"></path>
    <path d="M146.41,405.09c-.17,0-.33-.08-.42-.24-.15-.23-.07-.54,.16-.69,10.01-6.23,15.88-14.42,17.45-24.34,3.67-23.17-17.36-48.45-17.57-48.7-.18-.21-.15-.53,.06-.71,.21-.18,.53-.15,.7,.06,.22,.26,21.53,25.88,17.79,49.5-1.62,10.22-7.64,18.64-17.91,25.04-.08,.05-.17,.08-.26,.08Z" fill="#002346"></path>
    <path d="M149.21,388.47c-1.54,0-2.91-.57-4-1.65-2.45-2.45-3.55-7.49-3.25-14.98-.12-3-.33-12.97,2.21-13.63,1.06-.27,2.14,.8,3.49,3.48,.43,.54,3.65,4.91,3.23,15.4-.01,.28-.25,.45-.52,.48-.28-.01-.49-.24-.48-.52,.42-10.56-3-14.72-3.03-14.76-.03-.03-.05-.06-.07-.1-1.56-3.11-2.29-3.02-2.37-3.01-1.21,.31-1.7,6.82-1.46,12.66-.28,7.25,.71,12.04,2.96,14.28,.96,.96,2.14,1.43,3.52,1.36,1.08-.06,2.12-.44,3.01-1.08,4.03-2.91,6.46-6.8,7.22-11.57,2.14-13.42-9.52-29.64-9.64-29.8-1.37-1.58-2.65-2.18-3.88-1.79-6.3,1.97-10.44,28.16-11.51,38.09-.03,.27-.28,.48-.55,.44-.27-.03-.47-.28-.44-.55,.16-1.48,3.99-36.37,12.2-38.94,1.64-.52,3.31,.2,4.96,2.12,.52,.71,12.05,16.75,9.84,30.58-.8,5.04-3.37,9.15-7.62,12.22-1.04,.76-2.26,1.2-3.54,1.27-.09,0-.18,0-.27,0Z" fill="#002346"></path>
    <g>
      <circle cx="215.95" cy="187.86" r="6.39" fill="#fff"></circle>
      <path d="M215.95,194.75c-3.8,0-6.89-3.09-6.89-6.89s3.09-6.89,6.89-6.89,6.89,3.09,6.89,6.89-3.09,6.89-6.89,6.89Zm0-12.78c-3.25,0-5.89,2.64-5.89,5.89s2.64,5.89,5.89,5.89,5.89-2.64,5.89-5.89-2.64-5.89-5.89-5.89Z" fill="#002346"></path>
    </g>
    <g>
      <circle cx="213.75" cy="171.86" r="3.01" fill="#fff"></circle>
      <path d="M213.75,175.37c-1.94,0-3.51-1.57-3.51-3.51s1.57-3.51,3.51-3.51,3.51,1.58,3.51,3.51-1.57,3.51-3.51,3.51Zm0-6.02c-1.38,0-2.51,1.13-2.51,2.51s1.13,2.51,2.51,2.51,2.51-1.13,2.51-2.51-1.13-2.51-2.51-2.51Z" fill="#002346"></path>
    </g>
  </g>
  <g>
    <g>
      <path d="M785.94,247.44c-1.21,4.7-4.12,8.78-8.17,11.45-4.25,2.77-10.62,4.62-19.87,2.43h0c.33,.33,38.59,39.33-26.6,67.1-3,1.3-26.43,2.78-35.88-8.53,2.43-9.84,5.51-19.51,9.21-28.95,3.48-9,6.3-14.8,6.3-14.8l-4.7-4.22c-3.89,7.45-7.67,10.44-10,11.64-.72,.41-1.51,.69-2.33,.8-9.39-2.35,12.33-43.3,12.33-43.3l-4.39-2.25-8.23-4.21-14.24,27.91c-6.6,13.21-8.95,12.62-8.95,12.62-2.64-4.11,6.58-52.11,6.58-52.11h-6.86l-4.69,23.2c-1.62,14.09-4.23,15.19-4.23,15.19-5.54,1.84,0-27.08,0-27.08h-8.69l-2.1,18.93c-3,19.23-7.88,18.94-7.88,18.94-2,2-6.15-1.05-10.32-5.22-4.15-4.31-8.01-8.9-11.55-13.72l-5,6.57,15.82,25c6.64,11.25,7.93,29.56,8,41.62,0,0-12.75,9.4-28.63-12.59,0,0-4.52-7.88,0-15.74,0,0-16.77,5.65-18.68-8.59,0,0-38,1-33.76-40.22,0,0,2.35-21.29,16.15-28.33,0,0-21.29-11.6-14.24-43.6,0,0,4.6-21.07,26.33-21.71h1.7s9.69,1.76,6.17-7.78c0,0-8.07-17.39,4.26-22.5,0,0,10.12-6.71,26.56,5.47,0,0,2.06-17.32,22-18.49,0,0,16.59-4.69,26.2,15.78,0,0,12-23.89,37.79-19.78,22.82,3.69,38.33,25.19,34.64,48.01-.08,.5-.17,.99-.27,1.48-1.06,5.09-2.79,10.01-5.14,14.65,.22-.11,21.11-10.73,36.89,.59,5.8,4.17,7.12,12.26,2.94,18.06-1.24,1.72-2.88,3.11-4.78,4.05l-.41,.2s21.56,10.96,10.72,52.03Z" fill="#7cd295"></path>
      <path d="M722.78,329.84c-8.67,0-21.32-1.93-27.75-9.62-.1-.12-.14-.29-.1-.44,2.43-9.83,5.53-19.59,9.23-29.01,2.98-7.7,5.5-13.12,6.15-14.5l-3.95-3.54c-3.79,7.04-7.47,10.03-9.91,11.28-.76,.44-1.6,.73-2.49,.85-.06,0-.13,0-.19,0-1.01-.25-1.76-.9-2.21-1.92-3.47-7.8,11.79-37.46,13.98-41.66l-11.72-6-14.01,27.46c-6.29,12.59-8.88,13.04-9.52,12.88-.12-.03-.23-.11-.3-.21-2.58-4.02,5.04-44.79,6.4-51.88h-5.85l-4.61,22.8c-1.6,13.93-4.23,15.43-4.53,15.55-.86,.29-1.43,0-1.76-.29-3.27-2.86,.17-22.47,.97-26.75h-7.64l-2.05,18.48c-2.73,17.47-7.02,19.23-8.17,19.37-1.1,.96-2.72,.84-4.8-.35-1.67-.95-3.71-2.64-6.08-5-4-4.16-7.77-8.61-11.2-13.24l-4.39,5.76,15.63,24.71c6.54,11.08,8,28.89,8.08,41.88,0,.16-.07,.31-.2,.41-.16,.12-3.94,2.84-9.97,1.9-6.6-1.03-13.11-5.94-19.36-14.6-.07-.12-4.25-7.57-.58-15.23-2.56,.66-8.8,1.83-13.35-1-2.59-1.61-4.2-4.27-4.78-7.9-2.67-.04-16.76-.72-25.93-10.62-6.56-7.08-9.22-17.23-7.89-30.15,.1-.87,2.45-20.87,15.65-28.31-3.76-2.5-20.01-15.16-13.73-43.67,.05-.21,4.94-21.46,26.8-22.1h1.71c.13,.01,4.05,.69,5.69-1.27,1-1.19,1-3.15,0-5.83-.17-.36-4.48-9.81-1.7-16.95,1.11-2.85,3.21-4.93,6.24-6.18,.34-.23,10.25-6.55,26.4,5.06,.73-3.5,4.7-17.06,22.27-18.11,1.09-.27,16.86-3.84,26.31,15.19,2.5-4.27,14.8-22.86,37.84-19.19,11.17,1.81,20.97,7.86,27.59,17.03,6.62,9.18,9.27,20.38,7.46,31.55-.08,.5-.17,1-.27,1.5-.97,4.67-2.5,9.21-4.56,13.51,4.9-2.13,22.42-8.59,36.11,1.23,2.91,2.1,4.84,5.2,5.41,8.75,.58,3.54-.26,7.1-2.36,10.01-1.19,1.66-2.77,3.04-4.57,4,3.84,2.56,19.78,15.71,10.18,52.11h0c-1.25,4.83-4.22,9-8.38,11.74-5.1,3.32-11.39,4.28-18.73,2.83,3.29,3.81,12.88,16.47,10,31.35-2.7,13.94-15.43,25.85-37.82,35.39-1.11,.48-4.42,.95-8.71,.95Zm-26.82-10.07c9.22,10.7,32.01,9.55,35.13,8.2,22.08-9.4,34.6-21.07,37.24-34.66,3.34-17.25-10.65-31.48-10.79-31.63-.16-.16-.19-.4-.08-.6,.11-.2,.33-.3,.55-.24,7.72,1.83,14.27,1.03,19.48-2.36,3.95-2.61,6.78-6.57,7.96-11.16,0,0,0,0,0,0,10.61-40.21-10.25-51.35-10.46-51.46-.17-.09-.27-.26-.27-.45s.11-.36,.28-.45l.41-.2c1.82-.9,3.41-2.24,4.6-3.89,1.94-2.7,2.72-5.99,2.18-9.27-.53-3.28-2.31-6.16-5.01-8.1-15.24-10.94-35.51-.98-36.37-.55-.19,.1-.43,.06-.58-.09-.15-.15-.19-.38-.1-.58,2.33-4.59,4.05-9.48,5.1-14.52,.1-.48,.18-.97,.26-1.46,1.76-10.91-.82-21.85-7.29-30.8s-16.03-14.87-26.94-16.63c-25.14-4-37.15,19.28-37.26,19.51-.09,.17-.26,.27-.45,.28-.19,0-.36-.11-.45-.29-9.32-19.86-25.45-15.56-25.61-15.51-.04,0-.07,.02-.11,.02-19.3,1.13-21.51,17.88-21.53,18.05-.02,.18-.13,.33-.3,.4-.16,.07-.35,.05-.5-.06-15.93-11.8-25.89-5.52-25.99-5.46-2.85,1.19-4.76,3.08-5.77,5.67-2.63,6.74,1.64,16.11,1.69,16.21,1.14,3.08,1.08,5.38-.17,6.86-2.02,2.41-6.36,1.65-6.55,1.62h-1.61c-21.06,.63-25.8,21.12-25.84,21.32-6.88,31.24,13.78,42.94,13.99,43.05,.16,.09,.26,.26,.26,.45,0,.19-.11,.35-.27,.44-13.4,6.83-15.86,27.73-15.88,27.94-1.3,12.62,1.27,22.49,7.62,29.36,9.8,10.59,25.48,10.31,25.63,10.31,.24,0,.48,.18,.51,.43,.48,3.54,1.95,6.1,4.38,7.61,5.32,3.31,13.57,.59,13.65,.57,.2-.07,.41,0,.55,.16,.13,.16,.15,.39,.05,.57-4.32,7.51-.04,15.17,0,15.24,6.05,8.37,12.33,13.15,18.64,14.15,4.86,.77,8.21-1.05,9.05-1.58-.09-12.84-1.55-30.3-7.93-41.1l-15.81-24.99c-.11-.18-.1-.4,.02-.57l5-6.57c.1-.12,.27-.17,.4-.2,.16,0,.31,.08,.4,.2,3.51,4.79,7.39,9.39,11.51,13.67,2.3,2.3,4.27,3.93,5.86,4.84,1.74,.99,3,1.12,3.74,.38,.1-.1,.23-.16,.38-.15,.03,0,4.51-.28,7.36-18.52l2.1-18.91c.03-.25,.24-.45,.5-.45h8.69c.15,0,.29,.07,.39,.18,.1,.11,.13,.27,.11,.41-1.82,9.51-3.7,24.39-1.4,26.4,.14,.12,.35,.24,.75,.11h0s2.38-1.59,3.89-14.77l4.7-23.24c.05-.23,.25-.4,.49-.4h6.86c.15,0,.29,.07,.39,.18,.1,.12,.13,.27,.11,.41-3.59,18.71-8.25,47.29-6.78,51.46,.64-.32,3.14-2.12,8.22-12.29l14.24-27.91c.06-.12,.17-.21,.29-.25,.13-.04,.26-.03,.38,.03l12.62,6.46c.12,.06,.21,.17,.25,.29,.04,.13,.03,.27-.04,.38-.18,.33-17.65,33.45-14.19,41.23,.31,.7,.79,1.14,1.45,1.33,.72-.11,1.41-.36,2.05-.72,2.4-1.24,6.04-4.22,9.81-11.44,.07-.14,.2-.23,.35-.26,.15-.03,.31,.02,.42,.12l4.7,4.22c.17,.15,.21,.39,.12,.59-.03,.06-2.85,5.89-6.28,14.76-3.65,9.31-6.72,18.94-9.13,28.64Z" fill="#002346"></path>
    </g>
    <g>
      <path d="M693.81,490.51l-1.82-138.77c-.74-9.96,.88-21.17,3.43-31.84,3.78-15.04,8.98-29.69,15.53-43.75l-4.7-4.22c-3.89,7.45-7.67,10.44-10,11.64-.72,.41-1.51,.69-2.33,.8-9.39-2.35,12.33-43.3,12.33-43.3l-4.39-2.25-8.23-4.21-14.24,27.89c-6.6,13.21-8.95,12.62-8.95,12.62-2.64-4.11,6.58-52.11,6.58-52.11h-6.88l-4.64,23.21c-1.62,14.09-4.23,15.19-4.23,15.19-5.54,1.84,0-27.08,0-27.08h-8.69l-2.1,18.93c-2.98,19.23-7.88,18.94-7.88,18.94-1.97,1.97-6.15-1.05-10.32-5.22-4.15-4.31-8.01-8.9-11.55-13.72l-5,6.57,15.82,25c6.67,11.25,8,29.56,8,41.62,.03,7.14-.38,12.09-.38,12.09-1.37,12.91-18.16-1.89-18.16-1.89-11.91,9.1-10,28.77-10,28.77,6.62,1.02,12.62,5.28,12.62,5.28,16.3,9.25,14.51,31.81,14.51,31.81l1.19,46,.55,42.26,53.93-.26Z" fill="#fff"></path>
      <path d="M639.39,491.28l-.56-42.76-1.19-45.99c.02-.27,1.57-22.4-14.26-31.39-.1-.07-6.03-4.23-12.45-5.22l-.38-.06-.04-.39c-.02-.2-1.8-20.05,10.19-29.21l.33-.25,.31,.27c.1,.09,9.92,8.67,14.75,6.79,1.45-.56,2.32-2.1,2.58-4.58,0-.04,.41-5,.38-12.04,0-10.46-1.03-29.73-7.93-41.37l-16-25.28,5.62-7.38,.4,.54c3.51,4.79,7.38,9.39,11.51,13.67,4.78,4.78,8.19,6.63,9.61,5.21l.16-.16h.22s4.53-.26,7.36-18.5l2.15-19.35h9.74l-.11,.59c-1.82,9.51-3.7,24.39-1.4,26.4,.14,.12,.35,.24,.75,.11h0s2.38-1.59,3.89-14.77l4.73-23.65h7.9l-.11,.59c-3.59,18.71-8.25,47.29-6.78,51.46,.64-.32,3.14-2.12,8.22-12.29l14.47-28.34,13.52,6.92-.24,.45c-.18,.33-17.65,33.45-14.19,41.23,.31,.7,.79,1.14,1.45,1.33,.73-.11,1.41-.36,2.05-.72,2.4-1.24,6.04-4.22,9.81-11.44l.3-.57,5.46,4.9-.16,.34c-6.52,14-11.73,28.69-15.5,43.66-2.92,12.22-4.07,22.88-3.42,31.68l1.83,139.3h-.5s-54.42,.27-54.42,.27Zm-27.91-126.28c6.5,1.12,12.2,5.13,12.44,5.3,16.34,9.27,14.74,32.03,14.72,32.26l1.19,45.95,.55,41.77,52.93-.26-1.81-138.27c-.66-8.87,.5-19.64,3.44-31.96,3.75-14.92,8.93-29.56,15.41-43.51l-3.95-3.55c-3.79,7.04-7.47,10.03-9.91,11.29-.76,.44-1.6,.73-2.49,.85h-.1s-.09,0-.09,0c-1.01-.25-1.76-.9-2.21-1.92-3.47-7.8,11.79-37.46,13.98-41.65l-11.72-6-14.01,27.44c-6.29,12.59-8.88,13.04-9.52,12.88l-.19-.05-.11-.17c-2.58-4.02,5.04-44.79,6.4-51.88h-5.86l-4.56,22.81c-1.6,13.94-4.23,15.43-4.53,15.55-.86,.29-1.43,0-1.76-.29-3.27-2.86,.17-22.47,.97-26.75h-7.64l-2.05,18.48c-2.71,17.48-7.02,19.23-8.17,19.37-1.99,1.74-5.55-.02-10.88-5.36-4-4.16-7.77-8.61-11.2-13.24l-4.39,5.76,15.63,24.71c7.03,11.86,8.08,31.33,8.08,41.89,.03,7.08-.38,12.08-.38,12.13-.31,2.88-1.39,4.7-3.21,5.41-4.92,1.92-13.66-5.17-15.46-6.7-10.31,8.23-9.69,24.95-9.52,27.69Z" fill="#002346"></path>
    </g>
    <path d="M682.89,336.39h0c-.28,0-.5-.23-.5-.5,.13-13.53,2.31-26.91,6.48-39.78,.09-.26,.37-.41,.63-.32,.26,.08,.41,.37,.32,.63-4.14,12.77-6.31,26.05-6.44,39.48,0,.27-.23,.5-.5,.5Z" fill="#002346"></path>
    <path d="M655.41,405.09c-.17,0-.33-.08-.42-.24-.15-.23-.07-.54,.16-.69,10.01-6.23,15.88-14.42,17.45-24.34,3.67-23.17-17.36-48.45-17.57-48.7-.18-.21-.15-.53,.06-.71,.21-.18,.53-.15,.7,.06,.22,.26,21.53,25.88,17.79,49.5-1.62,10.22-7.64,18.64-17.91,25.04-.08,.05-.17,.08-.26,.08Z" fill="#002346"></path>
    <path d="M658.21,388.47c-1.54,0-2.91-.57-4-1.65-2.45-2.45-3.55-7.49-3.25-14.98-.12-3-.33-12.97,2.21-13.63,1.06-.27,2.14,.8,3.49,3.48,.43,.54,3.65,4.91,3.23,15.4-.01,.28-.24,.45-.52,.48-.28-.01-.49-.24-.48-.52,.42-10.56-3-14.72-3.03-14.76-.03-.03-.05-.06-.07-.1-1.56-3.11-2.3-3.02-2.37-3.01-1.21,.31-1.7,6.82-1.46,12.66-.28,7.25,.71,12.04,2.96,14.28,.96,.96,2.14,1.43,3.52,1.36,1.08-.06,2.12-.44,3.01-1.08,4.03-2.91,6.46-6.8,7.22-11.57,2.14-13.42-9.52-29.64-9.64-29.8-1.37-1.58-2.65-2.18-3.88-1.79-6.3,1.97-10.44,28.16-11.51,38.09-.03,.27-.27,.48-.55,.44-.27-.03-.47-.28-.44-.55,.16-1.48,3.99-36.37,12.2-38.94,1.64-.52,3.31,.2,4.96,2.12,.52,.71,12.05,16.75,9.84,30.58-.8,5.04-3.37,9.15-7.62,12.22-1.04,.76-2.26,1.2-3.54,1.27-.09,0-.18,0-.27,0Z" fill="#002346"></path>
    <g>
      <circle cx="724.95" cy="187.86" r="6.39" fill="#fff"></circle>
      <path d="M724.95,194.75c-3.8,0-6.89-3.09-6.89-6.89s3.09-6.89,6.89-6.89,6.89,3.09,6.89,6.89-3.09,6.89-6.89,6.89Zm0-12.78c-3.25,0-5.89,2.64-5.89,5.89s2.64,5.89,5.89,5.89,5.89-2.64,5.89-5.89-2.64-5.89-5.89-5.89Z" fill="#002346"></path>
    </g>
    <g>
      <circle cx="722.75" cy="171.86" r="3.01" fill="#fff"></circle>
      <path d="M722.75,175.37c-1.94,0-3.51-1.57-3.51-3.51s1.57-3.51,3.51-3.51,3.51,1.58,3.51,3.51-1.57,3.51-3.51,3.51Zm0-6.02c-1.38,0-2.51,1.13-2.51,2.51s1.13,2.51,2.51,2.51,2.51-1.13,2.51-2.51-1.13-2.51-2.51-2.51Z" fill="#002346"></path>
    </g>
  </g>
  <g>
    <path d="M563.02,460.56h4.12v97.34c0,.89-.72,1.61-1.61,1.61h-.92c-.89,0-1.61-.72-1.61-1.61v-97.34h.02Z" fill="#fff"></path>
    <path d="M565.53,560.01h-.92c-1.16,0-2.11-.95-2.11-2.11v-97.84h5.14v97.84c0,1.16-.95,2.11-2.11,2.11Zm-2.03-98.95v96.84c0,.61,.5,1.11,1.11,1.11h.92c.61,0,1.11-.5,1.11-1.11v-96.84h-3.14Z" fill="#002346"></path>
  </g>
  <g>
    <path d="M608.08,460.56h4.14v97.34c0,.89-.72,1.61-1.61,1.61h-.92c-.89,0-1.61-.72-1.61-1.61v-97.34h0Z" fill="#fff"></path>
    <path d="M610.61,560.01h-.92c-1.16,0-2.11-.95-2.11-2.11v-97.84h5.14v97.84c0,1.16-.95,2.11-2.11,2.11Zm-2.03-98.95v96.84c0,.61,.5,1.11,1.11,1.11h.92c.61,0,1.11-.5,1.11-1.11v-96.84h-3.14Z" fill="#002346"></path>
  </g>
  <g>
    <rect x="567.49" y="507.63" width="40" height="4.81" fill="#fff"></rect>
    <path d="M607.99,512.94h-41v-5.81h41v5.81Zm-40-1h39v-3.81h-39v3.81Z" fill="#002346"></path>
  </g>
  <g>
    <path d="M582.25,418.3s-.26-1.17,1.37-2.05c.72-.38,1.33-.95,1.75-1.65,.55-.86,.71-1.91,.46-2.9,1.21,.77,1.96,2.09,2,3.53,0,0,.56-.06,.56-1.4,0,0-.11-2,2.57-3.13,.24-.15,.42-.39,.48-.67,0,0,1.05,2.87,2.4,3.71,.53,.31,.98,.73,1.34,1.23,.75,.94,1.13,2.13,1.05,3.33h-13.98Z" fill="#e6e7e8"></path>
    <path d="M596.7,418.8h-14.85l-.09-.39c-.01-.06-.32-1.55,1.62-2.6,.65-.34,1.18-.85,1.56-1.47,.48-.75,.62-1.67,.4-2.52l-.31-1.23,1.07,.68c.82,.52,1.44,1.27,1.82,2.13,.12-.73,.63-2.23,2.84-3.17,.06-.04,.15-.17,.19-.32l.38-1.64,.58,1.58c.28,.75,1.21,2.84,2.19,3.46,.58,.35,1.08,.81,1.48,1.36,.82,1.02,1.23,2.33,1.14,3.65l-.03,.47Zm-13.91-1h12.95c-.04-.91-.37-1.79-.95-2.52-.33-.46-.74-.83-1.21-1.11-1.01-.63-1.82-2.14-2.26-3.11-.03,.02-.07,.05-.1,.07-2.36,1-2.34,2.61-2.33,2.68,0,1.73-.84,1.9-1.01,1.92l-.54,.06-.02-.54c-.03-.88-.35-1.7-.89-2.35-.05,.7-.26,1.38-.64,1.98-.46,.77-1.14,1.4-1.94,1.83-.71,.38-.97,.81-1.07,1.11Z" fill="#002346"></path>
  </g>
  <g>
    <path d="M561.27,418.3s-.28-.77,1.45-1.94c1.11-.75,1.88-1.97,1.8-3.31-.02-.28-.07-.58-.16-.9,1.46,.43,2.63,1.51,3.17,2.93,.01,.03,.04,.02,.04,0-.14-2.25,1.25-4.32,3.39-5.04-.03,1.62,.95,3.1,2.46,3.69,1.68,.86,2.58,2.73,2.21,4.58h-14.36Z" fill="#e6e7e8"></path>
    <path d="M576.03,418.8h-15.12l-.12-.33c-.07-.19-.32-1.2,1.64-2.53,1.04-.7,1.64-1.8,1.58-2.87-.02-.26-.06-.53-.14-.79l-.25-.87,.87,.25c1.08,.32,2.02,.97,2.71,1.84,.43-1.81,1.76-3.33,3.59-3.95l.67-.23v.71c-.04,1.41,.82,2.7,2.13,3.21,1.92,.98,2.93,3.08,2.52,5.14l-.08,.4Zm-14.15-1h13.3c.13-1.49-.65-2.94-2.01-3.63-1.43-.56-2.45-1.88-2.68-3.4-1.57,.8-2.55,2.48-2.44,4.28l.03,.43-.86,.21-.17-.42c-.38-.99-1.11-1.81-2.05-2.3,0,.02,0,.05,0,.07,.09,1.44-.67,2.84-2.02,3.75-.62,.42-.95,.77-1.11,1.03Z" fill="#002346"></path>
  </g>
  <g>
    <path d="M602.88,418.3s-.42-1.33,1.53-2.26c.8-.36,1.42-1.04,1.7-1.87,.26-.74,.2-1.55-.16-2.24,1.52,.42,2.48,1.91,2.24,3.46,.74-.05,1.32-.67,1.32-1.41,.03-.34,.12-.68,.24-1,.39-1,1.35-3,2.91-3.29-.19,.97-.02,1.97,.48,2.82,.4,.65,.98,1.17,1.68,1.49,1.08,.51,3.13,1.83,2.2,4.35l-14.14-.05Z" fill="#e6e7e8"></path>
    <path d="M617.36,418.85l-14.85-.05-.11-.35c-.02-.07-.52-1.76,1.79-2.86,.68-.31,1.2-.88,1.44-1.58,.21-.61,.17-1.28-.13-1.85l-.53-1.02,1.11,.3c1.49,.41,2.52,1.72,2.63,3.2,.18-.17,.29-.41,.29-.67,.04-.44,.13-.82,.27-1.18,.47-1.21,1.52-3.27,3.29-3.6l.72-.13-.14,.72c-.16,.85-.01,1.73,.42,2.47,.34,.56,.85,1.01,1.45,1.29,2.33,1.1,3.23,2.91,2.46,4.98l-.12,.33Zm-14.01-1.05l13.3,.05c.47-1.78-.83-2.82-2.05-3.4-.79-.36-1.44-.94-1.89-1.68-.42-.71-.63-1.51-.63-2.31-.96,.62-1.61,2.04-1.87,2.71-.11,.28-.18,.57-.21,.87,0,.96-.78,1.79-1.79,1.86l-.62,.04,.09-.61c.15-.94-.24-1.86-.95-2.43,.05,.49,0,.98-.17,1.45-.32,.96-1.04,1.74-1.97,2.16-.94,.45-1.2,.97-1.26,1.31Z" fill="#002346"></path>
  </g>
  <g>
    <path d="M638.14,422.66c0,25.99-21.06,47.06-47.05,47.07h-3.95c-25.97-.03-47.01-21.1-47-47.07h98Z" fill="#f3f0ea"></path>
    <path d="M591.09,470.23h-3.95c-26.2-.03-47.51-21.37-47.5-47.57,0-.28,.22-.5,.5-.5h98c.28,0,.5,.22,.5,.5,0,12.7-4.94,24.65-13.92,33.63-8.98,8.98-20.92,13.93-33.63,13.94Zm-50.45-47.07c.26,25.42,21.02,46.04,46.5,46.07h3.93c12.46,0,24.15-4.85,32.94-13.64,8.67-8.68,13.5-20.18,13.63-32.43h-97Z" fill="#002346"></path>
  </g>
  <g>
    <rect x="577" y="433.06" width="21.35" height="4.14" rx="1.61" ry="1.61" fill="#fff"></rect>
    <path d="M596.74,437.7h-18.13c-1.16,0-2.11-.95-2.11-2.11v-.92c0-1.16,.95-2.11,2.11-2.11h18.13c1.16,0,2.11,.95,2.11,2.11v.92c0,1.16-.95,2.11-2.11,2.11Zm-18.13-4.14c-.61,0-1.11,.5-1.11,1.11v.92c0,.61,.5,1.11,1.11,1.11h18.13c.61,0,1.11-.5,1.11-1.11v-.92c0-.61-.5-1.11-1.11-1.11h-18.13Z" fill="#002346"></path>
  </g>
  <g>
    <path d="M610.2,404.77c0,.26-.02,.53-.06,.79-.39,2.19-2.29,3.79-4.52,3.8h-35.55c-2.53,0-4.59-2.06-4.59-4.59,0-1.21,.48-2.38,1.34-3.24,.3-.3,.63-.56,1-.76,.68-.38,1.45-.58,2.23-.58h35.55c2.53-.01,4.59,2.03,4.6,4.56,0,0,0,.01,0,.02Z" fill="#293838"></path>
    <path d="M605.62,409.86h-35.55c-2.81,0-5.09-2.29-5.09-5.09,0-1.36,.53-2.63,1.48-3.59,.33-.33,.7-.62,1.11-.84,.75-.42,1.6-.64,2.46-.64h35.56c1.36,.03,2.63,.52,3.6,1.47,.96,.96,1.5,2.23,1.5,3.59v.02c0,.29-.02,.58-.07,.87-.44,2.44-2.54,4.21-5.01,4.22Zm-35.58-9.17c-.69,0-1.37,.18-1.98,.52-.33,.18-.63,.41-.89,.68-.77,.77-1.19,1.8-1.19,2.89,0,2.26,1.83,4.09,4.09,4.09h35.55c1.98,0,3.68-1.43,4.03-3.39,.03-.22,.05-.46,.05-.7v-.02c0-1.09-.43-2.11-1.21-2.88-.77-.77-1.84-1.21-2.89-1.18h-35.56Z" fill="#002346"></path>
  </g>
  <g>
    <path d="M441.22,517.6l-2.79,21.06,27.59,.88s2-5.3-5.72-6.41c-2.21-.31-3.97-2.02-4.34-4.22-.42-3.57-.29-7.19,.37-10.73l-15.11-.58Z" fill="#293838"></path>
    <path d="M466.36,540.05h-.36s-28.14-.91-28.14-.91l2.92-22.06,16.14,.62-.11,.57c-.66,3.49-.78,7.05-.36,10.58,.34,1.97,1.91,3.5,3.91,3.78,2.87,.41,4.8,1.44,5.75,3.04,1.14,1.93,.4,3.95,.37,4.04l-.13,.33Zm-27.36-1.87l26.65,.85c.13-.56,.27-1.75-.39-2.85-.79-1.33-2.48-2.19-5.02-2.55-2.44-.34-4.35-2.21-4.76-4.63-.41-3.46-.31-6.93,.27-10.34l-14.08-.54-2.66,20.06Z" fill="#002346"></path>
  </g>
  <polygon points="438.43 538.66 438.43 542.84 465.88 542.92 466.02 539.54 438.43 538.66" fill="#002346"></polygon>
  <g>
    <polygon points="438.43 538.66 438.43 542.84 465.88 542.92 466.02 539.54 438.43 538.66" fill="#fff"></polygon>
    <path d="M466.36,543.42l-28.43-.08v-5.2l28.61,.91-.18,4.36Zm-27.43-1.08l26.47,.08,.1-2.4-26.57-.85v3.16Z" fill="#002346"></path>
  </g>
  <g>
    <path d="M470.9,359.51h22.85l4.86,9.86s-22.57,4.11-31.91,2.13c0,0,2-5.56,2.14-6.56,.23-1.95,.94-3.82,2.06-5.43Z" fill="#f2b3c1"></path>
    <path d="M473.42,372.54c-2.6,0-4.96-.16-6.83-.55l-.55-.12,.19-.53c.8-2.22,2.02-5.77,2.12-6.46,.24-2.01,.98-3.97,2.14-5.64l.15-.21h23.41l5.28,10.72-.64,.12c-.74,.13-14.87,2.68-25.27,2.68Zm-6.07-1.41c8.53,1.51,26.86-1.5,30.52-2.13l-4.43-9h-22.28c-.99,1.49-1.62,3.22-1.83,5-.12,.88-1.45,4.65-1.97,6.13Z" fill="#002346"></path>
  </g>
  <g>
    <path d="M483.74,309.6s-2.22,13.13-1.75,15.76l-2.5-12.85c1.6-.68,3.04-1.67,4.25-2.91Z" fill="#002346"></path>
    <path d="M481.5,325.46l-2.58-13.25,.37-.16c1.54-.66,2.92-1.6,4.09-2.8l1.12-1.15-.27,1.58c-.76,4.51-2.11,13.58-1.75,15.59l-.98,.18Zm-1.45-12.65l1.59,8.15c.34-3.44,1.01-7.79,1.37-10.01-.9,.74-1.89,1.36-2.96,1.86Z" fill="#002346"></path>
  </g>
  <g>
    <path d="M451.71,310.7l9.91,26.81,12.62,9.84,4.41-8.52s2.3-21.56-.62-25.83c0,0-7.9,2.46-11.25-9,0,0-5.3,11.92-10.81,8.35-1.31-.79-2.76-1.35-4.26-1.65Z" fill="#f2b3c1"></path>
    <path d="M474.4,348.1l-13.2-10.29-.05-.13-10.21-27.63,.86,.17c1.57,.31,3.05,.89,4.42,1.71,.93,.6,1.86,.75,2.86,.45,3.9-1.16,7.21-8.5,7.25-8.58l.54-1.22,.38,1.29c1.16,3.97,2.99,6.65,5.44,7.97,2.67,1.44,5.17,.7,5.2,.69l.35-.11,.21,.3c2.99,4.37,.8,25.27,.7,26.16l-.05,.17-4.68,9.05Zm-12.37-10.89l12.04,9.39,4.09-7.91c.15-1.49,2.06-20.6-.37-25.12-.88,.18-3.13,.45-5.56-.85-2.44-1.31-4.3-3.79-5.56-7.39-1.14,2.21-3.94,7-7.32,8-1.28,.38-2.51,.19-3.66-.56-1-.6-2.08-1.06-3.21-1.37l9.54,25.82Z" fill="#002346"></path>
  </g>
  <g>
    <path d="M477.83,353.35s-8.22,4.19-9,11.56c0,0-4.8,17.77-11.35,21.32-.84,.48-1.81,.68-2.77,.58,0,0-14.68-.15-33.76-16.44l4.54-9.17c4.02-8.07,6.4-16.86,7-25.85,.16-2.38,.17-4.76,.05-7.14l14.95-17.87c1.41,.01,2.81,.13,4.2,.36,4.26,6.87,7.87,14.12,10.79,21.65,1.34,3.33,4.09,5.89,7.5,7,1.09,.32,2.26,.28,3.33-.09,3.21-1.17,8.13-6.06,3.48-26.06,.92-.08,1.82-.29,2.68-.62,0,0,10.61,33.3-1.64,40.77Z" fill="#293838"></path>
    <path d="M455.21,387.34c-.18,0-.37,0-.56-.03h0c-.16,0-15.07-.37-34.03-16.56l-.3-.25,4.71-9.52c4.01-8.05,6.35-16.69,6.95-25.66,.15-2.35,.17-4.73,.05-7.08v-.2s.12-.15,.12-.15l15.1-18.05h.24c1.42,.01,2.86,.14,4.28,.37l.22,.04,.12,.19c4.26,6.87,7.91,14.19,10.83,21.73,1.29,3.19,3.91,5.64,7.19,6.71,.98,.28,2.03,.26,3.01-.09,3.12-1.14,7.69-5.96,3.16-25.47l-.13-.56,.57-.05c.87-.08,1.73-.28,2.54-.59l.5-.19,.16,.51c.44,1.38,10.59,33.76-1.86,41.35l-.03,.02c-.08,.04-7.99,4.16-8.73,11.17-.21,.81-4.95,18.1-11.61,21.71-.77,.44-1.62,.67-2.51,.67Zm-33.64-17.09c18.58,15.74,33,16.07,33.14,16.07,.91,.09,1.76-.08,2.52-.51,6.3-3.41,11.07-20.84,11.12-21.02,.77-7.38,8.7-11.59,9.24-11.87,10.96-6.71,2.8-35.54,1.56-39.69-.57,.18-1.15,.32-1.74,.41,4.49,19.81-.51,24.85-3.92,26.1-1.19,.41-2.44,.44-3.64,.1-3.58-1.16-6.42-3.82-7.83-7.29-2.88-7.42-6.45-14.61-10.63-21.38-1.21-.19-2.44-.29-3.66-.32l-14.67,17.54c.11,2.33,.09,4.68-.06,7-.61,9.11-2.98,17.87-7.05,26.04l-4.37,8.82Z" fill="#002346"></path>
  </g>
  <g>
    <rect x="465.54" y="278.87" width="24" height="34.26" rx="12" ry="12" transform="translate(46.38 -64.23) rotate(8.09)" fill="#f2b3c1"></rect>
    <path d="M476.83,313.57c-.58,0-1.17-.04-1.77-.12h0c-6.82-.97-11.59-7.31-10.62-14.13l1.44-10.16c.97-6.82,7.31-11.58,14.13-10.62,6.82,.97,11.59,7.31,10.62,14.13l-1.44,10.16c-.89,6.23-6.25,10.74-12.37,10.74Zm-1.62-1.12c6.28,.89,12.11-3.49,13-9.77l1.44-10.16c.89-6.28-3.49-12.11-9.77-13-6.28-.88-12.11,3.49-13,9.77l-1.44,10.16c-.89,6.28,3.49,12.11,9.77,13h0Z" fill="#002346"></path>
  </g>
  <g>
    <path d="M440.63,311.51l11.45-13.94c2.31-2.53,3.88-5.64,4.55-9,0,0,3.43-14.59,14.78-16.88,1.95-.38,3.96-.15,5.77,.67,4.21,1.89,12.62,6.54,13.06,13.57,0,0,.72,3.71-3.69,.43-1.04-.79-2.45-.87-3.58-.21-3.5,2.07-10.72,6.9-14.31,13.43,0,0-6.09,16.91-12.76,12.74-1.07-.71-2.27-1.21-3.53-1.47-3.9-.89-7.97-.66-11.74,.66Z" fill="#002346"></path>
    <path d="M458.06,313.49c-.83,0-1.65-.25-2.43-.74-1.03-.69-2.16-1.16-3.36-1.4-3.82-.88-7.79-.65-11.48,.64l-1.68,.59,12.58-15.32c2.26-2.48,3.79-5.51,4.45-8.78,.04-.17,3.64-14.95,15.17-17.27,2.06-.4,4.16-.16,6.08,.71,4.79,2.15,12.9,6.83,13.35,13.99,.02,.1,.27,1.53-.64,2.11-.8,.5-2.02,.11-3.84-1.25-.89-.67-2.07-.74-3.03-.18-3.79,2.24-10.66,6.94-14.13,13.24-.14,.4-4.21,11.56-9.53,13.4-.51,.18-1.01,.26-1.5,.26Zm-10.42-3.67c1.62,0,3.24,.18,4.84,.55,1.32,.27,2.57,.79,3.7,1.54,.99,.62,1.99,.74,3.06,.37,4.87-1.69,8.91-12.75,8.95-12.86,3.61-6.58,10.65-11.4,14.53-13.69,1.31-.77,2.93-.67,4.14,.24,2.02,1.5,2.61,1.26,2.71,1.2,.25-.16,.25-.83,.19-1.14-.44-6.95-9.08-11.55-12.77-13.21-1.72-.78-3.61-1-5.47-.64-10.9,2.2-14.36,16.36-14.39,16.5-.68,3.43-2.3,6.62-4.67,9.22l-10.38,12.64c1.82-.48,3.7-.73,5.57-.73Z" fill="#002346"></path>
  </g>
  <g>
    <ellipse cx="514.85" cy="367.14" rx="10.21" ry="23.38" transform="translate(32.42 775.94) rotate(-75.77)" fill="#fff"></ellipse>
    <path d="M524.03,379.09c-3.68,0-7.72-.53-11.81-1.57-12.98-3.29-21.99-10.43-20.51-16.25h0c1.48-5.82,12.8-7.8,25.78-4.51,6.12,1.55,11.61,4.06,15.47,7.05,3.97,3.08,5.76,6.35,5.04,9.2-.72,2.85-3.85,4.87-8.82,5.69-1.6,.26-3.33,.39-5.15,.39Zm-31.36-17.57c-1.32,5.19,7.56,11.93,19.79,15.04,5.99,1.52,11.87,1.93,16.56,1.16,4.55-.75,7.39-2.5,8.01-4.94,.62-2.44-1.04-5.34-4.68-8.16-3.75-2.91-9.12-5.35-15.11-6.87-12.23-3.1-23.25-1.4-24.56,3.79h0Z" fill="#002346"></path>
  </g>
  <path d="M528.41,371.08s-.08,0-.12-.02c-.27-.07-.43-.34-.36-.61,.75-2.95-4.61-6.95-11.69-8.75-7.08-1.8-13.7-.83-14.45,2.12-.07,.27-.34,.43-.61,.36-.27-.07-.43-.34-.36-.61,.91-3.59,7.79-4.84,15.66-2.84,7.87,2,13.32,6.37,12.41,9.96-.06,.23-.26,.38-.48,.38Z" fill="#002346"></path>
  <g>
    <path d="M508.9,357.86c.04-1.41,.85-2.69,2.11-3.33,0,0,2.86-3.24,5.36-1.48,0,0,3.67,1.91-.59,5.14-1.41,1.28-3.3,1.9-5.2,1.71-.99-.16-1.71-1.03-1.68-2.04Z" fill="#f2b3c1"></path>
    <path d="M511.26,360.43c-.24,0-.49-.01-.73-.04-1.26-.2-2.16-1.3-2.12-2.54,.04-1.56,.92-2.98,2.3-3.71,1.13-1.23,3.73-3.05,5.95-1.49,0,0,1.54,.81,1.67,2.34,.1,1.18-.66,2.39-2.25,3.59-1.3,1.18-3.04,1.84-4.82,1.84Zm3.5-7.38c-1.74,0-3.36,1.79-3.38,1.81l-.15,.11c-1.1,.56-1.81,1.67-1.84,2.9h0c-.02,.76,.52,1.42,1.27,1.54,1.73,.18,3.48-.4,4.79-1.59,1.32-1,1.96-1.94,1.89-2.75-.08-.98-1.19-1.58-1.2-1.59-.45-.32-.92-.44-1.39-.44Z" fill="#002346"></path>
  </g>
  <g>
    <path d="M462.62,422.07c-12.33-3.57-27.28,3.49-27.28,3.49-11.59-2.2-26.12,3.82-26.12,3.82-2.09,.81-3.14,1.8-3.57,2.8-6.71-18.28-6.08-30.94-6.08-30.94-.26-20.94,21.39-30.87,21.39-30.87,19.08,16.29,33.76,16.44,33.76,16.44,.96,.1,1.93-.1,2.77-.58,.77,3.45-.3,7.46-1.08,9.72-.43,1.25-.47,2.61-.1,3.88l6.31,22.24Z" fill="#f3f0ea"></path>
    <path d="M405.65,432.68h-.01c-.2,0-.39-.14-.46-.33-6.67-18.16-6.12-31.01-6.11-31.14-.26-20.99,21.46-31.2,21.68-31.3,.18-.08,.39-.05,.53,.07,18.7,15.96,33.3,16.32,33.44,16.32,.91,.09,1.76-.08,2.52-.51,.14-.08,.31-.09,.45-.02,.15,.06,.25,.19,.29,.35,.76,3.42-.17,7.32-1.1,9.99-.4,1.16-.43,2.4-.09,3.58l6.31,22.24c.05,.17,0,.36-.13,.49s-.32,.17-.49,.13c-12.01-3.48-26.78,3.39-26.93,3.46-.1,.04-.2,.06-.31,.04-11.31-2.15-25.69,3.73-25.83,3.79-1.76,.68-2.87,1.54-3.3,2.54-.08,.18-.26,.3-.46,.3Zm15.23-61.72c-2.53,1.27-21.05,11.2-20.81,30.27,0,.15-.52,12.36,5.7,29.81,.69-.84,1.78-1.55,3.27-2.13,.58-.24,14.66-6,26.23-3.88,1.64-.75,14.96-6.59,26.62-3.68l-6.07-21.39c-.4-1.38-.36-2.82,.11-4.18,.68-1.96,1.68-5.6,1.18-8.82-.77,.32-1.61,.44-2.45,.34h0c-.16,0-14.94-.37-33.78-16.34Z" fill="#002346"></path>
  </g>
  <g>
    <path d="M440.46,469.01l-9.05,49.17c-4-.29-12.92-2-12.92-2l-.15-20.26c-1.12-16.48,1.22-27.23,2.36-31.32,.34-1.23,.21-2.53-.34-3.68-4-8.41-8.25-22.45-8.27-22.56,9.87,.38,25.34-8.2,25.34-8.2l3.08,21.69c2.15,8.14-.05,17.16-.05,17.16Z" fill="#f2b3c1"></path>
    <path d="M431.81,518.7l-.44-.03c-3.98-.29-12.61-1.94-12.98-2.01l-.4-.08-.15-20.66c-1.13-16.64,1.29-27.54,2.38-31.46,.3-1.09,.19-2.28-.31-3.34-4.03-8.46-8.28-22.54-8.31-22.65l-.16-.64,.66,.03c9.61,.38,24.93-8.05,25.08-8.14l.62-.35,3.18,22.4c2.12,8.03,.07,16.79-.06,17.33l-9.13,49.59Zm-12.83-2.93c1.7,.32,8.44,1.56,12.03,1.88l8.98-48.76c.02-.09,2.14-9,.05-16.92l-2.99-21.05c-2.96,1.58-15.43,7.93-24.29,7.94,.87,2.82,4.55,14.49,8.05,21.84,.61,1.27,.74,2.7,.37,4.02-1.08,3.86-3.47,14.63-2.35,31.15l.15,19.88Z" fill="#002346"></path>
  </g>
  <g>
    <path d="M417.14,516.1l-1.91,22.49,27.6,.88s2.35-6.31-8.07-6.61c0,0-5-1.21-2.94-14.71l-14.68-2.05Z" fill="#293838"></path>
    <path d="M443.17,539.98h-.36s-28.13-.91-28.13-.91l2-23.54,15.7,2.19-.08,.5c-1.85,12.12,2.09,13.97,2.53,14.14,4,.13,6.67,1.14,7.93,3.02,1.34,1.99,.56,4.17,.52,4.26l-.13,.34Zm-27.4-1.87l26.68,.85c.13-.59,.27-1.87-.51-3.03-1.07-1.58-3.56-2.47-7.19-2.57h-.1c-.22-.07-5.3-1.46-3.39-14.78l-13.66-1.91-1.82,21.44Z" fill="#002346"></path>
  </g>
  <g>
    <polygon points="415.24 538.59 415.24 542.77 442.68 542.84 442.83 539.47 415.24 538.59" fill="#fff"></polygon>
    <path d="M443.15,543.34l-28.42-.07v-5.2l28.61,.91-.19,4.35Zm-27.42-1.07l26.46,.07,.11-2.39-26.57-.85v3.16Z" fill="#002346"></path>
  </g>
  <g>
    <path d="M443.06,517.6s-1.45-43.8,3.9-53.72c.34-.62,.45-1.34,.26-2.03l-8.79-31.7,17.61-4.89,5,5.1,5.81,26.94c.31,1.42,.31,2.9,0,4.32l-12.07,56.55-11.72-.58Z" fill="#f2b3c1"></path>
    <path d="M455.17,518.69l-12.59-.62-.02-.45c-.06-1.79-1.39-44.04,3.96-53.97,.29-.53,.36-1.12,.21-1.66l-8.92-32.17,18.36-5.1,5.3,5.41,.03,.14,5.81,26.94c.32,1.5,.32,3.03,0,4.53l-12.16,56.96Zm-11.64-1.56l10.85,.54,11.98-56.14c.29-1.37,.29-2.75,0-4.11l-5.78-26.8-4.7-4.79-16.86,4.68,8.65,31.22c.22,.78,.11,1.63-.3,2.39-4.94,9.16-3.99,48.34-3.85,53.01Z" fill="#002346"></path>
  </g>
  <g>
    <ellipse cx="469.18" cy="297.75" rx="2.41" ry="3.28" fill="#f2b3c1"></ellipse>
    <path d="M469.18,301.53c-1.6,0-2.91-1.7-2.91-3.78s1.3-3.78,2.91-3.78,2.91,1.7,2.91,3.78-1.3,3.78-2.91,3.78Zm0-6.56c-1.03,0-1.91,1.27-1.91,2.78s.87,2.78,1.91,2.78,1.91-1.27,1.91-2.78-.87-2.78-1.91-2.78Z" fill="#002346"></path>
  </g>
  <g>
    <path d="M466.14,426.9c-.6,1.88-2.88,3.8-9.63,3.95l-19.37-.74s-15.47,8.58-25.34,8.2c-.85-.03-1.69-.14-2.51-.34-1.69-.39-3.07-1.62-3.65-3.26-.33-.81-.33-1.72,0-2.53,.43-1,1.48-2,3.57-2.8,0,0,14.53-6,26.12-3.82,0,0,14.95-7.06,27.28-3.49l1.2,.39c1.85,.61,2.88,2.57,2.33,4.44Z" fill="#293838"></path>
    <path d="M412.45,438.83c-.23,0-.45,0-.67-.01-.87-.03-1.75-.15-2.61-.35-1.87-.43-3.36-1.77-4-3.58-.37-.92-.37-1.95,0-2.88,.55-1.28,1.84-2.31,3.85-3.08,.58-.24,14.66-5.98,26.23-3.87,1.68-.77,15.63-6.88,27.48-3.45l1.22,.39c2.12,.7,3.29,2.92,2.66,5.06h0c-.87,2.73-4.27,4.18-10.1,4.31l-19.26-.73c-1.55,.85-15.28,8.21-24.8,8.21Zm17.42-13.24c-10.03,0-20.35,4.21-20.48,4.26-1.76,.67-2.87,1.53-3.3,2.54-.28,.69-.28,1.45,0,2.14,.53,1.51,1.76,2.61,3.3,2.96,.79,.19,1.6,.3,2.41,.33,9.62,.35,24.93-8.05,25.08-8.14l.12-.07h.14s19.37,.74,19.37,.74c5.25-.12,8.41-1.36,9.13-3.6,.47-1.62-.41-3.29-2.01-3.82l-1.2-.39c-11.99-3.47-26.76,3.4-26.91,3.47l-.15,.07-.16-.03c-1.73-.33-3.54-.46-5.36-.46Z" fill="#002346"></path>
  </g>
  <g>
    <rect x="142.07" y="328.29" width="1.32" height="33.81" transform="translate(-136.92 97.55) rotate(-26.01)" fill="#fff"></rect>
    <path d="M149.32,361.35l-15.27-31.29,2.08-1.02,15.27,31.29-2.08,1.02Zm-13.93-30.82l14.39,29.49,.29-.14-14.39-29.49-.29,.14Z" fill="#002346"></path>
  </g>
  <g>
    <path d="M293.99,366.81l21.06-2.78c.65-.06,1.24,.41,1.31,1.06h0c.07,.66-.41,1.25-1.07,1.32,0,0-.01,0-.02,0l-21.28,1.74v-1.34Z" fill="#fff"></path>
    <path d="M293.49,368.7v-2.32l21.49-2.84c.93-.08,1.77,.58,1.87,1.5,.1,.94-.58,1.77-1.51,1.87l-21.85,1.79Zm1-1.45v.36l20.74-1.7c.39-.04,.67-.39,.63-.77-.04-.38-.39-.67-.76-.61l-20.61,2.72Z" fill="#002346"></path>
  </g>
  <polygon points="250.91 468.13 279.02 468.13 274.47 448.95 250.91 468.13" fill="#002346"></polygon>
  <g opacity=".2">
    <polygon points="250.91 468.13 279.02 468.13 274.47 448.95 250.91 468.13"></polygon>
  </g>
  <g>
    <polygon points="167.13 435.14 185.42 435.14 186.61 439.22 169.21 439.22 167.13 435.14" fill="#e6e7e8"></polygon>
    <path d="M187.27,439.72h-18.37l-2.59-5.08h19.48l1.48,5.08Zm-17.76-1h16.43l-.9-3.08h-17.1l1.57,3.08Z" fill="#002346"></path>
  </g>
  <g>
    <polygon points="175.68 456.53 201.61 456.53 203.13 460.06 177 460.06 175.68 456.53" fill="#e6e7e8"></polygon>
    <path d="M203.89,460.56h-27.24l-1.69-4.53h26.98l1.95,4.53Zm-26.54-1h25.02l-1.09-2.53h-24.88l.95,2.53Z" fill="#002346"></path>
  </g>
  <g>
    <polygon points="194.12 490.88 218.25 520.24 176.87 569.26 183.55 569.26 222.05 523.63 257.44 569.26 264.05 569.26 224.85 520.24 249.73 490.88 241.87 490.88 221.63 515.84 201.61 490.88 194.12 490.88" fill="#fff"></polygon>
    <path d="M265.09,569.76h-7.9l-35.16-45.33-38.25,45.33h-7.99l41.81-49.52-24.54-29.86h8.79l19.78,24.66,20-24.66h9.18l-25.31,29.87,39.59,49.51Zm-7.41-1h5.33l-38.81-48.53,24.45-28.85h-6.54l-20.48,25.26-20.26-25.26h-6.19l23.72,28.86-40.95,48.52h5.37l38.75-45.92,35.62,45.92Z" fill="#002346"></path>
  </g>
  <g>
    <polygon points="228.35 490.88 253.04 520.24 213.5 569.26 220.46 569.26 257.44 525.22 294.52 569.26 299.81 569.26 260.08 520.68 281.35 496.09 280.49 490.88 276.41 490.88 256.65 516.41 235.89 490.88 228.35 490.88" fill="#fff"></polygon>
    <path d="M300.86,569.76h-6.58l-36.85-43.76-36.75,43.76h-8.24l39.94-49.51-25.12-29.87h8.85l20.51,25.23,19.52-25.23h4.75l.97,5.86-21.15,24.45,40.13,49.07Zm-6.11-1h4l-39.33-48.09,21.39-24.73-.75-4.56h-3.41l-20,25.83-21.01-25.83h-6.23l24.26,28.85-39.14,48.53h5.68l37.21-44.32,37.31,44.32Z" fill="#002346"></path>
  </g>
  <g>
    <polygon points="315.13 497.49 321.73 509.23 332.57 505.07 328.49 489.85 315.13 497.49" fill="#f2b3c1"></polygon>
    <path d="M321.51,509.84l-7.05-12.54,14.34-8.2,4.36,16.26-11.65,4.47Zm-5.71-12.17l6.15,10.94,10.03-3.85-3.8-14.18-12.38,7.08Z" fill="#002346"></path>
  </g>
  <g>
    <rect x="290.76" y="534.18" width="13.8" height="19.08" fill="#f2b3c1"></rect>
    <path d="M305.05,553.75h-14.78v-20.06h14.78v20.06Zm-13.8-.98h12.82v-18.1h-12.82v18.1Z" fill="#002346"></path>
  </g>
  <path d="M193.87,468.13h85.15v11.3h-93.94v-2.51c0-4.85,3.94-8.79,8.79-8.79Z" fill="#fff"></path>
  <g>
    <rect x="230.58" y="479.43" width="53.72" height="11.45" fill="#fff"></rect>
    <path d="M284.8,491.38h-54.72v-12.45h54.72v12.45Zm-53.72-1h52.72v-10.45h-52.72v10.45Z" fill="#002346"></path>
  </g>
  <g>
    <path d="M177,396.21l-29.35,1.39,5,24h6.21s15.16,41.33,21.59,57.87h6.2l-21.83-57.87h16.82s-3.9-15.56-4.64-25.39Z" fill="#fff"></path>
    <path d="M187.37,479.97h-7.27l-.12-.32c-6.06-15.58-20.03-53.61-21.47-57.55h-6.27l-5.2-24.97,30.42-1.44,.04,.49c.73,9.67,4.59,25.15,4.63,25.31l.16,.62h-16.74l21.83,57.87Zm-6.58-1h5.13l-21.83-57.87h16.91c-.72-2.95-3.73-15.72-4.46-24.37l-28.28,1.34,4.8,23.03h6.15l.12,.33c.15,.41,15.04,40.99,21.46,57.54Z" fill="#002346"></path>
  </g>
  <g>
    <polygon points="147.65 397.6 142.73 397.6 147.65 421.6 152.61 421.6 147.65 397.6" fill="#e6e7e8"></polygon>
    <path d="M153.22,422.1h-5.98l-5.12-25h5.94l5.17,25Zm-5.17-1h3.94l-4.75-23h-3.9l4.71,23Z" fill="#002346"></path>
  </g>
  <g>
    <path d="M245.88,369.4l57.46,2.54c.6,.02,1.08,.52,1.07,1.12h0c0,.62-.5,1.12-1.12,1.12h-4.41c-.5,0-.97,.2-1.31,.56l-4.54,4.77c-.6,.64-1.44,1-2.32,1l-28-1c-.8,0-1.58-.3-2.17-.84l-8.82-6.27c-.34-.32-.8-.49-1.27-.48l-4.62,.12c-.72,.02-1.32-.56-1.34-1.28,0,0,0-.01,0-.02h0c-.02-.72,.55-1.32,1.28-1.34,.04,0,.08,0,.11,0Z" fill="#fff"></path>
    <path d="M290.71,381.01l-28.02-1h0c-.91,0-1.8-.34-2.48-.97l-8.77-6.23c-.3-.27-.63-.41-.97-.39l-4.62,.12c-.98-.01-1.83-.77-1.85-1.77-.02-1.02,.77-1.85,1.76-1.88,.05,0,.1,0,.15,0l57.45,2.54c.88,.03,1.56,.75,1.55,1.62,0,.89-.73,1.62-1.62,1.62h-4.42c-.36,0-.7,.15-.94,.4l-4.54,4.77c-.7,.73-1.67,1.15-2.68,1.16Zm-28-2l28.02,1c.72,0,1.43-.31,1.94-.84l4.54-4.77c.43-.46,1.07-.68,1.67-.72h4.41c.34,0,.62-.28,.62-.62,0-.34-.25-.61-.59-.62l-57.54-2.54c-.45,.01-.8,.38-.79,.83,0,.47,.36,.82,.83,.81l4.62-.12c.62,0,1.18,.2,1.62,.61l8.77,6.23c.55,.5,1.2,.75,1.88,.75h0Z" fill="#002346"></path>
  </g>
  <g>
    <path d="M269.87,370.51s-1.57-2.58,2.4-4.93c0,0,4.25-4,5.87-1,1.08,2.01,1.83,4.18,2.23,6.43l-10.5-.5Z" fill="#f3f0ea"></path>
    <path d="M280.37,371.51s-.02,0-.02,0l-10.5-.5c-.17,0-.32-.1-.4-.24-.02-.04-.61-1.02-.28-2.36,.3-1.22,1.25-2.3,2.8-3.23,.36-.33,2.82-2.51,4.83-2.18,.77,.12,1.37,.58,1.78,1.34,1.11,2.06,1.87,4.28,2.28,6.58,.03,.15-.02,.3-.12,.42-.1,.11-.23,.17-.38,.17Zm-10.17-1.49l9.56,.46c-.41-1.98-1.1-3.88-2.06-5.66-.26-.49-.61-.76-1.06-.83-1.36-.23-3.37,1.34-4.03,1.96-.03,.03-.06,.05-.09,.07-1.34,.8-2.15,1.69-2.39,2.64-.15,.6-.04,1.1,.06,1.37Z" fill="#002346"></path>
  </g>
  <g>
    <path d="M281.81,361.27l1.38,9.66,11.16,.61s1.11-10.27-4.47-11.15l-8.07,.88Z" fill="#f3f0ea"></path>
    <path d="M294.35,372.04s-.02,0-.03,0l-11.16-.61c-.24-.01-.43-.19-.47-.43l-1.38-9.66c-.02-.13,.02-.27,.1-.38s.21-.18,.34-.19l8.07-.88s.09,0,.13,0c5.98,.94,4.94,11.26,4.89,11.7-.03,.25-.24,.45-.5,.45Zm-10.72-1.59l10.26,.56c.13-1.96,.31-9.36-4.02-10.12l-7.49,.82,1.25,8.74Z" fill="#002346"></path>
  </g>
  <g>
    <path d="M252.91,374.01c-3.31,2-6.09,4.78-8.09,8.1l-17.17,19.26-4.26,10.14,6.9,10.13,4.48-5.93,18.64-28.93c.54-.83,1.51-1.28,2.49-1.13,4.41,.65,16.66,2.02,19.89-2.17,0,0,4-5,3.14-8.65-.2-.81-1.02-1.3-1.83-1.1-.28,.07-.53,.22-.73,.43-1.53,1.69-2.82,3.59-3.81,5.65l-11.3-.74s-2.66-1.89-6.97-4.99c-.4-.29-.95-.32-1.37-.07Z" fill="#f2b3c1"></path>
    <path d="M230.27,422.49l-7.44-10.92,4.45-10.52,17.17-19.26c1.98-3.3,4.84-6.16,8.21-8.2,.59-.35,1.34-.32,1.91,.09,3.79,2.72,6.31,4.52,6.86,4.91l10.83,.71c.99-1.99,2.25-3.82,3.74-5.47,.27-.28,.6-.48,.97-.57,1.07-.27,2.16,.38,2.43,1.45,.91,3.85-3.06,8.87-3.23,9.08-3.34,4.32-15.34,3.08-20.34,2.34-.78-.11-1.57,.24-2,.91l-18.64,28.93-4.91,6.51Zm-6.32-11.03l6.36,9.34,4.07-5.38,18.62-28.9c.64-.99,1.81-1.53,2.97-1.35,3.77,.55,16.32,2.05,19.43-1.98,.04-.05,3.85-4.86,3.05-8.24-.14-.54-.69-.87-1.24-.73-.19,.05-.36,.15-.49,.29-1.5,1.65-2.75,3.51-3.72,5.53l-.14,.3-11.77-.77-.11-.08s-2.67-1.89-6.98-4.99c-.25-.18-.58-.2-.83-.05h0c-3.24,1.95-5.98,4.69-7.93,7.93l-17.17,19.27-4.12,9.82Z" fill="#002346"></path>
  </g>
  <g>
    <path d="M237.96,425.91c-.58,1.46-1.44,2.79-2.54,3.91,0,0-8.56,14-36.35,24.56-.64,.22-1.33,.29-2,.22-2.15-.19-5.58-1.71-8.06-8.7,0,0-9.91-27.24-12-49.69-4.81-7.27-8.9-15-12.22-23.06,0,0,5.91-10.12,11.78-12l13.28-2.44,15.68-.89s2.39-3.47,4.84-1.76c0,0,11.38,8.67,17.35,17.65,1.64,2.46,2.63,5.29,2.88,8.23,.3,3.61,.06,9.15-2.21,16.64,0,0-2.71,3.22,2.31,10.13l5.91,10.13c1.79,1.89,2.32,4.65,1.35,7.07Z" fill="#f3f0ea"></path>
    <path d="M197.57,455.13c-.18,0-.37,0-.55-.03-2.48-.22-5.97-1.96-8.48-9.03-.1-.27-9.92-27.45-12.02-49.69-4.79-7.25-8.89-15-12.2-23.04-.06-.14-.05-.31,.03-.44,.25-.42,6.08-10.31,12.06-12.22l13.34-2.46,15.51-.88c.41-.53,1.62-1.92,3.14-2.2,.79-.15,1.55,.03,2.25,.51,.13,.1,11.53,8.84,17.48,17.78,1.68,2.52,2.7,5.45,2.96,8.46,.28,3.39,.12,9.06-2.23,16.83-.02,.06-.05,.12-.1,.18-.02,.03-2.36,3.06,2.33,9.51l5.91,10.12c1.88,2.02,2.44,4.98,1.41,7.56-.6,1.51-1.47,2.87-2.61,4.04-.62,.95-9.78,14.54-36.57,24.71-.56,.19-1.12,.28-1.68,.28Zm-32.22-81.93c3.28,7.93,7.34,15.58,12.08,22.74,.05,.07,.07,.15,.08,.23,2.06,22.13,11.87,49.29,11.97,49.57,2.33,6.57,5.44,8.18,7.63,8.37,.61,.07,1.22,0,1.8-.2,27.3-10.37,36-24.21,36.08-24.35,.02-.03,.04-.06,.07-.09,1.06-1.08,1.88-2.34,2.43-3.74,0,0,0,0,0,0,.89-2.23,.4-4.8-1.25-6.54-.03-.03-.05-.06-.07-.09l-5.91-10.13c-4.77-6.56-2.76-10.01-2.33-10.61,2.28-7.57,2.44-13.08,2.17-16.37-.24-2.85-1.21-5.61-2.8-7.99-5.85-8.81-17.12-17.44-17.24-17.53-.46-.32-.94-.43-1.47-.34-1.44,.26-2.64,1.97-2.65,1.99-.09,.13-.23,.21-.38,.21l-15.68,.89-13.22,2.43c-5.1,1.64-10.43,10.1-11.31,11.55Z" fill="#002346"></path>
  </g>
  <g>
    <path d="M177,396.21s-9.1,29.5-15.12,16c0,0-6.9-23-7.92-47.41,0,0-11.31,.88-13.36-5.13,0,0-5.23-5.52,.54-12.39,.33-.4,.88-.56,1.37-.39,.67,.25,1.28,1.16,.44,4.12,0,0-1.91,6,2.49,6.6l5.71-.27c.23,0,.41-.2,.4-.44,0-.01,0-.03,0-.04-.19-1.41-.79-2.73-1.71-3.81-.35-.34-.8-.58-1.28-.67-1.21-.16-2.34-.7-3.21-1.56-.21-.27-.16-.66,.1-.87,.13-.1,.29-.15,.45-.13,2.62,.2,10.34,1.5,13.49,9.84l5.39,13.49s6.06,14.36,12.22,23.06Z" fill="#f2b3c1"></path>
    <path d="M165.48,416.24c-1.56,0-2.92-1.29-4.05-3.83-.09-.29-6.86-23.08-7.94-47.09-2.28,.1-11.34,.13-13.32-5.4-.64-.75-4.99-6.3,.6-12.96,.46-.55,1.22-.77,1.9-.54,1.26,.47,1.51,2.06,.76,4.72-.01,.05-.96,3.1,.13,4.84,.41,.65,1.05,1.02,1.95,1.14l5.55-.27c-.19-1.29-.74-2.49-1.59-3.48-.25-.25-.61-.43-1-.51-1.28-.16-2.52-.77-3.46-1.69-.42-.53-.34-1.23,.14-1.61,.23-.18,.51-.26,.8-.23,2.42,.18,10.62,1.46,13.9,10.16l5.39,13.48c.06,.13,6.11,14.4,12.16,22.96l.14,.2-.07,.23c-.62,2-6.19,19.54-11.81,19.88-.06,0-.12,0-.17,0Zm-11.05-51.97l.02,.51c1.01,24.06,7.83,47.06,7.9,47.29,.97,2.16,2.06,3.24,3.24,3.18,4.13-.25,9.17-13.55,10.86-18.96-6.07-8.66-12.07-22.81-12.13-22.95l-5.39-13.5c-3-7.93-10.14-9.31-13.07-9.53l-.41-.36,.3,.39c-.06,.04-.07,.12-.02,.18,.75,.73,1.79,1.23,2.89,1.38,.61,.12,1.14,.39,1.56,.81,1.02,1.18,1.65,2.59,1.85,4.1,.03,.59-.37,1.02-.87,1.04l-5.71,.27c-1.28-.17-2.17-.7-2.74-1.6-1.34-2.12-.29-5.5-.24-5.64,.56-1.98,.51-3.27-.14-3.51-.28-.09-.62,0-.82,.24-5.41,6.44-.76,11.53-.56,11.74l.11,.18c1.9,5.58,12.75,4.81,12.86,4.8l.51-.04Zm-3.3-7.42h0Z" fill="#002346"></path>
  </g>
  <g>
    <circle cx="134.73" cy="327.77" r="4.33" fill="#293838"></circle>
    <path d="M134.73,332.6c-2.66,0-4.83-2.17-4.83-4.83s2.17-4.83,4.83-4.83,4.83,2.17,4.83,4.83-2.17,4.83-4.83,4.83Zm0-8.66c-2.11,0-3.83,1.72-3.83,3.83s1.72,3.83,3.83,3.83,3.83-1.72,3.83-3.83-1.72-3.83-3.83-3.83Z" fill="#002346"></path>
  </g>
  <g>
    <circle cx="139.87" cy="338.78" r="6.39" fill="#293838"></circle>
    <path d="M139.87,345.67c-3.8,0-6.89-3.09-6.89-6.89s3.09-6.89,6.89-6.89,6.89,3.09,6.89,6.89-3.09,6.89-6.89,6.89Zm0-12.78c-3.25,0-5.89,2.64-5.89,5.89s2.64,5.89,5.89,5.89,5.89-2.64,5.89-5.89-2.64-5.89-5.89-5.89Z" fill="#002346"></path>
  </g>
  <g>
    <path d="M328.48,480.17l-20.79,10.71-1.25,36.26h-19.94l-12-72.52-22.36,12.83c-2.47,1.42-5.12,2.51-7.88,3.24-33.85,8.82-47.25-16.07-47.25-16.07h0c.67,.07,1.36,0,2-.22,27.79-10.52,36.35-24.56,36.35-24.56,1.1-1.12,1.96-2.45,2.54-3.91l.48-.13,47.48-18c29.21-9.83,27.74,12,27.74,12l14.88,60.37Z" fill="#293838"></path>
    <path d="M306.92,527.64h-20.85l-11.95-72.23-21.73,12.47c-2.51,1.44-5.2,2.55-8,3.29-33.84,8.82-47.68-16.06-47.82-16.32l-.45-.83,.94,.1c.61,.06,1.21,0,1.79-.2,27.26-10.32,36-24.21,36.08-24.35l.07-.09c1.06-1.08,1.88-2.34,2.43-3.74l.09-.23,.72-.2,47.43-17.99c10.55-3.55,18.36-3.44,23.25,.33,5.39,4.15,5.22,11.21,5.17,12.09l14.96,60.68-20.88,10.76-1.26,36.45Zm-20-1h19.03l1.24-36.07,20.7-10.66-14.8-60.06v-.08c0-.07,.42-7.31-4.78-11.32-4.61-3.54-12.11-3.61-22.29-.18l-47.46,17.99-.29,.08c-.59,1.42-1.44,2.7-2.52,3.81-.62,.96-9.78,14.58-36.57,24.72-.42,.14-.85,.23-1.28,.26,2.6,4.05,16.51,22.82,46.23,15.08,2.71-.72,5.33-1.79,7.76-3.19l22.99-13.19,12.05,72.81Z" fill="#002346"></path>
  </g>
  <g>
    <path d="M285.04,530.81s-3.37-5.27,3.08-5.86l13.65-1.19c1.5-.23,3.02-.14,4.48,.28,.92,.34,1.53,1.22,1.54,2.2v6c0,1.72-1.34,3.14-3.06,3.25l-15.3,.91c-1.46,.09-2.81-.82-3.27-2.21l-1.12-3.38Z" fill="#f3f0ea"></path>
    <path d="M289.23,536.91c-1.6,0-3.04-1.03-3.55-2.56l-1.1-3.33c-.24-.39-1.5-2.63-.61-4.45,.59-1.21,1.97-1.93,4.1-2.12l13.65-1.19c1.52-.24,3.15-.14,4.66,.3,1.15,.42,1.9,1.49,1.9,2.68v6c0,1.98-1.55,3.63-3.53,3.75l-15.3,.91c-.08,0-.15,0-.22,0Zm14.14-12.77c-.51,0-1.02,.04-1.53,.12l-13.68,1.19c-1.75,.16-2.86,.69-3.29,1.56-.71,1.45,.57,3.51,.59,3.53,.02,.03,.04,.07,.05,.11l1.12,3.38c.39,1.17,1.53,1.94,2.77,1.87l15.3-.91c1.45-.09,2.59-1.3,2.59-2.75v-6c0-.77-.49-1.46-1.21-1.73-.86-.25-1.78-.37-2.7-.37Z" fill="#002346"></path>
  </g>
  <g>
    <path d="M307.69,490.88l3.71,7.93c.7,1.45,2.41,2.09,3.89,1.45l15.4-6.85c1.23-.55,1.98-1.82,1.87-3.16l-.71-8.69c-.1-1.25-1.19-2.18-2.44-2.08-.31,.02-.62,.11-.9,.26l-20.82,11.14Z" fill="#f3f0ea"></path>
    <path d="M314.09,501.01c-1.3,0-2.54-.73-3.15-1.98l-3.71-7.94c-.11-.24-.02-.53,.22-.65l20.82-11.14c.34-.18,.71-.29,1.1-.32,1.53-.11,2.86,1.02,2.98,2.54l.71,8.69c.13,1.55-.74,3.02-2.17,3.66l-15.4,6.85c-.46,.2-.93,.29-1.4,.29Zm-5.75-9.91l3.51,7.5c.58,1.21,2.01,1.74,3.24,1.2l15.4-6.85c1.04-.46,1.67-1.53,1.58-2.66l-.71-8.69c-.08-.97-.93-1.69-1.9-1.63-.25,.02-.48,.09-.7,.21l-20.4,10.92Z" fill="#002346"></path>
  </g>
  <g>
    <rect x="320.96" y="516.98" width="40.21" height="3.52" rx="1.37" ry="1.37" transform="translate(-164.69 158.71) rotate(-21.23)" fill="#fff"></rect>
    <path d="M323.74,527.75c-.26,0-.51-.05-.75-.16-.46-.2-.81-.57-.99-1.04l-.28-.73c-.37-.96,.1-2.05,1.07-2.42l34.93-13.57c.96-.37,2.05,.11,2.42,1.07l.28,.73c.37,.96-.1,2.05-1.07,2.42l-34.93,13.57c-.22,.09-.45,.13-.68,.13Zm-.6-3.41c-.45,.17-.67,.68-.5,1.13l.28,.73c.08,.22,.25,.39,.46,.48,.21,.09,.45,.1,.67,.01l34.93-13.57c.45-.17,.67-.68,.5-1.13l-.28-.73c-.17-.45-.68-.67-1.13-.5l-34.93,13.57Z" fill="#002346"></path>
  </g>
  <g>
    <rect x="287.43" y="566.14" width="40.21" height="3.52" rx="1.37" ry="1.37" transform="translate(-13.1 7.29) rotate(-1.33)" fill="#fff"></rect>
    <path d="M288.81,570.6c-.48,0-.94-.18-1.29-.52-.36-.34-.57-.81-.58-1.31l-.02-.78c-.01-.5,.17-.97,.52-1.33,.34-.36,.81-.57,1.31-.58l37.46-.87c.49,0,.97,.17,1.33,.52,.36,.34,.57,.81,.58,1.31l.02,.78c.02,1.03-.8,1.89-1.83,1.91l-37.46,.87h-.04Zm-.04-3.52h0c-.23,0-.45,.1-.61,.27-.16,.17-.25,.39-.24,.62l.02,.78c0,.23,.1,.45,.27,.61,.17,.16,.39,.22,.62,.24l37.46-.87c.23,0,.45-.1,.61-.27,.16-.17,.25-.39,.24-.62l-.02-.78c0-.23-.1-.45-.27-.61s-.39-.24-.62-.24l-37.46,.87Z" fill="#002346"></path>
  </g>
  <g>
    <path d="M323.14,523.63l-4.8-12.49s-3.53-4.7,4-5.58l7.63-2.35s4.41-2.93,9,3.08c0,0,4.38,4.11,9.89,2.94,0,0,8.16-3.08,8.6,1.17l-34.32,13.23Z" fill="#f3f0ea"></path>
    <path d="M323.14,524.13c-.07,0-.14-.01-.2-.04-.12-.05-.22-.15-.26-.28l-4.78-12.43c-.24-.35-1.36-2.08-.65-3.73,.6-1.39,2.29-2.26,5.04-2.58l7.48-2.31c.62-.36,5.11-2.65,9.6,3.24h0s4.23,3.85,9.39,2.75c.15-.06,5.45-2.03,7.93-.5,.75,.46,1.17,1.17,1.27,2.11,.02,.22-.11,.44-.32,.52l-34.32,13.23c-.06,.02-.12,.03-.18,.03Zm9.51-21.12c-1.44,0-2.38,.6-2.4,.61-.04,.03-.08,.05-.13,.06l-7.63,2.35c-2.42,.29-3.88,.98-4.32,2-.55,1.28,.56,2.78,.58,2.8,.03,.04,.05,.08,.07,.12l4.62,12.02,33.47-12.9c-.12-.43-.36-.76-.73-.99-1.71-1.06-5.72,.08-7.13,.61-5.77,1.23-10.22-2.87-10.41-3.04-2.24-2.93-4.41-3.64-5.98-3.64Z" fill="#002346"></path>
  </g>
  <g>
    <path d="M289.03,566.42l-.26-13.18c0-.12-.02-.25-.05-.37-.21-.92-.91-5.27,5.67-3.73l8,.39s4.58-1.13,7,4.82c.59,1.53,1.49,2.92,2.64,4.09,1.62,1.69,3.75,2.8,6.07,3.16,0,0,8.71-.12,7.68,4l-36.75,.82Z" fill="#f3f0ea"></path>
    <path d="M289.03,566.92c-.13,0-.25-.05-.35-.14-.1-.09-.15-.22-.15-.35l-.26-13.18c0-.09-.01-.17-.03-.25-.17-.73-.42-2.53,.76-3.7,1.05-1.04,2.9-1.26,5.51-.65l7.85,.38c.66-.12,5.13-.7,7.5,5.13,.58,1.48,1.43,2.8,2.53,3.93,1.54,1.61,3.59,2.68,5.79,3.01,.16-.01,5.81-.06,7.62,2.22,.54,.68,.7,1.49,.47,2.4-.05,.22-.25,.37-.47,.38l-36.75,.82h-.01Zm2.9-17.6c-1.02,0-1.77,.23-2.23,.69-.85,.84-.59,2.32-.49,2.75,.04,.15,.06,.31,.06,.48l.25,12.67,35.84-.8c.04-.44-.08-.83-.35-1.17-1.24-1.57-5.41-1.89-6.9-1.84-2.49-.38-4.75-1.55-6.44-3.31-1.2-1.22-2.12-2.66-2.75-4.25-2.22-5.45-6.25-4.56-6.42-4.51-.05,0-.09,.02-.14,.01l-8-.39c-.93-.21-1.75-.32-2.44-.32Z" fill="#002346"></path>
  </g>
  <g>
    <path d="M578.66,329.91s13-4.25,5.9-20.4c-2.97-5.21-2.97-11.61,0-16.82,0,0-14,4-5.9,18.61,0,0,6.31,8.33,0,18.61Z" fill="#fff"></path>
    <path d="M577.52,330.81l.71-1.16c6.05-9.85,.28-17.72,.03-18.05-2.7-4.86-3.31-9.06-1.86-12.56,2.11-5.09,7.78-6.76,8.02-6.83l1.18-.34-.61,1.06c-2.87,5.04-2.87,11.29,0,16.33,2.49,5.66,2.85,10.5,1.1,14.42-2.24,5-7.07,6.63-7.28,6.7l-1.29,.42Zm5.99-37.19c-1.71,.75-4.83,2.51-6.19,5.81-1.32,3.2-.73,7.11,1.78,11.63,.02,.03,5.86,7.93,.75,17.77,1.53-.82,3.99-2.53,5.34-5.56,1.63-3.65,1.26-8.21-1.08-13.55-2.8-4.91-3-10.97-.59-16.09Z" fill="#002346"></path>
  </g>
  <g>
    <path d="M596.42,331.08s13-4.25,5.9-20.4c-2.96-5.22-2.96-11.6,0-16.82,0,0-14,4-5.9,18.61,0,.04,6.31,8.34,0,18.61Z" fill="#fff"></path>
    <path d="M595.28,331.98l.71-1.16c5.58-9.09,1.02-16.6,.05-18.01l-.09-.15c-2.63-4.77-3.23-8.96-1.79-12.44,2.11-5.09,7.78-6.76,8.02-6.83l1.18-.34-.6,1.06c-2.86,5.04-2.86,11.29,0,16.33,2.49,5.66,2.85,10.5,1.1,14.42-2.24,5-7.07,6.63-7.28,6.7l-1.29,.42Zm1.57-19.76c1.02,1.49,5.44,8.79,.76,17.78,1.53-.82,3.98-2.53,5.33-5.56,1.63-3.65,1.26-8.21-1.08-13.55-2.79-4.91-2.99-10.98-.59-16.09-1.71,.75-4.83,2.51-6.19,5.81-1.32,3.2-.73,7.11,1.77,11.61Z" fill="#002346"></path>
  </g>
  <g>
    <path d="M614.03,329.91s13-4.25,5.91-20.4c-2.97-5.21-2.97-11.61,0-16.82,0,0-14,4-5.91,18.61,0,0,6.31,8.33,0,18.61Z" fill="#fff"></path>
    <path d="M612.89,330.81l.71-1.16c6.05-9.85,.28-17.72,.03-18.05-2.69-4.86-3.3-9.06-1.85-12.56,2.11-5.09,7.78-6.76,8.02-6.83l1.18-.34-.61,1.06c-2.87,5.04-2.87,11.29,0,16.33,2.49,5.66,2.85,10.5,1.09,14.42-2.24,5.01-7.08,6.64-7.28,6.7l-1.29,.42Zm6-37.19c-1.71,.75-4.83,2.51-6.19,5.81-1.33,3.2-.73,7.11,1.77,11.63,.02,.03,5.86,7.93,.75,17.77,1.53-.82,3.99-2.53,5.34-5.56,1.63-3.65,1.27-8.21-1.08-13.55-2.8-4.91-3-10.97-.59-16.09Z" fill="#002346"></path>
  </g>
  <g>
    <path d="M671.08,571.76h39.14l-.08-14.53-15-.72s-14.25,9.84-18.8,10.28c.03-.02-6.43,.72-5.26,4.97Z" fill="#293838"></path>
    <path d="M710.72,572.26h-40.02l-.1-.37c-.59-2.16,.49-3.91,3.06-4.93,.09-.04,1.76-.71,2.64-.63v-.04c4.37-.42,18.42-10.1,18.56-10.19l.14-.1h.17s15.47,.75,15.47,.75l.09,15.51Zm-39.24-1h38.24l-.07-13.55-14.36-.69c-1.58,1.08-14.46,9.84-18.9,10.27h-.07c-.39,.06-3.32,.5-4.45,2.12-.38,.54-.51,1.15-.39,1.86Z" fill="#002346"></path>
  </g>
  <g>
    <rect x="671.08" y="571.76" width="39.19" height="3.23" fill="#fff"></rect>
    <path d="M710.77,575.49h-40.19v-4.23h40.19v4.23Zm-39.19-1h38.19v-2.23h-38.19v2.23Z" fill="#002346"></path>
  </g>
  <g>
    <path d="M716.78,571.76h33.67l-.08-14.53-12.87-.72s-12.26,9.84-16.17,10.28c0-.02-5.56,.72-4.55,4.97Z" fill="#293838"></path>
    <path d="M750.95,572.26h-34.57l-.09-.38c-.39-1.66,.08-3.08,1.36-4.11,1.12-.91,2.9-1.43,3.63-1.46h0c3.72-.43,15.79-10.09,15.91-10.19l.15-.12,13.53,.76,.09,15.5Zm-33.76-1h32.75l-.07-13.56-12.21-.68c-1.48,1.18-12.46,9.84-16.28,10.27h-.08c-.36,.06-2.63,.47-3.65,1.9-.43,.59-.58,1.27-.46,2.07Z" fill="#002346"></path>
  </g>
  <g>
    <rect x="716.78" y="571.76" width="33.71" height="3.23" fill="#fff"></rect>
    <path d="M750.99,575.49h-34.71v-4.23h34.71v4.23Zm-33.71-1h32.71v-2.23h-32.71v2.23Z" fill="#002346"></path>
  </g>
  <g>
    <path d="M677.48,340.58l14.45,10.56,44.47,15.27s5.14,5.77,20.7,5c0,0-8.2-27.62-11.1-35.83-.49-1.38-.72-2.84-.66-4.31,.31-7.1,.33-28.51-10.56-29.73l-14.54-1.32h-8.11s-1.84-4.55-6.24-2.5c0,0-5.28,.57-7.19,8.51l-4.33,1.89s-11.23,4.87-16.08,21.9l-1.81,7.84c-.23,1.02,.15,2.09,.99,2.72Z" fill="#f3f0ea"></path>
    <path d="M754.27,371.98c-12.56,0-17.42-4.39-18.16-5.14l-44.35-15.23s-.09-.04-.13-.07l-14.45-10.56s0,0,0,0c-.99-.75-1.45-2.02-1.17-3.23l1.81-7.84c4.87-17.08,15.9-22.04,16.37-22.25l4.1-1.79c1.9-7.5,6.74-8.52,7.48-8.64,1.39-.63,2.7-.72,3.88-.25,1.6,.63,2.49,2.09,2.82,2.74h7.79l14.59,1.32c11.07,1.25,11.39,21.57,11.01,30.25-.06,1.38,.15,2.77,.63,4.12,2.87,8.13,11.02,35.58,11.11,35.86,.04,.15,.02,.31-.07,.43-.09,.12-.23,.2-.38,.21-.99,.05-1.94,.07-2.85,.07Zm-62.11-21.29l44.4,15.25c.08,.03,.15,.08,.21,.14,.05,.06,5.07,5.43,19.67,4.86-1.23-4.12-8.28-27.76-10.91-35.19-.52-1.47-.75-2.98-.69-4.49,.28-6.55,.4-28.03-10.11-29.21l-14.53-1.32h-8.06c-.2,0-.39-.12-.46-.31,0-.02-.78-1.86-2.41-2.5-.93-.37-1.99-.28-3.15,.26-.05,.02-.1,.04-.16,.04-.2,.02-4.96,.66-6.76,8.13-.04,.15-.14,.28-.29,.34l-4.33,1.89c-.11,.05-11.08,5-15.8,21.58l-1.8,7.82c-.19,.83,.13,1.69,.8,2.21l14.39,10.51Z" fill="#002346"></path>
  </g>
  <g>
    <path d="M677.86,340.86l-4.14,12.78-29.58,24.45c-.94,.78-2.28,.84-3.28,.15l-2.31-1.57c-1.19-.81-2.67-1.08-4.06-.72-2,.52-4.83,2.51-5.22,4.79-.04,.26,.14,.51,.4,.55,.06,0,.12,0,.18,0l3.17-.87c.17-.02,.33-.02,.5,0,.38,.03,.74,.12,1.09,.27l.8,.33c.37,.16,.54,.59,.39,.96-.04,.09-.1,.17-.17,.24-1.36,1.28-4.3,3.69-7,3.49-.51,0-.94,.38-1,.89-.11,1.42,.35,3.79,4.56,3.79,0,0,2.35,3.23,5.58,1,0,0,1.44,3.3,5.71,.77,0,0,5.86-5.62,10.63-6.52,1.12-.21,2.22-.51,3.3-.88,6.89-2.4,27.45-10,30-16.53l6.64-11.41-2.11-5.65-14.08-10.3Z" fill="#f2b3c1"></path>
    <path d="M640.55,393.6c-.4,0-.77-.06-1.13-.17-.93-.3-1.51-.92-1.82-1.36-2.53,1.43-4.7-.03-5.66-1.19-1.78-.04-3.09-.5-3.9-1.38-.86-.93-.97-2.11-.91-2.93,.09-.77,.72-1.34,1.48-1.34h0c2.6,.21,5.52-2.28,6.66-3.36,.1-.2,.05-.34-.07-.39l-.8-.33c-.3-.13-.62-.21-.94-.23-.15-.02-.27-.02-.39,0l-3.11,.86c-.14,.03-.26,.03-.38,.02-.26-.04-.48-.17-.64-.38-.15-.21-.22-.47-.18-.72,.44-2.56,3.52-4.66,5.58-5.19,1.53-.39,3.16-.1,4.46,.79l2.31,1.57c.82,.56,1.93,.51,2.69-.12l29.47-24.36,4.31-13.29,14.75,10.79,2.24,6-6.76,11.61c-2.52,6.47-22,13.87-30.26,16.75-1.1,.38-2.23,.68-3.37,.9-4.57,.86-10.32,6.34-10.38,6.39l-.09,.07c-1.15,.68-2.21,1.02-3.17,1.02Zm-2.57-2.96l.24,.55s.45,.97,1.52,1.31c.94,.3,2.1,.05,3.44-.74,.58-.55,6.14-5.72,10.84-6.61,1.09-.21,2.18-.5,3.23-.86,6.34-2.21,27.23-9.91,29.7-16.24l6.56-11.28-1.98-5.29-13.41-9.81-3.97,12.27-.11,.09-29.58,24.45c-1.1,.91-2.69,.98-3.87,.18l-2.31-1.57c-1.07-.73-2.4-.97-3.66-.65-1.75,.46-4.5,2.28-4.86,4.4l3.13-.89c.27-.04,.49-.04,.7-.01,.4,.03,.82,.13,1.21,.3l.79,.33c.62,.26,.92,.98,.65,1.6-.06,.16-.16,.29-.28,.41-1.53,1.44-4.54,3.83-7.37,3.62h0c-.23,0-.45,.19-.47,.45-.05,.61,.03,1.5,.65,2.17,.66,.71,1.81,1.07,3.42,1.07h.25l.15,.2c.08,.12,2.11,2.81,4.9,.89l.49-.34Z" fill="#002346"></path>
  </g>
  <path d="M725.64,363.25c-3.41-1.14-7.57-2.6-7.57-2.6l.33-.94s4.15,1.46,7.55,2.6l-.32,.95Z" fill="red"></path>
  <path d="M647.14,399.17l1.79-8.8c.15-.75,.87-1.25,1.63-1.12l14.44,2.53c.57,.1,1.06,.47,1.31,1l1.14,2.62c.24,.57,.76,.97,1.37,1.05l24,3.39-1,3.37-24.35-2.7c-.42-.04-.83,.06-1.18,.29l-3.06,2c-.37,.25-.83,.35-1.27,.28l-13.65-2.29c-.77-.13-1.29-.85-1.17-1.62Z" fill="#002346"></path>
  <g opacity=".2">
    <path d="M651.53,393.08c1.78,0,3.63,.2,5.4,.39,1.77,.19,3.6,.45,5.34,.83-1.78,0-3.62-.2-5.39-.39s-3.61-.45-5.35-.83h0Z"></path>
  </g>
  <g opacity=".2">
    <path d="M650.8,395.58c1.78,0,3.62,.2,5.39,.39,1.77,.19,3.61,.45,5.35,.82-1.78,0-3.62-.2-5.4-.39-1.78-.19-3.6-.45-5.34-.82h0Z"></path>
  </g>
  <g opacity=".2">
    <path d="M650.8,398.08c1.78,0,3.62,.19,5.39,.38,1.77,.19,3.61,.45,5.35,.83-1.78,0-3.62-.2-5.4-.39-1.78-.19-3.6-.45-5.34-.82h0Z"></path>
  </g>
  <g>
    <path d="M604.19,375.86c-.19,1.62-.46,3.23-.81,4.82h0c-.08,.36-.13,.55-.13,.55-.2,1.48-.5,2.94-.9,4.37-.48,1.78-1.23,3.46-2.24,5-1.43,2.35-3.95,3.82-6.7,3.91-1.06,.02-2.05-.52-2.61-1.43h0c-.44-.71-.55-1.57-.3-2.37,.24-.73,.57-1.42,1-2.06,.04-.06,.08-.12,.11-.18,6.38-11.31,2.59-28.52,2.59-28.52-.23-1.56,.58-3.09,2-3.78,.79-.38,1.66-.59,2.54-.62,4.25,.44,5.3,6.39,5.3,6.39,.1,.6,.18,1.19,.25,1.78,.2,1.66,.3,3.33,.32,5,.02,2.39-.12,4.77-.42,7.14Z" fill="#f3f0ea"></path>
    <path d="M593.36,395.01c-1.22,0-2.36-.63-2.99-1.67-.52-.83-.65-1.85-.35-2.78,.25-.78,.61-1.51,1.06-2.19,.03-.05,.06-.09,.08-.13,6.22-11.02,2.58-28.01,2.54-28.18-.27-1.82,.65-3.55,2.27-4.34,.86-.42,1.79-.64,2.74-.67,4.64,.48,5.76,6.55,5.81,6.8,.1,.61,.18,1.21,.25,1.81,.2,1.67,.31,3.37,.32,5.05,.02,2.4-.13,4.83-.42,7.21-.19,1.63-.47,3.27-.82,4.87-.08,.37-.13,.57-.13,.57-.19,1.43-.5,2.93-.9,4.38-.49,1.83-1.26,3.56-2.3,5.14-1.51,2.49-4.17,4.04-7.1,4.14h-.06Zm5.32-38.96c-.75,.03-1.54,.22-2.27,.57-1.23,.6-1.92,1.91-1.72,3.26,.15,.67,3.75,17.49-2.65,28.84-.03,.07-.08,.14-.13,.22-.4,.59-.71,1.24-.94,1.93-.21,.65-.12,1.37,.25,1.95,.46,.75,1.27,1.2,2.18,1.19,2.58-.08,4.93-1.46,6.28-3.67,.99-1.51,1.72-3.14,2.18-4.87,.39-1.41,.69-2.86,.89-4.31,.01-.07,.06-.25,.14-.59,.34-1.57,.61-3.17,.8-4.77,0,0,0,0,0,0,.29-2.34,.43-4.72,.42-7.08-.02-1.64-.12-3.31-.32-4.94-.07-.58-.15-1.16-.25-1.76,0-.05-1.04-5.58-4.86-5.98Z" fill="#002346"></path>
  </g>
  <g>
    <path d="M598.72,355.51c-.88,.03-1.75,.24-2.54,.62l-2.27-3.31c-.15-.22-.1-.52,.12-.67,.12-.08,.28-.11,.42-.06l1.42,.43c.19,.05,.39-.01,.52-.16l1-1.25c.17-.21,.48-.23,.69-.06,.09,.08,.15,.19,.17,.31l.47,4.15Z" fill="#f3f0ea"></path>
    <path d="M596.18,356.63c-.16,0-.32-.08-.41-.22l-2.27-3.31c-.31-.45-.19-1.06,.25-1.36,.25-.17,.56-.22,.85-.13l1.41,.43,.98-1.24c.18-.21,.42-.34,.68-.36,.26-.02,.52,.06,.72,.23,.19,.16,.31,.38,.34,.62l.47,4.16c.02,.14-.03,.28-.12,.38s-.22,.17-.36,.17c-.82,.03-1.6,.22-2.34,.57-.07,.03-.14,.05-.22,.05Zm-1.88-4.06l2.05,2.94c.58-.24,1.19-.39,1.81-.46l-.41-3.63-.97,1.26c-.26,.31-.67,.43-1.04,.33l-1.43-.43Z" fill="#002346"></path>
  </g>
  <g>
    <path d="M592.24,394.3l-2.1,2.64c-.09,.1-.25,.11-.35,.02-.04-.04-.07-.08-.08-.14l-.2-1.61c0-.11-.09-.2-.2-.21l-2.13-.33c-.13-.03-.21-.15-.19-.28,.02-.09,.09-.17,.19-.19l3.68-1.12h0c.32,.54,.8,.97,1.38,1.22Z" fill="#f3f0ea"></path>
    <path d="M589.95,397.52c-.19,0-.37-.07-.5-.2-.12-.11-.2-.25-.23-.41l-.18-1.45-1.93-.3c-.43-.09-.68-.48-.6-.88,.06-.29,.29-.51,.57-.57l3.64-1.11c.22-.07,.46,.02,.58,.22,.27,.45,.67,.8,1.15,1.02,.14,.06,.25,.19,.29,.34,.04,.15,0,.31-.09,.43l-2.1,2.64c-.16,.17-.34,.26-.54,.27-.01,0-.02,0-.04,0Zm-1.56-3.17l.99,.15c.33,.04,.59,.32,.62,.66l.12,.98,1.35-1.7c-.32-.21-.6-.48-.83-.79l-2.26,.69Zm.84,1.14s0,0,.01,0h-.01Zm-.22-.22s0,.01,0,.02v-.02Zm-1.67-.6h-.02s.01,0,.02,0Z" fill="#002346"></path>
  </g>
  <g>
    <path d="M604.59,368.75c-3.37-.3-4.17-1.78-4.17-1.78-1.67-2.67,3.85-3.25,3.85-3.25,.2,1.67,.3,3.35,.32,5.03Z" fill="#fff"></path>
    <path d="M605.09,369.3l-.55-.05c-3.6-.32-4.53-1.97-4.57-2.04-.53-.84-.4-1.52-.2-1.94,.79-1.62,4.07-2.01,4.44-2.05l.49-.05,.06,.49c.2,1.68,.31,3.39,.32,5.08v.55Zm-1.26-5.01c-1.19,.2-2.79,.68-3.15,1.42-.05,.1-.2,.41,.17,1,.02,.03,.69,1.12,3.24,1.48-.03-1.3-.11-2.61-.25-3.9Z" fill="#002346"></path>
  </g>
  <g>
    <path d="M604.19,375.86c-.19,1.62-.46,3.23-.81,4.82h0c-1.09-.24-2.11-.72-3-1.4-.81-.67-.93-1.86-.26-2.67,.22-.27,.51-.47,.84-.59,1.05-.29,2.15-.35,3.23-.16Z" fill="#fff"></path>
    <path d="M603.76,381.28l-.49-.11c-1.15-.25-2.26-.77-3.2-1.49-.51-.42-.81-.99-.88-1.63-.06-.64,.13-1.26,.54-1.76,.28-.34,.64-.59,1.06-.74,1.15-.32,2.34-.38,3.48-.18l.46,.08-.05,.47c-.19,1.63-.47,3.27-.82,4.87l-.11,.49Zm-.83-5.03c-.62,0-1.24,.08-1.83,.25-.21,.08-.43,.22-.59,.42-.24,.29-.35,.65-.31,1.03s.21,.71,.5,.95c.68,.52,1.47,.92,2.3,1.17,.26-1.25,.47-2.51,.63-3.78-.23-.02-.47-.04-.71-.04Z" fill="#002346"></path>
  </g>
  <g>
    <path d="M602.35,385.6c-.48,1.78-1.23,3.46-2.24,5h0s-3.56-1.63-2.62-4.25c-.01,0,.41-2.11,4.86-.75Z" fill="#fff"></path>
    <path d="M600.29,391.24l-.39-.18c-1.37-.63-3.73-2.45-2.89-4.85,.07-.34,.36-.68,.38-.7,.62-.7,2-1.34,5.1-.39l.46,.14-.12,.47c-.49,1.83-1.27,3.56-2.31,5.15l-.24,.36Zm-2.26-4.9l-.07,.18c-.61,1.69,1.16,2.95,1.98,3.42,.77-1.25,1.38-2.59,1.8-4-1.84-.49-2.79-.29-3.27-.03-.25,.14-.38,.31-.44,.42Z" fill="#002346"></path>
  </g>
  <g>
    <path d="M715.03,479.51c.89,16.74-4.9,77.75-4.9,77.75-7.78,6.6-17-2.41-17-2.41l-4.31-77.34c-.17-3.08,.29-6.16,1.35-9.06l7.48-20.4s6.9,10.42,26,10.57l-8.27,19.06c-.26,.57-.38,1.2-.35,1.83Z" fill="#f3f0ea"></path>
    <path d="M703.81,560.16c-5.87,0-10.96-4.89-11.03-4.96-.09-.09-.14-.21-.15-.33l-4.31-77.34c-.17-3.17,.29-6.28,1.38-9.26l7.48-20.4c.06-.18,.22-.3,.41-.32,.19-.03,.37,.06,.48,.22,.07,.1,7.01,10.2,25.59,10.35,.17,0,.32,.09,.42,.23,.09,.14,.11,.32,.04,.47l-8.27,19.06c-.23,.5-.33,1.06-.31,1.61,.88,16.59-4.84,77.21-4.9,77.82-.01,.13-.07,.25-.17,.33-2.18,1.85-4.46,2.52-6.64,2.52Zm-10.19-5.54c1.19,1.1,9.14,8.03,16.03,2.38,.37-3.91,5.73-61.44,4.88-77.47h0c-.03-.71,.11-1.42,.39-2.06l7.97-18.37c-15.82-.35-23.1-7.62-25.09-10.03l-7.17,19.54c-1.04,2.85-1.49,5.83-1.32,8.86l4.3,77.14Zm16.51,2.64h0Z" fill="#002346"></path>
  </g>
  <g>
    <path d="M767.34,451.28c-.77,18.08-12.44,80.7-12.44,80.7l-4.26,29.36c-3.38,5-18.2-3.52-18.2-3.52l.89-100.11c10-1.06,25.43-3.12,34-6.43h.01Z" fill="#f3f0ea"></path>
    <path d="M746.88,563.4c-5.67,0-14.22-4.87-14.69-5.14-.16-.09-.25-.26-.25-.44l.89-100.11c0-.25,.19-.47,.45-.49,10.88-1.15,25.59-3.2,33.87-6.4,.19-.07,.41-.02,.55,.12,.09,.1,.15,.23,.14,.37-.76,17.91-12.33,80.14-12.45,80.77l-4.26,29.34c-.01,.07-.04,.15-.08,.21-.87,1.28-2.37,1.77-4.17,1.77Zm-13.94-5.86c4.17,2.35,14.6,7.15,17.22,3.62l4.24-29.24c.12-.64,11.36-61.13,12.4-79.9-8.37,3.04-22.39,5.01-32.98,6.15l-.88,99.37Z" fill="#002346"></path>
  </g>
  <g>
    <path d="M772.07,448.75c-1.43,1.09-3.03,1.94-4.73,2.53-8.58,3.31-24,5.37-34,6.43-5.72,.6-9.7,.88-9.7,.88-19.08-.15-26-10.57-26-10.57l5.72-66.35-11.44-30.53c-5.93-14.78-3.11-39.12-3.11-39.12,1.06-1.01,2.22-1.92,3.45-2.72-1,3.07-.2,30.1-.2,30.1,5.11,.45,10.26,.15,15.28-.89,.58-33.32,7.64-38.31,7.64-38.31h5.27c-7.19,9.69-7.19,27.74-7.19,27.74-1.32,11.45,5.43,20.11,5.43,20.11,16.15,23.35,38.65,23.35,38.65,23.35,7.15,12.33,14.93,77.35,14.93,77.35Z" fill="#293838"></path>
    <path d="M723.67,459.09c-19.17-.15-26.16-10.36-26.45-10.79l-.1-.15,.02-.17,5.71-66.24-11.4-30.42c-5.9-14.72-3.17-39.11-3.14-39.35l.02-.18,.13-.12c1.09-1.03,2.27-1.97,3.52-2.78l1.18-.77-.44,1.34c-.76,2.33-.46,20.04-.19,29.48,4.79,.38,9.59,.1,14.3-.84,.63-32.83,7.55-38.1,7.84-38.31l.13-.09h6.42l-.59,.8c-7.01,9.44-7.09,27.26-7.09,27.44-1.28,11.16,5.26,19.72,5.32,19.8,15.83,22.89,38.03,23.16,38.26,23.16h.29l.14,.25c7.12,12.28,14.68,74.88,14.99,77.54l.03,.29-.23,.17c-1.48,1.12-3.11,2-4.87,2.6-8.39,3.24-23.18,5.3-34.11,6.45-5.66,.59-9.68,.88-9.72,.88Zm-25.52-11.21c.9,1.21,8.11,10.08,25.49,10.21,0,0,4-.29,9.64-.88,10.87-1.15,25.57-3.2,33.87-6.4,1.58-.55,3.05-1.32,4.38-2.29-.57-4.69-7.96-64.38-14.7-76.63-2.73-.11-23.65-1.71-38.76-23.56-.05-.07-6.84-8.93-5.52-20.45,0-.67,.07-17.34,6.72-27.18h-4.12c-.86,.82-6.8,7.58-7.33,37.82v.4s-.4,.08-.4,.08c-5.07,1.05-10.26,1.35-15.43,.9l-.44-.04v-.44c-.04-1.01-.68-22.97,0-29.03-.8,.58-1.56,1.2-2.28,1.88-.24,2.25-2.45,24.87,3.1,38.7l11.48,30.65-5.71,66.28Z" fill="#002346"></path>
  </g>
  <g>
    <path d="M721.43,334.29l-3.19,25.88s-11.78,7.85-30.57,31.63c0,0-13.07,13.21-5.43,13.8,0,0,.88,1.47,4.84,1,0,0,2.35,2.51,4.77,.08,0,0,3.74,2.27,4.77-2.87l1.62-8.66s26.36-12.17,35.46-21.41c1.64-1.66,2.73-3.78,3.13-6.08l4.77-26.85-20.17-6.52Z" fill="#f2b3c1"></path>
    <path d="M689.58,408.23h-.05c-1.25-.02-2.23-.77-2.63-1.12-3.22,.34-4.5-.59-4.92-1.04-1.31-.15-2.14-.68-2.48-1.58-1.35-3.63,6.87-12.08,7.81-13.04,17.32-21.92,28.86-30.44,30.46-31.56l3.24-26.25,21.14,6.83-4.84,27.27c-.42,2.41-1.55,4.6-3.26,6.34-8.71,8.84-32.59,20.11-35.37,21.41l-1.57,8.41c-.37,1.85-1.13,3.03-2.25,3.53-1.16,.51-2.35,.11-2.92-.15-.73,.64-1.51,.96-2.35,.96Zm-2.32-2.15l.17,.18s.93,.97,2.12,.99c.67,.02,1.33-.3,1.95-.92l.27-.27,.33,.2s1.27,.75,2.36,.26c.81-.36,1.37-1.3,1.67-2.81l1.67-8.9,.23-.11c.26-.12,26.38-12.24,35.32-21.31,1.57-1.6,2.61-3.61,3-5.82l4.7-26.43-19.2-6.2-3.14,25.51-.19,.12c-.12,.08-11.95,8.1-30.46,31.53-2.47,2.5-8.59,9.46-7.63,12.04,.08,.21,.31,.84,1.85,.96l.25,.02,.13,.22s.85,1.18,4.36,.76l.25-.03Z" fill="#002346"></path>
  </g>
  <g>
    <path d="M693.14,304.51l1.12,3.29c.4,1.18,1.3,2.12,2.46,2.58l1.99,.79s1.32-9.88,7.19-13.41l-1.86-4-2.55-7.25-8.36,18Z" fill="#f2b3c1"></path>
    <path d="M699.13,311.87l-2.59-1.02c-1.3-.51-2.3-1.56-2.75-2.88l-1.19-3.48,8.96-19.3,2.96,8.41,2.03,4.36-.39,.23c-5.59,3.36-6.94,12.95-6.95,13.05l-.08,.63Zm-5.45-7.33l1.06,3.1c.36,1.04,1.15,1.87,2.17,2.28l1.41,.56c.39-2.22,2.04-9.63,6.95-12.9l-1.67-3.6-2.16-6.13-7.76,16.7Z" fill="#002346"></path>
  </g>
  <g>
    <rect x="673.49" y="267.36" width="28" height="40.5" rx="14" ry="14" transform="translate(-34.82 104.21) rotate(-8.46)" fill="#f2b3c1"></rect>
    <path d="M688.4,308.3c-7.06,0-13.27-5.18-14.33-12.37l-1.84-12.36c-1.18-7.91,4.3-15.3,12.21-16.48,7.92-1.17,15.3,4.3,16.48,12.21l1.84,12.36c.57,3.83-.39,7.65-2.69,10.77-2.31,3.11-5.69,5.14-9.52,5.71-.72,.11-1.43,.16-2.14,.16Zm-1.82-40.37c-.66,0-1.32,.05-1.99,.15-7.36,1.09-12.46,7.97-11.37,15.34l1.84,12.36c1.09,7.36,7.98,12.45,15.34,11.37,3.57-.53,6.71-2.42,8.86-5.31,2.15-2.9,3.04-6.46,2.51-10.02l-1.84-12.36c-.99-6.69-6.77-11.51-13.34-11.51Z" fill="#002346"></path>
  </g>
  <g>
    <path d="M688,283.04c-.65-1.9-.85-3.92-.6-5.91-3.8,1.58-4-.7-4-.7-1.61-3.52-5.28-1.18-5.28-1.18-6.9,3.38-8.22-1.9-8.22-1.9,0,0-4.11-9,4.11-6.76,1.87,.14,3.7-.56,5-1.9,0,0,6.16-8.66,15.56-1.47,0,0,13.06-4.11,12.91,6.6,0,0,8.89,17.5-2.37,23.59-.86,.48-1.91,.48-2.77,0-1.45-.94-2.42-2.47-2.64-4.19,0,0-.86-3.08-2.47-3h-1.8l-3.31-.22c-1.83-.11-3.43-1.26-4.12-2.96Z" fill="#002346"></path>
    <path d="M703.72,294.27c-.56,0-1.13-.14-1.63-.42-1.61-1.04-2.65-2.7-2.89-4.56-.18-.62-.95-2.57-1.91-2.57-.01,0-.02,0-.04,0h-1.82s-3.34-.22-3.34-.22c-2.01-.12-3.79-1.41-4.55-3.27v-.03c-.59-1.7-.83-3.53-.71-5.32-1.29,.42-2.31,.41-3.02-.02-.59-.36-.83-.93-.89-1.28-.38-.79-.9-1.29-1.56-1.49-1.37-.41-2.95,.58-2.97,.58-2.64,1.3-4.8,1.55-6.48,.77-1.96-.91-2.47-2.88-2.49-2.97-.06-.1-2.09-4.62-.31-6.72,.92-1.08,2.61-1.3,5.03-.64,1.63,.1,3.31-.53,4.51-1.77,.06-.09,2.67-3.69,7.13-4.37,2.91-.44,5.89,.47,8.88,2.7,1.3-.37,7.16-1.82,10.69,.81,1.76,1.31,2.64,3.4,2.62,6.23,.74,1.53,8.44,18.15-2.63,24.14-.5,.28-1.06,.42-1.62,.42Zm-6.41-8.55c1.87,0,2.77,3.02,2.86,3.37,.22,1.64,1.1,3.04,2.43,3.91,.68,.38,1.55,.38,2.25-.02,10.71-5.79,2.25-22.76,2.17-22.93l-.06-.11v-.12c.04-2.55-.71-4.41-2.22-5.53-3.49-2.6-9.97-.6-10.04-.58l-.25,.08-.21-.16c-2.83-2.17-5.63-3.06-8.32-2.66-4.04,.61-6.5,3.99-6.53,4.02-1.46,1.51-3.42,2.26-5.44,2.11-2.11-.56-3.45-.46-4.1,.3-1.14,1.34-.04,4.61,.48,5.75,.03,.1,.46,1.69,1.99,2.39,1.39,.64,3.26,.39,5.56-.74,.03-.02,1.92-1.21,3.74-.67,.97,.29,1.71,.99,2.22,2.09l.04,.16s.05,.4,.44,.62c.55,.32,1.57,.2,2.87-.34l.8-.33-.11,.86c-.24,1.9-.04,3.86,.57,5.67,.62,1.5,2.06,2.54,3.68,2.64l3.31,.22h1.77s.06,0,.09,0Z" fill="#002346"></path>
  </g>
  <g>
    <ellipse cx="694.86" cy="285.84" rx="3.82" ry="4.98" fill="#f2b3c1"></ellipse>
    <path d="M694.86,291.4c-2.42,0-4.39-2.49-4.39-5.55s1.97-5.55,4.39-5.55,4.39,2.49,4.39,5.55-1.97,5.55-4.39,5.55Zm0-9.96c-1.79,0-3.25,1.98-3.25,4.41s1.46,4.41,3.25,4.41,3.25-1.98,3.25-4.41-1.46-4.41-3.25-4.41Z" fill="#002346"></path>
  </g>
  <g>
    <path d="M719.76,334.29s12.24,7.2,24.57,6.52l.88-7.28s2.49-30.83-10.42-32c0-.02-14.78,.49-15.03,32.76Z" fill="#f3f0ea"></path>
    <path d="M742.68,341.36c-11.76,0-23.06-6.56-23.18-6.63-.15-.09-.25-.26-.25-.43,.25-32.9,15.34-33.26,15.52-33.26,0,0,.03,0,.05,0h0c13.25,1.2,10.98,31.26,10.87,32.54l-.88,7.3c-.03,.24-.23,.43-.47,.44-.56,.03-1.11,.05-1.67,.05Zm-22.42-7.35c1.77,.99,12.69,6.78,23.62,6.33l.83-6.86c.02-.28,2.3-30.29-9.94-31.44-.54,.03-14.18,1.08-14.51,31.97Z" fill="#002346"></path>
  </g>
  <path d="M177,396.71c-.1,0-.2-.03-.29-.09-.22-.16-.27-.47-.11-.7,.07-.1,7.43-10.33,8.4-17.13,.04-.27,.29-.46,.57-.42,.27,.04,.46,.29,.42,.57-1.01,7.04-8.27,17.15-8.58,17.57-.1,.14-.25,.21-.41,.21Z" fill="#002346"></path>
  <path d="M202.67,427.96c-.69,0-1.11-.05-1.13-.05-.27-.04-.47-.29-.43-.56,.04-.27,.29-.48,.56-.43,.53,.07,13.1,1.51,18.62-14.06,.09-.26,.38-.4,.64-.3,.26,.09,.4,.38,.3,.64-4.81,13.6-15.14,14.77-18.56,14.77Z" fill="#002346"></path>
  <path d="M209.69,433.25c-.54,0-.85-.04-.87-.04-.27-.04-.47-.29-.43-.56,.04-.27,.29-.47,.56-.43,.4,.05,9.9,1.13,14.07-10.64,.09-.26,.38-.4,.64-.3,.26,.09,.4,.38,.3,.64-3.7,10.44-11.63,11.34-14.27,11.34Z" fill="#002346"></path>
  <path d="M307.69,491.38c-.28,0-.5-.22-.5-.5v-43.83c0-3.59-2.74-6.54-6.23-6.72-10.84-.53-25.98,14.5-26.13,14.65-.19,.2-.51,.2-.71,0-.2-.19-.2-.51,0-.71,.63-.63,15.59-15.57,26.9-14.94,4.03,.21,7.18,3.6,7.18,7.72v43.83c0,.28-.22,.5-.5,.5Z" fill="#002346"></path>
  <g>
    <path d="M233.49,441.86s5.98-4.99,7-10.97c0,0,.01-.01,.01,0,.14,.31,1.76,4.09-1.06,8.93" fill="#293838"></path>
    <path d="M233.81,442.24l-.64-.77c.06-.05,5.85-4.94,6.82-10.67l.06-.36,.75-.12,.16,.35c.19,.42,1.84,4.36-1.09,9.38l-.86-.5c1.61-2.76,1.7-5.17,1.5-6.7-1.74,5.22-6.47,9.2-6.69,9.39Z" fill="#002346"></path>
  </g>
  <g>
    <rect x="176.86" y="479.43" width="53.72" height="11.45" fill="#e6e7e8"></rect>
    <path d="M231.08,491.38h-54.72v-12.45h54.72v12.45Zm-53.72-1h52.72v-10.45h-52.72v10.45Z" fill="#002346"></path>
  </g>
  <path d="M471.67,340.01c-.06,0-.11,0-.17-.03-.26-.09-.4-.38-.31-.64,1.09-3.1-1.15-7.34-1.17-7.38-.13-.24-.04-.55,.21-.68,.24-.13,.55-.04,.68,.2,.1,.19,2.47,4.67,1.23,8.18-.07,.21-.27,.33-.47,.33Z" fill="#002346"></path>
  <path d="M454.82,396.49c-21.46,0-41.64-20.7-41.85-20.91-.19-.2-.19-.52,.01-.71,.2-.19,.52-.18,.71,.01,.21,.22,21.11,21.6,42.69,20.57,.28-.03,.51,.2,.52,.47,.01,.28-.2,.51-.47,.52-.54,.03-1.08,.04-1.62,.04Z" fill="#002346"></path>
  <path d="M436.37,392.01c-.12,0-.24-.04-.33-.13-.21-.18-.22-.5-.04-.71l4.19-4.67c.18-.21,.5-.22,.71-.04,.21,.18,.22,.5,.04,.71l-4.19,4.67c-.1,.11-.24,.17-.37,.17Z" fill="#002346"></path>
  <path d="M423.91,396.68c-.15,0-.3-.07-.4-.2-5.88-7.9-13.23-9.13-13.31-9.14-.27-.04-.46-.3-.42-.57,.04-.27,.3-.46,.57-.42,.32,.05,7.82,1.29,13.96,9.54,.16,.22,.12,.54-.1,.7-.09,.07-.19,.1-.3,.1Z" fill="#002346"></path>
  <g>
    <line x1="432.42" y1="412.55" x2="435.33" y2="425.56" fill="#f3f0ea"></line>
    <path d="M435.33,426.06c-.23,0-.44-.16-.49-.39l-2.91-13.02c-.06-.27,.11-.54,.38-.6,.27-.06,.54,.11,.6,.38l2.91,13.02c.06,.27-.11,.54-.38,.6-.04,0-.07,.01-.11,.01Z" fill="#002346"></path>
  </g>
  <path d="M433.87,419.55c-.24,0-.45-.17-.49-.41-.05-.27,.13-.53,.4-.58,3.86-.71,3.2-5.73,3.17-5.95-.04-.27,.15-.53,.43-.56,.27-.03,.53,.15,.56,.42,.3,2.14-.14,6.36-3.98,7.07-.03,0-.06,0-.09,0Z" fill="#002346"></path>
  <path d="M549.36,407.27s-.06,0-.1,0l-57.77-11.47c-.27-.05-.45-.32-.39-.59,.05-.27,.32-.45,.59-.39l57.77,11.47c.27,.05,.45,.32,.39,.59-.05,.24-.26,.4-.49,.4Z" fill="#002346"></path>
  <g>
    <path d="M447.51,310.34s11.17,17.76,3.25,21.43l2.84,33.14s26.37,11.77,33.27,21.31c0,0,8.51,9.1,6.6,12.92-.99,1.49-2.81,2.2-4.55,1.76,0,0-2.44,1.81-4.3,.1,0,0-4.65,3.13-4.51-1.86l.38-7.11c.04-.67-.36-1.28-.97-1.53l-31.11-12.64s-5.29-1-6.9-6.17l-7.49-32.29s-6.46-24.66,6.61-27.89c2.18-.89,4.53-1.29,6.88-1.17Z" fill="#f2b3c1"></path>
    <path d="M481.93,402.46c-.38,0-.76-.07-1.1-.26-.85-.47-1.26-1.5-1.21-3.07l.38-7.12c.02-.46-.24-.88-.67-1.05l-31.11-12.64c-.13-.01-5.51-1.09-7.18-6.48l-7.5-32.32c-.16-.62-4.04-15.71,.79-23.84,1.44-2.42,3.52-3.98,6.18-4.64,2.16-.89,4.61-1.31,7.02-1.18h.25s.14,.23,.14,.23c.32,.5,7.75,12.43,5.85,18.84-.42,1.42-1.26,2.47-2.5,3.14l2.79,32.52c2.94,1.33,26.6,12.22,33.2,21.35,.86,.91,8.65,9.42,6.64,13.43-1.09,1.65-3.02,2.44-4.89,2.07-.98,.64-2.88,1.32-4.44,.18-.53,.31-1.61,.86-2.65,.86Zm-35.23-91.65c-2.01,0-4.03,.39-5.89,1.15-2.46,.61-4.34,2.02-5.63,4.21-4.62,7.78-.73,22.95-.69,23.1l7.49,32.3c1.5,4.8,6.46,5.79,6.51,5.8l31.2,12.67c.81,.33,1.33,1.14,1.28,2.02l-.38,7.11c-.02,.79,.08,1.83,.7,2.17,.87,.48,2.53-.4,3.04-.75l.32-.22,.29,.26c1.53,1.41,3.59-.07,3.67-.13l.19-.14,.23,.06c1.53,.39,3.15-.24,4.02-1.56,1.41-2.83-4.25-9.85-6.55-12.31-6.78-9.37-32.85-21.08-33.11-21.2l-.27-.12-2.89-33.77,.31-.14c1.16-.54,1.91-1.42,2.28-2.68,1.64-5.54-4.6-16.17-5.61-17.82-.18,0-.35,0-.53,0Z" fill="#002346"></path>
  </g>
  <path d="M447.65,368.27c-.13,0-.26-.05-.36-.15-.19-.2-.19-.51,.01-.71,2.24-2.17,6.03-2.95,6.19-2.98,.27-.06,.53,.12,.59,.39,.05,.27-.12,.53-.39,.59-.04,0-3.66,.76-5.69,2.72-.1,.09-.22,.14-.35,.14Z" fill="#002346"></path>
  <path d="M450.76,332.27h-.02c-.28,0-.49-.24-.48-.52,0-.07,.18-7.25-3.62-11.04-.2-.2-.2-.51,0-.71s.51-.2,.71,0c4.11,4.11,3.92,11.47,3.91,11.78,0,.27-.23,.48-.5,.48Z" fill="#002346"></path>
  <g>
    <rect x="504.63" y="393.56" width="11.89" height="9.25" rx="3.6" ry="3.6" transform="translate(34.04 836.53) rotate(-80.56)" fill="#f3f0ea"></rect>
    <path d="M511.21,404.77c-.23,0-.45-.02-.68-.06l-2.02-.34c-2.23-.37-3.74-2.49-3.37-4.72l.77-4.63c.18-1.08,.77-2.03,1.66-2.66,.89-.64,1.98-.89,3.06-.71l2.02,.34c1.08,.18,2.03,.77,2.66,1.66,.64,.89,.89,1.98,.71,3.06l-.77,4.63c-.18,1.08-.77,2.03-1.66,2.66-.7,.5-1.53,.77-2.38,.77Zm-1.27-12.17c-.64,0-1.26,.2-1.8,.58-.67,.48-1.12,1.2-1.26,2.01l-.77,4.63c-.28,1.69,.86,3.29,2.55,3.57l2.02,.34c.82,.13,1.64-.05,2.31-.54,.67-.48,1.12-1.2,1.25-2.01l.77-4.63c.14-.82-.05-1.64-.54-2.31-.48-.67-1.2-1.12-2.01-1.26l-2.02-.34h0c-.17-.03-.34-.04-.52-.04Z" fill="#002346"></path>
  </g>
  <g>
    <rect x="518.61" y="398.03" width="9.46" height="7.36" rx="2.86" ry="2.86" transform="translate(41.23 852.08) rotate(-80.56)" fill="#f3f0ea"></rect>
    <path d="M523.84,407.05c-.18,0-.37-.01-.55-.05l-1.62-.27c-.89-.15-1.66-.63-2.18-1.36s-.73-1.62-.58-2.5l.61-3.69c.15-.89,.63-1.66,1.36-2.18s1.62-.73,2.5-.58h0l1.62,.27c.89,.15,1.66,.63,2.18,1.36s.73,1.62,.58,2.5l-.61,3.69c-.27,1.64-1.7,2.81-3.31,2.81Zm-1.01-9.68c-.49,0-.96,.15-1.37,.44-.51,.37-.85,.91-.96,1.53l-.61,3.69c-.1,.62,.04,1.25,.41,1.76,.37,.51,.91,.85,1.53,.96l1.62,.27c1.29,.21,2.5-.66,2.71-1.94l.61-3.69c.1-.62-.04-1.25-.41-1.76-.37-.51-.91-.85-1.53-.96l-1.62-.27c-.13-.02-.26-.03-.39-.03Z" fill="#002346"></path>
  </g>
  <g>
    <rect x="529.13" y="400.34" width="11.66" height="7.36" rx="2.86" ry="2.86" transform="translate(48.67 865.47) rotate(-80.56)" fill="#f3f0ea"></rect>
    <path d="M535.29,410.45c-.19,0-.37-.02-.56-.05l-1.62-.27c-.89-.15-1.66-.63-2.18-1.36s-.73-1.62-.58-2.5l.97-5.86c.15-.88,.63-1.66,1.36-2.18,.73-.52,1.62-.73,2.5-.58l1.62,.27c.89,.15,1.66,.63,2.18,1.36s.73,1.62,.58,2.5l-.97,5.86c-.15,.88-.63,1.66-1.36,2.18-.58,.41-1.25,.63-1.95,.63Zm-.66-11.85c-.49,0-.96,.15-1.37,.44-.51,.37-.85,.91-.96,1.53l-.97,5.86c-.1,.62,.04,1.25,.41,1.76,.37,.51,.91,.85,1.53,.96l1.62,.27c.62,.1,1.25-.04,1.76-.41,.51-.37,.85-.91,.96-1.53l.97-5.86c.1-.62-.04-1.25-.41-1.76-.37-.51-.91-.85-1.53-.96l-1.62-.27h0c-.13-.02-.26-.03-.39-.03Z" fill="#002346"></path>
  </g>
  <path d="M629.99,420.01c-.28,0-.5-.22-.5-.5v-6.13c0-2.01-1.64-3.65-3.65-3.65h-73.98c-2.01,0-3.65,1.64-3.65,3.65v6.13c0,.28-.22,.5-.5,.5s-.5-.22-.5-.5v-6.13c0-2.56,2.09-4.65,4.65-4.65h73.98c2.56,0,4.65,2.09,4.65,4.65v6.13c0,.28-.22,.5-.5,.5Z" fill="#002346"></path>
  <g>
    <rect x="537.31" y="418.3" width="104.42" height="6.37" rx="2.48" ry="2.48" fill="#fff"></rect>
    <path d="M639.25,425.17h-99.46c-1.64,0-2.98-1.34-2.98-2.98v-1.41c0-1.64,1.34-2.98,2.98-2.98h99.46c1.64,0,2.98,1.34,2.98,2.98v1.41c0,1.64-1.34,2.98-2.98,2.98Zm-99.46-6.37c-1.09,0-1.98,.89-1.98,1.98v1.41c0,1.09,.89,1.98,1.98,1.98h99.46c1.09,0,1.98-.89,1.98-1.98v-1.41c0-1.09-.89-1.98-1.98-1.98h-99.46Z" fill="#002346"></path>
  </g>
  <path d="M610.79,384.54c-2.29,0-4.96-.15-8-.46-.27-.03-.48-.27-.45-.55s.28-.47,.55-.45c8.4,.83,12.48,.33,14.42-.23,.75-.22,1.31-.76,1.55-1.49s.1-1.5-.37-2.11c-3.35-4.35-13.96-6.4-14.07-6.42-.27-.05-.45-.31-.4-.58s.31-.45,.58-.4c.45,.08,11.09,2.14,14.67,6.8,.67,.87,.87,2,.53,3.03s-1.17,1.83-2.22,2.13c-1.64,.48-3.92,.72-6.8,.72Z" fill="#002346"></path>
  <path d="M635.79,382.47h-.02l-16.4-.67c-.28-.01-.49-.24-.48-.52,.01-.28,.24-.5,.52-.48l16.4,.67c.28,.01,.49,.24,.48,.52-.01,.27-.23,.48-.5,.48Z" fill="#002346"></path>
  <path d="M679.84,360.67c-.22,0-.42-.14-.48-.36-1.54-5.3-5.57-6.15-5.74-6.18-.27-.05-.45-.31-.4-.58s.31-.45,.58-.4c.2,.04,4.8,.97,6.51,6.88,.08,.27-.08,.54-.34,.62-.05,.01-.09,.02-.14,.02Z" fill="#002346"></path>
  <path d="M698.87,315.43c-1.73,0-3.22-.43-4.44-1.29-2.46-1.74-2.9-4.59-2.91-4.71-.04-.26,.14-.5,.4-.54,.26-.05,.5,.14,.54,.4,0,.03,.4,2.58,2.53,4.08,1.55,1.09,3.63,1.38,6.19,.87,.26-.06,.51,.11,.56,.37,.05,.26-.11,.51-.37,.56-.88,.18-1.71,.26-2.5,.26Z" fill="#002346"></path>
  <path d="M703.99,313.37c-.17,0-.34-.09-.42-.26-.12-.23-.03-.52,.21-.64,6.7-3.43,7.88-12.23,7.89-12.31,.03-.26,.27-.44,.53-.41,.26,.03,.44,.27,.41,.53-.05,.38-1.26,9.38-8.4,13.04-.07,.04-.14,.05-.22,.05Z" fill="#002346"></path>
  <path d="M744.74,337.85s-.01,0-.02,0c-11.72-.49-22.5-6.1-22.61-6.16-.23-.12-.32-.41-.2-.64,.12-.23,.41-.32,.64-.2,.11,.06,10.71,5.57,22.21,6.05,.26,.01,.46,.23,.45,.49-.01,.25-.22,.45-.47,.45Z" fill="#002346"></path>
  <path d="M727.14,363.73c-.13,0-.27-.05-.37-.16-3.14-3.4-8.43-2.91-8.48-2.9-.27,.04-.52-.17-.55-.45s.17-.52,.45-.55c.24-.02,5.83-.55,9.32,3.22,.19,.2,.17,.52-.03,.71-.1,.09-.22,.13-.34,.13Z" fill="#002346"></path>
  <path d="M682.24,406.1c-.06,0-.12-.01-.18-.03-.26-.1-.38-.39-.28-.65l2.25-5.74c.1-.26,.39-.38,.65-.28,.26,.1,.38,.39,.28,.65l-2.25,5.74c-.08,.2-.27,.32-.47,.32Z" fill="#002346"></path>
  <path d="M687.08,407.1c-.06,0-.11,0-.17-.03-.26-.09-.39-.38-.3-.64l1.91-5.24c.09-.26,.38-.39,.64-.3,.26,.09,.39,.38,.3,.64l-1.91,5.24c-.07,.2-.27,.33-.47,.33Z" fill="#002346"></path>
  <path d="M691.85,407.18c-.06,0-.13-.01-.19-.04-.26-.1-.38-.4-.27-.65l1.63-3.95c.11-.26,.4-.38,.65-.27,.26,.1,.38,.4,.27,.65l-1.63,3.95c-.08,.19-.27,.31-.46,.31Z" fill="#002346"></path>
  <g>
    <circle cx="189.08" cy="348.23" r="8" fill="#002346"></circle>
    <path d="M189.08,356.74c-4.69,0-8.5-3.81-8.5-8.5s3.81-8.5,8.5-8.5,8.5,3.81,8.5,8.5-3.81,8.5-8.5,8.5Zm0-16c-4.14,0-7.5,3.36-7.5,7.5s3.36,7.5,7.5,7.5,7.5-3.36,7.5-7.5-3.36-7.5-7.5-7.5Z" fill="#002346"></path>
  </g>
  <g>
    <path d="M189.92,344.51s2.93,5-.08,14.18c0,0,11.66,13.16,18.35,14.44,.98,.18,1.92-.46,2.1-1.44,0-.04,.01-.08,.02-.12,.24-2.09-.19-6.27-4.84-12.72l.32-6.46s-7.43,3.05-15.87-7.88Z" fill="#f2b3c1"></path>
    <path d="M208.52,373.66c-.14,0-.28-.01-.42-.04-6.78-1.3-18.15-14.06-18.63-14.6l-.19-.21,.09-.27c2.89-8.83,.15-13.73,.12-13.78l.81-.55c8.08,10.47,15,7.84,15.3,7.73l.71-.29-.35,7.05c4.49,6.28,5.11,10.49,4.83,12.92l-.02,.15c-.21,1.1-1.17,1.87-2.25,1.87Zm-18.13-15.08c1.52,1.68,11.89,12.93,17.89,14.08,.71,.13,1.39-.33,1.53-1.04,.23-1.95-.1-6.04-4.74-12.47l-.1-.14,.29-5.94c-1.94,.46-7.54,.94-13.98-6.15,.54,2.37,.82,6.31-.89,11.66Z" fill="#002346"></path>
  </g>
  <g>
    <rect x="185.01" y="313.33" width="27.72" height="40.22" rx="13.86" ry="13.86" transform="translate(-152.93 169.23) rotate(-34.16)" fill="#f2b3c1"></rect>
    <path d="M202.42,352.97c-.91,0-1.82-.09-2.73-.26-3.77-.72-7.03-2.86-9.18-6.04l-7.02-10.34c-2.15-3.17-2.94-6.99-2.22-10.76s2.86-7.03,6.04-9.18c6.55-4.44,15.49-2.73,19.94,3.82l7.02,10.34c2.15,3.17,2.94,6.99,2.22,10.76s-2.87,7.03-6.04,9.18h0c-2.41,1.63-5.19,2.48-8.03,2.48Zm-7.07-38.06c-2.58,0-5.19,.75-7.49,2.3-2.96,2-4.95,5.04-5.62,8.55s.06,7.07,2.07,10.02l7.02,10.34c2.01,2.96,5.04,4.95,8.55,5.62,3.51,.67,7.07-.06,10.02-2.07h0c2.96-2,4.95-5.04,5.62-8.55s-.06-7.07-2.07-10.02l-7.02-10.34c-2.58-3.81-6.8-5.86-11.08-5.86Z" fill="#002346"></path>
  </g>
  <g>
    <path d="M189.77,344.21s-6.92-3.12-2.21-10.72c1.42-1.93,2.02-4.33,1.71-6.67-.1-.77,.44-1.47,1.2-1.61,1.52-.3,3.85-.96,5.16-2.39,.31-.34,.77-.5,1.23-.45,1.4,.16,4.23,.03,4.74-3.46,.04-.24,.33-.35,.51-.17,.65,.66,2.01,1.79,4.09,2.21,.71,.14,1.34,.54,1.74,1.14l5.93,8.73s7.13,10.54-2.67,18.47c2.53,.39,5.11,.39,7.64,0,2.31-.42,.85-.64,.43-2.95-.2-1.08,2.2-4.04,1.31-4.69-.47-.35-.98-.66-1.52-.91,0,0-2.35-1.62-.66-3,0,0,3.63-1.17-.13-6.28,0,0-3.34-3.35-2.89-7.17,.19-1.39-1.99-.62-.79-1.35,.79-.51,1.38-1.27,1.69-2.15,.17-.46-.06-.96-.52-1.13-.15-.06-.32-.07-.48-.04-1.89,.41-5.19,.77-6.3-1.39,0,0-3.88-12.27-11.28-6.77-.33,.25-.78,.26-1.12,.01-1.6-1.2-6.51-3.92-11.03,3.3-.19,.3-.51,.51-.86,.53-2.04,.09-9.21,1.29-10.46,13.35,0,0,.39,2.02-2.78,3.67,0,0-.01,0-.02,0-1.64,.85-3.02,2.12-3.82,3.79-1.93,4.03-3.53,10.94,6.28,13.46,0,0,14.56,9.6,15.88-5.37Z" fill="#002346"></path>
    <path d="M182.73,353.12c-4.11,0-8.41-2.66-9.05-3.07-3.75-.98-6.22-2.69-7.34-5.1-1.44-3.08-.35-6.62,.81-9.05,.8-1.68,2.2-3.07,4.04-4.02,2.77-1.45,2.55-3.08,2.54-3.15v-.07s0-.07,0-.07c1.28-12.39,8.69-13.69,10.93-13.8,.18,0,.35-.12,.46-.29,1.79-2.85,3.84-4.51,6.1-4.94,2.54-.48,4.63,.74,5.66,1.5,.15,.11,.36,.11,.52-.01,1.91-1.42,3.79-1.85,5.57-1.27,4.26,1.38,6.4,8.01,6.49,8.29,.92,1.78,3.98,1.43,5.72,1.05,.26-.05,.52-.03,.76,.06,.71,.27,1.08,1.06,.81,1.78-.29,.82-.81,1.55-1.49,2.1,.49,.26,.7,.69,.61,1.29-.42,3.53,2.72,6.72,2.75,6.75,1.59,2.15,2.15,3.92,1.7,5.29-.38,1.16-1.35,1.65-1.67,1.78-.26,.23-.38,.46-.37,.7,.02,.61,.79,1.27,1.05,1.45,.5,.23,1.04,.55,1.53,.92,.84,.61,.23,1.85-.42,3.16-.32,.64-.75,1.53-.69,1.84,.13,.74,.39,1.25,.57,1.62,.21,.42,.39,.79,.2,1.18-.2,.41-.68,.56-1.6,.73-2.6,.4-5.22,.4-7.81,0l-1.12-.17,.88-.71c9.32-7.54,2.85-17.39,2.57-17.8l-5.92-8.73c-.33-.48-.83-.81-1.43-.93-1.95-.4-3.31-1.38-4.07-2.08-.73,3.6-3.87,3.66-5.22,3.51-.31-.04-.6,.07-.8,.29-1.38,1.5-3.72,2.21-5.43,2.54-.51,.1-.87,.56-.8,1.06,.33,2.5-.3,5-1.8,7.04-1.42,2.3-1.87,4.4-1.31,6.23,.78,2.56,3.3,3.73,3.33,3.74l.32,.15-.03,.35c-.37,4.23-1.82,6.98-4.31,8.18-1.01,.49-2.1,.68-3.21,.68Zm-8.02-24.47c.05,.45,.07,2.49-3.06,4.12-1.66,.86-2.9,2.09-3.61,3.57-1.07,2.24-2.08,5.47-.8,8.19,1,2.14,3.27,3.67,6.76,4.57l.15,.07c.07,.05,6.94,4.5,11.35,2.37,2.09-1.01,3.34-3.38,3.72-7.04-.79-.44-2.8-1.76-3.55-4.19-.65-2.12-.16-4.5,1.44-7.08,1.36-1.86,1.94-4.1,1.64-6.34-.14-1.02,.57-1.97,1.6-2.17,1.29-.25,3.63-.87,4.89-2.24,.41-.45,1.03-.67,1.65-.6,1.68,.19,3.77-.19,4.19-3.04,.04-.3,.25-.55,.54-.65,.29-.09,.6-.02,.81,.2,.59,.6,1.87,1.67,3.83,2.07,.85,.17,1.58,.65,2.06,1.35l5.93,8.73c.07,.11,6.85,10.37-1.91,18.4,2.13,.23,4.27,.18,6.39-.14,.46-.08,.7-.15,.81-.19-.04-.08-.09-.19-.14-.29-.2-.4-.5-1.01-.66-1.89-.12-.63,.3-1.48,.78-2.46,.29-.58,.82-1.67,.71-1.94-.43-.32-.92-.6-1.42-.84-.22-.14-1.51-1.07-1.56-2.27-.02-.41,.11-1.01,.79-1.57l.16-.09s.85-.3,1.13-1.19c.33-1.04-.2-2.53-1.51-4.32-.09-.09-3.46-3.51-2.98-7.52,.03-.23,.04-.3-.48-.4-.22-.04-.6-.11-.67-.5-.08-.42,.31-.66,.6-.83,.67-.44,1.2-1.11,1.48-1.89,.04-.1,.04-.21,0-.3-.04-.09-.12-.16-.21-.2-.07-.03-.14-.03-.21-.02-3.48,.75-5.91,.17-6.85-1.65-.05-.14-2.11-6.5-5.88-7.72-1.46-.47-3.03-.09-4.66,1.12-.52,.39-1.21,.39-1.71,.01-.89-.67-2.71-1.72-4.88-1.32-1.97,.37-3.8,1.88-5.43,4.49-.28,.45-.76,.74-1.26,.76-2.03,.09-8.76,1.3-9.98,12.84Z" fill="#002346"></path>
  </g>
  <g>
    <ellipse cx="196.07" cy="326.42" rx="13.22" ry="7.5" transform="translate(-149.47 166.44) rotate(-34.16)" fill="#002346"></ellipse>
    <path d="M190.39,336.57c-2.49,0-4.55-.8-5.66-2.45-2.48-3.65,.6-10.08,6.86-14.32,2.99-2.03,6.26-3.28,9.21-3.52,3.05-.25,5.41,.62,6.64,2.43h0c2.48,3.65-.6,10.08-6.86,14.32-3.44,2.33-7.14,3.53-10.18,3.53Zm11.4-19.33c-.3,0-.6,.01-.91,.04-2.78,.22-5.88,1.41-8.73,3.35-5.8,3.94-8.76,9.74-6.59,12.93,2.17,3.19,8.65,2.59,14.45-1.35,5.8-3.94,8.76-9.74,6.59-12.93h0c-.9-1.33-2.59-2.03-4.81-2.03Z" fill="#002346"></path>
  </g>
  <g>
    <ellipse cx="187.77" cy="339.79" rx="3.6" ry="4.92" transform="translate(-128.43 114.55) rotate(-25.61)" fill="#f2b3c1"></ellipse>
    <path d="M188.7,344.99c-.64,0-1.3-.18-1.95-.53-1.11-.59-2.05-1.62-2.67-2.9s-.82-2.66-.59-3.9c.24-1.29,.93-2.27,1.94-2.75,2.03-.98,4.74,.42,6.03,3.11,1.29,2.69,.68,5.67-1.35,6.65-.44,.21-.92,.32-1.41,.32Zm-1.85-9.41c-.34,0-.68,.07-.99,.22-.72,.35-1.22,1.07-1.4,2.05-.19,1.03-.01,2.2,.51,3.29,.52,1.09,1.32,1.97,2.24,2.46,.87,.47,1.75,.54,2.47,.19,1.55-.74,1.94-3.13,.89-5.34-.84-1.76-2.36-2.87-3.73-2.87Z" fill="#002346"></path>
  </g>
  <g>
    <ellipse cx="484.08" cy="288.23" rx="6" ry="5" fill="#002346"></ellipse>
    <path d="M484.08,293.72c-3.57,0-6.48-2.46-6.48-5.48s2.91-5.48,6.48-5.48,6.48,2.46,6.48,5.48-2.91,5.48-6.48,5.48Zm0-10c-3.04,0-5.52,2.03-5.52,4.52s2.48,4.52,5.52,4.52,5.52-2.03,5.52-4.52-2.48-4.52-5.52-4.52Z" fill="#002346"></path>
  </g>
</svg>
