<?xml version="1.0" encoding="UTF-8"?>
<svg xmlns="http://www.w3.org/2000/svg" id="a" width="865.76" height="682.89" viewBox="0 0 865.76 682.89">
  <g>
    <g>
      <polygon points="634.68 607.72 657.55 603.61 643.83 500.03 618.76 509.47 634.68 607.72" fill="#f2b3c1"></polygon>
      <path d="M634.28,608.29l-16.06-99.14,26.03-9.8,13.86,104.66-23.82,4.28Zm-14.96-98.5l15.78,97.36,21.92-3.94-13.58-102.5-24.11,9.08Z" fill="#002346"></path>
    </g>
    <g>
      <polygon points="561.47 611.87 584.71 611.87 587.37 538.39 562.87 539.31 561.47 611.87" fill="#f2b3c1"></polygon>
      <path d="M585.19,612.36h-24.22l1.42-73.53,25.49-.96-2.7,74.48Zm-23.21-.98h22.26l2.62-72.48-23.51,.88-1.38,71.59Z" fill="#002346"></path>
    </g>
    <g>
      <path d="M532.94,648.17h51.77v-36.3h-23.24c-.44,12-14,20.4-14,20.4-14.35,6-14.53,15.9-14.53,15.9Z" fill="#293838"></path>
      <path d="M585.21,648.67h-52.78v-.51c.02-.42,.36-10.3,14.85-16.35,.06-.05,13.27-8.37,13.69-19.96l.02-.48h24.22v37.3Zm-51.72-1h50.72v-35.3h-22.26c-.77,11.87-13.66,19.98-14.21,20.32-12.06,5.05-13.95,12.91-14.24,14.98Z" fill="#002346"></path>
    </g>
    <g>
      <path d="M532.94,648.17h51.77v-3.06h-22.83s-1.16-10.44-14.36-12.84c-14.4,6-14.58,15.9-14.58,15.9Z" fill="#fff"></path>
      <path d="M585.21,648.67h-52.78v-.51c.02-.42,.36-10.3,14.9-16.35l.14-.06,.15,.03c11.84,2.15,14.27,10.77,14.69,12.83h22.91v4.06Zm-51.72-1h50.72v-2.06h-22.78l-.05-.44c-.05-.41-1.29-10.03-13.81-12.38-11.96,5.04-13.81,12.83-14.09,14.88Z" fill="#002346"></path>
    </g>
    <g>
      <path d="M613.01,648.48l51-9.15-6.41-35.72-22.87,4.11c1.68,11.89-10.13,22.54-10.13,22.54-13.17,8.45-11.59,18.22-11.59,18.22Z" fill="#293838"></path>
      <path d="M612.6,649.06l-.08-.5c-.07-.41-1.48-10.19,11.81-18.72,.05-.05,11.53-10.57,9.91-22.05l-.07-.48,23.84-4.28,6.59,36.71-51.99,9.33Zm22.69-40.93c1.33,11.81-9.87,22.07-10.35,22.5-11.07,7.11-11.55,15.18-11.47,17.26l49.97-8.96-6.23-34.74-21.91,3.94Z" fill="#002346"></path>
    </g>
    <g>
      <path d="M613.01,648.48l51-9.15-.54-3-22.47,4s-3-10.07-16.4-10.1c-13.17,8.48-11.59,18.25-11.59,18.25Z" fill="#fff"></path>
      <path d="M612.6,649.06l-.08-.5c-.07-.41-1.48-10.19,11.81-18.75l.12-.08h.15c12.02,.03,15.95,8.08,16.72,10.04l22.55-4.01,.72,3.98-.49,.09-51.5,9.24Zm12.15-18.33c-10.9,7.07-11.36,15.08-11.28,17.16l49.96-8.96-.36-2.02-22.42,3.99-.13-.43c-.12-.4-3.05-9.64-15.77-9.74Z" fill="#002346"></path>
    </g>
    <g>
      <path d="M682.75,646.84l51.75,1.33,.93-36.29-23.23-.59c-.75,12-14.47,20-14.47,20-14.55,5.71-14.98,15.55-14.98,15.55Z" fill="#293838"></path>
      <path d="M734.99,648.68l-52.76-1.36,.02-.51c.02-.42,.61-10.23,15.3-15.99,.07-.04,13.43-7.98,14.15-19.57l.03-.48,24.21,.61-.96,37.29Zm-51.67-2.33l50.7,1.3,.9-35.29-22.26-.57c-1.07,11.86-14.12,19.59-14.68,19.92-12.27,4.82-14.33,12.58-14.67,14.63Z" fill="#002346"></path>
    </g>
    <g>
      <path d="M682.75,646.84l51.75,1.33,.08-3.06-22.82-.59s-.9-10.46-14-13.2c-14.58,5.68-15.01,15.52-15.01,15.52Z" fill="#fff"></path>
      <path d="M734.99,648.68l-52.76-1.36,.02-.51c.02-.42,.61-10.23,15.33-15.96l.14-.05,.15,.03c11.75,2.46,13.97,11.13,14.33,13.2l22.9,.59-.11,4.06Zm-51.67-2.33l50.7,1.3,.05-2.06-22.77-.59-.04-.44c-.04-.41-1.04-10.05-13.46-12.72-12.07,4.75-14.15,12.47-14.49,14.51Z" fill="#002346"></path>
    </g>
    <g>
      <path d="M785.57,648.17l50.71-10.4-7.27-35.56-22.76,4.67c2,11.84-9.58,22.78-9.58,22.78-12.91,8.77-11.1,18.51-11.1,18.51Z" fill="#293838"></path>
      <path d="M785.18,648.76l-.09-.5c-.08-.41-1.72-10.16,11.31-19.02,.05-.06,11.3-10.85,9.37-22.28l-.08-.48,23.72-4.87,7.47,36.54-51.7,10.6Zm21.65-41.49c1.65,11.77-9.33,22.3-9.8,22.75-10.85,7.38-11.13,15.46-11,17.55l49.68-10.19-7.07-34.58-21.8,4.47Z" fill="#002346"></path>
    </g>
    <g>
      <path d="M785.57,648.17l50.71-10.4-.61-3-22.37,4.59s-3.23-10-16.65-9.7c-12.89,8.77-11.08,18.51-11.08,18.51Z" fill="#fff"></path>
      <path d="M785.18,648.76l-.09-.5c-.08-.41-1.72-10.16,11.29-19.01l.12-.08h.15c12.03-.24,16.15,7.68,16.97,9.62l22.45-4.61,.81,3.98-51.7,10.6Zm11.64-18.6c-10.69,7.34-10.94,15.34-10.8,17.41l49.68-10.19-.41-2.02-22.32,4.58-.14-.42c-.13-.39-3.28-9.6-16.02-9.36Z" fill="#002346"></path>
    </g>
    <g>
      <path d="M676.12,542.46c-5.44,5.64-16.85,12.94-36.23,5.93,0,0-28.44,15.45-55.65-1.85,0,0-25.69,3.44-45.12-1.33-5.38-1.35-8.9-6.5-8.23-12l23.61-203.76,7.13-43.9,68.29-8s17.71,13.4,29.15,77.12c9.11,50.64,14.85,125.69,14.85,125.69l5.61,51.92c.43,3.73-.82,7.46-3.41,10.18Z" fill="#293838"></path>
      <path d="M612.57,555.19c-8.75,0-18.7-1.97-28.44-8.13-2.35,.29-26.68,3.17-45.12-1.36-5.61-1.41-9.31-6.81-8.61-12.55l23.61-203.76,7.19-44.3,68.86-8.07,.16,.12c.73,.55,18,14.24,29.34,77.43,9.01,50.08,14.8,124.99,14.86,125.74l5.61,51.9c.45,3.89-.84,7.74-3.55,10.58h0c-5.15,5.34-16.73,13.22-36.55,6.13-1.63,.83-12.86,6.25-27.36,6.25Zm-28.22-9.17l.15,.1c26.64,16.94,54.86,1.99,55.14,1.83l.2-.11,.21,.08c19.41,7.02,30.7-.62,35.7-5.81,2.5-2.62,3.69-6.18,3.27-9.78l-5.61-51.92c-.06-.77-5.84-75.62-14.85-125.65-10.7-59.62-27.08-75.19-28.81-76.69l-67.7,7.93-7.07,43.53-23.61,203.74c-.64,5.24,2.74,10.17,7.86,11.46,19.11,4.69,44.68,1.35,44.93,1.32l.18-.02Z" fill="#002346"></path>
    </g>
    <g>
      <path d="M535.01,256.51c1.22-3.76,17.12,.57,18.49,.84s1.82-1.7,.57-1.88c-1.81-.25-20.65-3.35-19.51-7.06,.65-2,4.22-.55,4.22-.55,0,0,17.42,4.21,17.89,2.44s-9.66-4.61-13.14-5.3c-3.48-.69-4.52-2.62-2.94-3.89,1.07-.86,11.8,1,15.23,1.82,3.43,.82,12.81,3.09,9.12-1.8-3.69-4.89-4.7-10.07-4-11.64,.53-.92,1.71-1.23,2.62-.7,.51,.29,.85,.8,.94,1.38,.65,1.97,1.57,3.84,2.74,5.56,.88,1.43,2.01,2.7,3.33,3.74,1.5,1.19,2.81,2.15,4,2.93,8.52,.79,40,.76,61.25-6.1,5.1-1.63,27.79-42.5,27.79-42.5h0l27.49,18.29-19,33.36c-17.14,37.27-103.53,21.14-103.53,21.14h0c-6.58,.31-13.17,.26-19.75-.14-9.09-.95-9-1.76-8.72-2.8,.78-2.8,16,1.06,13.24-1.63s-19.33-2.62-18.33-5.51Z" fill="#f2b3c1"></path>
      <path d="M608.88,270.55c-20.91,0-39.17-3.26-40.34-3.47-6.56,.3-13.2,.26-19.75-.14-6.81-.71-8.51-1.34-9.05-2.13-.33-.48-.2-.97-.11-1.29,.48-1.72,3.81-1.58,8.85-1.19,1.67,.13,3.9,.31,4.61,.13-.02-.03-.05-.06-.09-.09-1.17-1.14-5.5-1.81-9.33-2.4-5.09-.79-8.24-1.33-9.01-2.6-.19-.32-.23-.67-.11-1.02,.84-2.58,6.61-2.48,18.14,.3,.45,.11,.76,.18,.91,.21,.24,.05,.44,0,.57-.17,.13-.16,.18-.38,.12-.55-.03-.07-.08-.17-.29-.19-.17-.02-17.35-2.6-19.68-6.26-.3-.46-.38-.96-.23-1.43,.17-.53,.52-.93,1.02-1.16,1.41-.66,3.61,.2,3.86,.3,7.61,1.83,16.07,3.34,17.22,2.72-.27-1.08-7.59-3.62-12.75-4.64-2.21-.44-3.7-1.43-4-2.64-.19-.77,.11-1.52,.85-2.11,1.49-1.2,14.32,1.41,15.65,1.72,5.64,1.35,8.74,1.6,9.29,.76,.2-.3-.05-.95-.68-1.78-3.83-5.08-4.83-10.4-4.06-12.14,.35-.6,.87-1,1.49-1.17,.62-.17,1.27-.08,1.83,.24,.64,.37,1.07,1,1.18,1.73,.62,1.85,1.52,3.68,2.66,5.36,.87,1.41,1.95,2.62,3.23,3.63,1.45,1.15,2.72,2.08,3.86,2.84,8.58,.77,39.74,.75,60.93-6.09,4.03-1.29,21.23-30.95,27.51-42.27l.26-.47,28.32,18.84-19.23,33.76c-7.07,15.38-27.34,23.97-58.61,24.79-1.69,.04-3.38,.07-5.05,.07Zm-40.27-4.46h.06c.86,.17,86.21,15.64,102.99-20.85l18.79-33-26.66-17.74c-3.3,5.92-22.83,40.67-27.81,42.26-21.44,6.92-52.98,6.91-61.45,6.12h-.12s-.1-.08-.1-.08c-1.2-.79-2.52-1.75-4.04-2.96-1.37-1.08-2.53-2.38-3.44-3.87-1.18-1.74-2.12-3.65-2.79-5.66-.08-.51-.34-.89-.72-1.11-.33-.19-.72-.24-1.08-.15-.37,.1-.68,.33-.87,.66-.55,1.25,.29,6.22,3.97,11.1,.95,1.25,1.18,2.21,.72,2.91-1.06,1.62-5.57,.8-10.28-.32-4.09-.98-13.88-2.53-14.88-1.92-.29,.23-.62,.62-.5,1.11,.15,.62,1.09,1.49,3.24,1.91,2.57,.51,12.06,2.96,13.36,5.05,.22,.36,.21,.66,.16,.86-.49,1.85-10.32-.12-18.48-2.09-.63-.25-2.27-.75-3.14-.34-.25,.12-.41,.3-.5,.57-.04,.12-.06,.31,.12,.61,1.68,2.64,14.69,5.22,18.99,5.81,.51,.07,.9,.37,1.07,.82,.19,.5,.08,1.1-.29,1.53-.37,.44-.92,.62-1.51,.5-.15-.03-.48-.11-.95-.22-13.95-3.36-16.62-2.04-16.98-.95h0c-.03,.09-.02,.14,.02,.21,.57,.94,4.87,1.61,8.32,2.14,4.36,.67,8.48,1.31,9.87,2.66,.44,.43,.58,.84,.42,1.2-.38,.83-2.02,.74-5.7,.45-2.81-.22-7.53-.59-7.82,.47-.08,.29-.08,.39-.03,.47,.62,.9,6.42,1.51,8.32,1.71,6.51,.4,13.14,.45,19.68,.14h.06Z" fill="#002346"></path>
    </g>
    <g>
      <path d="M786.24,217.79c-2.6-3-15.51,7.25-16.66,8.05-1.15,.8-2.35-.86-1.26-1.51,1.63-.94,17.66-11.2,15.14-14.16-1.41-1.63-4.1,1.15-4.1,1.15,0,0-14.35,10.68-15.51,9.29s7.06-8,10-10.05c2.94-2.05,3.12-4.18,1.17-4.73-1.34-.38-10.44,5.61-13.3,7.67-2.86,2.06-10.56,7.87-9.08,1.92s.36-11.09-.91-12.28c-1.27-1.19-3.36,.17-3,2,.18,2.06,.07,4.14-.32,6.17-.27,1.67-.82,3.28-1.63,4.77-.91,1.62-1.74,3.07-2.49,4.24-7.52,4.1-31.1,15.92-53.39,18-5.56,.79-11.16-1.09-15.11-5.08l-11.78-14.02-22.77,17.39s7.11,8.82,17,20.76c25.9,31.22,101.25-17.07,101.25-17.07v-.08c6.16-2.32,12.19-4.96,18.07-7.92,8-4.44,7.59-5.17,6.91-6-1.81-2.26-14.33,7.28-12.83,3.67s16.6-9.9,14.6-12.18Z" fill="#f2b3c1"></path>
      <path d="M684.38,268.31c-11.68,0-20.64-3.55-26.51-10.63-9.78-11.81-16.93-20.68-17-20.77l-.32-.39,23.54-17.98,12.08,14.38c3.79,3.83,9.29,5.67,14.66,4.91,22.62-2.11,46.23-14.14,53.11-17.88,.7-1.11,1.47-2.45,2.41-4.11,.78-1.44,1.31-2.99,1.57-4.61,.39-2,.49-4.03,.32-6.05-.21-1.04,.3-2.15,1.27-2.69,.87-.48,1.85-.38,2.55,.28,1.4,1.31,2.58,6.61,1.05,12.76-.25,1.01-.23,1.71,.07,1.9,1.16,.78,6.18-2.84,7.82-4.03l.43-.31c.12-.08,11.79-8.31,13.72-7.74,.91,.26,1.48,.82,1.61,1.6,.21,1.23-.75,2.69-2.64,4.01-4.34,3.02-10.02,8.18-9.91,9.29,.01,0,.03,0,.04,0,1.42,0,8.53-4.66,14.8-9.33,.12-.14,1.79-1.81,3.34-1.76,.56,.02,1.05,.25,1.42,.68,.33,.39,.45,.88,.36,1.44-.75,4.35-15.47,13.38-15.62,13.47-.17,.1-.18,.21-.18,.29,0,.18,.15,.37,.33,.46,.19,.09,.38,.07,.58-.07,.11-.08,.35-.26,.68-.5,9.55-7.17,14.84-9.54,16.63-7.47,.24,.28,.34,.62,.29,.98-.22,1.46-2.86,3.16-7.15,5.82-3.29,2.04-7.02,4.35-7.66,5.89-.02,.06-.04,.1-.05,.14,.72-.1,2.74-1.15,4.25-1.94,4.46-2.32,7.46-3.74,8.56-2.37,.2,.24,.53,.65,.42,1.22-.18,.94-1.49,2.2-7.47,5.52-5.82,2.93-11.85,5.58-17.93,7.87l-.11,.11c-.19,.12-19.14,12.19-41.01,20.29-13.18,4.88-24.71,7.31-34.37,7.31Zm-42.43-31.62c1.49,1.84,8.06,9.96,16.68,20.36,24.63,29.69,95.8-14.16,100.38-17.03v-.07l.32-.2c6.12-2.3,12.18-4.96,18.02-7.9,4.48-2.49,6.83-4.12,6.97-4.83,.02-.1-.03-.19-.22-.42-.68-.85-4.85,1.32-7.34,2.62-3.3,1.72-4.79,2.46-5.47,1.84-.3-.27-.33-.71-.09-1.29,.76-1.83,4.3-4.02,8.05-6.35,2.91-1.8,6.53-4.05,6.7-5.13,.01-.08,0-.13-.06-.19h0c-.61-.71-3.33-1.38-15.3,7.61-.34,.26-.59,.44-.71,.52-.5,.35-1.07,.4-1.59,.14-.51-.25-.85-.77-.87-1.31-.02-.48,.23-.91,.67-1.17,2.54-1.47,14.58-9.46,15.15-12.79,.06-.36-.05-.53-.13-.63-.19-.22-.42-.33-.7-.34h-.04c-.96,0-2.22,1.09-2.64,1.51-6.78,5.05-15.03,10.7-16.24,9.26-.13-.15-.27-.42-.21-.83,.33-2.48,8.77-8.87,10.31-9.94,1.81-1.26,2.34-2.4,2.23-3.04-.08-.48-.54-.71-.91-.82-1.1-.2-9.13,4.9-12.88,7.6l-.42,.31c-3.65,2.64-7.35,5.13-8.95,4.05-.69-.47-.85-1.44-.47-2.96,1.47-5.9,.28-10.82-.77-11.8-.39-.36-.91-.41-1.4-.14-.5,.28-.93,.91-.78,1.69,.19,2.16,.08,4.28-.32,6.36-.28,1.71-.84,3.37-1.68,4.91-.98,1.74-1.77,3.12-2.51,4.27l-.07,.11-.11,.06c-6.78,3.7-30.67,15.92-53.58,18.06-5.66,.82-11.47-1.14-15.5-5.22l-11.51-13.69-22,16.8Z" fill="#002346"></path>
    </g>
    <g>
      <path d="M460.12,317.19c-.36-3.5,14.14-5.67,15.34-5.95s.87-2.05-.22-1.74c-1.55,.44-18,4.68-18.38,1.25-.21-1.9,3.26-2,3.26-2,0,0,15.67-2.83,15.44-4.44s-9.49-.29-12.58,.39c-3.09,.68-4.62-.52-3.79-2.11,.57-1.09,10-3.38,13-4,3-.62,11.52-2.08,6.76-4.75s-7.43-6.5-7.43-8c.09-.93,.91-1.62,1.85-1.54,.54,.05,1.02,.35,1.3,.82,1.24,1.37,2.66,2.57,4.22,3.55,1.22,.83,2.57,1.46,4,1.85,1.63,.42,3.06,.73,4.28,1,7.22-2.41,32.78-13.71,47.68-26.93,3.54-3.15,7.36-44.55,7.36-44.55h0l28.93,5-3.55,34c-.57,36.46-76.65,54.33-76.65,54.33v-.08c-5.25,2.62-10.63,4.95-16.13,7-7.74,2.47-8,1.79-8.13,.85-.35-2.56,13.45-4.88,10.18-6.12-3.27-1.24-16.4,4.85-16.74,2.17Z" fill="#f2b3c1"></path>
      <path d="M467.81,322.48c-.5,0-.82-.09-1.05-.24-.46-.29-.52-.76-.56-1.04-.22-1.6,2.54-2.69,6.77-4.18,1.38-.48,3.2-1.13,3.77-1.53-.02,0-.03-.01-.05-.02-1.38-.53-5.13,.52-8.44,1.44-4.3,1.19-6.99,1.89-8.1,1.15-.29-.19-.46-.47-.51-.82h0c-.25-2.46,4.32-4.41,14.83-6.32,.44-.08,.76-.14,.89-.17,.19-.04,.31-.15,.36-.32,.04-.16,0-.34-.08-.43-.03-.03-.08-.09-.25-.04-.15,.04-15.05,4.13-18.29,1.96-.42-.28-.67-.67-.72-1.12-.06-.51,.09-.99,.42-1.37,.93-1.07,3.07-1.17,3.31-1.17,6.58-1.19,14.05-3.01,14.93-3.93-.78-.71-7.49-.13-11.95,.85-2.01,.44-3.56,.17-4.26-.74-.43-.57-.46-1.32-.07-2.08,.83-1.58,13.21-4.23,13.34-4.25l.65-.13c1.72-.35,6.94-1.4,7.13-2.56,.04-.28-.39-.71-1.16-1.14-4.95-2.77-7.68-6.74-7.68-8.43,.11-1.25,1.18-2.14,2.39-2.03,.69,.06,1.32,.46,1.68,1.05,1.15,1.26,2.53,2.43,4.06,3.39,1.2,.81,2.49,1.41,3.87,1.79,1.49,.38,2.81,.67,3.98,.93l.15,.03c7.27-2.46,32.52-13.61,47.38-26.79,2.49-2.22,5.67-27.66,7.2-44.23l.05-.53,29.91,5.17-3.6,34.46c-.23,15.06-13.66,29.34-38.82,41.23-18.92,8.94-38.02,13.48-38.21,13.53l-.25,.06c-5.14,2.54-10.46,4.85-15.82,6.84-4.03,1.29-6.06,1.73-7.18,1.73Zm7.88-8.12c.53,0,.99,.06,1.35,.2,.55,.21,.82,.51,.82,.9-.01,.86-1.41,1.39-4.57,2.5-2.18,.77-6.25,2.2-6.12,3.12,.03,.25,.06,.31,.11,.34,.53,.33,3.02-.2,7.38-1.59,5.43-2.02,10.85-4.37,16.06-6.97l.71-.35v.25c7.17-1.8,75.14-19.76,75.67-53.71l3.5-33.59-27.95-4.83c-.58,6.17-4.01,41.26-7.47,44.34-15.06,13.36-40.71,24.64-47.85,27.03l-.13,.04-.41-.09c-1.17-.26-2.5-.55-4.02-.94-1.49-.41-2.88-1.06-4.15-1.92-1.59-1-3.04-2.22-4.31-3.63-.25-.4-.6-.62-.98-.66-.66-.05-1.25,.43-1.31,1.09,0,1.19,2.47,4.88,7.18,7.53,.45,.25,1.83,1.03,1.65,2.15-.27,1.7-4.05,2.6-7.91,3.38l-.65,.13c-4.58,.95-12.08,2.99-12.67,3.76-.14,.27-.26,.68-.01,1.01,.33,.43,1.39,.79,3.27,.38,1.61-.36,10.81-1.99,12.72-.66,.32,.22,.42,.5,.45,.68,.2,1.38-5.13,3.06-15.84,4.99-.61,.02-2.12,.21-2.67,.84-.16,.18-.22,.38-.19,.62,.01,.11,.06,.26,.29,.42,2.29,1.54,13.6-.99,17.47-2.08,.46-.13,.9-.03,1.21,.29,.35,.35,.48,.9,.33,1.4-.15,.51-.54,.88-1.08,1-.14,.03-.47,.09-.94,.18-12.41,2.26-14.12,4.25-14.02,5.24,0,.05,.03,.08,.07,.11,.8,.53,4.4-.47,7.3-1.28,2.96-.82,5.8-1.61,7.7-1.61Z" fill="#002346"></path>
    </g>
    <g>
      <path d="M567.61,172.62l-.59,.26c-3.25,1.47-18.91,9.66-27,34.85l-9,28.18,28.84-.62" fill="#f3f0ea"></path>
      <path d="M530.33,236.42l9.21-28.85c8.16-25.41,24.15-33.74,27.27-35.15l.59-.26,.4,.92-.59,.26c-3.05,1.38-18.69,9.54-26.73,34.54l-8.79,27.51,28.14-.61,.02,1-29.54,.63Z" fill="#002346"></path>
    </g>
    <g>
      <path d="M546.01,215.87c-.98,4.09-1.47,8.28-1.48,12.49,.65,6.78,3.62,13.14,8.39,18l.12,.13,6.83,48.53,75.69-10.61-5.36-10.59c-1.67-3.31-2.32-7.03-1.86-10.71l4.08-32.67,6.29,8.39,26.85-20.06-7.55-15.17c-3.12-6.51-7.51-14.25-12.14-19.17-6.66-6.88-15.42-11.35-24.9-12.7-6.76-1.06-13.3-1.47-13.3-1.47l-29.12,2.27c-1.37,.3,3.63-.1-10.91,.16l-21.63,43.25" fill="#f3f0ea"></path>
      <path d="M559.45,295.58l-6.89-48.88c-4.83-4.92-7.86-11.42-8.52-18.29,0-4.29,.51-8.53,1.49-12.65l.22,.05-.18-.09,21.77-43.52h.3c6.72-.12,9.39-.17,10.47-.05,.13-.06,.26-.09,.34-.11l29.19-2.28c.14,0,6.71,.42,13.42,1.47,9.53,1.36,18.48,5.92,25.18,12.85,5.29,5.62,9.93,14.5,12.23,19.3l7.73,15.54-27.58,20.61-5.85-7.8-3.93,31.44c-.45,3.59,.18,7.2,1.81,10.42l5.68,11.21-76.88,10.78Zm-12.99-79.42c-.94,3.99-1.42,8.1-1.42,12.2,.64,6.6,3.57,12.88,8.25,17.65l.24,.26,6.78,48.19,74.5-10.44-5.04-9.97c-1.72-3.41-2.38-7.21-1.91-11l4.23-33.9,6.73,8.98,26.12-19.51-7.36-14.8c-2.28-4.75-6.87-13.54-12.06-19.05-6.54-6.76-15.28-11.22-24.61-12.55-6.66-1.04-13.2-1.46-13.26-1.47l-28.77,2.25v.08s-.94,.11-.94,.11l-.02-.08c-.77-.03-3.11-.06-9.95,.06l-21.49,42.98h0Z" fill="#002346"></path>
    </g>
    <g>
      <path d="M571.01,88.59c-3.34-3.51-9.26-3.77-13.43-1.25-4.1,2.74-6.75,7.19-7.22,12.1-.37,3-.14,6.26-1.62,8.91-1.48,2.65-4.88,4.34-7.09,6.74-3.33,3.77-3.95,9.23-1.55,13.65,1.32,2.31,3.53,4.6,2.9,7.18-.63,2.58-4,3.73-6,5.76-2.93,3-2.47,7.84-1.63,11.93,.39,1.86,1,3.91,2.64,4.79,1.42,.53,2.96,.62,4.43,.24,9.39-1.32,18.9,.67,28.36,1.17s19.77-.76,26.67-7.28" fill="#002346"></path>
      <path d="M574.37,160.41c-1.17,0-2.36-.03-3.59-.1-2.95-.16-5.95-.46-8.84-.75-6.39-.65-13-1.32-19.42-.42-1.52,.39-3.16,.3-4.68-.27-1.87-1-2.54-3.16-2.95-5.16-.84-4.07-1.39-9.15,1.76-12.38,.74-.75,1.65-1.38,2.54-1.99,1.53-1.06,2.97-2.06,3.34-3.54,.43-1.78-.66-3.44-1.83-5.19-.36-.54-.71-1.08-1.02-1.62-2.49-4.6-1.84-10.31,1.61-14.23,.92-1,2.02-1.87,3.09-2.71,1.59-1.26,3.1-2.44,3.94-3.95,1.04-1.86,1.2-4.13,1.35-6.32,.06-.81,.11-1.62,.21-2.41,.48-5.07,3.19-9.62,7.44-12.45,4.57-2.76,10.74-2.18,14.07,1.32l-.72,.69c-3.02-3.17-8.64-3.68-12.81-1.17-3.98,2.66-6.53,6.93-6.98,11.72-.1,.79-.15,1.58-.21,2.37-.16,2.3-.33,4.68-1.47,6.74-.94,1.68-2.59,2.98-4.19,4.24-1.04,.82-2.11,1.66-2.97,2.59-3.17,3.59-3.77,8.85-1.48,13.07,.29,.51,.64,1.03,.98,1.55,1.23,1.86,2.5,3.78,1.96,5.98-.45,1.85-2.12,3-3.74,4.12-.84,.58-1.71,1.18-2.39,1.87-2.82,2.89-2.28,7.65-1.5,11.48,.37,1.76,.94,3.68,2.39,4.45,1.27,.47,2.7,.55,4.07,.2,6.59-.93,13.26-.25,19.71,.4,2.89,.29,5.87,.6,8.8,.75,11.77,.62,20.62-1.78,26.3-7.14l.69,.73c-5.28,4.99-13.16,7.51-23.45,7.51Z" fill="#002346"></path>
    </g>
    <g>
      <path d="M605.01,106.74l.91,76.24c-.19,9.4-7.86,16.93-17.27,16.93h0c-9.53-.01-17.25-7.74-17.25-17.27v-24.39s-12.14-2-14.63-17.89c-1.25-7.88-.86-20.81-.2-31.38,.6-9.51,6.83-21.48,19.51-21.43-.07,.07,27.59-1.95,28.93,19.19Z" fill="#f2b3c1"></path>
      <path d="M588.66,200.4h0c-9.78-.01-17.74-7.98-17.74-17.76v-24c-2.18-.54-12.37-3.82-14.62-18.21-1.29-8.12-.82-21.6-.2-31.49,.56-8.81,6.32-21.89,19.92-21.89h.17s.12,0,.12,0c4.66-.13,27.98,.16,29.22,19.65v.03s.91,76.24,.91,76.24c-.19,9.62-8.16,17.43-17.76,17.43Zm-12.65-112.36c-12.92,0-18.41,12.53-18.94,20.97-.61,9.83-1.08,23.24,.19,31.27,2.4,15.33,13.74,17.4,14.23,17.48l.41,.07v24.81c0,9.24,7.52,16.77,16.76,16.78h0c9.07,0,16.6-7.38,16.78-16.45l-.91-76.21c-1.16-18.11-21.88-18.91-28.2-18.72-.08,0-.16,0-.24,0h0s-.05,0-.08,0Z" fill="#002346"></path>
    </g>
    <g>
      <path d="M594.65,135.71c-.12,1.83-.12,3.68,0,5.51,.1,5.07,2.91,9.7,7.36,12.13,3.33,1.98,7.08,3.16,10.94,3.47,4.21-.03,8.38-.87,12.28-2.46,6.8-2.34,13.47-5.01,20-8,1.02-.33,1.89-1.01,2.47-1.91,.37-1.11,.32-2.32-.15-3.4-.92-3-1.83-6-2.76-9.07-.43-1.75-1.11-3.43-2-5-.9-1.58-2.39-2.75-4.14-3.25-1.47-.12-2.93-.31-4.38-.59-1.51-.63-2.69-1.86-3.25-3.4-.53-1.51-.93-3.06-1.2-4.63-.75-3.35-2.34-6.88-5.46-8.31-1.78-.81-3.83-.83-5.65-1.63-2.48-1.23-4.47-3.28-5.62-5.8-1.14-2.5-2.4-4.95-3.79-7.32-1.12-1.77-2.75-3.17-4.67-4-.98-.92-2.07-1.71-3.25-2.35-5.25-2.9-11.59-2.72-17.58-2.46-4.88,.21-14.48-3.4-18.33,3.57-1.17,2.11,.17,4.73,2.57,5.01,.97,.11,1.92,.52,2.7,1.22,.34,.29,.63,.63,.87,1,1.28,1.94,1.75,4.31,1.3,6.6-.44,2.57-.76,5.43,.64,7.64,1.63,2.18,4.3,3.33,7,3,.03,0,.05,0,.08-.01,4.09-.55,8.2,1.17,10.32,4.72,.03,.06,.07,.11,.1,.17,3.34,5.48,4.74,11.92,3.79,18.27l-.19,1.28Z" fill="#002346"></path>
      <path d="M612.96,157.32c-3.96-.31-7.82-1.54-11.2-3.54-4.58-2.5-7.5-7.31-7.61-12.55-.12-1.83-.12-3.7,0-5.55v-.04s.2-1.29,.2-1.29c.91-6.13-.41-12.5-3.73-17.93l-.11-.18c-1.94-3.26-5.8-5.02-9.82-4.48-2.96,.37-5.82-.86-7.55-3.19-1.53-2.41-1.18-5.41-.73-8.02,.43-2.18,0-4.39-1.22-6.24-.22-.34-.48-.64-.78-.9-.69-.62-1.52-1-2.43-1.1-1.29-.15-2.42-.93-3.01-2.08-.59-1.16-.57-2.52,.06-3.66,3.06-5.54,9.41-4.77,14.5-4.15,1.58,.19,3.08,.38,4.25,.32,5.49-.24,12.31-.53,17.84,2.52,1.19,.65,2.29,1.44,3.29,2.36,1.99,.88,3.65,2.32,4.81,4.16,1.4,2.39,2.69,4.87,3.82,7.38,1.1,2.41,3.01,4.38,5.39,5.56,.83,.37,1.73,.56,2.69,.76,.98,.21,2,.43,2.95,.86,3.5,1.61,5.05,5.59,5.74,8.66,.27,1.57,.67,3.1,1.18,4.57,.5,1.38,1.57,2.5,2.92,3.08,1.41,.27,2.85,.46,4.27,.57l.1,.02c1.89,.54,3.46,1.78,4.44,3.48,.92,1.61,1.61,3.33,2.05,5.13,.92,3.04,1.83,6.04,2.75,9.04,.5,1.14,.56,2.47,.15,3.71l-.05,.11c-.64,1-1.61,1.75-2.74,2.11-6.46,2.96-13.2,5.66-19.99,8-3.95,1.61-8.14,2.45-12.44,2.49Zm-17.81-21.56c-.12,1.8-.12,3.62,0,5.42,.1,4.9,2.82,9.38,7.1,11.72,3.26,1.93,6.97,3.11,10.74,3.41,4.12-.03,8.19-.85,12.05-2.42,6.78-2.33,13.5-5.02,19.98-7.99,.94-.31,1.71-.9,2.22-1.67,.31-.98,.26-2.04-.15-2.98-.94-3.05-1.85-6.05-2.78-9.12-.43-1.73-1.09-3.37-1.96-4.9-.84-1.46-2.18-2.53-3.8-3-1.46-.12-2.94-.32-4.38-.59l-.1-.03c-1.64-.68-2.92-2.03-3.53-3.69-.54-1.53-.95-3.12-1.22-4.72-.63-2.82-2.05-6.51-5.18-7.94-.85-.39-1.77-.58-2.74-.79-.96-.21-1.96-.42-2.9-.83-2.6-1.29-4.68-3.43-5.87-6.05-1.12-2.48-2.39-4.93-3.77-7.28-1.06-1.68-2.6-3-4.44-3.79l-.14-.09c-.95-.89-2.01-1.65-3.15-2.28-5.29-2.92-11.96-2.63-17.32-2.4-1.25,.04-2.78-.13-4.41-.33-4.8-.58-10.77-1.31-13.51,3.64-.48,.86-.49,1.85-.04,2.72,.45,.87,1.26,1.43,2.24,1.55,1.11,.13,2.14,.59,2.98,1.35,.36,.32,.69,.69,.95,1.1,1.36,2.06,1.85,4.54,1.37,6.97-.41,2.42-.75,5.19,.57,7.28,1.49,2,4,3.07,6.52,2.77,4.5-.61,8.74,1.34,10.89,4.95l.1,.17c3.43,5.63,4.81,12.24,3.86,18.6l-.19,1.26Z" fill="#002346"></path>
    </g>
    <g>
      <path d="M802.1,191.4l15.57,19.6-10.18-52.45c-.8-3.3-2.48-6.32-4.87-8.73-1.04-1.09-2.19-2.06-3.44-2.9-1.58-1-3.28-1.78-5.07-2.31-1.62-.34-2.11-2.52-.71-3.15,1.4-.63,6.05,.19,10.55,3.43,4.5,3.24,2.15-5.06,1.35-8.13-.8-3.07-2.83-12.54-2.08-13.5,1.09-1.41,2.84-.47,3.57,2.57s3.55,12,5.14,11.6c1.59-.4-2.71-15.86-2.71-15.86,0,0-1.45-3.15,.37-3.74,3.25-1.07,6.62,15.61,6.9,17.21,.19,1.1,1.95,.66,1.62-.51s-4.63-15.28-1.3-16.39c2.55-.86,2.88,13.69,5.42,16.15,2.54,2.46-1.39-11,1.08-11.76,.93-.26,1.63-.32,2.79,7.71,.6,4.32-.18,11.09,1.62,19.33l.46,2.15c3.1,10,14.14,47.8,12.57,73.54-.74,10.7-10.02,18.77-20.72,18.03-3.9-.27-7.63-1.71-10.7-4.14-10.66-8.43-20.34-18.03-28.86-28.62l21.63-19.13Z" fill="#f2b3c1"></path>
      <path d="M821.39,243.83c-.46,0-.92-.02-1.39-.05-4.02-.28-7.82-1.75-10.98-4.25-10.67-8.44-20.41-18.1-28.94-28.7l-.29-.37,22.37-19.78,14.64,18.43-9.8-50.48c-.78-3.19-2.42-6.13-4.74-8.48-1.02-1.07-2.15-2.02-3.36-2.84-1.52-.97-3.19-1.72-4.94-2.25-1.15-.24-1.78-1.22-1.87-2.09-.09-.88,.33-1.63,1.1-1.98,1.56-.7,6.39,.13,11.04,3.48,1.1,.79,1.48,.66,1.57,.59,1-.68-.41-6.02-.87-7.77l-.11-.43c-.03-.12-3.11-12.5-1.99-13.93,.51-.66,1.18-.94,1.88-.79,1.12,.24,2.08,1.57,2.55,3.55,1.07,4.46,3.46,10.74,4.47,11.21,.43-1.24-1.15-8.59-3-15.22-.07-.14-.94-2.1-.38-3.38,.2-.46,.57-.79,1.07-.95,.43-.14,.88-.08,1.31,.18,3.34,2,6.2,17.26,6.23,17.41,.03,.15,.1,.19,.15,.21,.13,.04,.32,0,.43-.11,.1-.1,.13-.22,.08-.39l-.08-.27c-3-10.3-3.3-15.92-.9-16.72,.32-.11,.65-.08,.95,.1,1.16,.68,1.72,3.43,2.55,7.87,.63,3.4,1.35,7.25,2.42,8.29,.01,.01,.03,.02,.04,.04,.11-.7-.11-2.59-.27-4.01-.51-4.46-.72-7.43,.82-7.9,.29-.08,.75-.21,1.2,.09,.74,.48,1.34,1.95,2.22,8.02,.22,1.58,.26,3.45,.3,5.62,.08,3.76,.17,8.44,1.31,13.68l.46,2.15c3.34,10.76,14.15,48.01,12.58,73.67-.73,10.49-9.49,18.54-19.85,18.54Zm-40.24-33.24c8.41,10.4,17.99,19.88,28.49,28.18,3,2.38,6.61,3.77,10.43,4.04,10.42,.71,19.47-7.16,20.19-17.58,1.55-25.49-9.21-62.6-12.55-73.36l-.47-2.19c-1.16-5.33-1.26-10.06-1.33-13.87-.04-2.13-.08-3.98-.29-5.5-.24-1.68-.98-6.82-1.78-7.34-.06-.04-.13-.04-.39,.03-.87,.27-.39,4.55-.12,6.85,.37,3.3,.51,4.78-.26,5.16-.35,.17-.74,.05-1.17-.36-1.3-1.26-1.98-4.93-2.71-8.82-.56-2.99-1.25-6.71-2.08-7.2-.05-.03-.08-.03-.14-.02-1.25,.42-1.6,4.73,1.54,15.51l.08,.28c.15,.52,.02,1.02-.35,1.37-.37,.36-.94,.49-1.42,.33-.44-.14-.73-.5-.81-.97-.67-3.8-3.38-15.31-5.76-16.74-.24-.15-.4-.12-.5-.09-.23,.08-.38,.21-.47,.42-.33,.75,.19,2.2,.4,2.65,.69,2.44,3.92,14.36,2.88,16.15-.15,.26-.35,.35-.5,.39-.18,.05-.47,.06-.8-.15-2-1.21-4.55-10.21-4.94-11.82-.45-1.89-1.26-2.7-1.8-2.82-.32-.07-.62,.08-.9,.43-.44,.86,1.01,8.65,2.17,13.08l.11,.43c1.03,3.92,1.92,7.83,.47,8.83-.95,.66-2.27-.29-2.7-.61-4.44-3.2-8.91-3.9-10.06-3.38-.54,.24-.55,.77-.52,.98,.05,.49,.43,1.09,1.13,1.24,1.87,.56,3.62,1.36,5.23,2.38,1.29,.86,2.47,1.86,3.53,2.97,2.44,2.47,4.17,5.57,4.99,8.95l10.57,54.45-16.5-20.77-20.89,18.47Z" fill="#002346"></path>
    </g>
    <g>
      <path d="M754.63,97.16l-5.74,66.58-33.33-2.66c-.21-3.9,0-19,0-19,0,0-13.87-2.16-14-16-.08-6.74,.88-20.65,1.9-33.21,1.12-13.91,13.15-24.37,27.08-23.56h0c14.13,.78,24.96,12.87,24.2,27-.07,.32-.08,.58-.11,.85Z" fill="#f2b3c1"></path>
      <path d="M749.34,164.27l-34.25-2.73-.02-.43c-.19-3.56-.04-16.14,0-18.62-2.37-.52-13.88-3.69-13.99-16.4-.08-7.1,.99-22,1.9-33.25,1.14-14.06,13.52-24.84,27.6-24.01,14.37,.8,25.44,13.14,24.66,27.52-.06,.29-.07,.48-.09,.66l-.02,.21-5.78,67.07Zm-33.31-3.64l32.41,2.59,5.72-66.3c.02-.22,.04-.44,.1-.7,.73-13.75-9.91-25.63-23.75-26.4-13.55-.8-25.47,9.58-26.56,23.11-.91,11.23-1.98,26.1-1.9,33.16,.12,13.25,13.03,15.43,13.58,15.52l.42,.07v.43c0,.15-.2,14.13-.03,18.54Z" fill="#002346"></path>
    </g>
    <g>
      <path d="M739.58,81.94h0c2.19,1.75,3.63,4.28,4,7.06v.27c.54,4,.44,8,1,11.94,.37,4.02,2.09,7.79,4.88,10.7,1.2,1.12,3.25,1.88,4.32,.57,.33-.55,.5-1.17,.49-1.81,.75-9.56,3.35-18,3.33-28,0-2.72-1.29-5.27-3.49-6.87-2.1-1.49-4.65-3.05-7-2s-5.33,5.45-7.14,7.3" fill="#002346"></path>
      <path d="M752.26,113.67c-1.21,0-2.4-.71-3.14-1.4-2.87-3-4.66-6.91-5.04-11.02-.29-2-.4-4.07-.51-6.07-.11-1.92-.22-3.9-.48-5.85v-.34c-.36-2.6-1.71-4.99-3.82-6.67l.62-.78c2.3,1.84,3.79,4.46,4.18,7.38v.34c.27,1.92,.38,3.92,.49,5.86,.11,1.98,.23,4.03,.51,6.01,.36,3.91,2.05,7.6,4.75,10.42,.76,.7,1.8,1.17,2.57,1.1,.42-.03,.75-.19,1-.5,.24-.41,.39-.94,.38-1.49,.31-4.03,.95-7.87,1.57-11.58,.87-5.21,1.77-10.61,1.76-16.42,0-2.55-1.22-4.97-3.28-6.47-2.18-1.55-4.48-2.86-6.5-1.95-1.53,.68-3.47,3.04-5.03,4.93-.72,.87-1.39,1.69-1.96,2.26l-.71-.7c.54-.55,1.2-1.35,1.9-2.2,1.71-2.08,3.65-4.43,5.39-5.21,2.48-1.11,5.07,.33,7.49,2.05,2.33,1.69,3.71,4.41,3.7,7.28,.01,5.9-.89,11.33-1.77,16.59-.62,3.69-1.25,7.51-1.56,11.45,.01,.69-.18,1.4-.56,2.03-.47,.58-1.06,.88-1.75,.93-.07,0-.14,0-.2,0Z" fill="#002346"></path>
    </g>
    <g>
      <path d="M750.01,103.44c.22-.1,9.52-2.82,9.22,6.66-.3,9.48-9.76,7.22-9.76,7s.54-13.66,.54-13.66Z" fill="#f2b3c1"></path>
      <path d="M752.05,117.98c-.05,0-.11,0-.16,0-.87-.01-2.9-.13-2.9-.88,0-.22,.49-12.3,.54-13.68v-.3s.29-.12,.29-.12c.04-.02,4.29-1.4,7.29,.59,1.84,1.23,2.73,3.43,2.63,6.53-.22,7.04-5.32,7.87-7.68,7.87Zm-2.07-1.21c.87,.21,3.72,.62,5.93-.74,1.79-1.1,2.74-3.1,2.83-5.94,.08-2.66-.61-4.54-2.05-5.58-2.12-1.53-5.23-.93-6.2-.68-.17,4.19-.45,11.31-.51,12.95Z" fill="#002346"></path>
    </g>
    <g>
      <path d="M747.64,75.37c2.34-3.79-4.06-9.23-8.75-10.71-4.69-1.48-10.88,.81-15.49,2.34-2.95,1-5.87,2.33-9,2.22-2.06-.22-4.09-.74-6-1.55-1.92-.8-3.98-1.2-6.06-1.19-2.12,.04-4.05,1.26-5,3.16-.77,1.83,.08,3.93,1.91,4.71,.16,.07,.32,.12,.49,.17-2.26-1.23-5.08-.39-6.31,1.86-1.23,2.26-.39,5.08,1.86,6.31,.98,.53,2.12,.7,3.2,.46-1.35-1-3.42,.67-3.25,2.34,.37,1.69,1.6,3.06,3.25,3.6,4.1,1.49,8.61,1.42,12.67-.2,4.09-1.38,7.88-3.53,12-5s10.84-4.13,14.92-2.7c3,1.08,5.09,4.69,6.78,3.89,1.62-.87,2.73-2.46,3-4.28,.23-1.8,.16-3.62-.19-5.4" fill="#002346"></path>
      <path d="M704.58,90.66c-2.11,0-4.23-.37-6.25-1.1-1.79-.59-3.16-2.11-3.57-3.96-.08-.8,.22-1.62,.77-2.24-.16-.07-.32-.14-.47-.23-2.49-1.36-3.42-4.49-2.06-6.99,.9-1.66,2.59-2.62,4.36-2.68-.82-1.12-1.05-2.64-.47-4.01,1.05-2.1,3.13-3.42,5.45-3.47,2.17,0,4.27,.4,6.26,1.23,1.87,.79,3.84,1.3,5.86,1.51,2.42,.08,4.83-.78,7.15-1.62,.54-.2,1.09-.39,1.63-.58l.93-.31c4.6-1.54,10.33-3.47,14.87-2.03,3.49,1.1,8.02,4.37,9.27,7.72,.47,1.27,.43,2.47-.12,3.5,.34,1.8,.4,3.63,.17,5.45-.29,1.98-1.51,3.71-3.26,4.66-1.25,.59-2.44-.42-3.81-1.6-.99-.85-2.12-1.81-3.38-2.26-3.61-1.27-9.63,.91-13.62,2.36l-.96,.34c-1.95,.7-3.86,1.56-5.71,2.4-2.03,.92-4.14,1.87-6.3,2.6-2.16,.86-4.45,1.3-6.75,1.3Zm-7.92-6.98c-.53,.38-.98,1.06-.91,1.76,.32,1.46,1.44,2.69,2.91,3.18,4.01,1.46,8.38,1.39,12.33-.19,2.14-.72,4.22-1.66,6.23-2.57,1.87-.85,3.8-1.72,5.79-2.43l.95-.34c4.12-1.49,10.35-3.74,14.3-2.36,1.44,.52,2.63,1.54,3.69,2.45,1.11,.95,2.07,1.77,2.71,1.46,1.45-.78,2.47-2.25,2.72-3.9,.22-1.74,.16-3.5-.19-5.23l.5-.1-.47-.29c.5-.82,.56-1.78,.16-2.85-1.11-2.98-5.36-6.09-8.63-7.12-4.23-1.33-9.78,.53-14.25,2.03l-.93,.31c-.54,.18-1.07,.38-1.61,.57-2.42,.87-4.92,1.75-7.56,1.68-2.15-.23-4.22-.76-6.18-1.59-1.87-.78-3.85-1.18-5.86-1.15-1.94,.04-3.69,1.14-4.56,2.88-.59,1.4-.03,3.04,1.26,3.82,.32,.1,.63,.23,.93,.39l3.81,2.07-4.18-1.15c-.19-.05-.37-.12-.55-.19-.14-.06-.27-.13-.4-.2-1.82-.51-3.83,.28-4.78,2.01-1.09,2.01-.35,4.53,1.66,5.63,.3,.16,.62,.29,.95,.37,.81-.4,1.66-.36,2.32,.12l.89,.66-1.08,.23c-.65,.14-1.31,.15-1.95,.04Z" fill="#002346"></path>
    </g>
    <g>
      <polygon points="780.99 312.13 836.02 611.84 796.33 618.8 731.5 351.61 737.96 623.67 700.23 623.67 679.15 309.37 780.99 312.13" fill="#f3f0ea"></polygon>
      <path d="M738.48,624.17h-38.71l-21.15-315.31,102.79,2.79,.07,.4,55.12,300.21-40.65,7.13-63.84-263.13,6.36,267.92Zm-37.77-1h36.75l-6.56-276.2,65.82,271.25,38.73-6.79-54.87-298.82-100.89-2.73,21.01,313.29Z" fill="#002346"></path>
    </g>
    <g>
      <path d="M775.2,214.77l2.12,49,7.85,55.87h-106.26s-.23-13.19,.75-31.5c1.35-25.78,2.35-59.6,2.35-59.6l-4,7c-5.13-5.19-9.97-10.67-14.48-16.41l1.51-1.29-11.09-21.54,20.26-22.91c5.27-6.01,11.7-10.89,18.91-14.34,3.72-1.76,5.16-1.86,13.53-3,3.93-.53,6.93-.79,8.88-1,11.2,3.55,23.22,3.55,34.42,0h0c1.31,.03,2.62,.13,3.92,.31l8.42,2c9.79,2.28,18.65,7.46,25.43,14.88l22.49,24.48-24.2,26.85-10.81-8.8Z" fill="#293838"></path>
      <path d="M785.75,320.14h-107.33v-.49c-.01-.13-.23-13.42,.74-31.54,1.15-21.9,2.05-49.93,2.29-57.58l-3.33,5.83-.46-.47c-5.13-5.19-10.01-10.72-14.52-16.45l-.3-.38,1.57-1.34-11.07-21.49,20.49-23.17c5.34-6.09,11.76-10.96,19.07-14.46,3.53-1.67,5-1.87,12.02-2.82l1.65-.22c2.99-.4,5.49-.66,7.31-.84,.59-.06,1.12-.11,1.58-.16h.1s.1,.02,.1,.02c11.16,3.54,22.96,3.54,34.12,0l.08-.03h.08c1.32,.03,2.66,.14,3.98,.32l8.47,2.01c9.93,2.31,18.81,7.51,25.68,15.03l22.8,24.81-24.82,27.54-10.32-8.4,2.07,47.89,7.93,56.39Zm-106.34-1h105.19l-7.77-55.3-2.17-50.16,11.3,9.2,23.58-26.16-22.18-24.15c-6.74-7.37-15.44-12.47-25.18-14.73l-8.42-2c-1.2-.16-2.47-.26-3.73-.29-11.3,3.56-23.24,3.56-34.54,0-.44,.05-.94,.1-1.49,.15-1.81,.18-4.3,.43-7.28,.83l-1.65,.22c-6.9,.93-8.34,1.13-11.73,2.73-7.19,3.44-13.5,8.22-18.75,14.22l-20.03,22.66,11.11,21.59-1.45,1.23c4.26,5.39,8.86,10.61,13.68,15.52l4.67-8.17-.06,2c-.01,.34-1.02,34.12-2.35,59.61-.86,16.13-.78,28.42-.76,30.97Z" fill="#002346"></path>
    </g>
    <g>
      <rect x="448.81" y="86.5" width="48" height="84" rx="24" ry="24" fill="#f2b3c1"></rect>
      <path d="M472.81,170.99c-13.5,0-24.49-10.99-24.49-24.49v-36c0-13.5,10.99-24.49,24.49-24.49s24.49,10.99,24.49,24.49v36c0,13.5-10.99,24.49-24.49,24.49Zm0-84c-12.96,0-23.51,10.54-23.51,23.51v36c0,12.96,10.55,23.51,23.51,23.51s23.51-10.54,23.51-23.51v-36c0-12.96-10.55-23.51-23.51-23.51Z" fill="#002346"></path>
    </g>
    <g>
      <path d="M504.2,97.24c-3.61-9.82-13.1-16.24-23.56-16.24h-10.68c-13.53,0-24.73,10.67-25.19,24.19-.02,.56-.01,.87-.01,.87v37.65c.45,24.72,16.84,28.21,16.84,28.21-6.95,1.99-15.89-8.93-15.89-8.93l10.94,19.87,22.46-3.36,27.19-23.44,1.7-28.33c.6-13.62-1.21-23.46-3.8-30.5Zm-11.49,50.88c-7.85,17.01-25.16,13.9-25.16,13.9-.25-.02-15.25-2.02-18.75-15.52v-32.29c0-4.37,1.58-8.66,4.66-11.76,4.47-4.49,15.84-8.45,30.84-.45,9,5,9.95,20.18,10.95,28.6,.78,5.96-.1,12.03-2.54,17.52Z" fill="#002346"></path>
      <path d="M456.38,183.42l-11.11-20.17,.82-.56c.08,.09,7.07,8.54,13.23,8.97-4.55-1.99-14.72-8.58-15.08-27.93v-37.66h0s0-.32,.01-.89c.47-13.84,11.75-24.67,25.69-24.67h10.68c10.73,0,20.38,6.66,24.03,16.57h0c3.07,8.35,4.36,18.68,3.83,30.69l-1.71,28.55-27.46,23.67-22.95,3.43Zm-8.3-17.15l8.84,16.06,21.97-3.29,26.92-23.21,1.69-28.12c.52-11.87-.75-22.07-3.77-30.29-3.5-9.52-12.78-15.92-23.09-15.92h-10.68c-13.39,0-24.24,10.41-24.69,23.71-.02,.53-.01,.84-.01,.84v37.67c.44,23.99,16.29,27.69,16.45,27.72l1.95,.42-1.92,.55c-4.82,1.39-10.4-2.98-13.66-6.14Zm22.55-3.54c-1.91,0-3.12-.2-3.17-.21-.1,0-15.55-2.01-19.14-15.89l-.02-.12v-32.29c0-4.63,1.75-9.05,4.81-12.11,4.18-4.2,15.5-9.03,31.43-.54,8.51,4.73,9.99,18.03,10.96,26.83,.08,.75,.16,1.47,.24,2.15,.79,6.05-.1,12.2-2.58,17.78h0c-5.87,12.73-17.07,14.4-22.54,14.4Zm-21.32-16.29c3.47,13.22,18.14,15.07,18.29,15.08,.21,.04,17.07,2.84,24.66-13.61,2.41-5.41,3.27-11.38,2.5-17.25-.08-.69-.16-1.41-.25-2.17-.96-8.6-2.4-21.59-10.45-26.06-15.44-8.23-26.53-3.36-30.24,.36-2.87,2.88-4.52,7.04-4.52,11.41v32.23Z" fill="#002346"></path>
    </g>
    <g>
      <polygon points="498.62 583.24 500.32 618.74 523.35 625.33 529.6 610.49 527 574.64 523.68 565.13 498.62 583.24" fill="#f2b3c1"></polygon>
      <path d="M523.64,625.92l-23.79-6.81-1.73-36.12,25.81-18.65,3.56,10.26,2.61,35.97-6.47,15.35Zm-22.84-7.56l22.27,6.37,6.03-14.33-2.59-35.67-3.08-8.83-24.31,17.57,1.67,34.88Z" fill="#002346"></path>
    </g>
    <g>
      <path d="M533.91,613.57v34.31h-72.9c-1.95,.01-3.54-1.56-3.55-3.51,0-.46,.09-.92,.26-1.35,2.72-6.63,9.72-17.71,26.11-18l17.45-19.22,.09-.12c2.43-3.23,7.01-3.87,10.24-1.44,1.83,1.38,2.91,3.53,2.91,5.82v6.53c0,.84,.68,1.51,1.52,1.52h5.97c.63,0,1.19-.41,1.41-1,.71-1.75,2.57-5.45,6.19-6.7,1.71-.57,3.56,.34,4.13,2.05,.12,.36,.18,.73,.17,1.11Z" fill="#293838"></path>
      <path d="M460.99,648.38c-2.21,0-4.02-1.79-4.03-4.01,0-.53,.1-1.05,.3-1.54,2.74-6.68,9.8-17.92,26.35-18.31l17.37-19.14c2.59-3.44,7.5-4.13,10.94-1.54,1.94,1.46,3.11,3.79,3.11,6.22v6.53c0,.56,.46,1.02,1.02,1.02h5.97c.42,0,.8-.27,.94-.67,.84-2.08,2.8-5.72,6.5-7,.96-.32,1.98-.25,2.87,.19,.9,.45,1.57,1.22,1.89,2.17,.14,.41,.2,.84,.2,1.28v34.81h-73.42Zm46.23-45.11c-2.07,0-4.11,.94-5.45,2.71l-.09,.12-17.63,19.42h-.22c-16.13,.29-23,11.21-25.66,17.69-.15,.37-.23,.76-.22,1.16,0,1.67,1.36,2.98,3.05,3.01h72.4v-33.82c0-.32-.04-.64-.14-.94-.24-.7-.73-1.26-1.39-1.59-.66-.33-1.41-.38-2.11-.14-3.32,1.15-5.11,4.51-5.89,6.41-.28,.77-1.03,1.3-1.87,1.31h-5.98c-1.11,0-2.01-.91-2.02-2.02v-6.53c0-2.12-1.02-4.15-2.71-5.42-1.22-.92-2.66-1.37-4.09-1.37Z" fill="#002346"></path>
    </g>
    <g>
      <path d="M533.91,642.57v5.31h-72.9c-1.95,.01-3.54-1.56-3.55-3.51,0-.46,.09-.92,.26-1.35,2.72-6.63,9.72-17.71,26.11-18,0,0,18.44,2.62,18.44,17.51l31.64,.04Z" fill="#fff"></path>
      <path d="M460.99,648.38c-2.21,0-4.02-1.79-4.03-4.01,0-.53,.1-1.05,.3-1.54,2.75-6.71,9.87-18.02,26.56-18.31,.26,.03,18.54,2.8,18.94,17.51l31.65,.04v6.31h-73.42Zm22.77-22.87c-16.05,.29-22.92,11.21-25.58,17.69-.15,.37-.23,.76-.22,1.16,0,1.67,1.37,3.01,3.03,3.01h72.42v-4.31l-31.64-.04v-.5c0-14.28-17.83-16.99-18.01-17.01Z" fill="#002346"></path>
    </g>
    <g>
      <polygon points="430.82 585.91 430.82 612.55 446.96 623.73 455.56 625.06 463.25 610.24 463.25 583.24 430.82 585.91" fill="#f2b3c1"></polygon>
      <path d="M455.84,625.6l-9.15-1.47-16.35-11.33v-27.35l33.41-2.75v27.65l-7.91,15.24Zm-8.69-2.34l8.14,1.26,7.47-14.4v-26.35l-31.45,2.59v25.93l15.84,10.97Z" fill="#002346"></path>
    </g>
    <g>
      <path d="M466.39,613.57v34.31h-72.87c-1.96,0-3.54-1.58-3.55-3.53,0-.45,.09-.9,.26-1.33,2.73-6.63,9.73-17.71,26.11-18l17.46-19.22,.08-.12c2.44-3.21,7.03-3.84,10.24-1.4,1.82,1.38,2.89,3.53,2.89,5.82v6.53c0,.84,.68,1.51,1.52,1.52h5.94c.63-.01,1.19-.41,1.41-1,.7-1.75,2.57-5.45,6.18-6.7,1.7-.59,3.56,.31,4.15,2.01,.12,.36,.19,.73,.18,1.11Z" fill="#293838"></path>
      <path d="M393.52,648.38c-1.08,0-2.09-.42-2.85-1.18-.76-.76-1.19-1.78-1.19-2.85,0-.52,.1-1.03,.29-1.51,2.75-6.69,9.83-17.92,26.35-18.31l17.35-19.12c1.28-1.69,3.11-2.76,5.18-3.04,2.07-.29,4.12,.26,5.78,1.52,1.93,1.47,3.08,3.79,3.08,6.21v6.53c0,.56,.46,1.02,1.02,1.02h5.94c.41,0,.79-.28,.94-.67,.67-1.67,2.62-5.66,6.49-7,.95-.33,1.97-.27,2.87,.17s1.58,1.2,1.91,2.15c.14,.41,.21,.84,.21,1.28v34.81h-73.38Zm46.2-45.09c-.31,0-.62,.02-.93,.06-1.8,.25-3.4,1.18-4.5,2.63l-.06,.09-17.65,19.44h-.22c-16.1,.29-22.99,11.21-25.66,17.69-.14,.36-.22,.74-.22,1.13,0,.81,.32,1.58,.89,2.15,.57,.57,1.34,.89,2.15,.89h72.38v-33.82c0-.32-.05-.64-.15-.94-.24-.7-.74-1.26-1.4-1.58-.66-.32-1.41-.36-2.11-.12-3.47,1.2-5.27,4.88-5.88,6.41-.28,.77-1.04,1.3-1.87,1.31h-5.95c-1.11,0-2.01-.91-2.02-2.02v-6.53c0-2.11-1.01-4.14-2.69-5.42-1.2-.91-2.63-1.39-4.11-1.39Z" fill="#002346"></path>
    </g>
    <g>
      <path d="M466.39,642.57v5.31h-72.87c-1.96,0-3.54-1.58-3.55-3.53,0-.45,.09-.9,.26-1.33,2.73-6.63,9.73-17.71,26.11-18,0,0,18.45,2.62,18.45,17.51l31.6,.04Z" fill="#fff"></path>
      <path d="M393.52,648.38c-2.22,0-4.04-1.81-4.04-4.03,0-.52,.1-1.03,.29-1.51,2.77-6.71,9.89-18.02,26.56-18.31,.26,.03,18.55,2.8,18.95,17.51l31.61,.04v6.31h-73.38Zm22.76-22.87c-16.02,.29-22.91,11.21-25.58,17.7-.14,.36-.22,.74-.22,1.13,0,.81,.32,1.58,.89,2.15,.57,.57,1.34,.89,2.15,.89h72.38v-4.31l-31.6-.04v-.5c0-14.28-17.84-16.99-18.02-17.01Z" fill="#002346"></path>
    </g>
    <g>
      <path d="M369.16,647.38s-30.12,1.15-38.07,0c-7.95-1.15,0-41.52,0-41.52l5.41-1.32,20.42-4.95,15.58,33.41c.1,.19,.19,.38,.27,.58l1.69,3.63c6.65,12.46-5.3,10.17-5.3,10.17Z" fill="#f3f0ea"></path>
      <path d="M344.55,648.39c-5.67,0-10.83-.13-13.53-.52-.82-.12-1.53-.59-2.1-1.39-4.91-6.93,1.41-39.35,1.68-40.72l.06-.31,26.54-6.44,15.75,33.78c.1,.18,.19,.39,.28,.6l1.68,3.61c2.22,4.16,2.65,7.23,1.26,9.11-1.9,2.58-6.45,1.88-7.05,1.77-1.21,.05-13.83,.51-24.58,.51Zm-13.02-42.12c-.65,3.41-6.2,33.41-1.78,39.64,.41,.58,.87,.9,1.42,.98,7.81,1.13,37.68,0,37.98,0h.06s.06,0,.06,0c.04,0,4.5,.83,6.12-1.37,1.12-1.52,.65-4.31-1.35-8.07l-1.7-3.65c-.08-.21-.17-.38-.26-.56l-15.42-33.06-25.12,6.1Z" fill="#002346"></path>
    </g>
    <g>
      <path d="M253.09,465.84c2,19.86-6,38.72-6,38.72l-27.75,81.44-20.85-5,4-59.57c-2-29.78,11.91-50.64,11.91-50.64-6-4-10.39-20.4-10.39-20.4h0c18.4,2.68,50.11,4.67,50.11,4.67l-1.03,10.78Z" fill="#f2b3c1"></path>
      <path d="M219.67,586.58l-21.69-5.2,4.03-59.99c-1.84-27.3,9.84-47.42,11.74-50.48-5.88-4.46-10.02-19.74-10.2-20.4l-.19-.72,.74,.11c18.17,2.65,49.75,4.65,50.07,4.67l.51,.03-1.07,11.24c1.97,19.74-5.96,38.72-6.04,38.91l-27.88,81.83Zm-20.65-5.96l20.01,4.8,27.61-81.02c.09-.22,7.94-19.01,5.98-38.51v-.05s.98-10.32,.98-10.32c-4.09-.27-31.87-2.12-48.89-4.53,.93,3.19,4.91,16.02,9.98,19.4l.41,.27-.27,.41c-.14,.21-13.79,21.08-11.83,50.33l-3.97,59.22Z" fill="#002346"></path>
    </g>
    <g>
      <path d="M352.45,586l-25.3,7.33-48.52-155.28c16.93,1.23,33-1.66,42.85-4.08h0c.09,7.18,1.31,14.29,3.62,21.09,9.45,20,11.39,42.55,11.39,42.55l15.96,88.39Z" fill="#f2b3c1"></path>
      <path d="M326.83,593.94l-.14-.46-48.74-155.97,.72,.05c16.68,1.21,32.42-1.54,42.7-4.07l.6-.15v.62c.1,7.14,1.31,14.18,3.6,20.94,9.36,19.8,11.4,42.44,11.41,42.67l16.03,88.78-26.19,7.59Zm-47.51-155.35l48.16,154.13,24.41-7.07-15.88-87.96c-.03-.27-2.05-22.74-11.35-42.43-2.28-6.71-3.5-13.65-3.66-20.68-10.2,2.46-25.47,5.07-41.68,4Z" fill="#002346"></path>
    </g>
    <g>
      <path d="M331.53,431.09s-3.79,1.34-10,2.88h0c-9.89,2.42-25.92,5.31-42.85,4.08-2.87-.21-5.77-.54-8.66-1l-12.74-50.83c-.46-1.85-3.19-1.51-3.19,.39v68.45s-31.71-2-50.11-4.67c-2-.3-3.87-.58-5.49-.89h0c-1.65-.31-3.07-.63-4.21-.95,0,0-9.64-37.31-15.6-51.21l8.48-51.68,31.46-2.27,89.38-6.45,23.53,94.15Z" fill="#293838"></path>
      <path d="M254.59,455.59l-.53-.03c-.32-.02-31.94-2.03-50.15-4.67-2-.3-3.88-.58-5.51-.89-1.68-.32-3.11-.64-4.25-.96l-.28-.08-.07-.28c-.1-.37-9.7-37.43-15.58-51.14l-.06-.13,8.57-52.21,121.65-8.78,23.74,95-.43,.15s-3.88,1.37-10.05,2.89c-10.38,2.54-26.26,5.31-43.01,4.09-2.93-.21-5.86-.55-8.7-1l-.33-.05-12.82-51.15c-.18-.71-.77-.89-1.22-.84-.45,.06-.98,.38-.98,1.11v68.98Zm-59.9-7.45c1.07,.29,2.37,.58,3.89,.86,1.61,.31,3.48,.59,5.47,.89,16.87,2.45,45.31,4.36,49.54,4.63v-67.92c0-1.1,.76-1.97,1.86-2.1,1.1-.13,2.05,.52,2.31,1.59l12.66,50.51c2.71,.42,5.5,.74,8.29,.94,16.62,1.21,32.39-1.55,42.69-4.07,4.93-1.22,8.36-2.33,9.52-2.72l-23.32-93.3-120.03,8.66-8.39,51.15c5.64,13.24,14.59,47.41,15.49,50.87Z" fill="#002346"></path>
    </g>
    <g>
      <path d="M303.73,220.6l6,99.35s-23,6.28-37.78,11.87c-5.47,2.08-11.15,3.54-16.94,4.36-17.38,2.48-35.09,1.31-52-3.42l-31.47-190.89s3.24-2.45,10.22-5c7.64-2.85,19.77-5.85,37.07-6,4.17,0,8.64,.08,13.41,.41l40.87,10.63c7.5,1.12,14.9,2.82,22.14,5.09,6.16,2.06,11.86,4.73,14.44,8l39.71,57.59-45.67,8.01Z" fill="#f3f0ea"></path>
      <path d="M237.06,337.96c-11.51,0-22.95-1.58-34.18-4.72l-.31-.09-.05-.31-31.52-191.19,.24-.18c.13-.1,3.38-2.53,10.35-5.07,7.14-2.67,19.41-5.88,37.24-6.03,3.22,0,8.12,.04,13.45,.41l40.96,10.65c7.45,1.11,14.93,2.83,22.16,5.1,7.43,2.48,12.37,5.23,14.68,8.17l40.17,58.26-46,8.07,6,99.31-.39,.11c-.23,.06-23.15,6.34-37.73,11.85-5.49,2.09-11.23,3.57-17.05,4.39-6.02,.86-12.03,1.28-18.03,1.28Zm-33.6-5.6c16.85,4.67,34.17,5.79,51.49,3.32,5.75-.81,11.41-2.27,16.83-4.33,13.58-5.14,34.33-10.92,37.43-11.78l-6-99.39,45.34-7.95-39.27-56.95c-2.17-2.76-6.95-5.39-14.19-7.81-7.18-2.25-14.6-3.96-22.06-5.07l-40.92-10.64c-5.21-.35-10.08-.39-13.28-.39-17.68,.15-29.82,3.33-36.9,5.97-5.77,2.11-8.98,4.16-9.85,4.76l31.37,190.27Z" fill="#002346"></path>
    </g>
    <g>
      <path d="M259.44,646.6c.03,.39-.25,.72-.64,.76-.03,0-.06,0-.09,0l-47.61-1-30.87-.65,.1-21.58c-1.27-20.45,10.21-16.29,10.21-16.29,0,0,7,5,14.29,3.64,3.47-.7,6.53-2.71,8.55-5.62,1.41,4.92,9.71,13.48,14.44,18.06,1.99,1.9,4.57,3.06,7.31,3.28,21.54,1.8,24.03,15.92,24.31,19.4Z" fill="#f3f0ea"></path>
      <path d="M258.81,647.86h-.13l-78.95-1.66,.1-22.07c-.5-8.02,.89-13.33,4.12-15.75,3.07-2.3,6.61-1.06,6.76-1l.12,.06c.07,.05,6.92,4.86,13.91,3.56,3.35-.68,6.28-2.6,8.23-5.41l.6-.87,.29,1.01c1.38,4.8,9.55,13.24,14.31,17.84,1.89,1.82,4.38,2.93,7,3.14,22.2,1.85,24.53,16.86,24.77,19.86,.03,.32-.07,.63-.28,.87-.21,.25-.5,.4-.82,.42h-.04Zm-78.08-2.63l77.99,1.64c.13,0,.23-.12,.22-.22h0c-.32-4.01-2.99-17.2-23.85-18.94-2.85-.23-5.55-1.44-7.61-3.42-4.54-4.4-12.18-12.27-14.25-17.37-2.08,2.61-4.99,4.39-8.29,5.06-7.13,1.33-13.85-3.14-14.62-3.68-.44-.14-3.33-.94-5.77,.89-2.9,2.18-4.18,7.34-3.71,14.92l-.1,21.12Z" fill="#002346"></path>
    </g>
    <g>
      <path d="M146.49,647.38H80.11v-46.54h29.8c.57,15.39,17.89,26.15,17.89,26.15,18.46,7.7,18.69,20.39,18.69,20.39Z" fill="#293838"></path>
      <path d="M147,647.88H79.61v-47.54h30.78l.02,.48c.55,14.94,17.48,25.64,17.65,25.74,18.48,7.7,18.92,20.27,18.93,20.81v.51Zm-66.38-1h65.33c-.3-2.41-2.51-12.83-18.34-19.43-.24-.14-17.27-10.89-18.17-26.11h-28.82v45.54Z" fill="#002346"></path>
    </g>
    <g>
      <path d="M146.49,647.38H80.11v-3.93h29.28s1.49-13.38,18.41-16.46c18.46,7.7,18.69,20.39,18.69,20.39Z" fill="#fff"></path>
      <path d="M147,647.88H79.61v-4.93h29.36c.46-2.39,3.41-13.66,18.74-16.45l.15-.03,.14,.06c18.55,7.74,18.99,20.31,19,20.84v.51Zm-66.38-1h65.33c-.3-2.41-2.49-12.77-18.2-19.37-16.2,3.02-17.8,15.47-17.86,16l-.05,.44h-.45s-28.78,0-28.78,0v2.93Z" fill="#002346"></path>
    </g>
    <g>
      <path d="M215.72,647.38h-66.38v-46.54h29.79c.57,15.39,17.88,26.16,17.88,26.16,18.48,7.69,18.71,20.38,18.71,20.38Z" fill="#293838"></path>
      <path d="M216.23,647.88h-67.39v-47.54h30.77l.02,.48c.55,14.94,17.47,25.65,17.64,25.75,18.5,7.69,18.94,20.26,18.95,20.8v.51Zm-66.38-1h65.33c-.3-2.41-2.51-12.82-18.36-19.42-.24-.14-17.26-10.9-18.16-26.12h-28.81v45.54Z" fill="#002346"></path>
    </g>
    <g>
      <path d="M215.72,647.38h-66.38v-3.93h29.27s1.49-13.38,18.4-16.45c18.48,7.69,18.71,20.38,18.71,20.38Z" fill="#fff"></path>
      <path d="M216.23,647.88h-67.39v-4.93h29.35c.46-2.39,3.41-13.66,18.73-16.44l.15-.03,.14,.06c18.57,7.73,19.01,20.3,19.02,20.83v.51Zm-66.38-1h65.33c-.3-2.41-2.5-12.76-18.22-19.36-16.19,3.01-17.79,15.46-17.85,15.99l-.05,.44h-.45s-28.77,0-28.77,0v2.93Z" fill="#002346"></path>
    </g>
    <g>
      <path d="M81.64,333.87l-4.6,265.26c-.02,.94,.74,1.71,1.68,1.71h31.35c.84,0,1.55-.62,1.67-1.45l9.89-70.85s8.62-73.24,10.59-89.29c.1-.84,.82-1.47,1.67-1.47h0c.89,0,1.63,.69,1.68,1.58l9.58,159.9c.05,.89,.79,1.58,1.68,1.58h32.41c.91,0,1.66-.73,1.68-1.64l6.32-259.26c0-.07,0-.13,0-.2l-3.86-41.37c-.1-1.09-1.21-1.8-2.24-1.43l-98.36,35.37c-.66,.24-1.1,.85-1.11,1.55Z" fill="#f3f0ea"></path>
      <path d="M179.22,601.34h-32.41c-1.15,0-2.11-.9-2.18-2.05l-9.58-159.9c-.04-.62-.56-1.11-1.18-1.11s-1.1,.44-1.17,1.03c-1.95,15.87-10.5,88.56-10.59,89.29l-9.89,70.86c-.15,1.07-1.08,1.88-2.16,1.88h-31.35c-.59,0-1.14-.23-1.56-.65-.41-.42-.64-.98-.63-1.57l4.6-265.26c.02-.9,.6-1.71,1.44-2.01l98.36-35.37c.64-.23,1.33-.15,1.91,.21,.57,.36,.94,.96,1,1.64l3.86,41.37c0,.09,.01,.17,0,.26l-6.32,259.26c-.03,1.19-.99,2.13-2.18,2.13Zm-45.34-164.06c1.15,0,2.11,.9,2.18,2.05l9.58,159.9c.04,.62,.56,1.11,1.18,1.11h32.41c.64,0,1.17-.52,1.18-1.15l6.32-259.26s0-.09,0-.14l-3.86-41.37c-.03-.37-.23-.69-.54-.89-.31-.2-.69-.24-1.03-.11l-98.36,35.37c-.46,.17-.77,.6-.78,1.09l-4.6,265.26c0,.32,.11,.62,.34,.85,.22,.23,.52,.35,.84,.35h31.35c.59,0,1.09-.44,1.17-1.02l9.89-70.85c.08-.72,8.64-73.42,10.59-89.28,.13-1.09,1.06-1.91,2.16-1.91Z" fill="#002346"></path>
    </g>
    <g>
      <path d="M133.58,113.62l2.05,20.25s7.69,29.22,18.46,30.76c0,0,10.77,0,10.77-23.07v-17.41l-31.28-10.53Z" fill="#f2b3c1"></path>
      <path d="M154.09,165.12c-11.04-1.57-18.62-29.92-18.94-31.13l-2.14-21.08,32.34,10.88v17.76c0,23.29-10.8,23.56-11.26,23.56Zm-19.94-50.79l1.97,19.49c.06,.21,7.72,28.85,18.04,30.32,.03,0,10.21-.36,10.21-22.58v-17.06l-30.22-10.17Z" fill="#002346"></path>
    </g>
    <g>
      <path d="M91.23,155.85c-.07-.14-.28-.11-.31,.04-.87,4.75-1.39,9.55-1.57,14.37-.03,.93-.31,1.83-.83,2.6l-15.88,23.83c-.47,.7-1.42,.89-2.12,.43-.29-.19-.5-.48-.61-.81l-15.84-49.12c-.03-.1-.15-.14-.24-.08l-18.24,12.16c-.06,.04-.08,.1-.07,.17l18.48,76.81s4.61,16.9,16.9,13.85c.01,0,.02,0,.04-.01,.35-.18,6.62-3.7,13.98-19.3,0,0,0-.01,0-.02l16.91-26.14s0,0,0,0c.07-.13,3.7-7.08-1.27-23.8-2.39-8.58-5.52-16.94-9.35-24.98Z" fill="#fff"></path>
      <path d="M68.04,250.97c-10.39,0-14.46-14.42-14.5-14.58l-18.49-76.83c-.06-.27,.05-.55,.27-.7l18.24-12.16c.17-.12,.38-.14,.58-.07,.19,.07,.35,.22,.41,.42l15.84,49.12c.07,.22,.22,.41,.41,.54,.23,.15,.5,.21,.77,.15,.27-.05,.5-.21,.66-.44l15.88-23.83c.47-.69,.72-1.5,.75-2.34,.18-4.84,.71-9.7,1.58-14.45,.05-.28,.28-.5,.57-.54,.28-.04,.56,.11,.69,.37h0c3.83,8.04,6.99,16.47,9.38,25.06,5,16.8,1.39,23.87,1.23,24.17l-16.94,26.18c-7.42,15.75-13.9,19.34-14.17,19.49l-.14,.05c-1.06,.26-2.06,.38-3.01,.38Zm-31.96-91.41l18.43,76.58c.04,.15,4.63,16.38,16.29,13.48,.18-.11,6.38-3.55,13.69-19.04l16.95-26.21s3.56-6.98-1.33-23.39c-2.29-8.2-5.27-16.25-8.87-23.95-.75,4.38-1.21,8.83-1.38,13.26-.03,1.02-.34,2.01-.91,2.86l-15.88,23.83c-.3,.45-.76,.76-1.29,.87-.53,.11-1.07,0-1.52-.3-.38-.25-.67-.63-.81-1.07l-15.7-48.69-17.67,11.78Z" fill="#002346"></path>
    </g>
    <g>
      <path d="M147.39,160.09s6.42,7.89,12.27,1.44c0,0-.89,7.44-.74,26.43l5.7,140.43c-8.02,2.24-16.58,1.6-24.18-1.81l1.34-2,4.65-80.77s3.63-72.2,.96-83.72Z" fill="#fff"></path>
      <path d="M155.05,330.2c-5.07,0-10.13-1.06-14.81-3.16l-.54-.24,1.59-2.38,4.64-80.63c.04-.72,3.6-72.26,.97-83.58l-.49-2.1,1.36,1.67s3.06,3.69,6.67,3.79c1.74,.04,3.37-.75,4.84-2.37l1.05-1.16-.19,1.56c0,.07-.88,7.64-.74,26.37l5.72,140.81-.38,.11c-3.18,.88-6.44,1.32-9.71,1.32Zm-13.86-3.83c7.22,3.09,15.32,3.67,22.92,1.65l-5.68-140.03c-.11-14.38,.38-22.22,.62-25.15-1.42,1.19-2.97,1.79-4.62,1.73-2.66-.07-4.95-1.75-6.26-2.95,2.1,15.24-1.09,79.39-1.24,82.22l-4.66,80.91-1.08,1.62Z" fill="#002346"></path>
    </g>
    <g>
      <path d="M194,154.02c0-.14,.19-.18,.24-.05,2.65,7.46,23.15,66.62,19.26,96.51l-11.13,69.52-8.37-165.98Z" fill="#fff"></path>
      <path d="M202.1,324.78l-8.61-170.74c-.02-.31,.2-.58,.5-.64,.3-.06,.6,.11,.71,.4,2.39,6.73,23.21,66.64,19.29,96.74l-11.89,74.24Zm-7.48-168.16l8,158.6,10.38-64.82c3.59-27.54-13.79-80.47-18.37-93.78Zm-.13-2.62s0,0,0,0h0Z" fill="#002346"></path>
    </g>
    <g>
      <path d="M35.5,159.34s-7.76-.27-7-17.82c0,0-7.5-10.3-1-13.93,0,0-1.24-9.79,4.91-8.25,0,0-3.07-10.77,1.54-10.77,0,0,4.62-1.53,6.15,12.31,0,0-3.31-15,2.19-14.43,0,0,3.69-2.82,3.88,19.92,0,.18,.25,.22,.3,.05,.73-2.72,2.86-9.2,6.48-9.13,.3,0,.54,.24,.54,.54,0,0,0,.01,0,.02-.15,3.34-1,22.76,.46,29.19l-18.45,12.31Z" fill="#f2b3c1"></path>
      <path d="M35.65,159.84h-.16c-.08,0-1.93-.1-3.79-2.1-1.9-2.06-4.08-6.51-3.69-16.07-.69-.98-4.44-6.59-3.49-10.89,.32-1.47,1.15-2.63,2.47-3.45-.12-1.27-.37-5.84,1.81-7.77,.78-.69,1.77-.98,2.95-.84-.49-2-1.6-7.39,.08-9.61,.5-.67,1.2-1.01,2.07-1.03,.28-.06,1.11-.18,2.14,.48,.81,.52,1.76,1.56,2.6,3.58,.03-2.18,.38-4.2,1.35-5.29,.58-.65,1.32-.94,2.21-.89,.25-.11,.64-.17,1.08,.04,2.02,.99,3.16,7.1,3.37,18.19,1.15-3.4,3.17-7.39,6.26-7.39,.57-.01,1.09,.44,1.09,1.03-.24,5.35-.91,23.12,.45,29.1l.07,.33-18.86,12.59Zm-4.47-40.17c-.69,0-1.27,.21-1.74,.62-2.1,1.86-1.46,7.19-1.45,7.24l.04,.33-.29,.16c-1.24,.69-1.98,1.66-2.27,2.96-.92,4.2,3.38,10.19,3.43,10.25l.1,.14v.17c-.68,15.44,5.37,17.12,6.38,17.29l18.02-12.02c-1.26-6.2-.7-22.27-.4-28.99-.03,0-.05,0-.08,0-3.37,0-5.42,6.67-5.98,8.73-.08,.31-.38,.5-.7,.47-.33-.04-.56-.31-.57-.64-.14-16.69-2.2-19.13-2.82-19.48-.17-.09-.26-.05-.29-.04l-.16,.12-.18-.03c-.64-.07-1.14,.12-1.53,.56-1.28,1.43-1.25,5.23-.89,8.55,.3,1.35,.56,2.94,.76,4.78l-.97,.16c-.04-.19-.49-2.26-.77-4.79-1.02-4.56-2.43-6.19-3.31-6.78-.82-.55-1.42-.38-1.45-.38l-.15,.02c-.58,0-1.03,.21-1.35,.64-1.44,1.91-.29,7.51,.28,9.51l.23,.82-.83-.21c-.4-.1-.77-.15-1.12-.15Z" fill="#002346"></path>
    </g>
    <g>
      <path d="M248.36,113.62s-7.18,14.64-16.12,17.62c0,0,26.14,31.18,40.87,10.63v-17.52l-24.75-10.73Z" fill="#f2b3c1"></path>
      <path d="M260.62,149.37c-13.66,0-28.14-17.08-28.76-17.82l-.46-.55,.69-.23c8.64-2.88,15.76-17.22,15.83-17.37l.21-.42,25.48,11.04v18l-.09,.13c-3.29,4.6-7.43,7.02-12.28,7.2-.2,0-.41,.01-.61,.01Zm-27.54-17.92c2.64,2.97,16.07,17.36,28.11,16.92,4.49-.17,8.33-2.41,11.42-6.67v-17.04l-24.03-10.42c-1.24,2.41-7.55,14.02-15.51,17.2Z" fill="#002346"></path>
    </g>
    <g>
      <path d="M267.47,229.26s-32.25,.28-31.25-8.66c0,0-3-5,0-6.95,0,0-7.64-3.54-1.32-8.22l-10.44-9c-1.42-1.23-1.58-3.39-.35-4.81,.14-.16,.29-.3,.45-.43h0c1.07-.85,2.54-.98,3.74-.33l21.85,11.83s4,2,1-2l-6.86-6.39c-.42-.36-.46-1-.09-1.41,.2-.23,.5-.36,.81-.34,5.08,.19,16.8,2.22,25.5,16l-3.04,20.71Z" fill="#f2b3c1"></path>
      <path d="M267.02,229.75c-3.53,0-25.01-.24-30.15-5.94-.84-.93-1.23-1.98-1.15-3.1-.46-.82-2.51-4.79-.38-6.97-1.11-.65-3.2-2.13-3.42-4.21-.14-1.41,.6-2.79,2.2-4.11l-9.99-8.61c-.79-.68-1.26-1.63-1.34-2.67-.07-1.04,.26-2.05,.94-2.83,.15-.18,.33-.34,.51-.49,1.23-.98,2.91-1.12,4.28-.38l21.85,11.83c.49,.25,1.11,.44,1.38,.44-.04-.18-.22-.67-1.01-1.72l-6.8-6.33c-.29-.25-.47-.62-.49-1.01s.1-.78,.37-1.08c.31-.35,.75-.52,1.21-.51,4.81,.18,16.98,2.12,25.89,16.23l.1,.15-3.13,21.31h-.42c-.06,0-.22,0-.46,0Zm-40.34-38.81c-.64,0-1.29,.21-1.81,.63-.14,.11-.26,.23-.38,.37-.51,.59-.76,1.34-.71,2.12,.06,.78,.41,1.49,1,2l10.91,9.4-.49,.37c-1.64,1.21-2.41,2.42-2.29,3.6,.22,2.22,3.49,3.77,3.53,3.78l.8,.38-.74,.48c-2.57,1.67,.13,6.24,.15,6.29l.09,.14-.02,.17c-.1,.91,.19,1.73,.88,2.5,4.82,5.34,26.17,5.6,29.45,5.61l2.95-20.11c-8.65-13.57-20.36-15.44-25.01-15.62-.17-.01-.32,.05-.42,.17-.09,.1-.13,.23-.12,.37s.07,.26,.17,.35l6.87,6.4c1.22,1.61,1.52,2.5,1.08,3.03-.56,.66-1.89,.14-2.63-.23l-21.86-11.84c-.44-.24-.91-.35-1.39-.35Z" fill="#002346"></path>
    </g>
    <g>
      <path d="M349.4,212.66s3.36,11.77,3.17,19.79l-28.79-15.33,25.62-4.46Z" fill="#fff"></path>
      <path d="M353.06,233.27l-30.79-16.4,27.5-4.79,.12,.43c.03,.12,3.38,11.94,3.19,19.94l-.02,.81Zm-27.75-15.91l26.78,14.26c-.04-6.93-2.47-16.28-3.04-18.39l-23.74,4.13Z" fill="#002346"></path>
    </g>
    <g>
      <path d="M309.69,320l2.76,14.69c.12,.63-.27,1.25-.9,1.4-4,1-18.18,4.46-31.65,8.67,0,0-44.6,20.76-92.79,1l.14-5.78,14.22-10.06s8.93,9.93,53.38,6.41c8.45-1.33,12.15-2.61,17.91-5,11.98-4.78,24.33-8.57,36.93-11.33Z" fill="#fff"></path>
      <path d="M231.09,354.73c-13.47,0-28.66-2.15-44.16-8.51l-.32-.13,.15-6.38,14.79-10.46,.3,.33c.09,.09,9.45,9.69,52.97,6.25,8.41-1.32,12.03-2.59,17.76-4.96,11.98-4.78,24.43-8.6,37.01-11.36l.5-.11,2.86,15.2c.18,.9-.38,1.77-1.28,1.98l-1.01,.25c-4.96,1.23-18.12,4.51-30.6,8.41-.26,.12-20.86,9.49-48.96,9.49Zm-43.47-9.3c47.3,19.22,91.63-.91,92.07-1.12,12.58-3.94,25.76-7.21,30.72-8.45l1.02-.25c.37-.09,.6-.45,.53-.82l-2.67-14.19c-12.36,2.73-24.59,6.5-36.35,11.2-5.79,2.4-9.46,3.68-18.02,5.03-40.31,3.19-51.55-4.55-53.5-6.26l-13.68,9.68-.13,5.18Z" fill="#002346"></path>
    </g>
    <g>
      <path d="M219.34,586l-6,19.86c-8.94,11.91-22.84,2-22.84,2l7.99-26.86,20.85,5Z" fill="#fff"></path>
      <path d="M202.22,612.2c-6.37,0-11.91-3.87-12-3.93l-.29-.21,8.23-27.66,21.83,5.23-6.23,20.52c-3.45,4.6-7.65,6.04-11.53,6.04Zm-11.13-4.54c2.06,1.36,13.86,8.46,21.8-2.02l5.82-19.27-19.87-4.77-7.75,26.06Z" fill="#002346"></path>
    </g>
    <g>
      <path d="M331.09,605.84s16.89,13.28,25.82-6.27l-4.53-13.57-25.23,7.33,3.94,12.53" fill="#fff"></path>
      <path d="M343.13,610.75c-6.51,0-12.07-4.3-12.34-4.52l.29-.37-.46,.14-4.09-13.02,26.18-7.61,4.74,14.21-.08,.18c-2.7,5.91-6.4,9.48-11,10.59-1.09,.26-2.18,.38-3.24,.38Zm-11.61-5.22c.95,.7,7.8,5.52,14.62,3.87,4.24-1.03,7.68-4.35,10.24-9.86l-4.32-12.93-24.28,7.05,3.73,11.86Z" fill="#002346"></path>
    </g>
    <g>
      <polygon points="456.63 182.87 462.59 191.81 479.09 179.51 456.63 182.87" fill="#293838"></polygon>
      <path d="M462.47,192.53l-6.69-10.03,25.21-3.77-18.52,13.8Zm-4.98-9.28l5.23,7.85,14.48-10.79-19.71,2.95Z" fill="#002346"></path>
    </g>
    <g>
      <path d="M550.01,270.25l-24.82,42.69,2.53,31.2c.25,3.13-1.96,5.92-5.06,6.4l-3.86,.57h0c-17,2.52-47.91,6.81-57.32,8.11-1.75,.23-3.5-.42-4.67-1.74l-1.55-1.78c-1.91-2.18-5.22-2.39-7.39-.49-.03,.03-.06,.05-.09,.08l-3.19,2.93c-.98,.9-2.26,1.39-3.58,1.38h-33.18c-1.54,0-2.78-1.25-2.77-2.79,0-.03,0-.06,0-.09,.59-10.51,2.58-20.89,5.9-30.87,6.95-23.83,6.95-84.4,6.95-84.4-15.34,15.96-27.94,15.78-34.88,13.71-3.95-1.18-7.28-3.85-9.52-7.31-3.9-6.05-6.55-14.65-8.31-23.52h0c-3.71-18.71-3.6-38.66-3.6-38.66l26.52-17.66,4.12,40.57c2.13,10.77,3.83,9.07,3.83,9.07l30.4-32.81,.06-.07,1.73-1.85h0l8.22-4,27.09,15.89,54.67-13.44c5,1.45,8.88,14.43,8.88,14.43l22.89,56.44s4.92,10.07,0,18.02Z" fill="#293838"></path>
      <path d="M441.05,360.1h-33.22c-1.81,0-3.28-1.48-3.27-3.29v-.11c.6-10.55,2.59-20.98,5.93-31.01,6.3-21.6,6.87-74.27,6.92-83.01-15.48,15.59-28.23,14.83-34.52,12.96-3.95-1.18-7.43-3.85-9.8-7.52-3.52-5.45-6.34-13.43-8.38-23.7-3.68-18.54-3.61-38.56-3.61-38.76v-.27s27.43-18.27,27.43-18.27l4.2,41.39c1.56,7.9,2.83,8.64,3.03,8.71l32.19-34.73,8.54-4.16,.23,.13,26.91,15.79,54.6-13.42,.13,.04c5.2,1.51,9.06,14.23,9.22,14.77l22.87,56.4c.19,.39,4.97,10.38-.03,18.46l-24.74,42.55,2.52,31.04c.27,3.37-2.14,6.42-5.48,6.93l-3.86,.57c-18.48,2.74-53.4,7.57-57.32,8.11-1.92,.25-3.83-.46-5.11-1.9l-1.55-1.78c-1.72-1.96-4.72-2.16-6.69-.44l-.08,.07-3.19,2.93c-1.06,.98-2.44,1.51-3.88,1.51Zm-22.64-119.89v1.24c0,.61-.08,60.91-6.97,84.54-3.31,9.96-5.29,20.3-5.88,30.76,0,1.32,1.01,2.35,2.27,2.35h33.18c1.25,.03,2.36-.44,3.24-1.25l3.28-3.01c2.38-2.09,6.01-1.85,8.1,.53l1.55,1.78c1.06,1.19,2.64,1.79,4.23,1.57,3.92-.54,38.84-5.37,57.31-8.11l3.86-.57c2.82-.44,4.86-3.02,4.63-5.87l-2.54-31.36,.08-.13,24.83-42.7c4.71-7.62,.02-17.44-.02-17.54l-22.9-56.47c-.05-.17-3.81-12.56-8.43-14.1l-54.73,13.46-27.03-15.86-7.9,3.84-1.67,1.78-30.46,32.88c-.18,.19-.53,.34-.95,.21-.49-.15-1.97-.6-3.74-9.52l-4.04-39.79-25.61,17.05c0,2.43,.16,21.01,3.59,38.29,2.02,10.15,4.79,18,8.24,23.35,2.24,3.47,5.52,5.99,9.24,7.11,7.55,2.26,19.65,1.74,34.38-13.58l.86-.89Z" fill="#002346"></path>
    </g>
    <g>
      <polygon points="496.35 300.03 492.38 310.95 511.24 329.82 517.91 319.95 496.35 300.03" fill="#fff"></polygon>
      <path d="M511.32,330.6l-19.51-19.52,4.34-11.93,22.43,20.72-7.25,10.73Zm-18.36-19.78l18.21,18.21,6.09-9.01-20.69-19.12-3.6,9.92Z" fill="#002346"></path>
    </g>
    <g>
      <path d="M492.38,311s-24.08,14.45-18.12,33.24c1.39,4.28,5.46,7.11,9.95,6.91,8.08-.33,21.19-3.82,26.32-22l-18.15-18.15Z" fill="#f2b3c1"></path>
      <path d="M483.78,351.65c-4.52,0-8.58-2.93-9.98-7.26-6.01-18.94,18.09-33.67,18.33-33.81l.33-.2,18.63,18.62-.08,.28c-5.28,18.72-19.04,22.04-26.77,22.36-.15,0-.3,0-.46,0Zm8.54-40.03c-2.83,1.81-22.98,15.45-17.58,32.47,1.31,4.05,5.2,6.75,9.46,6.57,7.43-.3,20.62-3.49,25.79-21.37l-17.67-17.67Z" fill="#002346"></path>
    </g>
    <g>
      <path d="M548.88,550.21c-1.72,1.33-3.56,2.5-5.49,3.49-1.65,.82-3.39,1.44-5.18,1.87-7.33,1.87-8.91,7.35-9.17,10.73-.26,4.44-1.77,8.71-4.34,12.33-4.12,5.56-10.51,9-17.43,9.37-29.79,6.95-31.63-7-31.63-7-6.6,6.22-12.71,9.92-18.27,11.88-12.56,4.42-22.31-.09-28.36-4.77-2.66-2.02-5.02-4.42-7-7.11-7.79-14.89-18.35-15.59-18.35-15.59-6.84-2.43-8.11-7.72-7.75-12.28,.27-2.72,.99-5.38,2.13-7.87,7.95-13.9,6-38.72,6-38.72l4.89-136,.39-10.95h31.69c1.31,0,2.58-.49,3.55-1.38l3.19-2.93c2.13-1.95,5.45-1.81,7.4,.32,.03,.03,.05,.06,.08,.09l1.55,1.78c1.17,1.32,2.92,1.97,4.67,1.74,9.41-1.3,40.29-5.59,57.32-8.11h0l7.12,36.68,15.16,78c.73,5.67,1.74,11.3,3.05,16.87,2.45,10.51,5.6,20.84,9.43,30.93,10.89,19.42,2.88,30.81-4.65,36.63Z" fill="#f3f0ea"></path>
      <path d="M447.24,595.19c-7.9,0-14.2-3.33-18.53-6.68-2.7-2.05-5.09-4.47-7.1-7.21-7.59-14.5-17.88-15.38-17.98-15.39l-.13-.03c-5.78-2.06-8.58-6.48-8.08-12.79,.27-2.79,1-5.5,2.17-8.04,7.8-13.65,5.98-38.22,5.96-38.47l5.3-147.49h32.18c1.19,0,2.33-.44,3.21-1.25l3.19-2.93c1.13-1.04,2.6-1.57,4.13-1.5,1.53,.07,2.95,.73,3.98,1.86l1.64,1.88c1.06,1.19,2.64,1.79,4.23,1.57,3.91-.54,38.74-5.36,57.31-8.11l.47-.07,22.37,115.15c.73,5.66,1.75,11.32,3.05,16.85,2.43,10.45,5.6,20.84,9.41,30.87,10.82,19.29,3.36,30.89-4.81,37.2-1.74,1.35-3.61,2.54-5.57,3.54-1.69,.84-3.47,1.48-5.29,1.91-6.74,1.72-8.5,6.54-8.79,10.28-.27,4.53-1.8,8.88-4.43,12.58-4.23,5.71-10.72,9.2-17.81,9.58-15.99,3.74-23.95,1.35-27.8-1.31-2.7-1.87-3.74-4.05-4.13-5.24-5.97,5.5-11.96,9.34-17.83,11.41-3.68,1.29-7.12,1.83-10.3,1.83Zm-43.47-30.27c1.04,.09,11.11,1.36,18.69,15.85,1.91,2.59,4.24,4.95,6.86,6.94,5.88,4.55,15.5,9.06,27.89,4.7,5.94-2.09,12.03-6.05,18.09-11.77l.7-.66,.13,.96s.46,3.05,3.97,5.46c3.69,2.53,11.38,4.78,27.06,1.12,6.88-.38,13.09-3.72,17.14-9.18,2.52-3.54,3.99-7.71,4.24-12.06,.26-3.34,1.84-9.22,9.55-11.19,1.76-.42,3.46-1.03,5.08-1.83,1.89-.97,3.71-2.13,5.41-3.44h0c7.86-6.08,15.03-17.25,4.52-35.99-3.86-10.14-7.04-20.57-9.48-31.06-1.3-5.56-2.33-11.25-3.06-16.92l-22.18-114.18c-18.69,2.76-52.97,7.5-56.85,8.04-1.92,.25-3.83-.46-5.11-1.9l-1.62-1.86c-.85-.93-2.02-1.48-3.29-1.53-1.27-.05-2.48,.38-3.41,1.24l-3.19,2.93c-1.06,.97-2.44,1.51-3.88,1.51h-31.21l-5.26,146.47c.02,.19,1.87,25.08-6.07,38.95-1.1,2.4-1.81,5-2.07,7.67-.46,5.86,2.01,9.82,7.36,11.74Z" fill="#002346"></path>
    </g>
    <g>
      <path d="M364.3,174.66v-10.58c0-3.02-1.51-5.81-3.96-7.58-3.02-2.19-5.69-4.85-7.92-7.87-.82-1.14-1.78-2.18-2.85-3.09l-11.89-10.07c-1.37-1.15-1.6-3.16-.54-4.6h0c1.09-1.47,3.16-1.81,4.66-.76l3.72,2.58-7.24-8.37c-1.02-1.16-.97-2.91,.12-4h0c1.01-1,2.58-1.16,3.77-.38l8.24,5.62c.57,.39,1.34,.33,1.84-.15h0c.59-.57,.61-1.5,.04-2.09-.04-.05-.09-.09-.14-.13l-5.14-4.01c-1.56-1.23-1.83-3.48-.6-5.04,.18-.22,.38-.42,.6-.6h0c1.37-1.08,3.32-1.01,4.62,.16l17.75,15.99c.39,.35,1,.02,.92-.5-.44-2.64-.86-7.84,1.91-10.74,.71-.76,1.9-.8,2.66-.1,.25,.23,.43,.52,.52,.85,.68,2.4,2.07,6,4.59,8.21,1.29,1.07,2.38,2.37,3.2,3.84,1.62,3.05,3.52,8.53,2.93,16.87v10.88l-21.81,15.66Z" fill="#f2b3c1"></path>
      <path d="M363.81,175.62v-11.54c0-2.79-1.4-5.48-3.76-7.19-3.07-2.23-5.77-4.92-8.03-7.97-.8-1.11-1.73-2.12-2.77-3.01l-11.89-10.07c-1.56-1.31-1.83-3.63-.62-5.27,1.26-1.7,3.6-2.08,5.34-.87l.52,.36-4.69-5.43c-1.18-1.34-1.12-3.39,.14-4.67,1.17-1.16,3.01-1.35,4.39-.44l8.25,5.62c.38,.26,.89,.22,1.22-.1,.39-.38,.4-1,.02-1.4-.03-.03-.06-.06-.1-.09l-5.13-4c-.86-.68-1.4-1.64-1.53-2.73s.17-2.15,.85-3.01c.2-.25,.43-.48,.68-.68,1.57-1.23,3.78-1.15,5.25,.18l17.75,15.99,.59-.13-.49,.08c-.48-2.87-.85-8.14,2.04-11.16,.43-.46,1.01-.73,1.65-.75,.63-.02,1.24,.2,1.7,.63,.31,.29,.54,.66,.66,1.07,.58,2.03,1.92,5.76,4.44,7.98,1.33,1.11,2.45,2.45,3.3,3.97,1.7,3.19,3.59,8.75,2.99,17.15v11.1s-22.79,16.37-22.79,16.37Zm-23.95-45.63c-.88,0-1.75,.41-2.32,1.18-.91,1.22-.7,2.95,.46,3.93l11.89,10.07c1.1,.94,2.09,2.01,2.93,3.18,2.19,2.97,4.82,5.58,7.81,7.76,2.61,1.89,4.16,4.88,4.16,7.98v9.62l20.83-14.95v-10.63c.58-8.2-1.24-13.57-2.87-16.64-.79-1.41-1.83-2.65-3.08-3.69-2.59-2.27-4.01-5.85-4.75-8.45-.07-.23-.2-.45-.39-.62-.27-.25-.62-.38-1-.37-.37,.01-.71,.17-.97,.44-2.6,2.72-2.24,7.64-1.79,10.33,.07,.44-.13,.87-.53,1.09-.4,.22-.87,.16-1.21-.14l-17.75-15.99c-1.12-1.01-2.8-1.07-3.99-.14-.19,.15-.36,.32-.52,.52-.51,.65-.74,1.46-.64,2.28,.1,.82,.51,1.56,1.16,2.07l5.14,4.01c.07,.06,.14,.12,.19,.18,.75,.78,.73,2.03-.05,2.79-.67,.63-1.7,.72-2.46,.2l-8.24-5.62c-.98-.65-2.31-.51-3.15,.32-.9,.91-.94,2.37-.1,3.33l9.79,11.32-6.92-4.8c-.51-.36-1.09-.53-1.66-.53Z" fill="#002346"></path>
    </g>
    <g>
      <rect x="127.81" y="47.5" width="56" height="82" rx="28" ry="28" fill="#f2b3c1"></rect>
      <path d="M155.81,129.99c-15.71,0-28.49-12.78-28.49-28.49v-26c0-15.71,12.78-28.49,28.49-28.49s28.49,12.78,28.49,28.49v26c0,15.71-12.78,28.49-28.49,28.49Zm0-82c-15.17,0-27.51,12.34-27.51,27.51v26c0,15.17,12.34,27.51,27.51,27.51s27.51-12.34,27.51-27.51v-26c0-15.17-12.34-27.51-27.51-27.51Z" fill="#002346"></path>
    </g>
    <g>
      <path d="M110.88,85.17c-.43-.58-1.36-.26-1.32,.46,.28,6.36,1.89,22.34,12.03,20.72,0,0,9.43,1.35,14.05-24.8,0,0,35.38,0,43.07-27.69-.5-.88-1.08-1.72-1.73-2.5-5.09-6.54-11.86-11.57-19.59-14.57-9-3.49-15.6-4.46-25.47,6.3,0,0-14.74,12.31-16.28,36.92,0-.02,1.35,13.44-4.76,5.15Z" fill="#002346"></path>
      <path d="M120.2,106.97c-1.82,0-3.45-.58-4.86-1.73-4.89-3.99-6.04-13.98-6.28-19.58-.02-.55,.3-1.03,.82-1.21,.52-.18,1.08,0,1.41,.43h0c1.92,2.61,2.75,2.55,2.95,2.46,1.07-.42,1.15-4.39,.95-6.79h-.08s.04-.56,.04-.56c1.54-24.54,16.31-37.15,16.46-37.27,10.33-11.26,17.28-9.75,25.97-6.38,7.81,3.03,14.65,8.12,19.8,14.73,.66,.79,1.26,1.66,1.77,2.56l.1,.18-.06,.2c-7.25,26.09-39.09,27.92-43.13,28.05-4.5,24.94-13.43,24.91-14.46,24.81-.48,.07-.95,.11-1.4,.11Zm-9.9-21.6s-.07,0-.09,.01c-.06,.02-.16,.08-.16,.23,.24,5.43,1.32,15.1,5.92,18.85,1.55,1.27,3.41,1.74,5.54,1.4h.07s.07,0,.07,0c.09,.01,9.03,.83,13.49-24.39l.07-.41h.42c.35,0,34.92-.32,42.53-27.12-.46-.79-.99-1.54-1.58-2.25-5.05-6.47-11.75-11.46-19.39-14.42-8.32-3.22-14.97-4.67-24.92,6.17-.19,.17-14.64,12.52-16.15,36.61h0c.12,1.14,.6,7.13-1.4,8.16-1.46,.75-3.13-1.21-4.26-2.74-.06-.08-.12-.1-.18-.1Z" fill="#002346"></path>
    </g>
    <g>
      <path d="M183.81,101.5v-24.05c-.5-10.55-7.6-17.16-7.6-17.16,.99-2.08,1.82-4.22,2.5-6.42,0,0,11.92-1.49,12.3,36.58,.04,1.98-.35,3.94-1.13,5.75-2.43,4.2-6.07,5.3-6.07,5.3Z" fill="#002346"></path>
      <path d="M183.31,102.17v-24.72c-.48-10.19-7.37-16.73-7.44-16.79l-.27-.25,.16-.33c.97-2.04,1.81-4.18,2.47-6.35l.09-.31,.32-.04c.08,0,2.03-.23,4.39,1.83,3.74,3.27,8.25,12.03,8.48,35.24,.04,2.06-.35,4.06-1.17,5.95-2.53,4.37-6.22,5.53-6.38,5.58l-.65,.2Zm-6.5-41.99c1.33,1.34,7.04,7.65,7.5,17.25v23.33c1.11-.52,3.44-1.88,5.14-4.81,.73-1.71,1.1-3.57,1.06-5.49-.23-22.74-4.52-31.28-8.07-34.45-1.52-1.35-2.79-1.6-3.36-1.64-.63,1.98-1.39,3.93-2.26,5.81Z" fill="#002346"></path>
    </g>
    <g>
      <ellipse cx="126.9" cy="101.48" rx="6.92" ry="9.35" transform="translate(-24.38 42.2) rotate(-17.25)" fill="#f2b3c1"></ellipse>
      <path d="M128.11,111.13c-1.41,0-2.86-.51-4.21-1.5-1.86-1.36-3.3-3.48-4.08-5.96-.77-2.48-.78-5.05-.02-7.22,.78-2.23,2.26-3.78,4.18-4.37,1.92-.59,4.02-.16,5.92,1.24,1.86,1.36,3.3,3.48,4.08,5.96,.77,2.48,.78,5.05,.02,7.22-.78,2.23-2.26,3.78-4.18,4.37-.56,.17-1.13,.26-1.71,.26Zm-2.42-18.33c-.48,0-.96,.07-1.42,.21h0c-1.61,.5-2.87,1.83-3.54,3.76-.69,1.98-.68,4.32,.03,6.61,.71,2.29,2.03,4.22,3.72,5.46,1.64,1.21,3.44,1.59,5.05,1.09,1.61-.5,2.87-1.83,3.54-3.76,.69-1.98,.68-4.32-.03-6.61-.71-2.29-2.03-4.22-3.72-5.46-1.17-.86-2.43-1.3-3.63-1.3Z" fill="#002346"></path>
    </g>
    <g>
      <path d="M136.25,136.05s-32.93,7-45.23,19.35c0,0,16.92,35.38,10.76,49.23l-16.92,26.15s5.58,54.37-5.83,88.79c-1.37,4.03-.73,8.47,1.72,11.95,4.31,6,13.19,13.46,30.26,11.56,0,0,20-1.54,30.77-18.46,0,0,9.68-142.92,5.61-164.53,0,0-5.9-6.48-11.14-24.04Z" fill="#293838"></path>
      <path d="M105.71,343.89c-13.63,0-21.26-6.37-25.36-12.07-2.54-3.6-3.21-8.24-1.79-12.4,11.24-33.92,5.86-88.04,5.81-88.58l-.02-.17,17.02-26.3c5.96-13.41-10.62-48.39-10.79-48.74l-.15-.32,.25-.25c12.26-12.31,44.13-19.2,45.48-19.49l.45-.1,.13,.44c5.14,17.21,10.97,23.78,11.03,23.85l.09,.1,.03,.14c4.04,21.43-5.51,163.23-5.6,164.66v.13s-.08,.11-.08,.11c-10.78,16.93-30.95,18.67-31.15,18.69-1.88,.21-3.66,.31-5.35,.31Zm-20.33-112.98c.33,3.45,5.12,55.67-5.87,88.82-1.32,3.87-.7,8.17,1.65,11.5,4.45,6.19,13.23,13.21,29.8,11.35,.21-.02,19.81-1.72,30.33-18.12,.33-4.97,9.53-142.67,5.63-164.14-.81-.94-6.14-7.54-11.02-23.68-3.95,.89-32.83,7.69-44.28,18.87,1.79,3.8,16.55,35.97,10.61,49.33l-16.86,26.07Z" fill="#002346"></path>
    </g>
    <g>
      <path d="M133.58,136.67s-10.11-10.52-28.24-5.29c-2.76,.79-4.85,3.06-5.42,5.88-.82,4.15-1,9.71,3.68,9.77,0,0,.16,5.64,2.91,6.63,1.18,.37,2.43-.29,2.79-1.47,.08-.25,.11-.52,.1-.78-.07-2.7,0-7.92,1.09-11.63,.13-.47,.61-.75,1.08-.62,.43,.12,.71,.54,.64,.98-.6,5.31-1,13.8,2.61,13.05,0,0,4.48-.19,4.18-10.19,.12-1.33,1.04-2.45,2.33-2.81l12.25-3.52Z" fill="#f2b3c1"></path>
      <path d="M107.18,154.25c-.27,0-.55-.04-.81-.12-2.59-.93-3.12-5.21-3.23-6.63-1.22-.11-2.19-.6-2.89-1.46-1.7-2.1-1.38-5.98-.81-8.87,.61-3.01,2.82-5.41,5.77-6.26,18.21-5.25,28.63,5.31,28.73,5.42l.57,.59-13.03,3.75c-1.08,.3-1.88,1.26-1.98,2.38,.32,10.31-4.45,10.63-4.65,10.64-.68,.15-1.36-.03-1.9-.52-2.02-1.84-1.77-8.13-1.21-13.08,.03-.21-.09-.4-.28-.45-.2-.05-.42,.07-.48,.27-1.14,3.87-1.13,9.33-1.07,11.49,.02,.31-.02,.63-.12,.94-.22,.69-.69,1.26-1.33,1.6-.4,.21-.83,.31-1.26,.31Zm7.95-23.83c-2.9,0-6.12,.41-9.65,1.42-2.6,.75-4.54,2.86-5.07,5.5-.75,3.79-.53,6.66,.6,8.06,.6,.74,1.45,1.11,2.6,1.12h.47s.01,.48,.01,.48c.04,1.48,.59,5.46,2.59,6.18,.89,.28,1.87-.23,2.16-1.15,.06-.2,.09-.4,.08-.61-.06-2.23-.06-7.8,1.11-11.8,.19-.72,.95-1.15,1.68-.96,.68,.18,1.11,.84,1,1.53-.74,6.56-.41,11.02,.9,12.22,.31,.28,.67,.37,1.12,.28,.11-.01,4.07-.38,3.79-9.69,.14-1.58,1.22-2.88,2.69-3.3l11.4-3.28c-1.88-1.6-7.93-6.01-17.47-6.01Z" fill="#002346"></path>
    </g>
    <g>
      <path d="M164.86,141.56s-6.29,11.63-6.29,37.78l6,148.14c.2,5.2,3.7,9.68,8.7,11.12,4.72,1.34,11.59,2,21,.07,5.15-1.07,8.75-5.74,8.47-11l-8.8-174.52s-7.41-12.45-29.08-11.59Z" fill="#293838"></path>
      <path d="M183.15,340.38c-3.61,0-6.96-.43-10.01-1.3-5.22-1.51-8.86-6.16-9.06-11.58l-6-148.14c0-26,6.09-37.56,6.35-38.04l.14-.25h.28c21.72-.86,29.45,11.7,29.53,11.82l.06,.11v.12s8.81,174.52,8.81,174.52c.3,5.54-3.43,10.39-8.87,11.51-3.97,.82-7.72,1.22-11.22,1.22Zm-17.97-198.33c-.88,1.83-6.1,13.65-6.1,37.29l6,148.12c.19,4.99,3.54,9.28,8.34,10.66,5.86,1.66,12.85,1.68,20.76,.06,4.95-1.03,8.34-5.44,8.07-10.48l-8.79-174.39c-.76-1.15-8.42-11.92-28.27-11.26Z" fill="#002346"></path>
    </g>
    <g>
      <rect x="245.81" y="53.5" width="49" height="72" rx="24.5" ry="24.5" fill="#f2b3c1"></rect>
      <path d="M270.31,125.99c-13.78,0-24.99-11.21-24.99-24.99v-23c0-13.78,11.21-24.99,24.99-24.99s24.99,11.21,24.99,24.99v23c0,13.78-11.21,24.99-24.99,24.99Zm0-72c-13.24,0-24.01,10.77-24.01,24.01v23c0,13.24,10.77,24.01,24.01,24.01s24.01-10.77,24.01-24.01v-23c0-13.24-10.77-24.01-24.01-24.01Z" fill="#002346"></path>
    </g>
    <g>
      <path d="M327.15,65.49l-99.38,20.16c-2.16,.44-4.03-1.51-3.52-3.66,7.05-30.09,26.86-39.12,26.86-39.12,3.38-1.65,13.42-3.76,16.21-4.43,25.86-6.24,27.47,25.38,27.47,25.38,20-4.26,27.79-3.41,30.76-1.73,2.52,1.4,1.6,3.39,1.6,3.39Z" fill="#293838"></path>
      <path d="M227.17,86.21c-.94,0-1.84-.38-2.51-1.06-.84-.87-1.18-2.09-.9-3.27,7.02-29.98,26.94-39.37,27.14-39.46,2.86-1.4,10.35-3.1,14.38-4.02,.8-.18,1.46-.33,1.92-.44,7.01-1.69,12.93-.79,17.59,2.69,8.65,6.46,10.21,19.6,10.46,22.57,16.1-3.39,26.38-3.92,30.55-1.56,2.31,1.28,2.19,3.2,1.81,4.04l-.11,.23-.25,.05-99.38,20.17c-.23,.05-.47,.07-.7,.07Zm46.53-48.08c-1.97,0-4.06,.27-6.27,.8-.47,.11-1.13,.26-1.93,.45-3.99,.91-11.41,2.6-14.17,3.95-.21,.1-19.69,9.3-26.6,38.78-.2,.85,.04,1.72,.65,2.34,.6,.61,1.45,.88,2.29,.71l99.1-20.11c.12-.49,.17-1.61-1.46-2.52-2.75-1.56-10.26-2.51-30.41,1.78l-.57,.12-.03-.59c0-.15-.9-15.53-10.1-22.4-2.96-2.21-6.47-3.31-10.48-3.31Z" fill="#002346"></path>
    </g>
    <path d="M235.4,103.46l11.49-5.74s.71-14.38,1.47-16.24l-20.45,4.15s.36,13.84,7.31,17.81" fill="#002346"></path>
    <g>
      <path d="M270.47,208.55l-3.48,24s77.73,42.18,85.53,8.18c0,0,8.8-24.07-39.85-24.07,0-.03-23.83-2.02-42.2-8.11Z" fill="#fff"></path>
      <path d="M331.89,254.49c-25.16,0-63.25-20.48-65.14-21.51l-.31-.17,3.62-24.94,.57,.19c15.25,5.05,34.22,7.31,41.68,8.04,.14,.01,.26,.03,.37,.04h0c19.93,0,32.8,3.96,38.26,11.77,4.41,6.31,2.16,12.7,2.06,12.96-1.23,5.37-4.31,9.23-9.15,11.41-3.39,1.53-7.46,2.18-11.95,2.18Zm-64.35-22.22c4.42,2.35,54.83,28.64,75.89,19.13,4.54-2.05,7.43-5.68,8.61-10.79,.04-.12,2.19-6.25-1.93-12.12-3.63-5.17-13.06-11.33-37.43-11.33l-.5-.05c-7.42-.73-26.07-2.95-41.29-7.9l-3.34,23.06Z" fill="#002346"></path>
    </g>
    <g>
      <path d="M456.63,182.87l6,8.94,16.5-12.3,27.19-23.44s1,7,7,9.92c0,0,13.41,8.8,1.58,19.46-3.16,2.79-6.97,4.76-11.08,5.72l-43.13,10.57-35.23-20.55c-3.58-2.09-4.96-6.57-3.19-10.32,1.62-3.07,3.89-5.74,6.65-7.85,0,0,6.95-8,16.88,0l10.83,19.85Z" fill="#fff"></path>
      <path d="M460.62,202.27l-.17-.1-35.23-20.55c-3.83-2.24-5.28-6.96-3.39-10.96,1.65-3.12,3.98-5.88,6.76-8.01,.59-.63,7.73-7.92,17.53-.02l.13,.15,10.82,19.83,5.69,8.48,16.08-11.99,27.85-24.01,.13,.9c0,.07,1.04,6.78,6.72,9.54,.31,.2,6.26,4.17,6.71,10.13,.27,3.5-1.42,6.91-5.02,10.15-3.22,2.84-7.13,4.86-11.3,5.84l-43.32,10.62Zm-23.64-42.33c-4.63,0-7.5,3.2-7.68,3.4l-.07,.07c-2.68,2.05-4.93,4.71-6.51,7.69-1.66,3.52-.38,7.68,3,9.65l35.05,20.45,42.93-10.52c4.02-.94,7.77-2.88,10.87-5.61,3.35-3.02,4.92-6.15,4.68-9.32-.42-5.47-6.15-9.31-6.21-9.34-4.91-2.39-6.57-7.38-7.05-9.4l-26.54,22.88-16.95,12.64-6.32-9.42-10.78-19.76c-3.19-2.55-6.05-3.4-8.43-3.4Z" fill="#002346"></path>
    </g>
    <g>
      <path d="M517.91,320l7.23-7,24.87-42.75c1-2,1.06-2.08,1.06-2.08,3-8-1.06-15.94-1.06-15.94l-21.29-52.64c-15.34-13.07-25.23-1.88-25.23-1.88-12.77,9.87-4.11,26.86-4.11,26.86l16,29.38c5.11,6.53,1.85,12.32,1.85,12.32l-20.88,33.73,21.56,20Z" fill="#293838"></path>
      <path d="M517.92,320.69l-22.21-20.6,21.1-34.08c.11-.21,3.01-5.58-1.82-11.75l-16.05-29.45c-.09-.19-8.7-17.49,4.24-27.49,.03-.05,10.33-11.34,25.86,1.89l.09,.08,.05,.11,21.29,52.64c.15,.29,4.11,8.19,1.06,16.3l-.07,.12h0s-.15,.28-1.01,2l-24.97,42.89-7.57,7.33Zm-20.93-20.78l20.91,19.4,6.84-6.62,24.84-42.69c.71-1.42,.95-1.88,1.04-2.04,2.86-7.68-1.01-15.43-1.05-15.5l-21.26-52.57c-14.74-12.48-24.34-1.96-24.44-1.85-12.37,9.57-4.12,26.13-4.04,26.3l15.99,29.37c5.21,6.65,1.88,12.74,1.85,12.8l-20.67,33.4Z" fill="#002346"></path>
    </g>
    <path d="M33.45,139.62c-.18,0-.36-.1-.44-.27l-5.95-11.54c-.13-.25-.03-.55,.22-.67,.25-.13,.55-.03,.67,.21l5.95,11.54c.13,.25,.03,.55-.22,.67-.07,.04-.15,.06-.23,.06Z" fill="#002346"></path>
    <path d="M39.4,133.86c-.18,0-.36-.1-.45-.28l-6.99-14.02c-.12-.25-.02-.55,.22-.67,.25-.12,.55-.02,.67,.22l6.99,14.02c.12,.25,.02,.55-.22,.67-.07,.04-.15,.05-.22,.05Z" fill="#002346"></path>
    <path d="M103.6,147.53c-.25,0-.47-.19-.5-.45-.03-.31-.78-7.75,2.27-12.84,.14-.24,.45-.32,.69-.17,.24,.14,.31,.45,.17,.69-2.88,4.79-2.14,12.15-2.13,12.22,.03,.27-.17,.52-.44,.55-.02,0-.04,0-.05,0Z" fill="#002346"></path>
    <g>
      <ellipse cx="241.68" cy="101.95" rx="6.45" ry="8.44" transform="translate(-17.11 59.19) rotate(-13.49)" fill="#f2b3c1"></ellipse>
      <path d="M242.49,110.79c-3.31,0-6.54-2.97-7.56-7.22-1.15-4.79,.95-9.41,4.67-10.3h0c3.72-.89,7.68,2.28,8.83,7.07,1.15,4.79-.95,9.41-4.67,10.3-.42,.1-.85,.15-1.28,.15Zm-2.66-16.56c-3.19,.77-4.96,4.86-3.94,9.12,1.02,4.26,4.45,7.12,7.65,6.34,3.19-.77,4.96-4.86,3.94-9.12-1.02-4.26-4.46-7.11-7.65-6.34h0Z" fill="#002346"></path>
    </g>
    <path d="M275.74,68.43c-.23,0-.44-.16-.49-.39-.06-.27,.11-.54,.38-.59l19.05-4.1c.27-.05,.54,.11,.59,.38,.06,.27-.11,.54-.38,.59l-19.05,4.1s-.07,.01-.11,.01Z" fill="#002346"></path>
    <path d="M312.67,217.16c-.19,0-.37-.11-.45-.29l-27.41-59.84c-.11-.25,0-.55,.25-.66,.25-.11,.55,0,.66,.25l27.41,59.84c.11,.25,0,.55-.25,.66-.07,.03-.14,.04-.21,.04Z" fill="#002346"></path>
    <path d="M243.81,205.93h-8.9c-.28,0-.5-.22-.5-.5s.22-.5,.5-.5h8.9c.28,0,.5,.22,.5,.5s-.22,.5-.5,.5Z" fill="#002346"></path>
    <path d="M243.81,214.15h-7.58c-.28,0-.5-.22-.5-.5s.22-.5,.5-.5h7.58c.28,0,.5,.22,.5,.5s-.22,.5-.5,.5Z" fill="#002346"></path>
    <path d="M243.81,221.1h-7.58c-.28,0-.5-.22-.5-.5s.22-.5,.5-.5h7.58c.28,0,.5,.22,.5,.5s-.22,.5-.5,.5Z" fill="#002346"></path>
    <path d="M452.15,349.14c-.28,0-.5-.22-.5-.5v-66.41c.84-58.19,8.49-80.44,8.57-80.66,.09-.26,.38-.39,.64-.3,.26,.09,.4,.38,.3,.64-.08,.22-7.68,22.36-8.51,80.33v66.4c0,.28-.22,.5-.5,.5Z" fill="#002346"></path>
    <path d="M417.91,241.95c-.26,0-.48-.2-.5-.46-.07-1-1.66-24.69,3.63-37.41,.11-.25,.4-.38,.65-.27,.26,.11,.38,.4,.27,.65-5.19,12.51-3.57,36.72-3.56,36.96,.02,.28-.19,.51-.46,.53-.01,0-.02,0-.04,0Z" fill="#002346"></path>
    <g>
      <polygon points="361.61 185.66 361.61 176.58 386.14 159.04 388.13 167.98 361.61 185.66" fill="#fff"></polygon>
      <path d="M361.11,186.59v-10.27l25.35-18.13,2.23,10.01-27.58,18.39Zm1-9.76v7.89l25.46-16.97-1.75-7.87-23.71,16.95Z" fill="#002346"></path>
    </g>
    <path d="M355.81,142c-.12,0-.23-.04-.33-.12l-10.28-8.81c-.21-.18-.23-.5-.05-.71,.18-.21,.5-.23,.71-.05l10.28,8.81c.21,.18,.23,.5,.05,.71-.1,.12-.24,.17-.38,.17Z" fill="#002346"></path>
    <path d="M413.98,571.01c-.1,0-.2-.03-.28-.09-.23-.16-.28-.47-.13-.7,.3-.43,29.6-44.54,16.75-181.67-.03-.28,.18-.52,.45-.54,.28-.02,.52,.18,.54,.45,6.73,71.87,1.79,117.58-3.55,143.28-5.79,27.9-13.31,38.95-13.38,39.06-.1,.14-.25,.21-.41,.21Z" fill="#002346"></path>
    <path d="M444.76,593.44c-.1,0-.2-.03-.29-.09-.22-.16-.28-.47-.12-.7,.08-.11,7.87-11.33,13.68-41.97,5.37-28.29,10.1-79.37,2.16-162.12-.03-.28,.18-.52,.45-.55,.27-.02,.52,.17,.55,.45,7.95,82.97,3.19,134.19-2.2,162.55-5.86,30.8-13.5,41.77-13.82,42.23-.1,.14-.25,.21-.41,.21Z" fill="#002346"></path>
    <path d="M475.64,581.5s-.06,0-.09,0c-.27-.05-.45-.31-.4-.58,.19-.99,18.51-100,6.66-192.34-.04-.27,.16-.52,.43-.56,.28-.04,.52,.16,.56,.43,11.87,92.51-6.48,191.66-6.67,192.66-.05,.24-.26,.41-.49,.41Z" fill="#002346"></path>
    <path d="M507.27,588.5c-.17,0-.34-.09-.43-.25-3-5.05-8.49-191.79-8.72-199.74,0-.28,.21-.51,.49-.51,.28,.02,.51,.21,.51,.49,1.96,67.23,6.29,195.39,8.58,199.26,.14,.24,.06,.54-.17,.68-.08,.05-.17,.07-.25,.07Z" fill="#002346"></path>
    <path d="M538.21,556.07c-.2,0-.39-.12-.47-.32-.25-.66-24.92-66.99-18.46-146.98,.02-.28,.26-.47,.54-.46,.28,.02,.48,.26,.46,.54-6.44,79.76,18.15,145.89,18.4,146.55,.1,.26-.03,.55-.29,.64-.06,.02-.12,.03-.18,.03Z" fill="#002346"></path>
    <path d="M579.9,160.07c-5.04,0-8.72-1.43-8.78-1.46-.26-.1-.38-.39-.28-.65,.1-.26,.39-.38,.65-.28,.1,.04,9.9,3.84,19.29-1.31,.24-.13,.55-.04,.68,.2,.13,.24,.04,.55-.2,.68-3.95,2.17-7.97,2.82-11.36,2.82Z" fill="#002346"></path>
    <path d="M584.24,547.04c-.26,0-.48-.21-.5-.47l-11.25-215.46c-.01-.28,.2-.51,.47-.53,.28-.03,.51,.2,.53,.47l11.25,215.46c.01,.28-.2,.51-.47,.53,0,0-.02,0-.03,0Z" fill="#002346"></path>
    <path d="M639.89,548.89c-.26,0-.47-.2-.5-.46l-19.55-218.57c-.02-.28,.18-.52,.45-.54,.28-.02,.52,.18,.54,.45l19.55,218.57c.02,.28-.18,.52-.45,.54-.02,0-.03,0-.05,0Z" fill="#002346"></path>
    <path d="M723.67,144.41c-4.89,0-8.15-1.78-8.35-1.89-.24-.13-.33-.44-.19-.68,.13-.24,.44-.33,.68-.19,.07,.04,7.2,3.9,16.07-.02,.25-.11,.55,0,.66,.25s0,.55-.26,.66c-3.17,1.4-6.1,1.87-8.61,1.87Z" fill="#002346"></path>
    <path d="M682.01,229.04h-.02c-.28-.01-.49-.25-.48-.52l1.79-42.04c.01-.28,.24-.47,.52-.48,.28,.01,.49,.25,.48,.52l-1.79,42.04c-.01,.27-.23,.48-.5,.48Z" fill="#002346"></path>
    <path d="M775.2,215.27c-.28,0-.5-.22-.5-.5v-28.27c0-.28,.22-.5,.5-.5s.5,.22,.5,.5v28.27c0,.28-.22,.5-.5,.5Z" fill="#002346"></path>
    <g>
      <ellipse cx="725.31" cy="84.15" rx="24" ry="11" fill="#002346"></ellipse>
      <path d="M725.31,95.65c-13.74,0-24.5-5.05-24.5-11.5s10.76-11.5,24.5-11.5,24.5,5.05,24.5,11.5-10.76,11.5-24.5,11.5Zm0-22c-12.96,0-23.5,4.71-23.5,10.5s10.54,10.5,23.5,10.5,23.5-4.71,23.5-10.5-10.54-10.5-23.5-10.5Z" fill="#002346"></path>
    </g>
  </g>
  <g>
    <ellipse cx="569.31" cy="100.65" rx="15" ry="10.5" fill="#002346"></ellipse>
    <path d="M569.31,111.65c-8.55,0-15.5-4.93-15.5-11s6.95-11,15.5-11,15.5,4.93,15.5,11-6.95,11-15.5,11Zm0-21c-8,0-14.5,4.49-14.5,10s6.5,10,14.5,10,14.5-4.49,14.5-10-6.5-10-14.5-10Z" fill="#002346"></path>
  </g>
</svg>
