<?xml version="1.0" encoding="UTF-8"?>
<svg xmlns="http://www.w3.org/2000/svg" id="a" width="865.76" height="682.89" viewBox="0 0 865.76 682.89">
  <g>
    <g>
      <path d="M843.43,349.58c-4.66-59.89-19.03-123.2-54.04-173.6-85.95-123.87-278.69-111.41-398.78-54.25-6.09,2.9-12.13,5.91-18.13,9.02-96.7,50.1-243.5,0-309.91,96.7C-3.84,324.16,13.64,463.97,78.88,537.37c65.24,73.4,230.69,83.89,353.02,71.07,122.33-12.82,156.12-17.48,248.16-10.49,92.04,6.99,157.29-58.25,163.11-143.31,2.33-34.47,2.96-69.9,.26-105.07Z" fill="#fff"></path>
      <path d="M342.57,613.62c-38.31,0-75.31-2.64-108.67-7.89-73.23-11.52-125.51-34.41-155.4-68.03-32.38-36.43-53.39-89.83-57.65-146.51-4.54-60.38,10.13-118.63,41.3-164.01,17.81-25.93,43.16-43.61,77.48-54.04,30.62-9.3,65.59-12.15,99.41-14.91,46.29-3.78,94.15-7.68,133.2-27.91,5.98-3.1,12.08-6.14,18.14-9.03,63.94-30.43,143.37-45.69,212.45-40.81,57.99,4.1,137.5,23.94,186.96,95.22,30.33,43.67,48.54,102.16,54.12,173.84h0c2.45,31.91,2.37,66.3-.25,105.14-3,43.76-21.55,82.48-52.24,109.04-30.02,25.98-68.54,37.99-111.41,34.73-86.3-6.56-121.59-2.84-226.35,8.2-6.92,.73-14.16,1.49-21.72,2.28-29.85,3.13-60,4.68-89.38,4.68ZM576.92,80.58c-62.33,0-130.14,14.98-186.09,41.61-6.05,2.88-12.14,5.92-18.11,9.01-39.23,20.32-87.2,24.24-133.58,28.02-70.33,5.74-136.75,11.16-176.15,68.52-69.63,101.4-45.77,239.5,16.27,309.3,29.73,33.44,81.81,56.22,154.81,67.7,58.86,9.26,129.1,10.4,197.79,3.2,7.57-.79,14.8-1.55,21.72-2.28,104.82-11.04,140.14-14.76,226.53-8.2,42.6,3.24,80.86-8.69,110.68-34.49,30.49-26.38,48.92-64.86,51.9-108.35,2.62-38.79,2.71-73.14,.26-104.99h0c-5.56-71.5-23.72-129.83-53.95-173.35-49.23-70.96-128.44-90.71-186.21-94.8-8.48-.6-17.12-.89-25.86-.89Z" fill="#002346"></path>
    </g>
    <g>
      <path d="M28.26,434.33c3.13,13.68,7.27,27.09,12.37,40.13H840.68c1.21-6.77,2.04-13.6,2.49-20.47,.43-6.53,.82-13.08,1.17-19.66H28.26Z" fill="#f1f2f2"></path>
      <path d="M841.1,474.96H40.29l-.12-.32c-5.1-13.01-9.27-26.54-12.39-40.2l-.14-.61H844.87l-.03,.53c-.34,6.53-.73,13.15-1.17,19.67-.45,6.86-1.29,13.76-2.5,20.52l-.07,.41Zm-800.13-1H840.26c1.16-6.59,1.97-13.31,2.41-20,.42-6.34,.8-12.77,1.14-19.13H28.89c3.07,13.29,7.14,26.45,12.09,39.12Z" fill="#002346"></path>
    </g>
    <g>
      <path d="M32.9,452.73c4.08,13.34,9.24,26.33,15.44,38.83H836.59c3.54-12.02,5.75-24.4,6.58-36.91,0-.64,.08-1.28,.13-1.92H32.9Z" fill="#f1f2f2"></path>
      <path d="M836.97,492.06H48.02l-.14-.28c-6.19-12.49-11.39-25.58-15.47-38.91l-.2-.65H843.84l-.09,1.11c-.04,.44-.08,.87-.08,1.31-.84,12.56-3.06,25.01-6.6,37.05l-.11,.36Zm-788.32-1H836.22c3.46-11.86,5.63-24.12,6.46-36.44,0-.43,.04-.9,.08-1.36v-.03s-809.18,0-809.18,0c4,12.96,9.06,25.68,15.07,37.83Z" fill="#002346"></path>
    </g>
    <g>
      <path d="M41.6,476.79c9.54,22.87,22.14,43.52,37.28,60.58,65.24,73.4,230.69,83.89,353.02,71.07,122.33-12.82,156.12-17.48,248.16-10.49,83.89,6.37,145.48-47.24,160.18-121.17H41.6Z" fill="#90daf4"></path>
      <path d="M342.57,613.62c-38.31,0-75.31-2.64-108.67-7.89-73.23-11.52-125.51-34.41-155.4-68.03-15.07-16.99-27.65-37.42-37.37-60.72l-.29-.69H840.85l-.12,.6c-7.32,36.84-26.61,69.15-54.32,90.99-29.27,23.07-66.05,33.65-106.38,30.58-86.3-6.56-121.59-2.84-226.35,8.2-6.92,.73-14.16,1.49-21.72,2.28-29.85,3.13-60,4.68-89.38,4.68ZM42.35,477.29c9.64,22.92,22.05,43.02,36.9,59.75,29.73,33.44,81.81,56.22,154.81,67.7,58.86,9.26,129.1,10.4,197.79,3.2,7.57-.79,14.8-1.55,21.72-2.28,104.82-11.04,140.13-14.76,226.53-8.2,79.71,6.06,143.76-42.22,159.53-120.17H42.35Z" fill="#002346"></path>
    </g>
    <rect x="386.38" y="491.47" width="94.79" height="1.17" fill="#fff"></rect>
    <rect x="474.55" y="500.94" width="32.23" height="1.17" fill="#fff"></rect>
    <rect x="387.34" y="514.21" width="143.13" height="1.17" fill="#002346"></rect>
    <rect x="491.6" y="532.22" width="146.93" height="1.17" fill="#002346"></rect>
    <rect x="592.09" y="488.61" width="15.16" height="1.17" fill="#002346"></rect>
    <rect x="560.81" y="499.99" width="42.65" height="1.17" fill="#002346"></rect>
    <rect x="765.56" y="485.77" width="32.23" height="1.17" fill="#002346"></rect>
    <rect x="775.97" y="499.99" width="43.61" height="1.17" fill="#fff"></rect>
    <rect x="729.53" y="525.59" width="54.03" height="1.17" fill="#002346"></rect>
    <rect x="625.99" y="546.43" width="153.83" height="1.17" fill="#002346"></rect>
    <rect x="449.9" y="549.29" width="51.18" height="1.17" fill="#fff"></rect>
    <rect x="407.33" y="546.43" width="139.47" height="1.17" fill="#002346"></rect>
    <rect x="423.35" y="523.69" width="31.28" height="1.17" fill="#fff"></rect>
    <rect x="99.69" y="541.7" width="293.33" height="1.17" fill="#002346"></rect>
    <rect x="143.72" y="556.86" width="46.45" height="1.17" fill="#002346"></rect>
    <rect x="131.39" y="533.16" width="82.48" height="1.17" fill="#002346"></rect>
    <rect x="96.32" y="534.12" width="19.91" height="1.17" fill="#002346"></rect>
    <rect x="68.84" y="486.72" width="24.64" height="1.17" fill="#002346"></rect>
    <rect x="80.21" y="502.84" width="13.27" height="1.17" fill="#002346"></rect>
    <rect x="256.52" y="569.19" width="42.65" height="1.17" fill="#002346"></rect>
    <rect x="261.26" y="586.26" width="102.38" height="1.17" fill="#002346"></rect>
    <rect x="476.44" y="576.77" width="40.75" height="1.17" fill="#002346"></rect>
    <rect x="373.11" y="562.56" width="77.73" height="1.17" fill="#fff"></rect>
    <rect x="596.82" y="573.93" width="112.8" height="1.17" fill="#002346"></rect>
    <rect x="774.09" y="552.13" width="19.9" height="1.17" fill="#002346"></rect>
    <rect x="721.01" y="548.33" width="22.74" height="1.17" fill="#002346"></rect>
    <rect x="254.15" y="546.36" width="63.67" height="1.17" fill="#fff"></rect>
    <g>
      <path d="M650.87,76.6l-176.17,63.9c-.24,.09-.18,.44,.08,.44h352.18c.25,0,.32-.35,.08-.44l-176.17-63.9Z" fill="#fff"></path>
      <path d="M826.96,141.44H474.78c-.36,0-.65-.25-.72-.6s.13-.69,.47-.81l176.34-63.96,.17,.06,176.17,63.9c.34,.12,.53,.46,.47,.81-.06,.35-.36,.6-.72,.6Zm-350.63-1h349.08l-174.54-63.3-174.54,63.3Z" fill="#002346"></path>
    </g>
    <g id="b">
      <g>
        <rect x="474.01" y="140.47" width="87" height="19.42" fill="#d1d3d4"></rect>
        <path d="M561.51,160.4h-88v-20.42h88v20.42Zm-87-1h86v-18.42h-86v18.42Z" fill="#002346"></path>
      </g>
      <g>
        <rect x="563.14" y="140.47" width="87" height="19.42" fill="#d1d3d4"></rect>
        <path d="M650.63,160.4h-88v-20.42h88v20.42Zm-87-1h86v-18.42h-86v18.42Z" fill="#002346"></path>
      </g>
      <g>
        <rect x="652.27" y="140.47" width="87" height="19.42" fill="#d1d3d4"></rect>
        <path d="M739.76,160.4h-88v-20.42h88v20.42Zm-87-1h86v-18.42h-86v18.42Z" fill="#002346"></path>
      </g>
      <g>
        <rect x="741.39" y="140.47" width="87" height="19.42" fill="#d1d3d4"></rect>
        <path d="M828.89,160.4h-88v-20.42h88v20.42Zm-87-1h86v-18.42h-86v18.42Z" fill="#002346"></path>
      </g>
      <path d="M574.17,130.04c-.16,0-.32-.08-.42-.23-.15-.23-.09-.54,.14-.69l73.49-48.3c.23-.15,.54-.09,.69,.14,.15,.23,.09,.54-.14,.69l-73.49,48.3c-.08,.06-.18,.08-.27,.08Z" fill="#002346"></path>
      <path d="M705.3,116.03c-.09,0-.18-.02-.27-.08l-47.15-29.63c-.23-.15-.3-.46-.16-.69,.15-.23,.46-.3,.69-.16l47.15,29.63c.23,.15,.3,.46,.16,.69-.1,.15-.26,.23-.42,.23Z" fill="#002346"></path>
      <g>
        <path d="M654.43,438.72h-6.99V73.28c0-1.93,1.56-3.5,3.5-3.5h0c1.93,0,3.5,1.56,3.5,3.5V438.72Z" fill="#d1d3d4"></path>
        <path d="M654.93,439.22h-7.99V73.28c0-2.2,1.79-4,4-4s4,1.79,4,4V439.22Zm-6.99-1h5.99V73.28c0-1.65-1.34-3-3-3s-3,1.34-3,3V438.22Z" fill="#002346"></path>
      </g>
    </g>
    <g id="c">
      <g>
        <path d="M681.99,287.73s-7.13,8.24-6.04,10.98c1.1,2.74,1.1,8.77,1.1,8.77,0,0-10.96,5.49-8.77,9.32h0c1.37,2.41,2.27,5.05,2.63,7.8,.77,5.85,2.62,16.26,6.14,17.44,2.67,.89,6.64,.45,9.71-.13,2.51-.48,4.9,1.27,5.26,3.8l2.04,14.44s-15.36,0-23.59,3.83c-8.24,3.83-14.81,2.75-17,10.98-1.44,5.25-3.27,10.39-5.49,15.37l-15.37,14.24-.55-60.35s-6.58-25.78-8.23-29.62-8.78-13.72-14.84-15.33-7.42,1.17-4.93,2.75c5.83,3.72,9.16,10.49,8.77,11.17-2.33,4.35-4.84,8.16-4.66,5.59,0,0-5.74,11.21-2.45,15.6,2.15,2.86,7.56,7.59,11.07,10.54,1.94,1.63,2.78,4.21,2.16,6.67-2.38,9.49-8.21,33.6-9.94,49.17-2.2,19.75,.56,44.44,5.49,44.44s33.04-12.89,37.55-16.02c5.47-4.04,10.54-8.6,15.15-13.6,0,0,6.58,24.69,7.13,32.91,.55,8.23-7.68,57.6-7.68,60.9s-3.32,36.15-3.32,36.15h100.94s-4.38-40.59-6.58-53.21c-2.2-12.62,6.58-46.08,8.24-51.57s3.29-13.17,3.29-13.17c0,0,14.26-21.95,14.26-34.57s-8.23-26.88-18.11-30.72c-9.88-3.84-33.46-8.23-33.46-8.23,0,0-9.32-7.13-8.23-21.4,0,0,15.9-24.68,15.9-26.33s-4.93-13.71-22.49-20.3c-17.56-6.58-31.21-1.6-31.21-1.6l-3.9,3.29Z" fill="#f2b3c1"></path>
        <path d="M764.83,546.03h-102.05l.06-.55c.03-.33,3.32-32.87,3.32-36.1,0-1.17,.94-7.53,2.24-16.32,2.31-15.61,5.79-39.2,5.44-44.54-.48-7.21-5.71-27.47-6.88-31.94-4.46,4.75-9.36,9.12-14.6,12.99-4.71,3.27-32.73,16.12-37.85,16.12-.66,0-1.3-.33-1.88-.98-4.04-4.52-6.08-26.32-4.11-44.01,1.74-15.56,7.54-39.62,9.96-49.24,.57-2.28-.19-4.65-2-6.16-3.92-3.29-9.03-7.8-11.14-10.62-3.45-4.59,2.16-15.66,2.4-16.13l1.11-2.16-.17,2.43s0,.04,0,.06c.56-.58,1.74-2.23,3.7-5.87-.03-.88-3.04-7.04-8.57-10.57-1.18-.75-1.68-1.82-1.28-2.73,.51-1.16,2.51-2.01,6.6-.92,6.31,1.68,13.5,11.71,15.18,15.62,1.64,3.83,7.98,28.64,8.25,29.69l.02,.12,.54,59.22,14.46-13.4c2.18-4.91,4-10.02,5.42-15.2,1.62-6.09,5.59-7.31,10.61-8.87,2.01-.62,4.29-1.33,6.66-2.43,7.44-3.46,20.32-3.84,23.23-3.88l-1.96-13.88c-.15-1.1-.74-2.06-1.64-2.7-.89-.64-1.96-.87-3.03-.67-2.99,.57-7.15,1.06-9.97,.12-3.57-1.19-5.49-10.36-6.48-17.85-.35-2.67-1.22-5.24-2.57-7.62-.39-.68-.46-1.43-.21-2.24,1.01-3.35,7.47-6.88,8.92-7.64-.02-1.25-.15-6.01-1.06-8.28-1.17-2.94,5.37-10.62,6.12-11.49l.06-.06,4.05-3.37c.14-.05,14.03-4.97,31.56,1.6,18.28,6.85,22.81,19.24,22.81,20.76,0,1.66-12.09,20.55-15.91,26.49-.94,13,7.02,20,7.95,20.77,1.87,.35,23.99,4.55,33.43,8.23,9.99,3.89,18.42,18.17,18.42,31.19s-13.21,33.09-14.29,34.76c-.19,.88-1.73,7.99-3.28,13.12-1.69,5.61-10.39,38.91-8.22,51.34,2.18,12.49,6.54,52.84,6.59,53.24l.06,.55Zm-100.95-1h99.83c-.53-4.91-4.48-40.97-6.52-52.62-2.2-12.62,6.55-46.15,8.25-51.8,1.63-5.4,3.26-13.05,3.28-13.12l.07-.17c.14-.22,14.18-21.97,14.18-34.3s-8.15-26.51-17.79-30.26c-9.72-3.78-33.14-8.16-33.37-8.2l-.12-.02-.09-.07c-.1-.07-9.52-7.46-8.42-21.84v-.13s.08-.11,.08-.11c6.02-9.35,15.65-24.69,15.82-26.08,0-1.35-4.68-13.26-22.16-19.81-16.48-6.18-29.64-2.01-30.79-1.62l-3.8,3.2c-2.68,3.1-6.64,8.65-5.92,10.43,1.12,2.79,1.13,8.71,1.13,8.96v.31l-.28,.14c-.08,.04-7.69,3.89-8.69,7.17-.16,.54-.12,1.02,.13,1.45,1.42,2.49,2.33,5.18,2.7,7.98,1.32,10.03,3.43,16.24,5.8,17.03,2.61,.87,6.59,.4,9.46-.15,1.34-.26,2.69,.04,3.8,.84,1.11,.79,1.86,2.03,2.05,3.38l2.12,15.01h-.58c-.15,0-15.34,.04-23.38,3.79-2.44,1.13-4.75,1.85-6.79,2.48-4.91,1.52-8.46,2.62-9.94,8.17-1.44,5.27-3.3,10.46-5.51,15.44l-.12,.16-16.2,15.01-.56-61.42c-.35-1.38-6.61-25.82-8.19-29.48-1.57-3.67-8.6-13.48-14.51-15.05-3.74-.99-5.19-.2-5.43,.35-.19,.44,.16,1.02,.9,1.49,5.64,3.6,9.59,10.68,8.94,11.84-3.76,7.02-4.63,6.77-5.04,6.65-.04-.01-.07-.02-.11-.04-1.29,2.83-4.51,10.7-2,14.04,2.17,2.89,7.81,7.79,10.99,10.45,2.1,1.77,3,4.51,2.33,7.17-2.41,9.6-8.2,33.6-9.93,49.1-1.95,17.47-.04,38.88,3.86,43.23,.38,.43,.77,.65,1.13,.65,4.93,0,32.97-12.95,37.27-15.93,5.42-4,10.49-8.56,15.06-13.52l.62-.67,.23,.88c.27,1.01,6.6,24.83,7.15,33.01,.36,5.44-3,28.17-5.45,44.76-1.25,8.42-2.23,15.08-2.23,16.18,0,3.09-2.82,31.2-3.27,35.65Zm-51.49-232.09s0,0,0,0c0,0,0,0,0,0Z" fill="#002346"></path>
      </g>
      <path d="M705.77,375.94c-.12,0-.24-.04-.34-.13-.21-.19-.22-.5-.03-.71,1.84-2.03,4-3.72,6.4-5.04,1.31-.58,4.41-1.11,8.34-1.77,5.27-.89,11.84-2,15.08-3.52,4.06-1.78,8.31-3.12,12.64-3.99,.27-.05,.53,.12,.59,.39,.05,.27-.12,.53-.39,.59-4.26,.86-8.44,2.17-12.42,3.92-3.35,1.58-9.99,2.7-15.33,3.6-3.71,.63-6.91,1.17-8.06,1.68-2.27,1.25-4.33,2.87-6.1,4.82-.1,.11-.23,.16-.37,.16Z" fill="#002346"></path>
      <path d="M732.49,432.62c-.16,0-.31-.07-.41-.21-.16-.23-.1-.54,.12-.7,4.52-3.16,8.94-6.58,13.11-10.19,.21-.18,.52-.16,.71,.05,.18,.21,.16,.52-.05,.71-4.2,3.63-8.64,7.07-13.19,10.25-.09,.06-.19,.09-.29,.09Z" fill="#002346"></path>
      <path d="M667.18,416.06c-.21,0-.41-.14-.48-.35-.03-.08-2.62-8.39-3.28-22.79-.01-.28,.2-.51,.48-.52,.32,0,.51,.2,.52,.48,.65,14.26,3.21,22.45,3.24,22.53,.08,.26-.06,.54-.33,.63-.05,.02-.1,.02-.15,.02Z" fill="#002346"></path>
      <path d="M630.96,423.03s-.09,0-.14-.02c-.27-.08-.42-.35-.34-.62,2.26-7.74,1.64-17.7,1.64-17.8-.02-.28,.19-.51,.47-.53,.26-.01,.51,.19,.53,.47,0,.1,.63,10.25-1.67,18.15-.06,.22-.26,.36-.48,.36Z" fill="#002346"></path>
      <path d="M672.12,279.5c2.05-3.43,6.57-12.61,18.09-14.26,11.52-1.65,26.34,5.49,26.34,5.49,11.52-6.58,29.1,13.62,29.1,24.11s-12.62,26.39-14.81,29.13c-2.19,2.74-4.38,9.32-7.13,8.77-2.75-.55-15.37-8.77-15.37-8.77,0,0,5.5-1.11,7.69-8.23s-1.58-10.98-2.75-9.32-8.84,7.14-10.49,1.65c-1.64-5.49,.56-13.18,.56-13.18,0,0-2.75-1.61-9.32-2.19-6.57-.58,2.2-10.49,2.2-10.49,0,0-9.51,4.77-16.87,6.85-5.55,1.57-10.27-4.39-7.37-9.38,.04-.06,.08-.13,.11-.19Z" fill="#002346"></path>
      <g>
        <path d="M624.14,338.86s-2.71-13.2-1.95-15.92c.68-2.04,1.59-4,2.73-5.83,0,0-2.73-6.61,0-10.88s4.26-1.55,4.26,3.89,1.95,9.71,2.33,11.65,4.59,14.62,.55,22.45" fill="#f2b3c1"></path>
        <path d="M632.51,344.46l-.89-.46c3.45-6.67,.74-16.99-.28-20.88-.15-.57-.26-.99-.31-1.25-.1-.49-.31-1.18-.56-1.97-.71-2.27-1.78-5.71-1.78-9.78,0-3.52-.65-5.29-1.29-5.48-.17-.05-.83-.07-2.05,1.85-2.56,4.01,.01,10.36,.04,10.42l.1,.24-.13,.22c-1.11,1.79-2.01,3.72-2.68,5.72-.6,2.11,1.21,12.02,1.96,15.66l-.98,.2c-.11-.54-2.73-13.35-1.94-16.15,.67-2.02,1.56-3.94,2.65-5.74-.48-1.27-2.43-7.08,.13-11.1,1.16-1.82,2.2-2.56,3.18-2.28,1.66,.48,2.01,3.77,2.01,6.44,0,3.92,1.04,7.27,1.74,9.48,.27,.85,.48,1.53,.58,2.07,.05,.24,.15,.65,.3,1.19,1.05,3.99,3.83,14.58,.2,21.59Z" fill="#002346"></path>
      </g>
      <g>
        <path d="M614.82,316.97c-1.66-1.42-3.09-3.08-4.26-4.92-.99-1.61-2.47-2.96-4.3-1.54-3.5,2.71-1.95,7.37,.38,8.94s9.71,8.16,10.49,3.1c.28-2.14-.6-4.27-2.31-5.58Z" fill="#f2b3c1"></path>
        <path d="M615.28,324.93c-1.97,0-4.68-1.9-7.53-4.05-.56-.42-1.03-.78-1.39-1.02-1.52-1.02-2.58-3.04-2.65-5.05-.07-1.86,.73-3.53,2.24-4.7,.74-.58,1.51-.8,2.27-.66,.99,.18,1.92,.96,2.76,2.34,1.14,1.79,2.54,3.4,4.15,4.79,1.84,1.42,2.79,3.73,2.49,6.03-.17,1.11-.65,1.83-1.42,2.14-.29,.12-.6,.17-.93,.17Zm-7.5-14.51c-.39,0-.8,.16-1.22,.49-1.6,1.24-1.89,2.79-1.85,3.87,.06,1.67,.97,3.42,2.21,4.25,.37,.25,.86,.62,1.44,1.05,2.05,1.54,5.87,4.41,7.48,3.75,.42-.17,.69-.62,.8-1.36,.26-1.94-.55-3.91-2.12-5.11l-.02-.02c-1.7-1.45-3.17-3.15-4.36-5.03-.68-1.11-1.41-1.76-2.09-1.88-.08-.02-.17-.02-.26-.02Z" fill="#002346"></path>
      </g>
      <g>
        <path d="M611.78,324.53c-1.66-1.41-3.1-3.07-4.26-4.92-.99-1.6-2.47-2.95-4.3-1.53-3.5,2.71-1.95,7.37,.38,8.94,2.33,1.56,9.71,8.16,10.49,3.1,.28-2.14-.6-4.27-2.31-5.59Z" fill="#f2b3c1"></path>
        <path d="M612.24,332.5c-1.97,0-4.68-1.9-7.53-4.04-.56-.42-1.04-.78-1.39-1.02-1.52-1.02-2.58-3.04-2.65-5.05-.07-1.86,.73-3.53,2.24-4.7,.74-.58,1.5-.8,2.27-.67,.99,.18,1.92,.96,2.76,2.32,1.13,1.8,2.53,3.41,4.15,4.79,1.83,1.43,2.79,3.74,2.49,6.04-.17,1.12-.65,1.83-1.42,2.15-.29,.12-.6,.17-.93,.17Zm-7.5-14.51c-.39,0-.8,.16-1.22,.49-1.6,1.24-1.89,2.79-1.85,3.87,.06,1.67,.97,3.42,2.21,4.25,.37,.25,.86,.62,1.44,1.05,2.05,1.54,5.85,4.41,7.48,3.75,.42-.17,.69-.62,.8-1.36,.25-1.95-.56-3.91-2.12-5.12h-.02c-1.7-1.46-3.17-3.16-4.36-5.05-.68-1.1-1.41-1.75-2.09-1.87-.08-.02-.17-.02-.25-.02Z" fill="#002346"></path>
      </g>
      <g>
        <path d="M609.3,332.21c-1.4-.8-2.67-1.8-3.77-2.97-.93-1.03-2.19-1.81-3.32-.52-1.45,1.77-1.2,4.38,.57,5.84,.29,.24,.6,.43,.94,.58,1.9,.8,8.16,4.56,8.02,.8-.09-1.59-1.02-3.01-2.44-3.73Z" fill="#f2b3c1"></path>
        <path d="M610.23,338.08c-1.45,0-3.46-.91-5.56-1.94-.46-.23-.86-.42-1.15-.54-.39-.17-.74-.39-1.06-.66-1.98-1.63-2.27-4.56-.64-6.54,.5-.56,1.05-.85,1.66-.85,0,0,0,0,.01,0,.78,0,1.58,.46,2.4,1.36,1.06,1.13,2.29,2.09,3.64,2.87,1.57,.8,2.6,2.38,2.7,4.14,.03,.88-.23,1.5-.78,1.85-.34,.22-.75,.32-1.22,.32Zm-6.74-9.53h0c-.32,0-.61,.17-.91,.5-1.26,1.54-1.04,3.84,.52,5.12,.25,.21,.53,.38,.83,.51,.29,.12,.71,.33,1.19,.56,1.55,.76,4.78,2.34,5.8,1.69,.09-.06,.35-.23,.33-.97-.08-1.4-.9-2.66-2.16-3.3h-.02c-1.44-.84-2.75-1.87-3.89-3.07-.62-.68-1.19-1.03-1.67-1.03Z" fill="#002346"></path>
      </g>
      <g>
        <polygon points="690.39 395.31 671.16 395.31 668.75 357.18 692.8 357.18 690.39 395.31" fill="#f3f0ea"></polygon>
        <path d="M690.86,395.81h-20.16l-2.47-39.13h25.11l-2.47,39.13Zm-19.22-1h18.28l2.35-37.13h-22.98l2.35,37.13Z" fill="#002346"></path>
      </g>
      <g>
        <rect x="667.63" y="355.61" width="26.35" height="2.71" rx="1.27" ry="1.27" fill="#f1f2f2"></rect>
        <path d="M692.72,358.82h-23.81c-.98,0-1.77-.79-1.77-1.77v-.17c0-.98,.79-1.77,1.77-1.77h23.81c.98,0,1.77,.79,1.77,1.77v.17c0,.98-.79,1.77-1.77,1.77Zm-23.81-2.71c-.42,0-.77,.35-.77,.77v.17c0,.42,.34,.77,.77,.77h23.81c.42,0,.77-.35,.77-.77v-.17c0-.42-.35-.77-.77-.77h-23.81Z" fill="#002346"></path>
      </g>
      <g>
        <path d="M750.59,385.33l2.64,12.23s-28.35-2.63-36.26-6.26c-7.91-3.62-10.22-4.66-10.22-4.66,0,0-11.86-17.8-14.49-18.79s-14.18-1.97-18.45-.65-7.58,3.62-6.27,4.29c1.32,.66-.65,1.32,3.3,.65,3.95-.66,7.58-1.32,7.58-1.32h5.93s-12.82,3.3-14.51,5.6c-1.69,2.31-2.63,6.26-1.32,6.92,1.32,.66,4.66-3.3,4.66-3.3l8.9-1.98,2.63,.34s-11.21,4.66-12.52,5.93c-1.32,1.27-3.62,3.62-3.62,4.66s2.63,1.97,2.63,1.97c0,0-.33,2.33,2.97,2.97,3.3,.64,11.21-1.64,11.21-1.64,0,0,3.3,5.93,8.24,6.92,4.94,.99,8.9,1.32,8.9,1.32,0,0,22.73,13.5,43.11,21.41,20.38,7.91,36.58,8.9,44.16,7.26s4.29-12.52,3.64-15.5-.66-6.59-3.96-20.1c-3.3-13.5-9.42-26.8-19.97-29.11" fill="#f2b3c1"></path>
        <path d="M782.26,430.38c-8.73,0-21.55-2.05-36.8-7.97-19.5-7.57-41.43-20.42-43.08-21.39-.69-.06-4.4-.42-8.84-1.31-4.46-.9-7.57-5.51-8.37-6.83-1.64,.45-8.07,2.13-11.07,1.55-2.84-.55-3.31-2.31-3.37-3.11-.9-.36-2.64-1.19-2.64-2.32,0-.59,.39-1.75,3.78-5.02,1.07-1.03,7.7-3.92,10.97-5.31l-.7-.09-8.65,1.93c-.96,1.12-3.67,4.04-5.16,3.29-.28-.14-.64-.45-.8-1.13-.38-1.58,.51-4.57,1.94-6.53,1.21-1.65,7.21-3.63,11.22-4.81h-2.24s-3.6,.65-7.5,1.31c-2.35,.4-3.05,.47-3.29-.38-.03-.11-.06-.19-.31-.32-.39-.2-.6-.54-.56-.93,.12-1.38,3.61-3.26,6.91-4.28,4.36-1.34,16.05-.37,18.78,.66,2.65,1,13.1,16.54,14.65,18.86,.59,.26,3.23,1.46,10.09,4.6,7.07,3.24,31.06,5.72,35.42,6.15l-2.5-11.56,.98-.21,2.79,12.9-.68-.06c-1.16-.11-28.52-2.68-36.42-6.3-7.9-3.62-10.21-4.66-10.21-4.66l-.13-.06-.08-.12c-4.73-7.1-12.43-17.92-14.25-18.6-2.57-.97-14.02-1.91-18.13-.64-4,1.23-6.17,2.95-6.21,3.41,.61,.26,.76,.61,.82,.83,.29,.02,1.02-.07,2.18-.27,3.95-.66,7.58-1.32,7.58-1.32h9.97s-3.83,.98-3.83,.98c-3.52,.9-12.93,3.64-14.23,5.42-1.24,1.69-2.09,4.41-1.78,5.71,.04,.17,.12,.39,.28,.47,.52,.26,2.41-1.22,4.05-3.17l.11-.13,9.15-2.04,4.58,.59-1.73,.72c-4.47,1.86-11.45,4.94-12.37,5.83-3.3,3.19-3.47,4.14-3.47,4.3,0,.36,1.1,1.07,2.3,1.5l.38,.14-.06,.4c-.02,.19-.14,1.88,2.57,2.41,3.14,.61,10.9-1.61,10.97-1.63l.38-.11,.19,.35c.03,.06,3.25,5.74,7.9,6.67,4.85,.97,8.8,1.31,8.84,1.31h.12s.1,.07,.1,.07c.23,.13,22.93,13.57,43.03,21.38,20.43,7.93,36.41,8.86,43.87,7.24,1.55-.34,2.67-1.08,3.42-2.28,2.06-3.28,.69-9.02,.03-11.77-.08-.33-.15-.61-.2-.85-.19-.87-.33-1.8-.5-2.98-.44-2.99-1.11-7.51-3.45-17.1-2.88-11.79-8.61-26.34-19.59-28.74l.21-.98c11.48,2.51,17.4,17.42,20.35,29.48,2.35,9.64,3.03,14.18,3.47,17.19,.17,1.16,.31,2.08,.49,2.92,.05,.23,.12,.51,.19,.83,.69,2.89,2.13,8.9-.16,12.54-.89,1.42-2.25,2.33-4.05,2.72-1.99,.43-4.56,.69-7.64,.69Z" fill="#002346"></path>
      </g>
      <path d="M774.32,399.38c-.06,0-.13-.01-.19-.04-6.08-2.55-20.7-1.29-20.85-1.28-.26,.03-.52-.18-.54-.45-.02-.28,.18-.52,.45-.54,.61-.05,15.02-1.3,21.33,1.35,.25,.11,.38,.4,.27,.65-.08,.19-.27,.31-.46,.31Z" fill="#002346"></path>
      <path d="M671.16,391.42c-.21,0-.4-.13-.47-.33-.09-.26,.05-.55,.31-.64,3.99-1.39,8.11-2.51,12.27-3.3,.26-.05,.53,.12,.59,.4,.05,.27-.13,.53-.4,.59-4.11,.79-8.19,1.89-12.13,3.27-.05,.02-.11,.03-.17,.03Z" fill="#002346"></path>
      <g>
        <path d="M757.97,494.01c-29.13,10.86-72.43,4.22-89.39,.94-1.17,7.61-1.96,13.36-1.96,14.42,0,3.29-3.3,36.2-3.3,36.2h100.94s-4.04-37.41-6.3-51.57Z" fill="#293838"></path>
        <path d="M764.83,546.07h-102.05l.06-.55c.03-.33,3.29-32.93,3.29-36.15,0-1.05,.73-6.47,1.96-14.5l.08-.51,.51,.1c17.16,3.31,60.2,9.86,89.12-.92l.57-.21,.1,.6c2.24,14.01,6.27,51.22,6.31,51.59l.06,.55Zm-100.95-1h99.83c-.5-4.63-4.05-36.95-6.14-50.39-28.86,10.47-71.11,4.19-88.57,.85-1.16,7.59-1.87,12.87-1.87,13.83,0,3.08-2.8,31.24-3.24,35.7Z" fill="#002346"></path>
      </g>
      <g>
        <path d="M757.97,494.01c-29.13,10.86-72.43,4.22-89.39,.94-.82,5.51-1.47,10.03-1.78,12.52,10.85,5.18,30.91,14.28,37.98,14.28,8.03,0,41.77-11.32,54.76-16.09-.52-4.56-1.1-8.63-1.57-11.66Z" fill="#f3f0ea"></path>
        <path d="M704.79,522.26c-7.14,0-27-8.98-38.2-14.33l-.33-.16,.04-.36c.28-2.22,.85-6.2,1.78-12.54l.08-.52,.51,.1c17.16,3.31,60.2,9.86,89.12-.92l.57-.21,.1,.6c.55,3.49,1.11,7.64,1.58,11.68l.04,.39-.37,.14c-11.73,4.3-46.55,16.12-54.93,16.12Zm-37.44-15.08c9.14,4.36,30.32,14.08,37.44,14.08,7.48,0,39.27-10.46,54.22-15.92-.43-3.67-.93-7.42-1.43-10.65-28.86,10.47-71.11,4.19-88.57,.85-.84,5.71-1.37,9.43-1.66,11.64Z" fill="#002346"></path>
      </g>
      <g>
        <path d="M664.92,529.21c-.8,8.46-1.6,16.31-1.6,16.31h23.21l-21.61-16.31Z" fill="#f3f0ea"></path>
        <path d="M688.02,546.03h-25.25l.06-.55s.79-7.85,1.59-16.31l.08-.89,23.52,17.75Zm-24.15-1h21.16l-19.71-14.87c-.65,6.8-1.27,13.03-1.46,14.87Z" fill="#002346"></path>
      </g>
      <g>
        <path d="M763.95,542.2v-.24c-.07-.66-.15-1.39-.24-2.2v-.38c0-.31-.08-.65-.12-.99v-.49c-.17-1.47-.35-3.09-.55-4.84v-.13c-.14-1.17-.28-2.45-.43-3.73v-.06l-.17-1.58c-11.53,7.76-28.3,14.25-39.24,18.01h41.26v-.4c-.27-.52-.38-1.55-.5-2.97Z" fill="#f3f0ea"></path>
        <path d="M764.95,546.07h-44.75l2.83-.97c11.61-3.99,27.82-10.35,39.12-17.95l.69-.46,.47,4.25c.08,.67,.15,1.32,.22,1.94v.19s.2,1.74,.2,1.74c.12,1.07,.23,2.09,.35,3.04v.55c.01,.07,.03,.18,.05,.3,.04,.24,.07,.47,.07,.69v.38c.09,.75,.17,1.49,.24,2.15v.27c.1,1.14,.21,2.29,.45,2.77l.05,.11v1.02Zm-38.81-1h37.73c-.2-.6-.31-1.5-.42-2.83v-.29c-.07-.61-.15-1.34-.24-2.14v-.44c0-.17-.03-.35-.06-.54-.02-.13-.04-.27-.05-.4v-.54c-.11-.89-.23-1.91-.35-2.98l-.2-1.98c-.07-.56-.15-1.21-.22-1.88l-.29-2.62c-10.46,6.88-24.76,12.69-35.89,16.64Z" fill="#002346"></path>
      </g>
      <path d="M752,396.5c-.21,0-.4-.13-.47-.34l-6-18c-.09-.26,.05-.55,.32-.63,.26-.09,.54,.05,.63,.32l6,18c.09,.26-.05,.55-.32,.63-.05,.02-.11,.03-.16,.03Z" fill="#002346"></path>
    </g>
    <g>
      <g>
        <path d="M88.26,384.33l-5.16,.05-2.14,41.36c-.24,4.68,3.47,8.62,8.16,8.66l97.21,.79c5.2,.04,9.49-4.08,9.66-9.28l1.34-41.57h-5.43s-.66,43.15-.66,43.15c-.03,1.71-1.42,3.09-3.13,3.09l-99.12-.94c-1.8,0-3.23-1.51-3.13-3.31l2.4-42Z" fill="#f1f2f2"></path>
        <path d="M186.41,435.69s-.06,0-.09,0l-97.21-.79c-2.41-.02-4.64-.99-6.29-2.75s-2.49-4.04-2.36-6.44l2.16-41.83,6.16-.06-2.43,42.54c-.04,.73,.21,1.42,.72,1.96,.5,.53,1.18,.82,1.91,.82l99.12,.94c1.42,0,2.61-1.16,2.63-2.59l.67-43.64h6.44l-1.36,42.09c-.18,5.49-4.59,9.76-10.08,9.76Zm-102.84-50.82l-2.11,40.89c-.11,2.13,.63,4.15,2.09,5.7,1.46,1.55,3.44,2.41,5.57,2.43l97.21,.79s.05,0,.08,0c4.94,0,8.92-3.85,9.08-8.79l1.32-41.06h-4.42l-.65,42.66c-.03,1.97-1.66,3.58-3.63,3.58l-99.12-.94c-1,0-1.94-.4-2.63-1.14-.69-.73-1.04-1.69-.99-2.7l2.37-41.47-4.16,.04Z" fill="#002346"></path>
      </g>
      <g>
        <path d="M509.34,384.24l1.87,41.98c.17,3.92-2.93,7.21-6.86,7.26l-99.75,1.23c-3.8,.05-6.95-2.92-7.13-6.72l-2.1-43.77h5.33s1.9,42.8,1.9,42.8c.07,1.59,1.38,2.84,2.98,2.83l97.93-.44c1.82,0,3.26-1.53,3.17-3.35l-2.16-41.74,4.83-.09Z" fill="#f1f2f2"></path>
        <path d="M404.51,435.21c-4.04,0-7.35-3.14-7.54-7.19l-2.13-44.29h6.33l.02,.48,1.9,42.8c.06,1.32,1.14,2.36,2.46,2.36h.01l97.93-.44c.74,0,1.43-.3,1.94-.84s.77-1.24,.73-1.98l-2.18-42.26,5.83-.1,1.89,42.46c.09,2.03-.63,3.97-2.03,5.45-1.4,1.48-3.29,2.31-5.32,2.33l-99.75,1.23s-.06,0-.1,0Zm-8.62-50.48l2.08,43.24c.17,3.54,3.08,6.28,6.63,6.24l99.75-1.23c1.76-.02,3.4-.74,4.61-2.02,1.21-1.28,1.83-2.96,1.76-4.72l-1.85-41.49-3.83,.07,2.13,41.22c.05,1.02-.3,1.98-1,2.72-.7,.74-1.64,1.15-2.66,1.15l-97.93,.44h-.02c-1.86,0-3.38-1.45-3.46-3.31l-1.88-42.32h-4.32Z" fill="#002346"></path>
      </g>
      <g>
        <polygon points="118.51 251.89 182.29 253.06 239.98 337.71 263.21 374.38 194.95 383.21 175.96 367.49 118.04 258.22 118.51 251.89" fill="#f1f2f2"></polygon>
        <path d="M194.8,383.73l-19.28-16-57.99-109.41,.51-6.95,64.52,1.19,57.83,84.87,23.66,37.34-69.25,8.96Zm-18.45-16.56l18.75,15.51,67.26-8.7-22.81-36-57.53-84.43-63.05-1.16-.42,5.72,57.81,109.06Z" fill="#002346"></path>
      </g>
      <g>
        <path d="M185.34,358.58l-2.22-9.48c-.85-3.64-2.53-7.03-4.9-9.91l-3.29-4,16.49-3.51,5.17,3.22,.94,11.02-6.8,16.42-5.39-3.75Z" fill="#f2b3c1"></path>
        <path d="M190.96,363.1l-6.06-4.22-2.26-9.67c-.83-3.54-2.49-6.9-4.8-9.71l-3.81-4.64,17.49-3.72,5.56,3.46,.97,11.39-7.08,17.1Zm-5.17-4.82l4.73,3.29,6.52-15.73-.91-10.65-4.79-2.98-15.49,3.3,2.76,3.36c2.41,2.93,4.13,6.43,5,10.12l2.18,9.29Z" fill="#002346"></path>
      </g>
      <g>
        <path d="M185.34,358.58c1.47,6.35,3.95,10.22,5.99,12.47,1.63,1.79,3.96,2.76,6.37,2.72l24.92-.42c-16.11-2.38-17.87-14.93-17.61-21.7,.11-2.84,.9-5.63,2.29-8.11,8.45-15.1,25.13-13.87,25.86-13.81h.02c-9.38-1.64-13.84-6.56-13.84-6.56l-15.24-21.81c4.1-8.38,.23-12.89-2.17-14.72-2.4-1.83-4.51-4-6.36-6.38-5.2-6.71-9.96-15.26-11.55-18.19-.36-.66-.99-1.13-1.73-1.28h0s7.97,16.42,7.97,16.42c4.22,8.91-.23,10.32-.23,10.32-2.81,1.41-7.04-5.63-7.04-5.63l-12.43-19.46c-3.28-6.1-8.44-6.1-8.44-6.1,1.62,.76,3.28,2.42,4.68,4.11,1.89,2.29,3.44,4.83,4.66,7.53l5.9,12.98c6.33,13.84-13.37,21.11-13.37,21.11l-3.75,14.07,30.25,12.9,3.28,7.5c4.22,11.26-8.44,22.04-8.44,22.04Z" fill="#f3f0ea"></path>
        <path d="M197.56,374.28c-2.53,0-4.93-1.05-6.6-2.88-1.94-2.14-4.58-6.09-6.11-12.7l-.07-.3,.23-.2c.12-.11,12.35-10.69,8.3-21.49l-3.19-7.3-30.47-12.99,3.93-14.74,.24-.09c.1-.04,10.45-3.93,13.47-11.2,1.21-2.92,1.08-6.02-.38-9.23l-5.9-12.98c-1.24-2.74-2.79-5.23-4.59-7.42-1.66-2.01-3.18-3.35-4.5-3.97l-2.03-.95h2.24c.22,0,5.5,.07,8.88,6.36l12.41,19.43c1.04,1.73,4.44,6.43,6.39,5.45,.1-.04,.94-.34,1.43-1.49,.53-1.24,.71-3.67-1.43-8.17l-8.41-17.32,.99,.2c.89,.18,1.64,.73,2.07,1.53,1.76,3.25,6.4,11.54,11.51,18.12,1.9,2.45,4.01,4.57,6.26,6.29,2.13,1.62,6.6,6.33,2.45,15.07l15.08,21.57h0s4.43,4.77,13.51,6.36l-.14,.99c-.71-.06-17.1-1.27-25.39,13.56-1.35,2.41-2.12,5.14-2.22,7.89-.27,6.93,1.61,18.89,17.19,21.18l-.06,.99-24.92,.42c-.05,0-.1,0-.15,0Zm-11.67-15.52c1.49,6.22,3.97,9.93,5.81,11.96,1.51,1.66,3.72,2.61,6,2.56l20.66-.35c-12.5-3.77-14.1-14.7-13.84-21.29,.11-2.91,.92-5.79,2.35-8.34,6.16-11.01,16.63-13.5,22.34-14-6.8-2.07-10.07-5.62-10.23-5.8l-15.45-22.1,.13-.26c3.9-7.96,.4-12.25-2.02-14.1-2.33-1.77-4.5-3.95-6.45-6.47-5.13-6.62-9.79-14.92-11.57-18.22l7.11,14.64c1.85,3.92,2.33,6.95,1.42,9.03-.68,1.56-1.91,1.96-1.96,1.98-3.08,1.55-7.16-5.09-7.61-5.85l-12.42-19.45c-1.71-3.17-3.9-4.63-5.56-5.3,.83,.72,1.7,1.63,2.61,2.72,1.86,2.26,3.46,4.83,4.73,7.64l5.9,12.98c1.59,3.47,1.72,6.84,.39,10.03-2.96,7.12-12.14,11-13.8,11.66l-3.57,13.4,30.04,12.81,3.36,7.69c4.04,10.76-6.57,20.83-8.34,22.42Z" fill="#002346"></path>
      </g>
      <g>
        <path d="M222.63,373.36c10.08,.7,21.11-1.88,21.11-1.88,9.38,2.35,22.28,2.11,22.28,2.11l63.55-2.81c25.56,11.26,51.59,6.1,51.59,6.1l25.33-4.46c2.69-.54,5.14-.77,7.3-.82,4.35-.1,8.68,.79,12.61,2.66,3.11,1.48,5.75,2.06,7.52,2.27,1.98,.24,3.97-.17,5.68-1.19,2.82-1.67,5.69-4.58,7.54-6.64,1.51-1.67,3.29-3.07,5.28-4.13l15.98-8.57c7.5-3.99,7.04-9.15,7.04-9.15,4.69-2.58,3.52-6.33,3.52-6.33,3.05-3.05,.7-6.33,.7-6.33,.18-1.47-.1-2.57-.51-3.38-.57-1.11-2.04-1.39-2.98-.56l-8,7.07c-.47,.42-1.02,.72-1.62,.91l-21.37,6.75c1.41-3.28,13.13-15.71,13.13-15.71,4.46-5.86,3.52-12.43,3.52-12.43,3.75-4.46,.94-6.33,.94-6.33,.94-3.75-1.64-4.22-1.64-4.22,1.17-3.99-2.58-5.16-2.58-5.16-1.17-3.75-3.52-1.17-3.52-1.17-5.86-2.35-6.33,6.33-6.33,6.33-.7,3.52-2.35,5.39-2.35,5.39-9.11,8.95-17.89,15.83-22.56,19.31-2.23,1.66-4.76,2.86-7.46,3.52-36.68,8.98-85.12,10.94-85.12,10.94-9.61-5.63-19.46-6.1-19.46-6.1l-11.49-1.88c-38.46-7.27-67.07-7.74-67.07-7.74h-.02c-.72-.06-17.41-1.29-25.86,13.81-1.39,2.48-2.18,5.27-2.29,8.11-.26,6.77,1.5,19.32,17.61,21.7Z" fill="#f2b3c1"></path>
        <path d="M366.24,378.53c-9.89,0-23.44-1.4-36.78-7.24l-63.43,2.81c-.15,0-12.98,.21-22.31-2.1-1.23,.27-11.65,2.52-21.13,1.86h-.04c-16.35-2.41-18.32-14.95-18.04-22.21,.11-2.91,.92-5.79,2.35-8.34,8.61-15.38,25.61-14.13,26.33-14.07,.28,0,29.08,.55,67.14,7.75l11.48,1.87h0c.06,0,9.95,.53,19.51,6.08,2.97-.13,49.65-2.3,84.87-10.92,2.63-.64,5.08-1.8,7.28-3.44,4.47-3.33,13.35-10.26,22.51-19.26h0s1.54-1.82,2.21-5.14c0-.13,.29-4.87,2.92-6.55,1.06-.68,2.33-.76,3.78-.26,.41-.35,1.26-.95,2.18-.74,.8,.18,1.43,.89,1.85,2.11,.85,.36,3.53,1.79,2.78,5.22,.36,.17,.85,.48,1.22,1.05,.54,.83,.66,1.95,.38,3.31,.31,.3,.79,.91,.92,1.85,.2,1.42-.43,3.04-1.89,4.82,.13,1.24,.48,7.16-3.64,12.58-.14,.15-9.74,10.34-12.48,14.55l20.17-6.37c.54-.17,1.02-.44,1.43-.81l8-7.07c.56-.5,1.31-.7,2.05-.56s1.36,.6,1.7,1.27c.52,1.02,.72,2.19,.58,3.49,.44,.74,1.96,3.76-.67,6.6,.17,.99,.37,4.16-3.56,6.46-.02,1.26-.6,5.74-7.31,9.3l-15.98,8.57c-1.95,1.05-3.68,2.4-5.14,4.03-1.92,2.14-4.81,5.04-7.66,6.73-1.78,1.06-3.92,1.5-6,1.25-1.72-.21-4.45-.78-7.67-2.32-3.79-1.81-8.08-2.72-12.38-2.62-2.37,.05-4.79,.33-7.21,.81l-25.34,4.46c-.12,.02-6.07,1.16-14.99,1.16Zm-36.59-8.25l.11,.05c25.12,11.06,51.03,6.11,51.29,6.06l25.34-4.46c2.46-.49,4.95-.77,7.38-.83,4.49-.09,8.91,.84,12.83,2.71,3.1,1.48,5.71,2.03,7.36,2.23,1.87,.22,3.77-.17,5.37-1.12,2.75-1.63,5.56-4.46,7.43-6.54,1.54-1.71,3.36-3.14,5.42-4.24l15.98-8.57c7.09-3.76,6.79-8.46,6.77-8.66l-.03-.32,.28-.16c4.25-2.34,3.32-5.61,3.28-5.75l-.09-.29,.21-.21c2.7-2.7,.73-5.57,.65-5.69l-.11-.16,.02-.19c.15-1.17,0-2.21-.46-3.09-.2-.39-.56-.66-1-.75-.43-.08-.87,.04-1.2,.33l-8,7.07c-.52,.46-1.12,.8-1.79,1.02l-22.41,7.08,.43-1c1.43-3.33,12.75-15.35,13.23-15.86,4.23-5.58,3.39-11.95,3.39-12.01l-.03-.22,.14-.17c1.35-1.6,1.97-3.05,1.81-4.2-.13-.94-.76-1.38-.76-1.39l-.29-.2,.08-.34c.3-1.21,.25-2.16-.17-2.81-.42-.66-1.06-.79-1.08-.8l-.54-.11,.15-.52c1.02-3.45-2.12-4.5-2.25-4.54l-.25-.08-.08-.25c-.21-.69-.59-1.53-1.19-1.67-.57-.13-1.27,.45-1.48,.68l-.23,.25-.32-.13c-1.28-.51-2.32-.49-3.17,.06-2.2,1.4-2.47,5.79-2.47,5.84-.73,3.68-2.4,5.61-2.47,5.7-9.23,9.07-18.15,16.03-22.64,19.38-2.31,1.72-4.88,2.93-7.64,3.61-36.31,8.89-84.73,10.94-85.22,10.96h-.15s-.13-.07-.13-.07c-9.4-5.5-19.14-6.02-19.23-6.03l-11.55-1.88c-37.98-7.18-66.71-7.73-66.99-7.73-.75-.06-17.14-1.27-25.44,13.55-1.35,2.41-2.12,5.14-2.22,7.89-.27,6.92,1.61,18.88,17.17,21.18,9.88,.69,20.83-1.84,20.94-1.87l.12-.03,.12,.03c9.21,2.3,22.02,2.1,22.15,2.1l63.65-2.82Z" fill="#002346"></path>
      </g>
      <g>
        <path d="M118.51,251.89l58.99,108.77c4.4,8.12,12.89,13.18,22.12,13.19l312.38,.45v10.08H77v-11.26h96.85s-60.97-113.03-60.97-113.03l5.63-8.21Z" fill="#f1f2f2"></path>
        <path d="M512.5,384.88H76.5v-12.26h96.51l-60.72-112.56,6.26-9.13,59.38,109.49c4.32,7.96,12.63,12.92,21.68,12.93l312.88,.45v11.08Zm-435-1H511.5v-9.08l-311.88-.45c-9.42-.01-18.07-5.17-22.56-13.45l-58.6-108.05-4.99,7.28,61.22,113.5H77.5v10.26Z" fill="#002346"></path>
      </g>
      <g>
        <polygon points="224.27 244.62 206.91 244.85 210.43 276.98 222.16 276.98 224.27 244.62" fill="#f1f2f2"></polygon>
        <path d="M222.62,277.48h-12.64l-3.63-33.12,18.44-.25-2.18,33.37Zm-11.75-1h10.81l2.05-31.35-16.26,.22,3.41,31.13Z" fill="#002346"></path>
      </g>
      <g>
        <path d="M221.99,249.75l-1.22,25.82h-8.85s-2.26-25.56-2.26-25.56l12.16-.46c.1,0,.18,.09,.18,.21Z" fill="#f3f0ea"></path>
        <path d="M221.24,276.07h-9.79l-2.35-26.54,12.69-.48c.16,0,.36,.06,.49,.19,.14,.14,.21,.33,.2,.53h0s-1.25,26.3-1.25,26.3Zm-8.87-1h7.92l1.19-25.01-11.28,.43,2.18,24.58Z" fill="#002346"></path>
      </g>
      <g>
        <ellipse cx="215.82" cy="249.78" rx="6.18" ry="1.41" fill="#f3f0ea"></ellipse>
        <path d="M215.83,251.68c-.68,0-6.67-.05-6.67-1.91s5.99-1.91,6.67-1.91,6.67,.05,6.67,1.91-5.99,1.91-6.67,1.91Zm-5.63-1.91c.41,.36,2.44,.91,5.63,.91s5.22-.55,5.63-.91c-.41-.36-2.44-.91-5.63-.91s-5.22,.55-5.63,.91Z" fill="#002346"></path>
      </g>
      <g>
        <path d="M216.29,262.91c0,2.28,4.58,2.91,5.64,3.03,.03,0,.03,.05,0,.06-3.04,.49-2.59,1.61-2.59,1.61,.23,1.88,3.28,2.81,3.28,2.81l-.47,6.57-11.07,.05-1.36,21.05-4-1.29c-.25,1.76-1.62,4.57-1.62,4.57l12.81,18.48,10.17-2.06-1.88-39.87c3.05-9.61,.7-11.73,.7-11.73,1.41-2.58-.7-4.46-.7-4.46,.94-2.58-.94-3.52-.94-3.52,0,0,1.56-1.22,1.1-2.6-.13-.4-.45-.71-.84-.88-.96-.41-3.27-1.3-5.07-1.2-1.88,.11-2.43,2.67-.74,3.49,.19,.09,.39,.17,.63,.25,0,0-2.31-.62-3.56,.52-.78,.71-.75,1.98,.09,2.6,.3,.22,.72,.43,1.3,.56,.08,.02,.1,.13,.02,.16-.35,.18-.9,.64-.9,1.77Z" fill="#f2b3c1"></path>
        <path d="M216.69,320.4l-13.17-18.99,.13-.26s1.34-2.76,1.58-4.42l.08-.59,3.96,1.27,1.35-20.88,11.07-.05,.41-5.72c-.88-.34-3-1.33-3.25-3.05-.04-.15-.08-.48,.13-.85,.17-.3,.46-.56,.87-.77-1.84-.44-4.05-1.35-4.05-3.18,0-.8,.24-1.33,.52-1.69-.28-.12-.53-.25-.74-.41-.51-.38-.82-.97-.85-1.62-.03-.67,.23-1.31,.72-1.76,.6-.55,1.38-.75,2.09-.81-.3-.48-.41-1.07-.29-1.68,.21-1.08,1.09-1.84,2.17-1.91,1.85-.1,4.11,.73,5.3,1.24,.54,.23,.95,.66,1.12,1.18,.38,1.15-.29,2.16-.8,2.71,.64,.6,1.23,1.75,.73,3.43,.76,.84,1.63,2.55,.72,4.53,.6,.89,1.73,3.85-.79,11.85l1.89,40.2-10.91,2.21Zm-12.01-19.08l12.46,17.97,9.42-1.91-1.86-39.53,.03-.09c2.86-9.02,.86-11.19,.83-11.21l-.26-.26,.17-.34c1.19-2.19-.52-3.78-.6-3.84l-.25-.23,.11-.32c.75-2.07-.54-2.82-.7-2.9l-.68-.36,.6-.48s1.28-1.02,.93-2.05c-.08-.25-.29-.46-.56-.58-.89-.38-3.15-1.25-4.85-1.16-.77,.04-1.16,.62-1.25,1.1-.1,.48,.04,1.11,.7,1.43,.17,.08,.36,.16,.57,.23l-.29,.96s-2.07-.53-3.1,.41c-.27,.25-.42,.6-.4,.97,.02,.35,.18,.66,.45,.86,.28,.21,.65,.37,1.12,.48,.24,.06,.42,.26,.45,.5l.04,.35-.35,.25c-.29,.15-.63,.5-.63,1.33,0,1.55,3.27,2.32,5.2,2.53l.44,.05,.04,.9-.46,.09c-1.89,.3-2.21,.84-2.19,.97,.18,1.35,2.19,2.25,2.95,2.48l.38,.12-.53,7.42-11.07,.05-1.37,21.23-4.08-1.31c-.33,1.44-1.12,3.21-1.43,3.88Z" fill="#002346"></path>
      </g>
      <g>
        <path d="M209.18,264.39l-.58-3.75c-.11-.69,.21-1.37,.81-1.72,1.05-.62,2.52-1.81,2.39-3.57-.04-.59-.46-1.09-1.03-1.29-.96-.34-2.56-.49-3.92,1.41-.42,.58-.65,1.28-.7,1.99l-.18,2.87s.23,2.9,3.2,4.06Z" fill="#f2b3c1"></path>
        <path d="M209.8,265.17l-.81-.32c-3.22-1.25-3.5-4.35-3.52-4.48l.18-2.94c.05-.82,.33-1.6,.79-2.25,1.57-2.2,3.49-1.94,4.49-1.59,.77,.27,1.3,.95,1.36,1.72,.12,1.53-.82,2.97-2.64,4.04-.42,.25-.65,.73-.57,1.22l.71,4.61Zm-.18-10.82c-.75,0-1.6,.33-2.36,1.4-.36,.5-.57,1.1-.61,1.73l-.18,2.87s.2,1.99,2.06,3.15l-.43-2.8c-.14-.9,.27-1.77,1.05-2.23,1.04-.61,2.26-1.65,2.15-3.1-.03-.38-.3-.71-.69-.85-.29-.1-.62-.18-.98-.18Z" fill="#002346"></path>
      </g>
      <g>
        <path d="M279.37,333.96l-11.4-15.96c-3.05-4.28-8.32-6.38-13.48-5.39l-37.58,7.23s4.87,9.61,18.48,9.84l-4.23-5.28,21.02-4.3c2.72-.56,5.53,.48,7.23,2.69l7.56,9.55,12.41,1.62Z" fill="#f1f2f2"></path>
        <path d="M280.45,334.61l-13.75-1.8-7.68-9.71c-1.57-2.04-4.22-3.02-6.74-2.51l-20.22,4.13,4.39,5.48-1.06-.02c-13.74-.24-18.86-10.01-18.91-10.11l-.3-.59,38.23-7.36c5.34-1.02,10.83,1.17,13.98,5.59l12.07,16.9Zm-13.22-2.74l11.07,1.45-10.73-15.03c-2.93-4.11-8.02-6.14-12.98-5.19l-36.88,7.1c1.28,1.98,6.17,8.35,16.61,8.94l-4.06-5.07,21.82-4.46c2.89-.59,5.92,.54,7.72,2.87l7.43,9.39Z" fill="#002346"></path>
      </g>
      <g>
        <polygon points="132.68 296.85 98.14 373.17 104.35 373.17 135.93 303.08 132.68 296.85" fill="#f1f2f2"></polygon>
        <path d="M104.67,373.67h-7.31l.32-.71,34.96-77.25,3.84,7.36-.1,.22-31.71,70.38Zm-5.76-1h5.11l31.35-69.56-2.66-5.11-33.8,74.67Z" fill="#002346"></path>
      </g>
      <g>
        <polygon points="166.09 358.97 159.31 373.12 165.12 373.12 168.92 364.21 166.09 358.97" fill="#f1f2f2"></polygon>
        <path d="M165.45,373.62h-6.94l7.55-15.75,3.42,6.31-4.03,9.44Zm-5.35-1h4.69l3.58-8.39-2.25-4.17-6.01,12.55Z" fill="#002346"></path>
      </g>
      <g>
        <path d="M162.11,256.35c5.4,.22,8.45,6.08,8.45,6.08l12.43,19.46c4.22,7.28,7.03,5.64,7.03,5.64,4.47-2.59,.24-10.33,.24-10.33l-7.98-16.41c-.06-.06-.11-.11-.17-.17-.87-.97-1.25-2.27-1.12-3.57l.35-3.33,.47-4.41-2.05-2.51-5.23-6.4-5.17-.07-2.31,8.37c-.74,2.74-2.23,5.21-4.32,7.11-.39,.35-.63,.54-.63,.54Z" fill="#f2b3c1"></path>
        <path d="M189.26,288.19c-.24,0-.53-.03-.84-.11-1.89-.5-3.86-2.49-5.85-5.93l-12.42-19.45c-.05-.09-3.01-5.65-8.05-5.85l-1.37-.06,1.09-.84s.24-.18,.6-.51c2-1.82,3.44-4.2,4.17-6.87l2.41-8.75,5.79,.08,7.55,9.25-.84,7.95c-.12,1.19,.24,2.36,.99,3.18l.25,.28,7.98,16.41c.17,.31,4.39,8.18-.44,10.98-.05,.03-.41,.23-1.02,.23Zm-25.96-32.21c4.89,.91,7.59,5.99,7.71,6.22l12.41,19.43c3.87,6.66,6.34,5.48,6.37,5.47,3.98-2.31,.08-9.58,.04-9.65l-7.96-16.36-.11-.11c-.95-1.05-1.41-2.5-1.26-3.97l.8-7.54-7-8.57-4.55-.07-2.2,8c-.75,2.76-2.22,5.22-4.25,7.15Z" fill="#002346"></path>
      </g>
      <path d="M149.93,253.76c-10.32,15.24-2.92,22.91-2.92,22.91l2.69-10.24c3.05-11.49,12.43-10.08,12.43-10.08,.65-.5,1.23-1.06,1.74-1.62,1.52-1.69,2.58-3.74,3.18-5.93l2.32-8.46-.4-7.73c.52-3.1,1.67-5.47,1.67-5.47,0,0-7.34,.84-9.22,4.12,0,0-.47,.77-1.29,1.56l-.27,4.93c-.05,.97-.37,1.91-.91,2.71l-9.02,13.31Z" fill="#002346"></path>
      <g>
        <path d="M145.24,333.73l3.95-.94,48.26-9.97c3.75-.78,7.61,.74,9.83,3.87l19.59,27.6c1.93,2.72,.9,6.52-2.14,7.9h0c-2.32,1.05-5.05,.3-6.51-1.77l-17.83-25.24c-2.02-2.86-5.55-4.23-8.97-3.48l-41.01,8.98c-1.48,.32-2.97-.51-3.46-1.94l-1.72-4.99Z" fill="#f1f2f2"></path>
        <path d="M222.56,363.14c-1.84,0-3.63-.87-4.74-2.45l-17.83-25.24c-1.91-2.7-5.23-3.99-8.46-3.28l-41.01,8.98c-1.73,.38-3.46-.6-4.04-2.27l-1.9-5.51,4.48-1.07,48.28-9.98c3.96-.81,8.01,.78,10.34,4.07l19.59,27.6c1.01,1.42,1.32,3.19,.87,4.87-.45,1.68-1.62,3.05-3.21,3.77-.77,.35-1.58,.51-2.38,.51Zm-29.26-32.17c2.95,0,5.76,1.42,7.51,3.9l17.83,25.24c1.33,1.88,3.81,2.55,5.9,1.6,1.31-.59,2.28-1.73,2.65-3.12,.38-1.39,.11-2.86-.72-4.03l-19.59-27.6c-2.1-2.96-5.77-4.41-9.32-3.67l-48.26,9.98-3.4,.81,1.54,4.47c.41,1.19,1.65,1.89,2.88,1.62l41.01-8.98c.66-.14,1.32-.21,1.98-.21Z" fill="#002346"></path>
      </g>
      <g>
        <path d="M163.22,256.99c-.7-.48-1.52-.73-2.37-.7-2.67,.08-8.8,1.26-11.16,10.13,0,0-8.21,26.26-7.97,54.17,0,0,.23,15.71,17.12,12.9l31.2-6.51c.9-.19,1.83-.03,2.62,.44l8.28,4.97c.65,.39,1.13,1,1.37,1.72,.73,2.23,2.8,7.06,6.95,6.88,0,0,1.88,4.92,5.39,2.81,0,0,.49,1.07,1.46,1.58,1.1,.57,2.43-.15,2.63-1.37,.15-.9,.19-2.34-.1-4.64,0,0,0-.01,.01,0,.16,.31,1.52,2.74,3.5,2.08,0,0,1.64-.47,0-3.99l-4.69-9.85s-2.58-4.69-6.1-6.8l-7.28-4.55c-1.38-.86-2.96-1.33-4.58-1.36l-38.09-.66,2.58-12.19s19.7-7.27,13.37-21.11l-5.9-12.98s-3.6-7.8-8.24-10.99Z" fill="#f2b3c1"></path>
        <path d="M216.93,346.09c-.36,0-.71-.09-1.04-.26-.69-.36-1.16-.95-1.42-1.36-.87,.4-1.72,.47-2.54,.18-1.65-.57-2.64-2.41-2.99-3.16-4.29-.08-6.39-5.05-7.1-7.23-.2-.61-.61-1.13-1.15-1.45l-8.28-4.97c-.68-.41-1.48-.54-2.26-.38l-31.2,6.51c-5.4,.9-9.7,.05-12.79-2.54-4.77-3.98-4.92-10.56-4.93-10.84-.23-27.67,7.91-54.06,8-54.33,2.45-9.23,8.94-10.41,11.62-10.48,.95-.02,1.87,.25,2.67,.79h0c4.7,3.23,8.26,10.87,8.41,11.19l5.9,12.99c1.59,3.47,1.72,6.84,.39,10.03-2.95,7.09-12.08,10.98-13.78,11.65l-2.4,11.34,37.48,.65c1.71,.03,3.39,.53,4.84,1.43l7.28,4.55c3.58,2.15,6.16,6.79,6.27,6.98l4.7,9.88c.78,1.67,.98,2.96,.58,3.84-.3,.66-.83,.83-.89,.85-1.25,.41-2.27-.17-2.98-.86,.08,1.21,.06,2.22-.08,3.02-.12,.75-.6,1.4-1.29,1.74-.33,.16-.68,.25-1.03,.25Zm-2.05-3l.23,.51s.44,.93,1.24,1.35c.36,.19,.79,.19,1.16,0,.4-.2,.68-.57,.75-1.01,.18-1.07,.14-2.58-.11-4.49l-.05-.4,.76-.28,.22,.35c.14,.27,1.33,2.4,2.92,1.87,0,0,.18-.07,.29-.34,.14-.34,.24-1.18-.59-2.96l-4.69-9.85s-2.55-4.57-5.9-6.59l-7.28-4.55c-1.3-.81-2.8-1.26-4.33-1.28l-38.69-.67,2.76-13.06,.26-.1c.1-.04,10.45-3.93,13.47-11.2,1.21-2.92,1.08-6.02-.38-9.23l-5.9-12.98c-.03-.07-3.6-7.71-8.07-10.78h0c-.62-.42-1.35-.63-2.07-.62-2.45,.07-8.41,1.16-10.69,9.76-.09,.28-8.19,26.53-7.96,54.04,0,.06,.16,6.41,4.58,10.09,2.86,2.38,6.88,3.16,11.96,2.32l31.18-6.51c1.02-.21,2.08-.04,2.98,.5l8.28,4.97c.75,.45,1.31,1.16,1.59,2,.66,2.02,2.61,6.71,6.46,6.54l.36-.02,.13,.34s.92,2.35,2.53,2.9c.67,.23,1.37,.12,2.14-.34l.48-.29Z" fill="#002346"></path>
      </g>
      <path d="M175.68,245.78s1.45,4.37,5.68,7.95l.47-4.41-2.05-2.51-4.09-1.02Z" fill="#002346"></path>
      <g>
        <path d="M132.41,240.72c3.34,2.27,9.04,.87,12.74-.46,2.82-1.01,5.77-1.57,8.77-1.66l5.98-.19,.23-5.6h-.03c-2.17,2.14-7.04,5.53-14.86,3.37,0,0-6.62-2.06-12.21,.82,0,0-.01,0-.02,0-.23,.14-.44,.28-.62,.41-1.12,.81-1.13,2.52,.01,3.3Z" fill="#f3f0ea"></path>
        <path d="M137.07,242.42c-1.84,0-3.56-.36-4.94-1.29h0c-.67-.46-1.06-1.19-1.08-2.02-.01-.83,.38-1.62,1.05-2.11,.19-.14,.41-.28,.65-.43,5.75-2.96,12.35-.97,12.63-.88,7.53,2.08,12.23-1.14,14.36-3.25l.17-.17,.7,.09v.46s-.24,6.06-.24,6.06l-6.44,.2c-2.95,.09-5.85,.64-8.61,1.63-2.47,.89-5.49,1.7-8.25,1.7Zm-4.38-2.12c3.26,2.21,9.1,.62,12.29-.52,2.86-1.03,5.86-1.6,8.92-1.69l5.51-.17,.17-3.97c-2.57,2.17-7.34,4.68-14.48,2.71-.08-.02-6.51-1.96-11.84,.78-.21,.12-.4,.25-.57,.38-.41,.3-.65,.78-.64,1.28,0,.49,.24,.93,.64,1.2h0Z" fill="#002346"></path>
      </g>
      <g>
        <path d="M186.98,225.62l8.64,2.19c3.29-.55,8.96-4.3,12.58-6.91,2.08-1.5,4.39-2.65,6.84-3.39,4.44-1.34,5.7-2.91,5.7-2.91,4.69-4.92-1.17-5.63-1.17-5.63,0,0-5.39,.94-9.38,5.16,0,0-5.39,7.27-18.29,5.39,0,0-.23-.05-.63-.09l-4.3,6.19Z" fill="#f3f0ea"></path>
        <path d="M195.6,228.32l-9.44-2.39,4.88-7.03,.3,.04c.42,.05,.67,.1,.67,.1,12.4,1.8,17.74-5.13,17.79-5.2,4.09-4.34,9.47-5.31,9.7-5.35h.07s.07,0,.07,0c.11,.01,2.67,.34,3.3,2.08,.43,1.19-.18,2.67-1.82,4.39-.03,.04-1.38,1.68-5.92,3.05-2.39,.72-4.64,1.84-6.7,3.31-4.01,2.89-9.49,6.45-12.79,7l-.1,.02Zm-7.8-3.01l7.84,1.99c2.45-.45,6.8-2.87,12.27-6.81,2.14-1.54,4.49-2.71,6.99-3.46,4.19-1.27,5.45-2.74,5.46-2.75,1.36-1.43,1.92-2.6,1.63-3.39-.37-1.02-2.04-1.35-2.41-1.41-.66,.13-5.46,1.22-9.03,5-.19,.26-5.69,7.44-18.73,5.54-.03,0-.13-.03-.32-.05l-3.71,5.35Z" fill="#002346"></path>
      </g>
      <g>
        <rect x="167.69" y="213.16" width="28.46" height="37.31" rx="14.23" ry="14.23" transform="translate(416.24 410.5) rotate(165.45)" fill="#f2b3c1"></rect>
        <path d="M183.01,250.83c-2.59,0-5.15-.69-7.44-2.04-3.39-1.99-5.8-5.19-6.79-9l-2.22-8.57c-2.04-7.86,2.7-15.92,10.56-17.96,7.86-2.04,15.92,2.7,17.96,10.56l2.22,8.57c2.04,7.86-2.7,15.92-10.56,17.95-1.23,.32-2.48,.48-3.73,.48Zm-2.2-37.04c-1.14,0-2.29,.14-3.45,.44-7.33,1.9-11.74,9.41-9.84,16.74l2.22,8.57c.92,3.55,3.17,6.53,6.33,8.39,3.16,1.86,6.86,2.38,10.41,1.45h0c7.33-1.9,11.74-9.41,9.84-16.74l-2.22-8.57c-1.6-6.17-7.19-10.28-13.29-10.28Z" fill="#002346"></path>
      </g>
      <g>
        <path d="M132.81,237.11c.07-.04,.14-.07,.21-.11,0,0,.01,0,.02,0,5.58-2.88,12.21-.82,12.21-.82,7.82,2.16,12.69-1.22,14.86-3.37,.89-.88,1.32-1.55,1.32-1.55,2.35-3.75,10.55-4.22,10.55-4.22,7.5-.47,9.85-3.99,9.85-3.99,2.5-4.03,7.67-3.82,9.46-3.61,.4,.05,.63,.09,.63,.09,12.9,1.88,18.29-5.39,18.29-5.39,3.99-4.22,9.38-5.16,9.38-5.16-3.28-.94-8.91-.94-8.91-.94l-17.59-.94c-6.57-.47-9.61-4.46-9.61-4.46-4.69-5.39-18.99,3.05-18.99,3.05-6.38,4.32-6.6,8.48-6.44,9.98,.06,.51,.04,1.03-.11,1.52-.96,3.24-4.08,6.44-6.51,8.56-1.52,1.32-3.18,2.49-4.92,3.49l-13.68,7.88Z" fill="#f3f0ea"></path>
        <path d="M133.05,237.55l-.49-.87,13.68-7.88c1.74-1,3.37-2.16,4.84-3.44,2.39-2.07,5.43-5.2,6.36-8.32,.12-.39,.15-.83,.09-1.32-.18-1.66,.09-6.01,6.65-10.44,.62-.37,14.74-8.61,19.65-2.96,.05,.06,3.03,3.84,9.27,4.29l17.58,.94c.24,.01,5.71,.01,9.02,.96l2.09,.6-2.14,.38c-.05,0-5.28,.97-9.1,5.01-.19,.26-5.69,7.44-18.73,5.54-.04,0-.25-.05-.61-.09-1.93-.23-6.67-.35-8.97,3.38-.11,.17-2.58,3.74-10.24,4.22-.08,0-7.98,.5-10.16,3.99-.02,.04-.48,.74-1.39,1.64-2.28,2.26-7.31,5.72-15.34,3.5-.08-.02-6.51-1.96-11.84,.78l-.21,.11Zm6.88-2.6c3.01,0,5.29,.69,5.45,.74,7.53,2.08,12.23-1.14,14.36-3.25,.83-.82,1.25-1.46,1.25-1.47,2.45-3.92,10.6-4.43,10.94-4.45,7.12-.45,9.44-3.73,9.46-3.77,2.6-4.19,7.81-4.07,9.93-3.83,.42,.05,.67,.1,.67,.1,12.4,1.8,17.74-5.13,17.79-5.2,2.58-2.73,5.67-4.13,7.66-4.8-3.08-.49-6.74-.5-6.79-.5l-17.61-.94c-6.72-.48-9.85-4.48-9.99-4.65-4.34-5-18.2,3.09-18.34,3.18-6.08,4.12-6.36,8.01-6.19,9.49,.07,.62,.03,1.2-.13,1.72-1,3.35-4.17,6.63-6.66,8.79-1.52,1.32-3.2,2.51-5,3.55l-9.53,5.49c.94-.14,1.86-.2,2.72-.2Z" fill="#002346"></path>
      </g>
      <g>
        <ellipse cx="166.93" cy="236.53" rx="4.1" ry="5.51" transform="translate(-86.79 97.11) rotate(-26)" fill="#f2b3c1"></ellipse>
        <path d="M167.94,242.3c-.7,0-1.42-.19-2.14-.55-1.25-.65-2.32-1.78-3.01-3.2-1.45-2.98-.78-6.31,1.5-7.42,2.28-1.11,5.32,.41,6.77,3.38,.69,1.42,.93,2.96,.67,4.34-.27,1.43-1.04,2.53-2.17,3.08-.51,.25-1.06,.37-1.62,.37Zm-2.01-10.55c-.41,0-.82,.09-1.19,.27-1.79,.87-2.25,3.6-1.04,6.08h0c.6,1.23,1.51,2.2,2.57,2.75,1.01,.52,2.03,.58,2.87,.17,.84-.41,1.42-1.25,1.63-2.37,.22-1.17,.01-2.49-.59-3.72-.96-1.96-2.68-3.19-4.24-3.19Z" fill="#002346"></path>
      </g>
      <path d="M164,302.57s-.06,0-.09,0c-.27-.05-.45-.31-.4-.58l2.93-15.38c.05-.27,.31-.45,.58-.4,.27,.05,.45,.31,.4,.58l-2.93,15.38c-.05,.24-.26,.41-.49,.41Z" fill="#002346"></path>
      <g>
        <line x1="218.71" y1="257.03" x2="224.27" y2="258.22" fill="#f9a29b"></line>
        <path d="M224.27,258.72s-.07,0-.1-.01l-5.55-1.19c-.27-.06-.44-.32-.38-.59,.06-.27,.32-.44,.59-.38l5.55,1.19c.27,.06,.44,.32,.38,.59-.05,.23-.26,.4-.49,.4Z" fill="#002346"></path>
      </g>
      <g>
        <line x1="217.2" y1="261.13" x2="225.21" y2="261.73" fill="#f9a29b"></line>
        <path d="M225.21,262.23s-.03,0-.04,0l-8.01-.6c-.28-.02-.48-.26-.46-.54,.02-.27,.26-.48,.54-.46l8.01,.6c.28,.02,.48,.26,.46,.54-.02,.26-.24,.46-.5,.46Z" fill="#002346"></path>
      </g>
      <g>
        <line x1="221.94" y1="265.99" x2="225.91" y2="266.19" fill="#f9a29b"></line>
        <path d="M225.91,266.69s-.02,0-.03,0l-3.97-.2c-.28-.01-.49-.25-.47-.52,.01-.27,.23-.49,.52-.47l3.97,.2c.28,.01,.49,.25,.47,.52-.01,.27-.23,.47-.5,.47Z" fill="#002346"></path>
      </g>
      <g>
        <line x1="209.26" y1="341" x2="205.98" y2="331.68" fill="#f2b3c1"></line>
        <rect x="207.12" y="331.4" width="1" height="9.88" transform="translate(-99.96 88.09) rotate(-19.41)" fill="#002346"></rect>
      </g>
      <g>
        <line x1="214.65" y1="343.81" x2="210.83" y2="331.68" fill="#f2b3c1"></line>
        <rect x="212.24" y="331.39" width="1" height="12.72" transform="translate(-91.59 79.46) rotate(-17.47)" fill="#002346"></rect>
      </g>
      <g>
        <line x1="218.64" y1="339.39" x2="215.82" y2="331.68" fill="#f2b3c1"></line>
        <rect x="216.73" y="331.43" width="1" height="8.21" transform="translate(-102.11 95.13) rotate(-20.11)" fill="#002346"></rect>
      </g>
      <path d="M431.47,358.89c-4.34,0-7.95-2.36-8.44-2.7-8.44-3.44-14.3-2.3-14.36-2.28-42.1,2.08-65.83-4.49-66.07-4.56-.27-.08-.42-.35-.34-.62,.08-.27,.35-.42,.62-.34,.23,.07,23.83,6.6,65.67,4.53,.17-.04,6.15-1.22,14.91,2.37,.03,.01,.07,.03,.1,.05,.06,.04,5.61,3.88,11.09,2.04,3.81-1.28,6.72-4.97,8.66-10.96,.08-.26,.37-.4,.63-.32,.26,.08,.41,.37,.32,.63-2.04,6.32-5.17,10.23-9.3,11.61-1.18,.4-2.36,.56-3.49,.56Z" fill="#002346"></path>
      <path d="M430.86,353.92c-.13,0-.27-.05-.36-.16-.14-.15-3.46-3.86,2.97-10.46,.06-.08,8.51-10.09,10.17-20.4,.16-1.02,.38-2.22,.77-3.39,.86-2.61,2.85-7.11,6.53-7.93,2.7-.6,5.78,.89,9.14,4.43,.19,.2,.18,.52-.02,.71-.2,.19-.52,.18-.71-.02-3.1-3.27-5.85-4.67-8.2-4.15-3.19,.71-5,4.86-5.79,7.26-.36,1.11-.58,2.26-.73,3.24-1.7,10.59-10.06,20.49-10.41,20.91-5.75,5.89-3.09,8.98-2.98,9.1,.18,.2,.17,.52-.03,.71-.1,.09-.22,.13-.34,.13Z" fill="#002346"></path>
      <path d="M451.5,309.33c-.13,0-.26-.05-.35-.15-.2-.2-.2-.51,0-.71,1.88-1.88,3.37-8.56,3.38-8.63,.06-.27,.33-.44,.6-.38s.44,.33,.38,.6c-.06,.29-1.57,7.04-3.65,9.12-.1,.1-.23,.15-.35,.15Z" fill="#002346"></path>
      <path d="M455.5,310.33c-.1,0-.21-.03-.3-.1-.22-.17-.27-.48-.1-.7,2.86-3.81,2.93-8.36,2.93-8.4,0-.28,.26-.51,.5-.5,.28,0,.5,.23,.5,.5,0,.2-.07,4.91-3.13,9-.1,.13-.25,.2-.4,.2Z" fill="#002346"></path>
      <path d="M458.53,311.84c-.11,0-.22-.04-.32-.11-.21-.18-.25-.49-.07-.7,1.92-2.35,2.47-4.82,2.48-4.84,.06-.27,.32-.44,.59-.38,.27,.06,.44,.32,.38,.59-.02,.11-.6,2.72-2.68,5.27-.1,.12-.24,.18-.39,.18Z" fill="#002346"></path>
      <path d="M461.11,313.6c-.11,0-.23-.04-.32-.12-.21-.18-.24-.49-.06-.7,.57-.68,1.58-2.49,1.59-2.51,.13-.24,.44-.33,.68-.2,.24,.13,.33,.44,.2,.68-.04,.08-1.06,1.92-1.7,2.67-.1,.12-.24,.18-.38,.18Z" fill="#002346"></path>
      <path d="M473.13,339.07c-.19,0-.38-.11-.46-.3-.11-.25,.01-.55,.26-.66,3.97-1.69,6.31-4.23,6.33-4.25,.19-.2,.5-.22,.71-.04,.2,.19,.22,.5,.04,.71-.1,.11-2.49,2.72-6.68,4.5-.06,.03-.13,.04-.2,.04Z" fill="#002346"></path>
      <path d="M473.13,343.89c-.21,0-.41-.14-.48-.35-.08-.26,.07-.54,.33-.63,4.37-1.36,5.56-2.69,5.57-2.71,.18-.21,.49-.23,.7-.06,.21,.18,.24,.49,.07,.7-.05,.06-1.32,1.55-6.04,3.02-.05,.02-.1,.02-.15,.02Z" fill="#002346"></path>
    </g>
    <g>
      <g>
        <path d="M474.63,362.28s13.46,11.42,9.38,33.03c0,0,7.34-5.3,19.17-3.26,0,0-6.93-32.22-22.84-44.05l-5.71,14.27Z" fill="#f1f2f2"></path>
        <path d="M483.28,396.45l.23-1.23c3.97-21.06-9.08-32.45-9.21-32.56l-.27-.23,6.08-15.21,.52,.39c15.87,11.8,22.96,44.02,23.03,44.34l.16,.72-.73-.13c-11.47-1.98-18.72,3.12-18.79,3.18l-1.01,.73Zm-8.06-34.31c1.86,1.76,12.62,12.9,9.47,32.15,2.33-1.33,8.67-4.23,17.83-2.85-1.13-4.75-8.05-31.76-21.96-42.64l-5.34,13.34Z" fill="#002346"></path>
      </g>
      <g>
        <path d="M484.01,395.32s-6.12,22.84,1.22,25.29c0,0,19.98-1.22,17.94-28.55,0,0-11.42-2.04-19.17,3.26Z" fill="#f3f0ea"></path>
        <path d="M485.16,421.11l-.09-.03c-7.7-2.57-1.8-24.94-1.55-25.89l.05-.18,.15-.1c7.83-5.36,19.06-3.43,19.54-3.34l.38,.07,.03,.39c.72,9.69-1.2,17.23-5.73,22.41-5.37,6.16-12.39,6.65-12.69,6.67h-.1Zm-.72-25.47c-1.67,6.32-4.62,22.45,.85,24.47,.85-.08,7.15-.87,11.91-6.34,4.27-4.9,6.12-12.06,5.5-21.27-2.02-.28-11.57-1.33-18.26,3.14Z" fill="#002346"></path>
      </g>
      <g>
        <polygon points="245.43 449.96 266.63 449.96 267.86 392.05 240.13 391.65 245.43 449.96" fill="#f1f2f2"></polygon>
        <path d="M267.12,450.46h-22.15l-5.39-59.33,28.79,.42-1.25,58.9Zm-21.24-1h20.26l1.2-56.92-26.67-.39,5.21,57.31Z" fill="#002346"></path>
      </g>
      <g>
        <polygon points="242.57 393.68 265.82 393.68 264.6 447.52 247.87 447.52 242.57 393.68" fill="#293838"></polygon>
        <path d="M265.08,448.02h-17.66l-.04-.45-5.36-54.38h24.31l-1.25,54.83Zm-16.76-1h15.78l1.2-52.83h-22.18l5.2,52.83Z" fill="#002346"></path>
      </g>
      <g>
        <path d="M272.99,458.57s-30.82,4.04-36.53,47.27c0,0-7.75,47.72,32.22,57.91,0,0,57.5,16.72,169.66,12.64,0,0,86.05,3.26,84.42-56.69,0,0,3.77-41.12-27.96-59.29-5-2.86-10.21-9.22-15.96-9.33l-49.06-4.32-102.78,6.05-54.01,5.75Z" fill="#f3f0ea"></path>
        <path d="M404.01,577.53c-88.62,0-134.97-13.15-135.48-13.3-39.93-10.19-32.65-57.99-32.57-58.47,5.69-43.1,36.65-47.65,36.96-47.69h.01s54.01-5.75,54.01-5.75l102.8-6.05,49.13,4.32c3.98,.08,7.63,2.98,11.16,5.79,1.74,1.38,3.38,2.68,5.01,3.61,31.64,18.11,28.25,59.35,28.21,59.77,.39,14.17-4.13,26.05-13.44,35.26-23.67,23.42-71.03,21.9-71.5,21.89-12.05,.44-23.5,.63-34.3,.63Zm-130.97-118.46c-.56,.08-30.53,4.7-36.09,46.84-.08,.49-7.21,47.4,31.85,57.36,.59,.17,58.75,16.65,169.51,12.63,.51,.02,47.44,1.51,70.8-21.6,9.1-9,13.52-20.64,13.14-34.58,.04-.47,3.37-41.08-27.71-58.86-1.69-.97-3.36-2.29-5.13-3.7-3.4-2.7-6.92-5.49-10.6-5.57l-49.09-4.32-102.7,6.05-53.98,5.74Z" fill="#002346"></path>
      </g>
      <g>
        <path d="M362.47,341.89s6.12-42.82,37.52-51.39c-2.1,.7,20.39-7.75,55.06,14.68,0,0,33.44,19.17,25.69,49.35,0,0-2.85,23.65-52.2,3.67,0,0-10.97,4.65-9.2,20.86,.31,2.84,1,5.62,1.98,8.31,2.91,8.03,12.44,32.25,25.58,45.05l-33.03,13.05-57.5-21.21s-6.12-38.34-6.12-41.6,12.23-40.78,12.23-40.78Z" fill="#f3f0ea"></path>
        <path d="M413.87,446.01l-57.96-21.37-.05-.29c-.25-1.57-6.12-38.41-6.12-41.68s11.58-38.87,12.25-40.9c.25-1.61,6.97-43.32,37.88-51.75v.05c3.04-.85,24.54-5.31,55.46,14.7,.31,.18,33.66,19.69,25.91,49.89-.02,.16-.72,5.5-6.74,9.05-6.24,3.68-19.27,5.8-45.94-4.96-1.45,.7-10.32,5.59-8.72,20.26,.29,2.67,.95,5.43,1.95,8.2,2.64,7.28,12.28,32.02,25.45,44.86l.55,.54-33.93,13.4Zm-57.06-22.11l57.05,21.04,32.14-12.7c-13.05-13.13-22.53-37.47-25.15-44.7-1.03-2.84-1.71-5.68-2-8.43-1.79-16.39,9.39-21.33,9.5-21.38l.19-.08,.19,.08c26.42,10.7,39.19,8.68,45.25,5.1,5.59-3.3,6.26-8.32,6.27-8.37,7.58-29.53-25.12-48.66-25.45-48.85-32.59-21.09-54.57-14.67-54.78-14.6h0s-.03,0-.04,0c-30.6,8.47-36.95,50.51-37.01,50.94l-.02,.08c-4.22,12.95-12.21,38.11-12.21,40.63,0,3.04,5.5,37.69,6.06,41.23Z" fill="#002346"></path>
      </g>
      <g>
        <path d="M298.82,445.02l-27.69-24.42s5.71-12.23,0-16.72c0,0-7.34-5.71-8.56-1.22,0,.41-1.22,5.3,4.89,8.16l-.82,37.52,13.87,22.43,9.38-2.45,8.93-23.29Z" fill="#f2b3c1"></path>
        <path d="M280.27,471.34l-14.14-22.87v-.15s.81-37.2,.81-37.2c-2.63-1.31-5.5-3.79-4.9-8.34l.03-.26c.27-1,.84-1.66,1.68-1.94,2.68-.89,7.17,2.51,7.67,2.9,5.47,4.3,1.21,14.9,.3,16.98l27.68,24.41-9.15,23.86-9.99,2.6Zm-13.13-23.15l13.59,21.99,8.77-2.29,8.72-22.73-27.72-24.44,.16-.34c.06-.12,5.48-11.93,.14-16.12-1.25-.97-4.89-3.35-6.74-2.74-.5,.17-.84,.56-1.02,1.21,0,.04-.01,.1-.02,.17-.54,4.12,2.22,6.32,4.63,7.45l.29,.14-.82,37.7Z" fill="#002346"></path>
      </g>
      <g>
        <ellipse cx="468.71" cy="342.91" rx="9.18" ry="12.85" fill="#f1f2f2"></ellipse>
        <path d="M468.71,356.26c-5.33,0-9.68-5.99-9.68-13.35s4.34-13.35,9.68-13.35,9.68,5.99,9.68,13.35-4.34,13.35-9.68,13.35Zm0-25.69c-4.78,0-8.68,5.54-8.68,12.35s3.89,12.35,8.68,12.35,8.68-5.54,8.68-12.35-3.89-12.35-8.68-12.35Z" fill="#002346"></path>
      </g>
      <g>
        <ellipse cx="472.28" cy="344.7" rx="8.69" ry="4.08" transform="translate(33.05 730.64) rotate(-77.43)" fill="#293838"></ellipse>
        <path d="M470.81,353.73c-.18,0-.36-.02-.53-.06-2.51-.56-3.59-4.94-2.47-9.97,.52-2.34,1.44-4.44,2.6-5.94,1.23-1.6,2.62-2.32,3.87-2.04,2.51,.56,3.59,4.94,2.47,9.97-1.04,4.68-3.57,8.03-5.94,8.03Zm2.94-17.06c-.79,0-1.7,.6-2.55,1.71-1.07,1.38-1.92,3.35-2.41,5.54-1.07,4.78,.02,8.4,1.71,8.78,1.7,.37,4.21-2.44,5.28-7.22,1.07-4.78-.02-8.4-1.71-8.78-.1-.02-.21-.03-.31-.03Z" fill="#002346"></path>
      </g>
      <g>
        <path d="M242.17,410.81s5.01-2.65,6.01-5.95c.46-1.53-.4-3.15-1.96-3.47-1.42-.29-3.79,.06-7.7,2.3-1.47,.85-2.56,2.28-2.83,3.96s.15,3.57,2.8,4.79c0,0-9.38,13.46,1.22,11.83,0,0-4.89,11.83,2.45,11.01,0,0-8.56,7.34-2.85,8.16,0,0,10.6,1.22,9.38-3.67,0,0,.82-.82-4.08-2.04l-.67-4.28s6.66-5.47,5.35-9.52c-.13-.39-.42-.72-.79-.9-.77-.38-2.4-.76-5.52,.02l-.26-2.3s5.16-3,3.93-7.08c0,0-.82-2.85-4.49-2.85Z" fill="#f2b3c1"></path>
        <path d="M241.98,444.08c-1.47,0-2.61-.13-2.73-.14-1.3-.19-2.08-.71-2.33-1.55-.57-1.96,2.32-5.06,3.94-6.6-1.03-.12-1.83-.55-2.38-1.29-1.84-2.45-.24-7.65,.47-9.64-2.14,.19-3.58-.3-4.3-1.45-1.81-2.9,1.88-8.94,3.11-10.79-2.54-1.4-2.81-3.5-2.57-5.06,.28-1.78,1.4-3.36,3.07-4.32,3.41-1.96,6.12-2.75,8.05-2.36,.86,.18,1.58,.69,2.03,1.45,.47,.79,.58,1.76,.31,2.66-.73,2.4-3.36,4.43-4.97,5.48,2.74,.66,3.44,3.02,3.45,3.04,1.16,3.87-2.76,6.75-3.88,7.47l.16,1.43c2.84-.62,4.45-.28,5.31,.15,.5,.24,.88,.68,1.05,1.19,1.28,3.93-4.1,8.85-5.29,9.88l.58,3.68c3.41,.88,4.02,1.57,4.16,2.08,.04,.15,.04,.29,0,.42,.2,.97,0,1.79-.59,2.46-1.31,1.49-4.37,1.79-6.64,1.79Zm1.65-9.39l-1.14,.98c-2,1.72-5.03,4.99-4.6,6.44,.12,.43,.63,.71,1.5,.84,1.85,.21,7,.39,8.5-1.32,.4-.46,.51-1.02,.33-1.74l-.07-.27,.03-.03c-.23-.21-1.03-.71-3.67-1.37l-.32-.08-.54-3.45Zm-3.11-11.04l-.34,.82c-.79,1.91-2.49,7.33-.9,9.44,.56,.74,1.48,1.03,2.83,.88l1.51-.17-.21-1.38,.22-.18c.06-.05,6.38-5.31,5.19-8.98-.08-.26-.28-.48-.54-.6-.62-.31-2.12-.71-5.18,.06l-.55,.14-.37-3.19,.28-.17s4.8-2.85,3.71-6.5c-.03-.11-.78-2.5-4.01-2.5h-2.01l1.78-.94s4.84-2.6,5.77-5.66c.19-.63,.11-1.31-.21-1.86-.3-.51-.79-.86-1.37-.98-1.16-.24-3.37-.04-7.35,2.24-1.41,.81-2.35,2.12-2.58,3.61-.3,1.92,.55,3.35,2.52,4.26l.54,.25-.34,.49c-1.43,2.05-4.83,7.88-3.4,10.16,.57,.92,1.97,1.22,4.14,.89l.88-.13Z" fill="#002346"></path>
      </g>
      <path d="M428.54,358.7s-.1,0-.15-.02c-.37-.11-9.21-2.94-18.49-14.99-.17-.22-.13-.53,.09-.7,.22-.17,.53-.13,.7,.09,9.08,11.77,17.91,14.62,18,14.64,.26,.08,.41,.36,.33,.62-.07,.21-.26,.35-.48,.35Z" fill="#002346"></path>
      <path d="M254.2,481.59c-.19,0-.38-.11-.46-.3-.11-.25,0-.55,.25-.66,.2-.09,20.5-9.03,34.14-12.39,.27-.07,.54,.1,.61,.37s-.1,.54-.37,.6c-13.55,3.35-33.77,12.25-33.97,12.34-.07,.03-.13,.04-.2,.04Z" fill="#002346"></path>
      <path d="M495.55,475.41c-.07,0-.14-.01-.2-.04-21.14-9.28-58.73-13.85-59.11-13.89-.27-.03-.47-.28-.44-.56,.03-.28,.29-.47,.56-.44,.38,.05,38.12,4.63,59.39,13.97,.25,.11,.37,.41,.26,.66-.08,.19-.27,.3-.46,.3Z" fill="#002346"></path>
      <g>
        <path d="M345.11,414.92c-.4,.08-1.32,.34-2.74,1.31-.5,.34-.77,.94-.68,1.54l5.06,33.46c.02,.1,.04,.2,.08,.3l2.83,7.78c.23,.63,.83,1.04,1.49,1.03l36.98-.39c.16,0,.33-.03,.48-.08l7.31-2.44c.62-.21,1.04-.77,1.07-1.42l1.15-25.65c.02-.38-.11-.76-.35-1.06l-11.13-13.72c-.21-.26-.49-.44-.82-.53l-3.5-.93c-.18-.05-.36-.06-.54-.05l-21.04,1.81c-.08,0-.16,0-.24,0l-14.33-1.16c-.13,0-.96,.15-1.08,.18Z" fill="#293838"></path>
        <path d="M351.13,460.85c-.87,0-1.65-.55-1.95-1.36l-2.83-7.78c-.05-.12-.08-.26-.1-.4l-5.06-33.46c-.12-.78,.23-1.58,.89-2.03,1.49-1.01,2.48-1.3,2.93-1.39l.09,.49-.06-.5c1-.19,1.1-.18,1.18-.18l14.33,1.16s.1,0,.16,0l21.04-1.81c.24-.02,.48,0,.71,.06l3.5,.93c.42,.11,.8,.36,1.08,.7l11.13,13.72c.32,.39,.48,.89,.46,1.4l-1.15,25.65c-.04,.85-.6,1.6-1.41,1.87l-7.31,2.44c-.2,.07-.42,.1-.63,.11l-36.98,.39h-.02Zm-4.98-45.61s-.14,.02-.92,.16h-.03c-.31,.06-1.17,.3-2.56,1.24-.34,.23-.53,.65-.47,1.05l5.06,33.46c.01,.07,.03,.14,.05,.2l2.83,7.78c.15,.42,.56,.71,1.01,.71h.01l36.98-.39c.11,0,.22-.02,.33-.05l7.31-2.44c.42-.14,.71-.53,.73-.97l1.15-25.65c.01-.26-.07-.52-.24-.72l-11.13-13.72c-.14-.17-.34-.3-.56-.36l-3.5-.93c-.12-.03-.24-.04-.37-.03l-21.04,1.81c-.11,0-.21,0-.32,0l-14.33-1.16Zm-1.04-.32l-.09-.49h0l.09,.49Z" fill="#002346"></path>
      </g>
      <g>
        <path d="M339.23,418.15s4.49-3.26,7.34-1.22c0,0,9.38,6.53,11.83,24.47,0,0,2.04,9.79-7.75,7.75v6.93s1.87-.62,4.25,.59c1.06,.54,2.14,1.03,3.29,1.34,2.71,.72,7.72,1.68,14.25,1.29,3.84-.23,7.59-1.19,11.18-2.59,2.08-.82,5.09-1.52,8.22-.62,0,0,0-18.76,1.22-22.43,0,0-2.85-2.85-5.71-12.23,0,0-.74-4.22-2.78-6.67,0,0,10.93,.55,16.24,4.63,0,0,8.22-11.31,19.02-1.26,2.05,1.91,3.68,4.21,4.98,6.69,1.46,2.81,3.4,7.21,4.55,12.51l16.31-5.71s18.35-9.38,28.14,2.04c0,0,10.52,11.27,12.45,25.51,.15,1.1,.15,2.21-.01,3.31-.44,2.91-1.55,9.34-3.26,12.69-.98,1.92-3.85,1.32-3.93-.84-.06-1.62,.38-4.11,1.9-7.95,.03-.07-.06-.14-.11-.07-.96,1.37-3.84,5.84-4.18,10.58,0,0,.41,6.12-4.08,2.45,0,0-3.06,4.43-4.84-.72-.31-.9-.47-1.85-.52-2.8l-.35-7.09s-2.04-.41-2.04-7.75c0,0,.36-8.76-1.67-10.74-.25-.25-.65-.26-.93-.05-.53,.41-1.44,1.52-2.72,4.53-.14,.33-.36,.87-.48,1.21-.33,.92-1.75,4.18-5.27,4.67-.92,.13-1.64-.75-1.34-1.63,.73-2.12,1.61-5.78,.5-9.92l-21.63-2.01c-.21-.02-.37,.16-.35,.36,.4,2.97,2.95,21.97,3.7,33.98,0,0,2.85,.82,2.85,2.45,0,0,4.49-1.22,5.71,6.12,0,0,6.12-2.45,6.12,6.93,0,0,4.08-1.22,0,8.16,0,0-1.63,11.83-14.27,18.76,0,0-2.04-.41-6.12,11.83,0,0-5.71,16.72-19.98,11.42,0,0-10.2-4.08-4.89-19.17,0,0,3.26-10.6,1.63-21.61,0,0-2.04-3.26-.82-7.75,0,0,0-6.12-1.63-9.79,0,0-6.12-8.97-2.85-19.58,0,0,1.22-4.49,.41-8.16,0,0-42.41-2.04-58.32,3.67,0,0-.41,10.6-2.45,22.84,0,0-1.63,10.2,.82,19.58,0,0,8.16,22.43-11.42,25.69,0,0-11.83,2.85-15.91-17.13,0,0-1.22-10.6-8.97-17.54,0,0-20.39-14.27-16.31-29.36,0,0-6.53-9.38,2.45-11.83,0,0-2.04-5.71,3.67-6.12,0,0-2.85-8.16,5.71-5.71,0,0,.82-9.79,10.2-6.53,0,0,2.04-10.2,6.93-7.34,0,0-1.22-21.61,9.38-21.61,0,0,6.53-1.22,12.64,8.56Z" fill="#f2b3c1"></path>
        <path d="M414.36,548.57c-1.78,0-3.64-.36-5.56-1.07-.12-.05-10.59-4.44-5.19-19.8,.03-.09,3.18-10.55,1.62-21.28-.34-.59-1.96-3.75-.84-7.98,0-.66-.11-6.19-1.59-9.52-.02-.01-6.17-9.22-2.88-19.93,0-.03,1.09-4.09,.47-7.53-4.27-.18-42.37-1.64-57.42,3.55-.09,1.92-.62,11.65-2.44,22.56-.02,.1-1.58,10.2,.81,19.37,.16,.42,4.08,11.46-.49,19.29-2.2,3.77-6.01,6.14-11.33,7.02-.12,.03-3.72,.86-7.7-1.67-4.23-2.69-7.18-8.02-8.78-15.85-.02-.15-1.3-10.54-8.81-17.26-.79-.55-20.4-14.48-16.52-29.65-.62-.96-3.16-5.18-1.91-8.62,.62-1.71,2.06-2.93,4.28-3.64-.23-.91-.54-2.87,.45-4.39,.65-.99,1.72-1.6,3.2-1.82-.3-1.16-.74-3.7,.66-5.18,1.03-1.1,2.81-1.34,5.28-.73,.22-1.3,.98-4.42,3.5-6.05,1.78-1.16,4.05-1.32,6.75-.49,.39-1.61,1.72-6.24,4.34-7.42,.78-.35,1.59-.38,2.43-.08-.08-3.13-.03-14.12,4.56-18.98,1.47-1.55,3.26-2.34,5.35-2.34,.19-.04,6.64-1.13,12.79,8.36,1.26-.8,4.89-2.78,7.48-.93,.38,.27,9.58,6.85,12.03,24.81,.03,.15,.93,4.61-1.53,7.07-1.36,1.36-3.45,1.82-6.21,1.35v5.72c.81-.11,2.28-.11,3.98,.75,.93,.47,2.03,.99,3.19,1.3,2.43,.64,7.48,1.66,14.09,1.28,3.5-.21,7.21-1.07,11.02-2.56,1.94-.76,4.83-1.48,7.91-.8,.01-3.29,.12-17.81,1.16-21.66-.72-.84-3.17-4.14-5.63-12.21-.02-.1-.75-4.18-2.68-6.5l-.73-.88,1.14,.06c.44,.02,10.64,.58,16.12,4.44,1-1.2,4.28-4.72,9.04-5.18,3.52-.33,7.03,1.09,10.42,4.25,1.97,1.83,3.67,4.13,5.08,6.82,1.4,2.69,3.29,6.94,4.47,12.08l15.78-5.52c.12-.07,18.75-9.4,28.69,2.19,.09,.1,10.63,11.53,12.56,25.77,.16,1.17,.15,2.33-.01,3.45-.51,3.37-1.62,9.52-3.31,12.84-.55,1.08-1.71,1.62-2.87,1.37-1.17-.26-1.96-1.21-2-2.42-.04-1.14,.16-2.52,.58-4.14-.92,1.89-1.8,4.27-1.97,6.72,.02,.25,.17,3.1-1.37,3.89-.82,.42-1.85,.17-3.12-.78-.54,.64-1.66,1.73-2.94,1.55-1.04-.14-1.87-1.09-2.46-2.81-.31-.89-.49-1.88-.54-2.94l-.34-6.78c-.72-.46-2.05-2.11-2.05-8.07,.1-2.4,.02-8.89-1.52-10.38-.07-.07-.19-.07-.27-.01-.4,.31-1.26,1.27-2.56,4.33-.14,.32-.35,.85-.47,1.18-.38,1.04-1.89,4.47-5.67,4.99-.61,.09-1.2-.15-1.59-.62-.39-.47-.5-1.09-.3-1.67,1.1-3.2,1.3-6.33,.58-9.29l-21.05-1.96c.41,3.03,2.89,21.59,3.65,33.45,.75,.26,2.4,.98,2.79,2.25,.61-.04,1.63,.02,2.68,.69,1.47,.94,2.49,2.75,3.01,5.36,.81-.19,2.35-.36,3.71,.56,1.58,1.07,2.42,3.24,2.51,6.45,.41,.02,.89,.16,1.26,.57,1.05,1.18,.63,3.89-1.27,8.28-.17,1.02-2.32,12.37-14.52,19.06l-.16,.09-.11-.02c-.26,.09-2.15,1.08-5.62,11.48-.12,.35-2.94,8.41-9.6,11.57-1.73,.82-3.56,1.23-5.47,1.23Zm-30.86-88.46c9.39,0,16.63,.34,17.34,.37l.38,.02,.08,.37c.83,3.75-.36,8.21-.41,8.4-3.16,10.25,2.73,19.08,2.79,19.16,1.7,3.8,1.72,9.82,1.72,10.07l-.02,.13c-1.15,4.21,.74,7.32,.76,7.35l.07,.19c1.63,11-1.62,21.73-1.65,21.84-5.08,14.45,4.21,18.4,4.6,18.56,3.71,1.38,7.15,1.33,10.24-.13,6.29-2.98,9.05-10.91,9.08-10.99,3.47-10.41,5.56-12.07,6.46-12.16,12.16-6.73,13.89-18.21,13.91-18.33l.04-.13c2.34-5.39,1.81-6.88,1.47-7.27-.31-.36-.85-.21-.87-.21l-.63,.18v-.66c0-3.16-.7-5.24-2.07-6.17-1.49-1.02-3.35-.3-3.37-.29l-.58,.23-.1-.61c-.43-2.61-1.32-4.37-2.64-5.22-1.23-.8-2.39-.51-2.44-.49l-.63,.16v-.65c0-1.02-1.85-1.78-2.5-1.97l-.34-.1-.02-.35c-.76-12.14-3.4-31.74-3.7-33.94-.03-.25,.05-.49,.22-.67,.17-.18,.41-.28,.66-.25l21.99,2.05,.09,.34c.87,3.26,.7,6.7-.51,10.21-.08,.25-.04,.5,.13,.71,.17,.2,.42,.3,.68,.26,3.22-.44,4.54-3.44,4.87-4.34,.12-.34,.35-.9,.49-1.23,1.06-2.49,2.03-4.08,2.88-4.73,.48-.36,1.16-.33,1.58,.09,2.13,2.08,1.86,10.2,1.82,11.12,0,6.58,1.65,7.24,1.67,7.25l.38,.08v.38s.34,7.09,.34,7.09c.05,.96,.21,1.86,.49,2.66,.32,.92,.86,2.03,1.65,2.14,.93,.13,1.97-1.07,2.3-1.55l.31-.44,.42,.34c1.08,.88,1.94,1.23,2.44,.98,.81-.42,.87-2.36,.83-3,.35-4.98,3.35-9.6,4.27-10.9l.25-.36,.47,.19c.26,.14,.37,.45,.26,.72-1.3,3.29-1.93,5.9-1.86,7.75,.03,.9,.65,1.35,1.22,1.47,.55,.12,1.35-.02,1.77-.84,1.69-3.32,2.81-9.87,3.21-12.54,.15-1.03,.16-2.09,.01-3.17-1.89-13.92-12.21-25.13-12.32-25.24-9.44-11.01-27.37-2.03-27.55-1.94l-16.91,5.92-.12-.55c-1.15-5.28-3.08-9.65-4.51-12.39-1.35-2.6-2.99-4.8-4.87-6.55-3.17-2.95-6.4-4.29-9.63-3.99-5.17,.49-8.61,5.12-8.64,5.17l-.3,.41-.41-.31c-4.16-3.2-12.04-4.19-14.89-4.45,1.61,2.51,2.2,5.85,2.23,6,2.76,9.04,5.54,11.94,5.57,11.97l.22,.22-.1,.29c-1.18,3.55-1.2,22.09-1.2,22.27v.66l-.64-.18c-3.04-.87-5.98-.15-7.9,.61-3.91,1.53-7.72,2.42-11.33,2.63-6.4,.38-11.37-.5-14.41-1.31-1.25-.33-2.42-.88-3.39-1.38-2.15-1.09-3.8-.58-3.87-.56l-.65,.21v-8.23s.6,.13,.6,.13c2.72,.56,4.7,.24,5.9-.97,2.08-2.08,1.26-6.15,1.25-6.19-2.39-17.52-11.53-24.1-11.62-24.16-2.53-1.81-6.72,1.19-6.76,1.22l-.43,.31-.28-.45c-5.84-9.34-12.06-8.35-12.13-8.34-1.89,0-3.44,.69-4.71,2.03-4.98,5.27-4.27,18.93-4.26,19.06l.05,.93-.8-.47c-.83-.49-1.58-.57-2.3-.24-2.65,1.19-3.88,7.19-3.89,7.25l-.11,.56-.54-.19c-2.63-.92-4.79-.84-6.41,.21-2.75,1.79-3.12,5.84-3.12,5.88l-.05,.61-.59-.17c-2.38-.68-4-.58-4.83,.31-1.39,1.47-.28,4.73-.27,4.76l.21,.62-.65,.05c-1.46,.1-2.49,.59-3.04,1.44-1.04,1.59-.2,3.99-.19,4.01l.18,.51-.52,.14c-2.17,.59-3.54,1.65-4.09,3.16-1.21,3.34,1.89,7.86,1.92,7.9l.13,.19-.06,.22c-3.94,14.58,15.92,28.68,16.12,28.82,7.85,7.02,9.13,17.45,9.18,17.89,1.53,7.49,4.33,12.6,8.3,15.15,3.62,2.31,6.96,1.56,6.99,1.55,5.04-.84,8.62-3.04,10.66-6.54,4.34-7.43,.44-18.38,.4-18.49-2.46-9.42-.86-19.72-.84-19.83,2.01-12.06,2.44-22.67,2.44-22.78v-.34s.33-.11,.33-.11c9.36-3.36,27.54-4.07,41.18-4.07Zm97.76,6.48s0,0,0,0c0,0,0,0,0,0Z" fill="#002346"></path>
      </g>
      <g>
        <path d="M384.5,444.26c-3.26,.82-7.75-3.26-7.75-3.26l-15.5-15.91c-9.46-10.65-15.98-10.16-16.4-10.12,0,0,0,0,0-.01,1.16-.88,2.26-2.5,2.54-4.12,.54-3.12-.11-6.33-1.66-9.08l-5.69-10.11-1.22-5.71,9.38,3.67,18.76,11.83,.09,.15,2.81,4.49c.16,.26,.33,.51,.5,.75,1.81,2.61,4.28,4.71,7.19,6,2.32,1.02,4.13,1.22,4.45,1.25,.03,0,.06,.02,.08,.05,2.43,4.1,4.05,13.82,4.05,13.82,1.63,15.5-1.63,16.31-1.63,16.31Z" fill="#f2b3c1"></path>
        <path d="M383.59,444.86c-3.29,0-7-3.34-7.18-3.5l-15.52-15.93c-9.36-10.53-15.72-9.99-15.99-9.97l-.37,.04-.3-.71,.31-.24c.96-.73,2.07-2.19,2.34-3.81,.5-2.91-.06-6.02-1.6-8.75l-5.74-10.25-1.42-6.62,10.25,4.01,18.94,11.93,2.96,4.73c.16,.25,.32,.49,.48,.73,1.8,2.59,4.22,4.61,6.99,5.83,2.24,.99,3.97,1.18,4.29,1.21l.25,.02,.21,.26c2.45,4.14,4.05,13.6,4.12,14,1.6,15.19-1.39,16.73-2,16.88h0c-.33,.08-.68,.12-1.03,.12Zm-37.52-30.36c2.47,.27,8.12,1.88,15.55,10.25l15.48,15.89s4.27,3.85,7.24,3.13c.16-.09,2.76-1.72,1.28-15.78-.01-.07-1.58-9.37-3.88-13.45-.63-.08-2.32-.36-4.4-1.27-2.94-1.3-5.5-3.43-7.4-6.17-.18-.25-.35-.51-.51-.77l-2.84-4.54-18.66-11.76-8.43-3.29,1.01,4.73,5.65,10.04c1.65,2.93,2.26,6.27,1.71,9.41-.21,1.24-.9,2.57-1.81,3.58Z" fill="#002346"></path>
      </g>
      <path d="M370.36,406.82c-2.7,.44-9.09,.68-13.8-5.59l10.49,.35,2.81,4.49c.16,.26,.33,.51,.5,.75Z" fill="#002346"></path>
      <g>
        <rect x="338.65" y="350.88" width="36.06" height="54.94" rx="18.03" ry="18.03" transform="translate(-154.94 285.52) rotate(-36.4)" fill="#f2b3c1"></rect>
        <path d="M362.3,404.47c-5.69,0-11.31-2.61-14.94-7.53l-11.2-15.19c-2.94-3.98-4.15-8.87-3.41-13.77,.74-4.89,3.34-9.21,7.33-12.15,3.98-2.94,8.87-4.15,13.77-3.41,4.89,.74,9.21,3.34,12.15,7.33l11.2,15.19c6.06,8.22,4.31,19.85-3.92,25.91h0c-3.3,2.44-7.16,3.61-10.98,3.61Zm-11.26-51.25c-3.72,0-7.32,1.18-10.37,3.42-3.77,2.78-6.23,6.86-6.93,11.49-.7,4.63,.45,9.26,3.22,13.02l11.2,15.19c5.74,7.78,16.74,9.44,24.52,3.71h0c7.78-5.74,9.44-16.73,3.71-24.52l-11.2-15.19c-2.78-3.77-6.86-6.23-11.49-6.93-.89-.13-1.78-.2-2.66-.2Z" fill="#002346"></path>
      </g>
      <path d="M376.79,375.24s4.44-1.54,.36-9.29c0,0,5.3-1.63,.41-7.34,0,0,4.49-5.3-3.26-8.56,0,0,2.04-8.16-8.16-6.93,0,0,.41-6.93-7.75-4.08,0,0-4.89-6.93-11.42-.41,0,0-4.08-5.71-9.79-.41,0,0-6.93-4.49-9.79,2.04,0,0-9.79-3.26-10.6,5.71,0,0-10.2-.82-8.16,10.6,0,0-6.12,2.45-3.26,8.97,0,0-6.12,4.08-1.22,11.42,0,0-2.85,6.12,2.45,9.79,0,0-1.22,6.53,5.3,6.53,0,0-1.63,6.53,4.89,6.93,0,0,.41,4.49,7.34,2.85,0,0,2.85,5.71,8.97,0,0,0,.82,1.63,4.89,.82,0,0,2.91,6.35,8.59-.5l-6.41-11.3-1.98-8.39s3.47-3.47-.61-8.36c0,0,4.49-2.45,.41-6.53,0,0,4.08-1.22,3.67-4.89,0,0-1.63-4.89,4.89-3.67,0,0,2.54,.56,3.63-2.06,.84-2.02,2.96-3.23,5.13-3,2.42,.25,5.81,1.44,10.27,4.87l11.2,15.19Z" fill="#002346"></path>
      <g>
        <ellipse cx="334.71" cy="387.21" rx="6.5" ry="7.54" transform="translate(-171.63 312.5) rotate(-40.77)" fill="#f2b3c1"></ellipse>
        <path d="M335.75,394.83c-.36,0-.73-.03-1.11-.08-1.98-.3-3.83-1.35-5.23-2.97-2.9-3.36-2.88-8.14,.05-10.66,2.92-2.52,7.65-1.83,10.55,1.52h0c1.39,1.62,2.16,3.61,2.16,5.61,0,2.03-.78,3.82-2.21,5.05-1.16,1-2.63,1.52-4.21,1.52Zm-2.07-14.23c-1.31,0-2.57,.42-3.57,1.28-2.5,2.16-2.48,6.31,.06,9.25,1.24,1.44,2.88,2.37,4.62,2.63,1.71,.25,3.32-.17,4.52-1.21,1.2-1.04,1.86-2.56,1.86-4.29,0-1.76-.68-3.52-1.92-4.96h0c-1.52-1.77-3.61-2.7-5.57-2.7Z" fill="#002346"></path>
      </g>
      <path d="M341.5,510.33c-.22,0-.42-.14-.48-.36-1.75-6.19-6.54-12.68-8.52-15.18-1.03-1.31-1.82-2.55-2.41-3.8-3.18-6.69-3.07-12-2.88-13.98l.03-.31c.08-.79,.16-1.58,.2-2.38,.3-6.18-.81-10.4-3.32-12.53-2.26-1.92-4.92-1.38-4.95-1.37-.27,.06-.54-.11-.59-.38-.06-.27,.11-.54,.38-.59,.13-.03,3.15-.66,5.8,1.57,2.77,2.34,4.01,6.83,3.68,13.35-.04,.81-.12,1.62-.2,2.42l-.03,.31c-.15,1.48-.37,6.8,2.78,13.45,.56,1.18,1.31,2.36,2.29,3.61,2.01,2.55,6.9,9.17,8.7,15.53,.08,.27-.08,.54-.34,.62-.05,.01-.09,.02-.14,.02Z" fill="#002346"></path>
      <path d="M288.03,470.15c-.23,0-.44-.16-.49-.4-.06-.27,.11-.54,.38-.59,1.83-.39,3.05-1.11,3.64-2.13,.64-1.11,.3-2.2,.3-2.21-.44-2.33-.19-3.76,.74-4.42,.76-.53,1.72-.37,2.41-.13-.1-1.02-.11-1.92-.05-2.71,.16-1.98,1.93-3.45,3.92-3.28,.83,.07,1.56-.17,2.17-.71,.58-.51,.95-1.3,1.03-2.21,.14-1.65,.66-2.69,1.52-3.09,1.15-.53,2.4,.34,2.45,.38,1.43,1.14,2.81,1.63,4.15,1.48,1.88-.22,3.04-1.67,3.05-1.69,.11-.14,.28-.21,.47-.19,4.01,.58,6.64-.02,7.81-1.79,2.72-4.12-2.86-13.33-2.92-13.42-.14-.24-.07-.54,.17-.69,.23-.14,.54-.07,.69,.17,.24,.4,5.96,9.84,2.9,14.5-1.37,2.08-4.24,2.85-8.52,2.27-.46,.49-1.69,1.62-3.52,1.84-1.61,.19-3.25-.37-4.88-1.67-.21-.14-.91-.51-1.43-.26-.51,.24-.83,1.02-.94,2.27-.1,1.17-.58,2.19-1.36,2.88-.82,.72-1.83,1.06-2.92,.96-1.45-.12-2.73,.94-2.85,2.37-.08,.93-.03,2.07,.14,3.37,.02,.19-.06,.38-.22,.48-.16,.11-.36,.11-.53,.02-.4-.23-1.57-.73-2.18-.3-.55,.39-.68,1.58-.35,3.35,0,0,.46,1.46-.4,2.95-.74,1.28-2.19,2.15-4.3,2.6-.04,0-.07,.01-.1,.01Z" fill="#002346"></path>
      <path d="M342.49,465.15c-.22,0-.43-.15-.48-.37-2.45-9.44-8.3-15.32-8.36-15.38-.2-.19-.2-.51,0-.71,.19-.2,.51-.2,.71,0,.25,.25,6.11,6.13,8.62,15.84,.07,.27-.09,.54-.36,.61-.04,.01-.08,.02-.12,.02Z" fill="#002346"></path>
      <path d="M339.23,456.9s-.07,0-.1-.01c-.27-.06-.44-.32-.39-.59,.7-3.27-.96-9.33-.98-9.4-.07-.27,.08-.54,.35-.61,.27-.07,.54,.08,.62,.35,.07,.26,1.73,6.36,.99,9.87-.05,.23-.26,.4-.49,.4Z" fill="#002346"></path>
      <path d="M350.5,461.33h0c-.28,0-.5-.23-.49-.51,.41-24.84-10.71-41.7-11.15-42.34-.03-.03-.05-.07-.07-.11-.09-.19-.06-.41,.08-.56,.14-.15,.36-.2,.55-.12,.04,.02,.12,.1,.24,.26h.02s.02,.04,.03,.07c1.91,2.55,11.67,19.71,11.29,42.83,0,.27-.23,.49-.5,.49Z" fill="#002346"></path>
      <path d="M400.81,461.48c-.27,0-.49-.21-.5-.48-.1-2.89-.89-4.66-1.54-5.63-1.24-1.86-1.9-3.76-1.96-5.64-.1-2.84,.86-4.36,.9-4.43,.15-.23,.46-.3,.69-.15,.23,.15,.3,.46,.15,.69h0s-.83,1.35-.74,3.86c.06,1.69,.66,3.41,1.79,5.12,.72,1.08,1.59,3.02,1.71,6.15,0,.28-.21,.51-.48,.52,0,0-.01,0-.02,0Z" fill="#002346"></path>
      <path d="M446.32,505.08c-.91,0-1.66-.21-2.25-.62-1.21-.85-1.24-2.23-1.24-2.29,.3-1.74,.04-2.48-.23-2.81-.2-.24-.5-.37-.88-.38-1.11-.03-2.04-.29-2.75-.8-1.66-1.18-1.49-2.57-1.4-2.99-.13-1.26-.47-2.07-.96-2.28-.52-.22-1.23,.21-1.47,.39-1.65,1.09-2.86,1.39-3.75,.94-.71-.36-1.11-1.17-1.17-2.33-.04-.71-.18-1.28-.45-1.74-.34-.6-.73-.9-1.19-.91-1.19-.06-2.8,1.82-3.3,2.55-2.87,4.03-5.71,6.03-8.39,5.93-2.99-.11-4.63-2.74-4.7-2.86-.14-.24-.07-.54,.17-.69,.24-.14,.54-.07,.69,.16,.01,.02,1.44,2.3,3.89,2.38,2.33,.08,4.87-1.77,7.52-5.5,.21-.31,2.14-3.05,4.16-2.98,.82,.03,1.5,.51,2.02,1.41,.35,.6,.54,1.32,.58,2.19,.02,.45,.13,1.24,.62,1.49,.52,.26,1.48-.04,2.71-.86,.01-.01,1.26-1.01,2.44-.5,.89,.38,1.42,1.45,1.58,3.2,0,.07,0,.14-.03,.21-.01,.04-.31,1.04,1,1.97,.55,.39,1.27,.59,2.19,.61,.68,.02,1.24,.27,1.63,.75,.59,.72,.74,1.9,.45,3.52,0,0,0,0,0,0,.01,0,.07,.87,.83,1.4,.91,.63,2.5,.57,4.62-.17,.26-.09,.55,.05,.64,.31,.09,.26-.05,.55-.31,.64-1.25,.44-2.35,.66-3.29,.66Z" fill="#002346"></path>
      <path d="M405.19,544.51c-.2,0-.38-.12-.46-.31-4.62-11.14,2.17-17.98,4.36-19.81,.81-.68,1.39-1.28,1.83-1.89,1.63-2.28,1.48-4.11,1.24-5-.27-1-.42-2.04-.47-3.09-.28-6.64,3.68-8.54,3.85-8.62,.25-.11,.55,0,.66,.24s0,.55-.24,.66c-.16,.07-3.52,1.74-3.27,7.67,.04,.98,.19,1.94,.44,2.87,.28,1.06,.48,3.23-1.39,5.84-.49,.68-1.13,1.34-2,2.08-2.06,1.72-8.43,8.15-4.08,18.66,.11,.26-.02,.55-.27,.65-.06,.03-.13,.04-.19,.04Z" fill="#002346"></path>
      <path d="M405.7,506.74c-.19,0-.37-.11-.45-.29-.09-.2-2.18-4.92,2.33-9.96,.34-1.63,3.46-15.45,10.58-17.74,2.74-.88,5.69,.05,8.77,2.78,.52-.6,1.6-1.61,3.19-1.91,1.55-.29,3.18,.16,4.83,1.34,.22,.16,.28,.47,.12,.7-.16,.23-.48,.27-.7,.12-1.42-1.02-2.79-1.41-4.05-1.18-1.84,.34-2.9,1.92-2.91,1.94-.08,.12-.21,.2-.36,.22-.15,.02-.29-.03-.4-.13-2.95-2.74-5.71-3.72-8.19-2.93-6.85,2.21-9.9,16.97-9.93,17.12-.02,.09-.06,.17-.12,.24-4.17,4.57-2.33,8.8-2.25,8.98,.11,.25,0,.55-.25,.66-.07,.03-.14,.05-.21,.05Z" fill="#002346"></path>
      <path d="M452.94,449.54c-.19,0-.38-.11-.46-.3l-2.94-6.71c-.11-.25,0-.55,.26-.66,.25-.11,.55,0,.66,.26l2.94,6.71c.11,.25,0,.55-.26,.66-.06,.03-.13,.04-.2,.04Z" fill="#002346"></path>
      <path d="M483.66,453.41c-.17,0-.34-.09-.43-.25-2.2-3.76-3.85-4.68-4.85-4.79-.82-.1-1.27,.38-1.29,.4-.13,.14-.33,.19-.51,.14-.18-.05-.32-.2-.35-.39-.34-1.86-1.01-2.98-1.98-3.32-1.39-.5-3.22,.69-3.81,1.18-.11,.09-.26,.14-.4,.11-.14-.02-.27-.11-.35-.23-1.1-1.8-2.24-2.72-3.37-2.72,0,0-.01,0-.02,0-1.73,.02-3.01,2.17-3.03,2.19-.14,.24-.44,.32-.68,.18-.24-.14-.32-.44-.18-.68,.06-.11,1.58-2.66,3.87-2.68,1.4-.03,2.73,.9,3.96,2.73,.83-.57,2.67-1.62,4.34-1.02,1.17,.42,2,1.55,2.46,3.35,.35-.16,.82-.29,1.4-.23,1.79,.18,3.69,1.96,5.64,5.29,.14,.24,.06,.54-.18,.68-.08,.05-.17,.07-.25,.07Z" fill="#002346"></path>
      <path d="M467.42,469.31c-.42,0-.71-.11-.73-.12-.26-.1-.38-.39-.28-.65,.1-.26,.39-.38,.64-.28,.03,.01,.65,.22,1.29-.29,.95-.76,2.38-3.45,1.17-12.87-.04-.27,.16-.52,.43-.56,.27-.03,.52,.16,.56,.43,.97,7.59,.44,12.23-1.57,13.8-.55,.43-1.1,.53-1.51,.53Z" fill="#002346"></path>
      <path d="M472.59,479.83c-.26,0-.48-.2-.5-.46,0-.07-.57-7.17,1.42-15.16,.07-.27,.33-.43,.61-.36,.27,.07,.43,.34,.36,.61-1.96,7.82-1.4,14.77-1.4,14.84,.02,.28-.18,.52-.46,.54-.01,0-.03,0-.04,0Z" fill="#002346"></path>
    </g>
  </g>
  <g>
    <ellipse cx="710" cy="314" rx="10" ry="8" transform="translate(168.33 870.14) rotate(-69.61)" fill="#f2b3c1"></ellipse>
    <path d="M708.79,324.28c-.83,0-1.65-.14-2.45-.44-4.39-1.63-6.33-7.38-4.31-12.8,2.02-5.43,7.23-8.51,11.62-6.88,4.39,1.63,6.33,7.38,4.31,12.8h0c-1.65,4.44-5.45,7.32-9.18,7.32Zm2.41-19.56c-3.32,0-6.73,2.63-8.23,6.67-1.83,4.91-.16,10.08,3.72,11.52,3.88,1.44,8.51-1.38,10.34-6.29s.16-10.08-3.72-11.52c-.69-.25-1.4-.38-2.11-.38Z" fill="#002346"></path>
  </g>
  <g>
    <path d="M691.55,344.23s7.43,.93,11.94-7.15" fill="#f2b3c1"></path>
    <path d="M692.19,344.76c-.43,0-.69-.03-.7-.03l.12-.99c.29,.03,7.16,.78,11.44-6.9l.87,.49c-3.8,6.81-9.72,7.43-11.74,7.43Z" fill="#002346"></path>
  </g>
</svg>
